%TF.GenerationSoftware,KiCad,Pcbnew,(6.0.0)*%
%TF.CreationDate,2022-01-15T22:09:41-05:00*%
%TF.ProjectId,Impedance_Analyzer_V2,496d7065-6461-46e6-9365-5f416e616c79,rev?*%
%TF.SameCoordinates,Original*%
%TF.FileFunction,Soldermask,Bot*%
%TF.FilePolarity,Negative*%
%FSLAX46Y46*%
G04 Gerber Fmt 4.6, Leading zero omitted, Abs format (unit mm)*
G04 Created by KiCad (PCBNEW (6.0.0)) date 2022-01-15 22:09:41*
%MOMM*%
%LPD*%
G01*
G04 APERTURE LIST*
G04 Aperture macros list*
%AMRoundRect*
0 Rectangle with rounded corners*
0 $1 Rounding radius*
0 $2 $3 $4 $5 $6 $7 $8 $9 X,Y pos of 4 corners*
0 Add a 4 corners polygon primitive as box body*
4,1,4,$2,$3,$4,$5,$6,$7,$8,$9,$2,$3,0*
0 Add four circle primitives for the rounded corners*
1,1,$1+$1,$2,$3*
1,1,$1+$1,$4,$5*
1,1,$1+$1,$6,$7*
1,1,$1+$1,$8,$9*
0 Add four rect primitives between the rounded corners*
20,1,$1+$1,$2,$3,$4,$5,0*
20,1,$1+$1,$4,$5,$6,$7,0*
20,1,$1+$1,$6,$7,$8,$9,0*
20,1,$1+$1,$8,$9,$2,$3,0*%
G04 Aperture macros list end*
%ADD10RoundRect,0.150000X-0.825000X-0.150000X0.825000X-0.150000X0.825000X0.150000X-0.825000X0.150000X0*%
%ADD11RoundRect,0.250000X0.312500X0.625000X-0.312500X0.625000X-0.312500X-0.625000X0.312500X-0.625000X0*%
%ADD12R,3.000000X3.000000*%
%ADD13C,3.000000*%
%ADD14C,3.556000*%
%ADD15C,3.810000*%
%ADD16R,1.600000X1.600000*%
%ADD17O,1.600000X1.600000*%
%ADD18C,1.600000*%
%ADD19R,3.500000X3.500000*%
%ADD20RoundRect,0.750000X-0.750000X-1.000000X0.750000X-1.000000X0.750000X1.000000X-0.750000X1.000000X0*%
%ADD21RoundRect,0.875000X-0.875000X-0.875000X0.875000X-0.875000X0.875000X0.875000X-0.875000X0.875000X0*%
%ADD22O,0.800000X0.800000*%
%ADD23O,1.150000X1.800000*%
%ADD24O,1.450000X2.000000*%
%ADD25R,1.905000X2.000000*%
%ADD26O,1.905000X2.000000*%
%ADD27C,8.600000*%
%ADD28C,4.000000*%
%ADD29C,1.524000*%
%ADD30R,1.700000X1.700000*%
%ADD31O,1.700000X1.700000*%
%ADD32RoundRect,0.250000X-0.475000X0.250000X-0.475000X-0.250000X0.475000X-0.250000X0.475000X0.250000X0*%
%ADD33RoundRect,0.250000X0.250000X0.475000X-0.250000X0.475000X-0.250000X-0.475000X0.250000X-0.475000X0*%
%ADD34RoundRect,0.250000X-0.925000X0.875000X-0.925000X-0.875000X0.925000X-0.875000X0.925000X0.875000X0*%
%ADD35RoundRect,0.250000X-0.875000X-0.925000X0.875000X-0.925000X0.875000X0.925000X-0.875000X0.925000X0*%
%ADD36R,1.800000X2.500000*%
G04 APERTURE END LIST*
D10*
%TO.C,U6*%
X130775000Y-117695000D03*
X130775000Y-116425000D03*
X130775000Y-115155000D03*
X130775000Y-113885000D03*
X130775000Y-112615000D03*
X130775000Y-111345000D03*
X130775000Y-110075000D03*
X130775000Y-108805000D03*
X135725000Y-108805000D03*
X135725000Y-110075000D03*
X135725000Y-111345000D03*
X135725000Y-112615000D03*
X135725000Y-113885000D03*
X135725000Y-115155000D03*
X135725000Y-116425000D03*
X135725000Y-117695000D03*
%TD*%
D11*
%TO.C,R26*%
X128212500Y-110500000D03*
X125287500Y-110500000D03*
%TD*%
%TO.C,R25*%
X128175000Y-112750000D03*
X125250000Y-112750000D03*
%TD*%
%TO.C,R24*%
X128212500Y-115000000D03*
X125287500Y-115000000D03*
%TD*%
%TO.C,R23*%
X128250000Y-117250000D03*
X125325000Y-117250000D03*
%TD*%
D12*
%TO.C,J17*%
X119170000Y-57000000D03*
D13*
X124250000Y-57000000D03*
X129330000Y-57000000D03*
%TD*%
D14*
%TO.C,J2*%
X78175000Y-86125000D03*
D15*
X75000000Y-82950000D03*
X81350000Y-89300000D03*
X75000000Y-89300000D03*
X81350000Y-82950000D03*
%TD*%
D14*
%TO.C,J6*%
X152500000Y-72750000D03*
D15*
X150254936Y-76638565D03*
X156388565Y-74995064D03*
X148611435Y-70504936D03*
X154745064Y-68861435D03*
%TD*%
D14*
%TO.C,J7*%
X153500000Y-119000000D03*
D15*
X151254936Y-115111435D03*
X149611435Y-121245064D03*
X155745064Y-122888565D03*
X157388565Y-116754936D03*
%TD*%
D16*
%TO.C,U3*%
X126950000Y-108300000D03*
D17*
X126950000Y-105760000D03*
X126950000Y-103220000D03*
X126950000Y-100680000D03*
X119330000Y-100680000D03*
X119330000Y-103220000D03*
X119330000Y-105760000D03*
X119330000Y-108300000D03*
%TD*%
D14*
%TO.C,J5*%
X155500000Y-104000000D03*
D15*
X159085976Y-101297773D03*
X158202227Y-107585976D03*
X151914024Y-106702227D03*
X152797773Y-100414024D03*
%TD*%
D14*
%TO.C,J4*%
X155325000Y-88000000D03*
D15*
X158027227Y-84414024D03*
X152622773Y-91585976D03*
X151739024Y-85297773D03*
X158910976Y-90702227D03*
%TD*%
D16*
%TO.C,U4*%
X138500000Y-91250000D03*
D17*
X138500000Y-88710000D03*
X138500000Y-86170000D03*
X138500000Y-83630000D03*
X130880000Y-83630000D03*
X130880000Y-86170000D03*
X130880000Y-88710000D03*
X130880000Y-91250000D03*
%TD*%
D16*
%TO.C,C4*%
X95000000Y-127000000D03*
D18*
X97500000Y-127000000D03*
%TD*%
D19*
%TO.C,J8*%
X83500000Y-118000000D03*
D20*
X77500000Y-118000000D03*
D21*
X80500000Y-122700000D03*
%TD*%
D22*
%TO.C,J9*%
X88625000Y-137750000D03*
X83625000Y-137750000D03*
D23*
X82250000Y-140500000D03*
X90000000Y-140500000D03*
D24*
X82400000Y-136700000D03*
X89850000Y-136700000D03*
%TD*%
D16*
%TO.C,C6*%
X102000000Y-127000000D03*
D18*
X104500000Y-127000000D03*
%TD*%
D25*
%TO.C,U5*%
X92420000Y-115000000D03*
D26*
X94960000Y-115000000D03*
X97500000Y-115000000D03*
%TD*%
D16*
%TO.C,C7*%
X141152651Y-126500000D03*
D18*
X136152651Y-126500000D03*
%TD*%
D16*
%TO.C,C9*%
X136097349Y-138250000D03*
D18*
X141097349Y-138250000D03*
%TD*%
D27*
%TO.C,H1*%
X150000000Y-57500000D03*
%TD*%
D28*
%TO.C,H2*%
X75000000Y-137500000D03*
%TD*%
%TO.C,H4*%
X150000000Y-137500000D03*
%TD*%
%TO.C,H3*%
X75000000Y-57500000D03*
%TD*%
D14*
%TO.C,J1*%
X78000000Y-68000000D03*
D15*
X74825000Y-64825000D03*
X81175000Y-64825000D03*
X81175000Y-71175000D03*
X74825000Y-71175000D03*
%TD*%
D12*
%TO.C,J11*%
X95500000Y-136500000D03*
D13*
X100580000Y-136500000D03*
X105660000Y-136500000D03*
%TD*%
D29*
%TO.C,Reg1*%
X115000000Y-124380000D03*
X115000000Y-126920000D03*
X115000000Y-134540000D03*
X115000000Y-137080000D03*
X115000000Y-139620000D03*
%TD*%
D30*
%TO.C,J16*%
X94225000Y-80475000D03*
D31*
X96765000Y-80475000D03*
X94225000Y-83015000D03*
X96765000Y-83015000D03*
%TD*%
D30*
%TO.C,J15*%
X89540000Y-65040000D03*
D31*
X87000000Y-65040000D03*
X89540000Y-62500000D03*
X87000000Y-62500000D03*
%TD*%
D30*
%TO.C,J13*%
X129500000Y-105040000D03*
D31*
X129500000Y-102500000D03*
X132040000Y-105040000D03*
X132040000Y-102500000D03*
%TD*%
D30*
%TO.C,J10*%
X119725000Y-112275000D03*
D31*
X119725000Y-114815000D03*
X117185000Y-112275000D03*
X117185000Y-114815000D03*
%TD*%
D14*
%TO.C,J3*%
X78000000Y-104500000D03*
D15*
X81175000Y-101325000D03*
X74825000Y-107675000D03*
X74825000Y-101325000D03*
X81175000Y-107675000D03*
%TD*%
D30*
%TO.C,J12*%
X131775000Y-94225000D03*
D31*
X131775000Y-96765000D03*
X129235000Y-94225000D03*
X129235000Y-96765000D03*
%TD*%
D30*
%TO.C,J14*%
X137775000Y-105040000D03*
D31*
X135235000Y-105040000D03*
X137775000Y-102500000D03*
X135235000Y-102500000D03*
%TD*%
D32*
%TO.C,C20*%
X102000000Y-80300000D03*
X102000000Y-82200000D03*
%TD*%
D33*
%TO.C,C21*%
X125000000Y-101000000D03*
X123100000Y-101000000D03*
%TD*%
D11*
%TO.C,R16*%
X147462500Y-113000000D03*
X144537500Y-113000000D03*
%TD*%
D34*
%TO.C,C12*%
X108500000Y-68950000D03*
X108500000Y-74050000D03*
%TD*%
%TO.C,C11*%
X103750000Y-68950000D03*
X103750000Y-74050000D03*
%TD*%
D35*
%TO.C,C13*%
X140400000Y-102000000D03*
X145500000Y-102000000D03*
%TD*%
%TO.C,C2*%
X140500000Y-106500000D03*
X145600000Y-106500000D03*
%TD*%
D36*
%TO.C,D6*%
X133000000Y-135000000D03*
X133000000Y-131000000D03*
%TD*%
M02*
