%TF.GenerationSoftware,KiCad,Pcbnew,(6.0.0)*%
%TF.CreationDate,2022-01-09T15:16:55-05:00*%
%TF.ProjectId,Impedance_Analyzer_V2,496d7065-6461-46e6-9365-5f416e616c79,rev?*%
%TF.SameCoordinates,Original*%
%TF.FileFunction,Paste,Top*%
%TF.FilePolarity,Positive*%
%FSLAX46Y46*%
G04 Gerber Fmt 4.6, Leading zero omitted, Abs format (unit mm)*
G04 Created by KiCad (PCBNEW (6.0.0)) date 2022-01-09 15:16:55*
%MOMM*%
%LPD*%
G01*
G04 APERTURE LIST*
G04 Aperture macros list*
%AMRoundRect*
0 Rectangle with rounded corners*
0 $1 Rounding radius*
0 $2 $3 $4 $5 $6 $7 $8 $9 X,Y pos of 4 corners*
0 Add a 4 corners polygon primitive as box body*
4,1,4,$2,$3,$4,$5,$6,$7,$8,$9,$2,$3,0*
0 Add four circle primitives for the rounded corners*
1,1,$1+$1,$2,$3*
1,1,$1+$1,$4,$5*
1,1,$1+$1,$6,$7*
1,1,$1+$1,$8,$9*
0 Add four rect primitives between the rounded corners*
20,1,$1+$1,$2,$3,$4,$5,0*
20,1,$1+$1,$4,$5,$6,$7,0*
20,1,$1+$1,$6,$7,$8,$9,0*
20,1,$1+$1,$8,$9,$2,$3,0*%
G04 Aperture macros list end*
%ADD10RoundRect,0.250000X-0.475000X0.250000X-0.475000X-0.250000X0.475000X-0.250000X0.475000X0.250000X0*%
%ADD11RoundRect,0.250000X0.475000X-0.250000X0.475000X0.250000X-0.475000X0.250000X-0.475000X-0.250000X0*%
%ADD12RoundRect,0.249998X0.312502X0.625002X-0.312502X0.625002X-0.312502X-0.625002X0.312502X-0.625002X0*%
%ADD13RoundRect,0.249998X-0.312502X-0.625002X0.312502X-0.625002X0.312502X0.625002X-0.312502X0.625002X0*%
%ADD14R,2.500000X1.800000*%
%ADD15R,1.800000X2.500000*%
%ADD16RoundRect,0.249998X0.262502X0.450002X-0.262502X0.450002X-0.262502X-0.450002X0.262502X-0.450002X0*%
%ADD17R,0.450000X1.300000*%
%ADD18RoundRect,0.250000X-0.375000X-0.625000X0.375000X-0.625000X0.375000X0.625000X-0.375000X0.625000X0*%
%ADD19RoundRect,0.249998X-0.625002X0.312502X-0.625002X-0.312502X0.625002X-0.312502X0.625002X0.312502X0*%
%ADD20RoundRect,0.249998X0.625002X-0.312502X0.625002X0.312502X-0.625002X0.312502X-0.625002X-0.312502X0*%
%ADD21RoundRect,0.150000X-0.725000X-0.150000X0.725000X-0.150000X0.725000X0.150000X-0.725000X0.150000X0*%
%ADD22RoundRect,0.250000X0.250000X0.475000X-0.250000X0.475000X-0.250000X-0.475000X0.250000X-0.475000X0*%
%ADD23RoundRect,0.250000X-0.250000X-0.475000X0.250000X-0.475000X0.250000X0.475000X-0.250000X0.475000X0*%
%ADD24RoundRect,0.250000X0.625000X-0.375000X0.625000X0.375000X-0.625000X0.375000X-0.625000X-0.375000X0*%
%ADD25RoundRect,0.250000X-0.625000X0.375000X-0.625000X-0.375000X0.625000X-0.375000X0.625000X0.375000X0*%
%ADD26RoundRect,0.150000X0.150000X-0.725000X0.150000X0.725000X-0.150000X0.725000X-0.150000X-0.725000X0*%
%ADD27RoundRect,0.249999X-0.312501X-0.625001X0.312501X-0.625001X0.312501X0.625001X-0.312501X0.625001X0*%
%ADD28RoundRect,0.249999X-0.625001X0.312501X-0.625001X-0.312501X0.625001X-0.312501X0.625001X0.312501X0*%
%ADD29RoundRect,0.150000X-0.150000X0.725000X-0.150000X-0.725000X0.150000X-0.725000X0.150000X0.725000X0*%
%ADD30R,2.450000X5.900000*%
%ADD31RoundRect,0.250000X0.312500X0.625000X-0.312500X0.625000X-0.312500X-0.625000X0.312500X-0.625000X0*%
%ADD32RoundRect,0.250000X0.625000X-0.312500X0.625000X0.312500X-0.625000X0.312500X-0.625000X-0.312500X0*%
%ADD33RoundRect,0.250000X-0.625000X0.312500X-0.625000X-0.312500X0.625000X-0.312500X0.625000X0.312500X0*%
%ADD34RoundRect,0.250000X-0.312500X-0.625000X0.312500X-0.625000X0.312500X0.625000X-0.312500X0.625000X0*%
G04 APERTURE END LIST*
D10*
%TO.C,C25*%
X94250000Y-85300000D03*
X94250000Y-87200000D03*
%TD*%
D11*
%TO.C,C16*%
X89500000Y-60250000D03*
X89500000Y-58350000D03*
%TD*%
D12*
%TO.C,R5*%
X89462500Y-104500000D03*
X86537500Y-104500000D03*
%TD*%
%TO.C,R6*%
X89462500Y-86000000D03*
X86537500Y-86000000D03*
%TD*%
D13*
%TO.C,R7*%
X122987500Y-115050000D03*
X125912500Y-115050000D03*
%TD*%
D12*
%TO.C,R8*%
X137462500Y-96500000D03*
X134537500Y-96500000D03*
%TD*%
D10*
%TO.C,C5*%
X90450000Y-124100000D03*
X90450000Y-126000000D03*
%TD*%
D14*
%TO.C,D1*%
X98500000Y-119500000D03*
X94500000Y-119500000D03*
%TD*%
D15*
%TO.C,D2*%
X85450000Y-124550000D03*
X85450000Y-128550000D03*
%TD*%
D16*
%TO.C,FB1*%
X90325000Y-119500000D03*
X88500000Y-119500000D03*
%TD*%
D17*
%TO.C,J9*%
X84825000Y-136650000D03*
X85475000Y-136650000D03*
X86125000Y-136650000D03*
X86775000Y-136650000D03*
X87425000Y-136650000D03*
%TD*%
D18*
%TO.C,D3*%
X77700000Y-129000000D03*
X80500000Y-129000000D03*
%TD*%
D12*
%TO.C,R13*%
X75425000Y-129000000D03*
X72500000Y-129000000D03*
%TD*%
D19*
%TO.C,R3*%
X114500000Y-79575000D03*
X114500000Y-82500000D03*
%TD*%
D20*
%TO.C,R2*%
X117000000Y-82462500D03*
X117000000Y-79537500D03*
%TD*%
D10*
%TO.C,C1*%
X96750000Y-87250000D03*
X96750000Y-85350000D03*
%TD*%
D20*
%TO.C,R1*%
X100000000Y-78500000D03*
X100000000Y-75575000D03*
%TD*%
D21*
%TO.C,U1*%
X103950000Y-75660000D03*
X103950000Y-76930000D03*
X103950000Y-78200000D03*
X103950000Y-79470000D03*
X109100000Y-79470000D03*
X109100000Y-78200000D03*
X109100000Y-76930000D03*
X109100000Y-75660000D03*
%TD*%
D22*
%TO.C,C14*%
X101900000Y-72400000D03*
X100000000Y-72400000D03*
%TD*%
%TO.C,C17*%
X116950000Y-106000000D03*
X115050000Y-106000000D03*
%TD*%
D23*
%TO.C,C19*%
X109000000Y-74100000D03*
X110900000Y-74100000D03*
%TD*%
D24*
%TO.C,D4*%
X108000000Y-118400000D03*
X108000000Y-115600000D03*
%TD*%
D25*
%TO.C,D5*%
X105000000Y-115600000D03*
X105000000Y-118400000D03*
%TD*%
D20*
%TO.C,R19*%
X108000000Y-112852500D03*
X108000000Y-109927500D03*
%TD*%
%TO.C,R20*%
X105000000Y-112852500D03*
X105000000Y-109927500D03*
%TD*%
D11*
%TO.C,C22*%
X141500000Y-98950000D03*
X141500000Y-97050000D03*
%TD*%
D22*
%TO.C,C23*%
X138250000Y-81000000D03*
X136350000Y-81000000D03*
%TD*%
D11*
%TO.C,C24*%
X111400000Y-68500000D03*
X111400000Y-66600000D03*
%TD*%
D12*
%TO.C,R9*%
X143962500Y-73500000D03*
X141037500Y-73500000D03*
%TD*%
D21*
%TO.C,BUF1*%
X103825000Y-68495000D03*
X103825000Y-69765000D03*
X103825000Y-71035000D03*
X103825000Y-72305000D03*
X108975000Y-72305000D03*
X108975000Y-71035000D03*
X108975000Y-69765000D03*
X108975000Y-68495000D03*
%TD*%
D26*
%TO.C,BUF2*%
X141095000Y-106125000D03*
X142365000Y-106125000D03*
X143635000Y-106125000D03*
X144905000Y-106125000D03*
X144905000Y-100975000D03*
X143635000Y-100975000D03*
X142365000Y-100975000D03*
X141095000Y-100975000D03*
%TD*%
D27*
%TO.C,R4*%
X104675000Y-65000000D03*
X107600000Y-65000000D03*
%TD*%
D28*
%TO.C,R10*%
X113600000Y-71075000D03*
X113600000Y-74000000D03*
%TD*%
%TO.C,R18*%
X135000000Y-108075000D03*
X135000000Y-111000000D03*
%TD*%
D27*
%TO.C,R21*%
X141365000Y-109975000D03*
X144290000Y-109975000D03*
%TD*%
D29*
%TO.C,U2*%
X144905000Y-114425000D03*
X143635000Y-114425000D03*
X142365000Y-114425000D03*
X141095000Y-114425000D03*
X141095000Y-119575000D03*
X142365000Y-119575000D03*
X143635000Y-119575000D03*
X144905000Y-119575000D03*
%TD*%
D22*
%TO.C,C3*%
X145000000Y-122000000D03*
X143100000Y-122000000D03*
%TD*%
D11*
%TO.C,C10*%
X130500000Y-138900000D03*
X130500000Y-137000000D03*
%TD*%
D30*
%TO.C,L2*%
X127050000Y-130500000D03*
X121500000Y-130500000D03*
%TD*%
D10*
%TO.C,C8*%
X130500000Y-130600000D03*
X130500000Y-132500000D03*
%TD*%
D30*
%TO.C,L1*%
X127050000Y-138500000D03*
X121500000Y-138500000D03*
%TD*%
D10*
%TO.C,C18*%
X146365000Y-107575000D03*
X146365000Y-109475000D03*
%TD*%
D31*
%TO.C,R22*%
X89425000Y-68000000D03*
X86500000Y-68000000D03*
%TD*%
D32*
%TO.C,R17*%
X147000000Y-114500000D03*
X147000000Y-111575000D03*
%TD*%
D11*
%TO.C,C15*%
X87000000Y-58350000D03*
X87000000Y-60250000D03*
%TD*%
D33*
%TO.C,R14*%
X137500000Y-108075000D03*
X137500000Y-111000000D03*
%TD*%
D34*
%TO.C,R15*%
X98575000Y-70000000D03*
X101500000Y-70000000D03*
%TD*%
D31*
%TO.C,R11*%
X125912500Y-112550000D03*
X122987500Y-112550000D03*
%TD*%
%TO.C,R12*%
X137462500Y-94000000D03*
X134537500Y-94000000D03*
%TD*%
M02*
