%TF.GenerationSoftware,KiCad,Pcbnew,(6.0.0)*%
%TF.CreationDate,2022-01-09T15:16:55-05:00*%
%TF.ProjectId,Impedance_Analyzer_V2,496d7065-6461-46e6-9365-5f416e616c79,rev?*%
%TF.SameCoordinates,Original*%
%TF.FileFunction,Soldermask,Top*%
%TF.FilePolarity,Negative*%
%FSLAX46Y46*%
G04 Gerber Fmt 4.6, Leading zero omitted, Abs format (unit mm)*
G04 Created by KiCad (PCBNEW (6.0.0)) date 2022-01-09 15:16:55*
%MOMM*%
%LPD*%
G01*
G04 APERTURE LIST*
G04 Aperture macros list*
%AMRoundRect*
0 Rectangle with rounded corners*
0 $1 Rounding radius*
0 $2 $3 $4 $5 $6 $7 $8 $9 X,Y pos of 4 corners*
0 Add a 4 corners polygon primitive as box body*
4,1,4,$2,$3,$4,$5,$6,$7,$8,$9,$2,$3,0*
0 Add four circle primitives for the rounded corners*
1,1,$1+$1,$2,$3*
1,1,$1+$1,$4,$5*
1,1,$1+$1,$6,$7*
1,1,$1+$1,$8,$9*
0 Add four rect primitives between the rounded corners*
20,1,$1+$1,$2,$3,$4,$5,0*
20,1,$1+$1,$4,$5,$6,$7,0*
20,1,$1+$1,$6,$7,$8,$9,0*
20,1,$1+$1,$8,$9,$2,$3,0*%
G04 Aperture macros list end*
%ADD10R,1.700000X1.700000*%
%ADD11O,1.700000X1.700000*%
%ADD12RoundRect,0.250000X-0.475000X0.250000X-0.475000X-0.250000X0.475000X-0.250000X0.475000X0.250000X0*%
%ADD13RoundRect,0.250000X0.475000X-0.250000X0.475000X0.250000X-0.475000X0.250000X-0.475000X-0.250000X0*%
%ADD14C,3.556000*%
%ADD15C,3.810000*%
%ADD16RoundRect,0.249998X0.312502X0.625002X-0.312502X0.625002X-0.312502X-0.625002X0.312502X-0.625002X0*%
%ADD17RoundRect,0.249998X-0.312502X-0.625002X0.312502X-0.625002X0.312502X0.625002X-0.312502X0.625002X0*%
%ADD18R,1.600000X1.600000*%
%ADD19O,1.600000X1.600000*%
%ADD20C,1.600000*%
%ADD21R,2.500000X1.800000*%
%ADD22R,1.800000X2.500000*%
%ADD23RoundRect,0.249998X0.262502X0.450002X-0.262502X0.450002X-0.262502X-0.450002X0.262502X-0.450002X0*%
%ADD24R,3.500000X3.500000*%
%ADD25RoundRect,0.750000X-0.750000X-1.000000X0.750000X-1.000000X0.750000X1.000000X-0.750000X1.000000X0*%
%ADD26RoundRect,0.875000X-0.875000X-0.875000X0.875000X-0.875000X0.875000X0.875000X-0.875000X0.875000X0*%
%ADD27O,0.800000X0.800000*%
%ADD28R,0.450000X1.300000*%
%ADD29O,1.150000X1.800000*%
%ADD30O,1.450000X2.000000*%
%ADD31RoundRect,0.250000X-0.375000X-0.625000X0.375000X-0.625000X0.375000X0.625000X-0.375000X0.625000X0*%
%ADD32R,1.905000X2.000000*%
%ADD33O,1.905000X2.000000*%
%ADD34RoundRect,0.249998X-0.625002X0.312502X-0.625002X-0.312502X0.625002X-0.312502X0.625002X0.312502X0*%
%ADD35RoundRect,0.249998X0.625002X-0.312502X0.625002X0.312502X-0.625002X0.312502X-0.625002X-0.312502X0*%
%ADD36RoundRect,0.150000X-0.725000X-0.150000X0.725000X-0.150000X0.725000X0.150000X-0.725000X0.150000X0*%
%ADD37RoundRect,0.250000X0.250000X0.475000X-0.250000X0.475000X-0.250000X-0.475000X0.250000X-0.475000X0*%
%ADD38RoundRect,0.250000X-0.250000X-0.475000X0.250000X-0.475000X0.250000X0.475000X-0.250000X0.475000X0*%
%ADD39RoundRect,0.250000X0.625000X-0.375000X0.625000X0.375000X-0.625000X0.375000X-0.625000X-0.375000X0*%
%ADD40RoundRect,0.250000X-0.625000X0.375000X-0.625000X-0.375000X0.625000X-0.375000X0.625000X0.375000X0*%
%ADD41C,8.600000*%
%ADD42C,4.000000*%
%ADD43RoundRect,0.150000X0.150000X-0.725000X0.150000X0.725000X-0.150000X0.725000X-0.150000X-0.725000X0*%
%ADD44RoundRect,0.249999X-0.312501X-0.625001X0.312501X-0.625001X0.312501X0.625001X-0.312501X0.625001X0*%
%ADD45RoundRect,0.249999X-0.625001X0.312501X-0.625001X-0.312501X0.625001X-0.312501X0.625001X0.312501X0*%
%ADD46RoundRect,0.150000X-0.150000X0.725000X-0.150000X-0.725000X0.150000X-0.725000X0.150000X0.725000X0*%
%ADD47R,3.000000X3.000000*%
%ADD48C,3.000000*%
%ADD49R,2.450000X5.900000*%
%ADD50C,1.524000*%
%ADD51RoundRect,0.250000X0.312500X0.625000X-0.312500X0.625000X-0.312500X-0.625000X0.312500X-0.625000X0*%
%ADD52RoundRect,0.250000X0.625000X-0.312500X0.625000X0.312500X-0.625000X0.312500X-0.625000X-0.312500X0*%
%ADD53RoundRect,0.250000X-0.625000X0.312500X-0.625000X-0.312500X0.625000X-0.312500X0.625000X0.312500X0*%
%ADD54RoundRect,0.250000X-0.312500X-0.625000X0.312500X-0.625000X0.312500X0.625000X-0.312500X0.625000X0*%
G04 APERTURE END LIST*
D10*
%TO.C,J16*%
X94225000Y-80475000D03*
D11*
X96765000Y-80475000D03*
X94225000Y-83015000D03*
X96765000Y-83015000D03*
%TD*%
D10*
%TO.C,J15*%
X89540000Y-65040000D03*
D11*
X87000000Y-65040000D03*
X89540000Y-62500000D03*
X87000000Y-62500000D03*
%TD*%
D12*
%TO.C,C25*%
X94250000Y-85300000D03*
X94250000Y-87200000D03*
%TD*%
D13*
%TO.C,C16*%
X89500000Y-60250000D03*
X89500000Y-58350000D03*
%TD*%
D14*
%TO.C,J2*%
X78175000Y-86125000D03*
D15*
X75000000Y-82950000D03*
X81350000Y-89300000D03*
X75000000Y-89300000D03*
X81350000Y-82950000D03*
%TD*%
D14*
%TO.C,J6*%
X152500000Y-72750000D03*
D15*
X150254936Y-76638565D03*
X156388565Y-74995064D03*
X148611435Y-70504936D03*
X154745064Y-68861435D03*
%TD*%
D14*
%TO.C,J7*%
X153500000Y-119000000D03*
D15*
X151254936Y-115111435D03*
X149611435Y-121245064D03*
X155745064Y-122888565D03*
X157388565Y-116754936D03*
%TD*%
D16*
%TO.C,R5*%
X89462500Y-104500000D03*
X86537500Y-104500000D03*
%TD*%
%TO.C,R6*%
X89462500Y-86000000D03*
X86537500Y-86000000D03*
%TD*%
D17*
%TO.C,R7*%
X122987500Y-115050000D03*
X125912500Y-115050000D03*
%TD*%
D16*
%TO.C,R8*%
X137462500Y-96500000D03*
X134537500Y-96500000D03*
%TD*%
D18*
%TO.C,U3*%
X126950000Y-108300000D03*
D19*
X126950000Y-105760000D03*
X126950000Y-103220000D03*
X126950000Y-100680000D03*
X119330000Y-100680000D03*
X119330000Y-103220000D03*
X119330000Y-105760000D03*
X119330000Y-108300000D03*
%TD*%
D14*
%TO.C,J5*%
X155500000Y-104000000D03*
D15*
X159085976Y-101297773D03*
X158202227Y-107585976D03*
X151914024Y-106702227D03*
X152797773Y-100414024D03*
%TD*%
D14*
%TO.C,J4*%
X155325000Y-88000000D03*
D15*
X158027227Y-84414024D03*
X152622773Y-91585976D03*
X151739024Y-85297773D03*
X158910976Y-90702227D03*
%TD*%
D18*
%TO.C,U4*%
X138500000Y-91250000D03*
D19*
X138500000Y-88710000D03*
X138500000Y-86170000D03*
X138500000Y-83630000D03*
X130880000Y-83630000D03*
X130880000Y-86170000D03*
X130880000Y-88710000D03*
X130880000Y-91250000D03*
%TD*%
D18*
%TO.C,C4*%
X95000000Y-127000000D03*
D20*
X97500000Y-127000000D03*
%TD*%
D12*
%TO.C,C5*%
X90450000Y-124100000D03*
X90450000Y-126000000D03*
%TD*%
D21*
%TO.C,D1*%
X98500000Y-119500000D03*
X94500000Y-119500000D03*
%TD*%
D22*
%TO.C,D2*%
X85450000Y-124550000D03*
X85450000Y-128550000D03*
%TD*%
D23*
%TO.C,FB1*%
X90325000Y-119500000D03*
X88500000Y-119500000D03*
%TD*%
D24*
%TO.C,J8*%
X83500000Y-118000000D03*
D25*
X77500000Y-118000000D03*
D26*
X80500000Y-122700000D03*
%TD*%
D27*
%TO.C,J9*%
X88625000Y-137750000D03*
X83625000Y-137750000D03*
D28*
X84825000Y-136650000D03*
X85475000Y-136650000D03*
X86125000Y-136650000D03*
X86775000Y-136650000D03*
X87425000Y-136650000D03*
D29*
X82250000Y-140500000D03*
X90000000Y-140500000D03*
D30*
X82400000Y-136700000D03*
X89850000Y-136700000D03*
%TD*%
D18*
%TO.C,C6*%
X102000000Y-127000000D03*
D20*
X104500000Y-127000000D03*
%TD*%
D31*
%TO.C,D3*%
X77700000Y-129000000D03*
X80500000Y-129000000D03*
%TD*%
D16*
%TO.C,R13*%
X75425000Y-129000000D03*
X72500000Y-129000000D03*
%TD*%
D32*
%TO.C,U5*%
X92420000Y-115000000D03*
D33*
X94960000Y-115000000D03*
X97500000Y-115000000D03*
%TD*%
D18*
%TO.C,C7*%
X141152651Y-126500000D03*
D20*
X136152651Y-126500000D03*
%TD*%
D18*
%TO.C,C9*%
X136097349Y-138250000D03*
D20*
X141097349Y-138250000D03*
%TD*%
D34*
%TO.C,R3*%
X114500000Y-79575000D03*
X114500000Y-82500000D03*
%TD*%
D35*
%TO.C,R2*%
X117000000Y-82462500D03*
X117000000Y-79537500D03*
%TD*%
D12*
%TO.C,C1*%
X96750000Y-87250000D03*
X96750000Y-85350000D03*
%TD*%
D35*
%TO.C,R1*%
X100000000Y-78500000D03*
X100000000Y-75575000D03*
%TD*%
D36*
%TO.C,U1*%
X103950000Y-75660000D03*
X103950000Y-76930000D03*
X103950000Y-78200000D03*
X103950000Y-79470000D03*
X109100000Y-79470000D03*
X109100000Y-78200000D03*
X109100000Y-76930000D03*
X109100000Y-75660000D03*
%TD*%
D37*
%TO.C,C14*%
X101900000Y-72400000D03*
X100000000Y-72400000D03*
%TD*%
%TO.C,C17*%
X116950000Y-106000000D03*
X115050000Y-106000000D03*
%TD*%
D38*
%TO.C,C19*%
X109000000Y-74100000D03*
X110900000Y-74100000D03*
%TD*%
D39*
%TO.C,D4*%
X108000000Y-118400000D03*
X108000000Y-115600000D03*
%TD*%
D40*
%TO.C,D5*%
X105000000Y-115600000D03*
X105000000Y-118400000D03*
%TD*%
D35*
%TO.C,R19*%
X108000000Y-112852500D03*
X108000000Y-109927500D03*
%TD*%
%TO.C,R20*%
X105000000Y-112852500D03*
X105000000Y-109927500D03*
%TD*%
D41*
%TO.C,H1*%
X150000000Y-57500000D03*
%TD*%
D42*
%TO.C,H2*%
X75000000Y-137500000D03*
%TD*%
%TO.C,H4*%
X150000000Y-137500000D03*
%TD*%
%TO.C,H3*%
X75000000Y-57500000D03*
%TD*%
D13*
%TO.C,C22*%
X141500000Y-98950000D03*
X141500000Y-97050000D03*
%TD*%
D37*
%TO.C,C23*%
X138250000Y-81000000D03*
X136350000Y-81000000D03*
%TD*%
D13*
%TO.C,C24*%
X111400000Y-68500000D03*
X111400000Y-66600000D03*
%TD*%
D16*
%TO.C,R9*%
X143962500Y-73500000D03*
X141037500Y-73500000D03*
%TD*%
D14*
%TO.C,J1*%
X78000000Y-68000000D03*
D15*
X74825000Y-64825000D03*
X81175000Y-64825000D03*
X81175000Y-71175000D03*
X74825000Y-71175000D03*
%TD*%
D36*
%TO.C,BUF1*%
X103825000Y-68495000D03*
X103825000Y-69765000D03*
X103825000Y-71035000D03*
X103825000Y-72305000D03*
X108975000Y-72305000D03*
X108975000Y-71035000D03*
X108975000Y-69765000D03*
X108975000Y-68495000D03*
%TD*%
D43*
%TO.C,BUF2*%
X141095000Y-106125000D03*
X142365000Y-106125000D03*
X143635000Y-106125000D03*
X144905000Y-106125000D03*
X144905000Y-100975000D03*
X143635000Y-100975000D03*
X142365000Y-100975000D03*
X141095000Y-100975000D03*
%TD*%
D44*
%TO.C,R4*%
X104675000Y-65000000D03*
X107600000Y-65000000D03*
%TD*%
D45*
%TO.C,R10*%
X113600000Y-71075000D03*
X113600000Y-74000000D03*
%TD*%
%TO.C,R18*%
X135000000Y-108075000D03*
X135000000Y-111000000D03*
%TD*%
D44*
%TO.C,R21*%
X141365000Y-109975000D03*
X144290000Y-109975000D03*
%TD*%
D46*
%TO.C,U2*%
X144905000Y-114425000D03*
X143635000Y-114425000D03*
X142365000Y-114425000D03*
X141095000Y-114425000D03*
X141095000Y-119575000D03*
X142365000Y-119575000D03*
X143635000Y-119575000D03*
X144905000Y-119575000D03*
%TD*%
D37*
%TO.C,C3*%
X145000000Y-122000000D03*
X143100000Y-122000000D03*
%TD*%
D47*
%TO.C,J11*%
X95500000Y-136500000D03*
D48*
X100580000Y-136500000D03*
X105660000Y-136500000D03*
%TD*%
D13*
%TO.C,C10*%
X130500000Y-138900000D03*
X130500000Y-137000000D03*
%TD*%
D49*
%TO.C,L2*%
X127050000Y-130500000D03*
X121500000Y-130500000D03*
%TD*%
D50*
%TO.C,Reg1*%
X115000000Y-124380000D03*
X115000000Y-126920000D03*
X115000000Y-134540000D03*
X115000000Y-137080000D03*
X115000000Y-139620000D03*
%TD*%
D12*
%TO.C,C8*%
X130500000Y-130600000D03*
X130500000Y-132500000D03*
%TD*%
D49*
%TO.C,L1*%
X127050000Y-138500000D03*
X121500000Y-138500000D03*
%TD*%
D12*
%TO.C,C18*%
X146365000Y-107575000D03*
X146365000Y-109475000D03*
%TD*%
D51*
%TO.C,R22*%
X89425000Y-68000000D03*
X86500000Y-68000000D03*
%TD*%
D52*
%TO.C,R17*%
X147000000Y-114500000D03*
X147000000Y-111575000D03*
%TD*%
D13*
%TO.C,C15*%
X87000000Y-58350000D03*
X87000000Y-60250000D03*
%TD*%
D53*
%TO.C,R14*%
X137500000Y-108075000D03*
X137500000Y-111000000D03*
%TD*%
D10*
%TO.C,J13*%
X129500000Y-105040000D03*
D11*
X129500000Y-102500000D03*
X132040000Y-105040000D03*
X132040000Y-102500000D03*
%TD*%
D10*
%TO.C,J10*%
X119725000Y-112275000D03*
D11*
X119725000Y-114815000D03*
X117185000Y-112275000D03*
X117185000Y-114815000D03*
%TD*%
D14*
%TO.C,J3*%
X78000000Y-104500000D03*
D15*
X81175000Y-101325000D03*
X74825000Y-107675000D03*
X74825000Y-101325000D03*
X81175000Y-107675000D03*
%TD*%
D54*
%TO.C,R15*%
X98575000Y-70000000D03*
X101500000Y-70000000D03*
%TD*%
D10*
%TO.C,J12*%
X131775000Y-94225000D03*
D11*
X131775000Y-96765000D03*
X129235000Y-94225000D03*
X129235000Y-96765000D03*
%TD*%
D51*
%TO.C,R11*%
X125912500Y-112550000D03*
X122987500Y-112550000D03*
%TD*%
%TO.C,R12*%
X137462500Y-94000000D03*
X134537500Y-94000000D03*
%TD*%
D10*
%TO.C,J14*%
X137775000Y-105040000D03*
D11*
X135235000Y-105040000D03*
X137775000Y-102500000D03*
X135235000Y-102500000D03*
%TD*%
M02*
