M48
; DRILL file {KiCad (6.0.0)} date Sat May  4 22:15:24 2024
; FORMAT={-:-/ absolute / inch / decimal}
; #@! TF.CreationDate,2024-05-04T22:15:24-04:00
; #@! TF.GenerationSoftware,Kicad,Pcbnew,(6.0.0)
; #@! TF.FileFunction,Plated,1,4,PTH
FMAT,2
INCH
; #@! TA.AperFunction,Plated,PTH,ViaDrill
T1C0.0157
; #@! TA.AperFunction,Plated,PTH,ComponentDrill
T2C0.0217
; #@! TA.AperFunction,Plated,PTH,ComponentDrill
T3C0.0300
; #@! TA.AperFunction,Plated,PTH,ComponentDrill
T4C0.0315
; #@! TA.AperFunction,Plated,PTH,ComponentDrill
T5C0.0335
; #@! TA.AperFunction,Plated,PTH,ComponentDrill
T6C0.0340
; #@! TA.AperFunction,Plated,PTH,ComponentDrill
T7C0.0350
; #@! TA.AperFunction,Plated,PTH,ComponentDrill
T8C0.0366
; #@! TA.AperFunction,Plated,PTH,ComponentDrill
T9C0.0394
; #@! TA.AperFunction,Plated,PTH,ComponentDrill
T10C0.0787
; #@! TA.AperFunction,Plated,PTH,ComponentDrill
T11C0.1693
; #@! TA.AperFunction,Plated,PTH,ComponentDrill
T12C0.2010
%
G90
G05
T1
X2.8061Y-3.7795
X2.8061Y-4.813
X2.815Y-2.4508
X2.815Y-2.6508
X2.815Y-2.7508
X2.815Y-2.8508
X2.815Y-2.9508
X2.815Y-3.0508
X2.815Y-3.1508
X2.815Y-3.2508
X2.815Y-3.3508
X2.815Y-3.4508
X2.815Y-3.5508
X2.815Y-5.2508
X2.815Y-5.3508
X2.8274Y-3.7402
X2.9528Y-4.7933
X3.0823Y-5.561
X3.1118Y-1.7352
X3.1823Y-5.561
X3.1988Y-3.7598
X3.2118Y-1.7352
X3.2579Y-2.8642
X3.2579Y-3.7894
X3.3118Y-1.7352
X3.3823Y-5.561
X3.4015Y-4.5571
X3.4118Y-1.7352
X3.4744Y-3.0217
X3.4823Y-5.561
X3.4843Y-2.3031
X3.4843Y-2.8543
X3.5118Y-1.7352
X3.5138Y-3.0709
X3.5236Y-2.4016
X3.6118Y-1.7352
X3.6823Y-5.561
X3.6976Y-4.4094
X3.7118Y-1.7352
X3.7402Y-5.2362
X3.75Y-4.8228
X3.75Y-4.9606
X3.75Y-5.0984
X3.7748Y-2.3622
X3.7823Y-5.561
X3.7976Y-4.4094
X3.8118Y-1.7352
X3.8453Y-4.065
X3.8551Y-3.9469
X3.8748Y-2.3622
X3.8823Y-5.561
X3.8976Y-4.4094
X3.9118Y-1.7352
X3.924Y-2.2638
X3.9437Y-2.4508
X3.9453Y-4.065
X3.9551Y-3.9469
X3.9748Y-2.3622
X3.9823Y-5.561
X4.0118Y-1.7352
X4.024Y-2.2638
X4.0437Y-2.4508
X4.0453Y-4.065
X4.0551Y-3.9469
X4.0748Y-2.3622
X4.0823Y-5.561
X4.1118Y-1.7352
X4.124Y-2.2638
X4.1437Y-2.4508
X4.1437Y-4.9705
X4.1465Y-4.3898
X4.1823Y-5.561
X4.1898Y-3.9469
X4.1898Y-4.0551
X4.2118Y-1.7352
X4.2465Y-4.3898
X4.2823Y-5.561
X4.2898Y-3.9469
X4.2898Y-4.0551
X4.3118Y-1.7352
X4.3465Y-4.3898
X4.3494Y-2.4403
X4.3504Y-2.3031
X4.3602Y-3.1299
X4.3898Y-3.9469
X4.3898Y-4.0551
X4.3996Y-5.4823
X4.4118Y-1.7352
X4.4587Y-4.1929
X4.4587Y-4.2929
X4.4685Y-2.5787
X4.4882Y-2.2126
X4.4996Y-1.7352
X4.5063Y-3.1201
X4.5063Y-3.2382
X4.5063Y-3.3563
X4.5069Y-2.5368
X4.5079Y-4.8622
X4.5079Y-5.4823
X4.5472Y-4.9606
X4.5856Y-2.4778
X4.5866Y-2.1654
X4.5866Y-2.3819
X4.5965Y-5.4823
X4.5996Y-1.7352
X4.6063Y-3.2382
X4.6063Y-3.3563
X4.6654Y-4.9803
X4.685Y-5.561
X4.687Y-4.8622
X4.6949Y-3.8583
X4.7244Y-3.9075
X4.7426Y-4.0339
X4.7835Y-4.1732
X4.8622Y-2.9035
X4.8622Y-4.0945
X4.8819Y-3.722
X4.8819Y-3.822
X4.8998Y-4.3988
X4.9016Y-2.6378
X4.9016Y-2.7378
X4.9016Y-3.0709
X4.9016Y-3.1709
X4.9016Y-3.2709
X4.9548Y-2.2302
X4.9606Y-4.7933
X4.9687Y-2.6065
X4.9687Y-3.3348
X5.0394Y-5.4823
X5.1083Y-5.5291
X5.1575Y-4.311
X5.1575Y-4.6752
X5.2008Y-5.2362
X5.2283Y-3.4665
X5.2382Y-3.6142
X5.2382Y-3.7028
X5.3071Y-3.4075
X5.3169Y-3.5551
X5.3248Y-4.2018
X5.374Y-4.2323
X5.4626Y-5.0492
X5.4724Y-5.1969
X5.5118Y-4.6654
X5.5429Y-3.1496
X5.5474Y-3.9726
X5.5512Y-2.2244
X5.5512Y-5.0
X5.5966Y-2.6362
X5.6102Y-3.3563
X5.6102Y-4.6654
X5.6177Y-5.315
X5.6299Y-3.0315
X5.6496Y-3.6024
X5.7124Y-5.3967
X5.7283Y-3.5531
X5.7291Y-4.4508
X5.7321Y-5.1604
X5.7382Y-4.8622
X5.7738Y-2.6362
X5.8933Y-5.1575
X5.8933Y-5.2559
X5.935Y-4.1437
X5.9547Y-3.6516
X6.1319Y-2.4508
X6.1909Y-5.0295
X6.2874Y-3.2657
X6.3386Y-3.3012
X6.3386Y-4.6102
X6.3386Y-4.7283
X6.3583Y-3.4291
X6.372Y-4.7933
T3
X4.4441Y-5.3839
X4.5441Y-5.3839
X4.8441Y-5.3839
X4.9441Y-5.3839
X5.0441Y-5.3839
T4
X3.9079Y-1.9685
X4.007Y-4.5866
X4.1047Y-1.9685
X4.2039Y-4.5866
X4.2913Y-1.9685
X4.4056Y-4.5866
X4.4882Y-1.9685
X4.6025Y-4.5866
X5.075Y-1.947
X5.075Y-2.047
X5.075Y-2.147
X5.075Y-2.247
X5.1063Y-4.0701
X5.1063Y-4.3701
X5.1134Y-3.3909
X5.1134Y-3.4909
X5.1134Y-3.5909
X5.1134Y-3.6909
X5.1429Y-2.761
X5.1429Y-2.861
X5.1429Y-2.961
X5.1429Y-3.061
X5.2063Y-4.0701
X5.2063Y-4.3701
X5.3063Y-4.0701
X5.3063Y-4.3701
X5.375Y-1.947
X5.375Y-2.047
X5.375Y-2.147
X5.375Y-2.247
X5.4063Y-4.0701
X5.4063Y-4.3701
X5.4134Y-3.3909
X5.4134Y-3.4909
X5.4134Y-3.5909
X5.4134Y-3.6909
X5.4429Y-2.761
X5.4429Y-2.861
X5.4429Y-2.961
X5.4429Y-3.061
T6
X2.9134Y-2.7307
X2.9134Y-2.8307
X2.9134Y-2.9307
X2.9134Y-3.0307
X2.9134Y-3.1307
X2.9134Y-3.2307
X2.9134Y-3.3307
X2.9134Y-3.4307
X2.9134Y-3.5307
X2.9134Y-3.6307
X2.9134Y-3.7307
X2.9134Y-3.8307
X2.9134Y-3.9307
X2.9134Y-4.0307
X2.9134Y-4.1307
X2.9134Y-4.2307
X2.9134Y-4.3307
X2.9884Y-2.6807
X2.9884Y-2.7807
X2.9884Y-2.8807
X2.9884Y-2.9807
X2.9884Y-3.0807
X2.9884Y-3.1807
X2.9884Y-3.2807
X2.9884Y-3.3807
X2.9884Y-3.4807
X2.9884Y-3.5807
X2.9884Y-3.6807
X2.9884Y-3.7807
X2.9884Y-3.8807
X2.9884Y-3.9807
X2.9884Y-4.0807
X2.9884Y-4.1807
X2.9884Y-4.2807
X3.0634Y-2.7307
X3.0634Y-2.8307
X3.0634Y-2.9307
X3.0634Y-3.0307
X3.0634Y-3.1307
X3.0634Y-3.2307
X3.0634Y-3.3307
X3.0634Y-3.4307
X3.0634Y-3.5307
X3.0634Y-3.6307
X3.0634Y-3.7307
X3.0634Y-3.8307
X3.0634Y-3.9307
X3.0634Y-4.0307
X3.0634Y-4.1307
X3.0634Y-4.2307
X3.0634Y-4.3307
X3.1384Y-2.6807
X3.1384Y-2.7807
X3.1384Y-2.8807
X3.1384Y-2.9807
X3.1384Y-3.0807
X3.1384Y-3.1807
X3.1384Y-3.2807
X3.1384Y-3.3807
X3.1384Y-3.4807
X3.1384Y-3.5807
X3.1384Y-3.6807
X3.1384Y-3.7807
X3.1384Y-3.8807
X3.1384Y-3.9807
X3.1384Y-4.0807
X3.1384Y-4.1807
X3.1384Y-4.2807
T7
X3.0912Y-4.8699
X3.0912Y-4.9699
X3.0912Y-5.0963
X3.0912Y-5.1963
X3.1912Y-4.8699
X3.1912Y-4.9699
X3.1912Y-5.0963
X3.1912Y-5.1963
T8
X6.3287Y-5.2209
X6.3287Y-5.3209
X6.3356Y-2.5959
X6.3356Y-2.6959
X6.3356Y-3.4709
X6.3356Y-3.5709
X6.3386Y-1.7878
X6.3386Y-1.8878
X6.3386Y-4.3459
X6.3386Y-4.4459
T9
X3.5614Y-4.626
X3.6614Y-4.626
X4.0098Y-5.0701
X4.0098Y-5.1701
X5.0772Y-2.3819
X5.0772Y-2.4819
X5.1772Y-2.3819
X5.1772Y-2.4819
X5.8525Y-2.6937
X5.8525Y-2.7937
X5.8553Y-2.1352
X5.8553Y-2.2352
X5.9525Y-2.6937
X5.9525Y-2.7937
X5.9553Y-2.1352
X5.9553Y-2.2352
X6.5541Y-4.8317
X6.5541Y-4.9317
X6.5699Y-3.0896
X6.5699Y-3.1896
T10
X6.5287Y-5.1209
X6.5287Y-5.5209
X6.5356Y-2.4959
X6.5356Y-2.8959
X6.5356Y-3.3709
X6.5356Y-3.7709
X6.5386Y-1.6878
X6.5386Y-2.0878
X6.5386Y-4.2459
X6.5386Y-4.6459
T11
X2.9528Y-1.8071
T12
X3.0634Y-2.3657
X3.0634Y-4.6457
T2
G00X3.814Y-5.5266
M15
G01X3.814Y-5.5522
M16
G05
G00X4.1191Y-5.5266
M15
G01X4.1191Y-5.5522
M16
G05
T5
G00X3.8199Y-5.3789
M15
G01X3.8199Y-5.4006
M16
G05
G00X4.1132Y-5.3789
M15
G01X4.1132Y-5.4006
M16
G05
T0
M30
