%TF.GenerationSoftware,KiCad,Pcbnew,(6.0.0)*%
%TF.CreationDate,2024-05-04T22:15:16-04:00*%
%TF.ProjectId,Impedance_Analyzer_V4,496d7065-6461-46e6-9365-5f416e616c79,rev?*%
%TF.SameCoordinates,Original*%
%TF.FileFunction,Legend,Top*%
%TF.FilePolarity,Positive*%
%FSLAX46Y46*%
G04 Gerber Fmt 4.6, Leading zero omitted, Abs format (unit mm)*
G04 Created by KiCad (PCBNEW (6.0.0)) date 2024-05-04 22:15:16*
%MOMM*%
%LPD*%
G01*
G04 APERTURE LIST*
%ADD10C,0.150000*%
%ADD11C,0.100000*%
%ADD12C,0.120000*%
%ADD13C,0.152400*%
%ADD14C,0.508000*%
G04 APERTURE END LIST*
D10*
X89583333Y-115702380D02*
X89583333Y-114702380D01*
X89821428Y-114702380D01*
X89964285Y-114750000D01*
X90059523Y-114845238D01*
X90107142Y-114940476D01*
X90154761Y-115130952D01*
X90154761Y-115273809D01*
X90107142Y-115464285D01*
X90059523Y-115559523D01*
X89964285Y-115654761D01*
X89821428Y-115702380D01*
X89583333Y-115702380D01*
X90535714Y-115416666D02*
X91011904Y-115416666D01*
X90440476Y-115702380D02*
X90773809Y-114702380D01*
X91107142Y-115702380D01*
X92107142Y-115797619D02*
X92011904Y-115750000D01*
X91916666Y-115654761D01*
X91773809Y-115511904D01*
X91678571Y-115464285D01*
X91583333Y-115464285D01*
X91630952Y-115702380D02*
X91535714Y-115654761D01*
X91440476Y-115559523D01*
X91392857Y-115369047D01*
X91392857Y-115035714D01*
X91440476Y-114845238D01*
X91535714Y-114750000D01*
X91630952Y-114702380D01*
X91821428Y-114702380D01*
X91916666Y-114750000D01*
X92011904Y-114845238D01*
X92059523Y-115035714D01*
X92059523Y-115369047D01*
X92011904Y-115559523D01*
X91916666Y-115654761D01*
X91821428Y-115702380D01*
X91630952Y-115702380D01*
X93250000Y-115702380D02*
X93250000Y-114702380D01*
X93630952Y-114702380D01*
X93726190Y-114750000D01*
X93773809Y-114797619D01*
X93821428Y-114892857D01*
X93821428Y-115035714D01*
X93773809Y-115130952D01*
X93726190Y-115178571D01*
X93630952Y-115226190D01*
X93250000Y-115226190D01*
X94154761Y-114702380D02*
X94392857Y-115702380D01*
X94583333Y-114988095D01*
X94773809Y-115702380D01*
X95011904Y-114702380D01*
X95964285Y-115702380D02*
X95630952Y-115226190D01*
X95392857Y-115702380D02*
X95392857Y-114702380D01*
X95773809Y-114702380D01*
X95869047Y-114750000D01*
X95916666Y-114797619D01*
X95964285Y-114892857D01*
X95964285Y-115035714D01*
X95916666Y-115130952D01*
X95869047Y-115178571D01*
X95773809Y-115226190D01*
X95392857Y-115226190D01*
X99202380Y-133214285D02*
X100011904Y-133214285D01*
X100107142Y-133166666D01*
X100154761Y-133119047D01*
X100202380Y-133023809D01*
X100202380Y-132833333D01*
X100154761Y-132738095D01*
X100107142Y-132690476D01*
X100011904Y-132642857D01*
X99202380Y-132642857D01*
X100154761Y-132214285D02*
X100202380Y-132071428D01*
X100202380Y-131833333D01*
X100154761Y-131738095D01*
X100107142Y-131690476D01*
X100011904Y-131642857D01*
X99916666Y-131642857D01*
X99821428Y-131690476D01*
X99773809Y-131738095D01*
X99726190Y-131833333D01*
X99678571Y-132023809D01*
X99630952Y-132119047D01*
X99583333Y-132166666D01*
X99488095Y-132214285D01*
X99392857Y-132214285D01*
X99297619Y-132166666D01*
X99250000Y-132119047D01*
X99202380Y-132023809D01*
X99202380Y-131785714D01*
X99250000Y-131642857D01*
X99678571Y-130880952D02*
X99726190Y-130738095D01*
X99773809Y-130690476D01*
X99869047Y-130642857D01*
X100011904Y-130642857D01*
X100107142Y-130690476D01*
X100154761Y-130738095D01*
X100202380Y-130833333D01*
X100202380Y-131214285D01*
X99202380Y-131214285D01*
X99202380Y-130880952D01*
X99250000Y-130785714D01*
X99297619Y-130738095D01*
X99392857Y-130690476D01*
X99488095Y-130690476D01*
X99583333Y-130738095D01*
X99630952Y-130785714D01*
X99678571Y-130880952D01*
X99678571Y-131214285D01*
X100202380Y-129452380D02*
X99202380Y-129452380D01*
X99202380Y-129071428D01*
X99250000Y-128976190D01*
X99297619Y-128928571D01*
X99392857Y-128880952D01*
X99535714Y-128880952D01*
X99630952Y-128928571D01*
X99678571Y-128976190D01*
X99726190Y-129071428D01*
X99726190Y-129452380D01*
X99202380Y-128547619D02*
X100202380Y-128309523D01*
X99488095Y-128119047D01*
X100202380Y-127928571D01*
X99202380Y-127690476D01*
X100202380Y-126738095D02*
X99726190Y-127071428D01*
X100202380Y-127309523D02*
X99202380Y-127309523D01*
X99202380Y-126928571D01*
X99250000Y-126833333D01*
X99297619Y-126785714D01*
X99392857Y-126738095D01*
X99535714Y-126738095D01*
X99630952Y-126785714D01*
X99678571Y-126833333D01*
X99726190Y-126928571D01*
X99726190Y-127309523D01*
X164007708Y-60752380D02*
X164132708Y-59752380D01*
X164073184Y-60228571D02*
X164644613Y-60228571D01*
X164579136Y-60752380D02*
X164704136Y-59752380D01*
X165638660Y-60657142D02*
X165585089Y-60704761D01*
X165436279Y-60752380D01*
X165341041Y-60752380D01*
X165204136Y-60704761D01*
X165120803Y-60609523D01*
X165085089Y-60514285D01*
X165061279Y-60323809D01*
X165079136Y-60180952D01*
X165150565Y-59990476D01*
X165210089Y-59895238D01*
X165317232Y-59800000D01*
X165466041Y-59752380D01*
X165561279Y-59752380D01*
X165698184Y-59800000D01*
X165739851Y-59847619D01*
X166567232Y-60085714D02*
X166483898Y-60752380D01*
X166138660Y-60085714D02*
X166073184Y-60609523D01*
X166108898Y-60704761D01*
X166198184Y-60752380D01*
X166341041Y-60752380D01*
X166442232Y-60704761D01*
X166495803Y-60657142D01*
X166960089Y-60752380D02*
X167043422Y-60085714D01*
X167019613Y-60276190D02*
X167079136Y-60180952D01*
X167132708Y-60133333D01*
X167233898Y-60085714D01*
X167329136Y-60085714D01*
X163931517Y-83102380D02*
X164056517Y-82102380D01*
X163996994Y-82578571D02*
X164568422Y-82578571D01*
X164502946Y-83102380D02*
X164627946Y-82102380D01*
X164979136Y-83102380D02*
X165104136Y-82102380D01*
X165485089Y-82102380D01*
X165574375Y-82150000D01*
X165616041Y-82197619D01*
X165651755Y-82292857D01*
X165633898Y-82435714D01*
X165574375Y-82530952D01*
X165520803Y-82578571D01*
X165419613Y-82626190D01*
X165038660Y-82626190D01*
X166121994Y-83102380D02*
X166032708Y-83054761D01*
X165991041Y-83007142D01*
X165955327Y-82911904D01*
X165991041Y-82626190D01*
X166050565Y-82530952D01*
X166104136Y-82483333D01*
X166205327Y-82435714D01*
X166348184Y-82435714D01*
X166437470Y-82483333D01*
X166479136Y-82530952D01*
X166514851Y-82626190D01*
X166479136Y-82911904D01*
X166419613Y-83007142D01*
X166366041Y-83054761D01*
X166264851Y-83102380D01*
X166121994Y-83102380D01*
X166824375Y-82435714D02*
X167205327Y-82435714D01*
X167008898Y-82102380D02*
X166901755Y-82959523D01*
X166937470Y-83054761D01*
X167026755Y-83102380D01*
X167121994Y-83102380D01*
X163676755Y-105852380D02*
X163200565Y-105852380D01*
X163325565Y-104852380D01*
X164010089Y-105852380D02*
X164135089Y-104852380D01*
X164516041Y-104852380D01*
X164605327Y-104900000D01*
X164646994Y-104947619D01*
X164682708Y-105042857D01*
X164664851Y-105185714D01*
X164605327Y-105280952D01*
X164551755Y-105328571D01*
X164450565Y-105376190D01*
X164069613Y-105376190D01*
X165152946Y-105852380D02*
X165063660Y-105804761D01*
X165021994Y-105757142D01*
X164986279Y-105661904D01*
X165021994Y-105376190D01*
X165081517Y-105280952D01*
X165135089Y-105233333D01*
X165236279Y-105185714D01*
X165379136Y-105185714D01*
X165468422Y-105233333D01*
X165510089Y-105280952D01*
X165545803Y-105376190D01*
X165510089Y-105661904D01*
X165450565Y-105757142D01*
X165396994Y-105804761D01*
X165295803Y-105852380D01*
X165152946Y-105852380D01*
X165855327Y-105185714D02*
X166236279Y-105185714D01*
X166039851Y-104852380D02*
X165932708Y-105709523D01*
X165968422Y-105804761D01*
X166057708Y-105852380D01*
X166152946Y-105852380D01*
X163452946Y-127802380D02*
X162976755Y-127802380D01*
X163101755Y-126802380D01*
X164369613Y-127707142D02*
X164316041Y-127754761D01*
X164167232Y-127802380D01*
X164071994Y-127802380D01*
X163935089Y-127754761D01*
X163851755Y-127659523D01*
X163816041Y-127564285D01*
X163792232Y-127373809D01*
X163810089Y-127230952D01*
X163881517Y-127040476D01*
X163941041Y-126945238D01*
X164048184Y-126850000D01*
X164196994Y-126802380D01*
X164292232Y-126802380D01*
X164429136Y-126850000D01*
X164470803Y-126897619D01*
X165298184Y-127135714D02*
X165214851Y-127802380D01*
X164869613Y-127135714D02*
X164804136Y-127659523D01*
X164839851Y-127754761D01*
X164929136Y-127802380D01*
X165071994Y-127802380D01*
X165173184Y-127754761D01*
X165226755Y-127707142D01*
X165691041Y-127802380D02*
X165774375Y-127135714D01*
X165750565Y-127326190D02*
X165810089Y-127230952D01*
X165863660Y-127183333D01*
X165964851Y-127135714D01*
X166060089Y-127135714D01*
X109040476Y-108071428D02*
X109802380Y-108071428D01*
X110135714Y-107452380D02*
X110469047Y-108452380D01*
X110802380Y-107452380D01*
X116007708Y-42917380D02*
X116132708Y-41917380D01*
X116483898Y-42917380D02*
X116567232Y-42250714D01*
X116555327Y-42345952D02*
X116608898Y-42298333D01*
X116710089Y-42250714D01*
X116852946Y-42250714D01*
X116942232Y-42298333D01*
X116977946Y-42393571D01*
X116912470Y-42917380D01*
X116977946Y-42393571D02*
X117037470Y-42298333D01*
X117138660Y-42250714D01*
X117281517Y-42250714D01*
X117370803Y-42298333D01*
X117406517Y-42393571D01*
X117341041Y-42917380D01*
X117900565Y-42250714D02*
X117775565Y-43250714D01*
X117894613Y-42298333D02*
X117995803Y-42250714D01*
X118186279Y-42250714D01*
X118275565Y-42298333D01*
X118317232Y-42345952D01*
X118352946Y-42441190D01*
X118317232Y-42726904D01*
X118257708Y-42822142D01*
X118204136Y-42869761D01*
X118102946Y-42917380D01*
X117912470Y-42917380D01*
X117823184Y-42869761D01*
X119108898Y-42869761D02*
X119007708Y-42917380D01*
X118817232Y-42917380D01*
X118727946Y-42869761D01*
X118692232Y-42774523D01*
X118739851Y-42393571D01*
X118799375Y-42298333D01*
X118900565Y-42250714D01*
X119091041Y-42250714D01*
X119180327Y-42298333D01*
X119216041Y-42393571D01*
X119204136Y-42488809D01*
X118716041Y-42584047D01*
X120007708Y-42917380D02*
X120132708Y-41917380D01*
X120013660Y-42869761D02*
X119912470Y-42917380D01*
X119721994Y-42917380D01*
X119632708Y-42869761D01*
X119591041Y-42822142D01*
X119555327Y-42726904D01*
X119591041Y-42441190D01*
X119650565Y-42345952D01*
X119704136Y-42298333D01*
X119805327Y-42250714D01*
X119995803Y-42250714D01*
X120085089Y-42298333D01*
X120912470Y-42917380D02*
X120977946Y-42393571D01*
X120942232Y-42298333D01*
X120852946Y-42250714D01*
X120662470Y-42250714D01*
X120561279Y-42298333D01*
X120918422Y-42869761D02*
X120817232Y-42917380D01*
X120579136Y-42917380D01*
X120489851Y-42869761D01*
X120454136Y-42774523D01*
X120466041Y-42679285D01*
X120525565Y-42584047D01*
X120626755Y-42536428D01*
X120864851Y-42536428D01*
X120966041Y-42488809D01*
X121471994Y-42250714D02*
X121388660Y-42917380D01*
X121460089Y-42345952D02*
X121513660Y-42298333D01*
X121614851Y-42250714D01*
X121757708Y-42250714D01*
X121846994Y-42298333D01*
X121882708Y-42393571D01*
X121817232Y-42917380D01*
X122727946Y-42869761D02*
X122626755Y-42917380D01*
X122436279Y-42917380D01*
X122346994Y-42869761D01*
X122305327Y-42822142D01*
X122269613Y-42726904D01*
X122305327Y-42441190D01*
X122364851Y-42345952D01*
X122418422Y-42298333D01*
X122519613Y-42250714D01*
X122710089Y-42250714D01*
X122799375Y-42298333D01*
X123537470Y-42869761D02*
X123436279Y-42917380D01*
X123245803Y-42917380D01*
X123156517Y-42869761D01*
X123120803Y-42774523D01*
X123168422Y-42393571D01*
X123227946Y-42298333D01*
X123329136Y-42250714D01*
X123519613Y-42250714D01*
X123608898Y-42298333D01*
X123644613Y-42393571D01*
X123632708Y-42488809D01*
X123144613Y-42584047D01*
X124757708Y-42631666D02*
X125233898Y-42631666D01*
X124626755Y-42917380D02*
X125085089Y-41917380D01*
X125293422Y-42917380D01*
X125710089Y-42250714D02*
X125626755Y-42917380D01*
X125698184Y-42345952D02*
X125751755Y-42298333D01*
X125852946Y-42250714D01*
X125995803Y-42250714D01*
X126085089Y-42298333D01*
X126120803Y-42393571D01*
X126055327Y-42917380D01*
X126960089Y-42917380D02*
X127025565Y-42393571D01*
X126989851Y-42298333D01*
X126900565Y-42250714D01*
X126710089Y-42250714D01*
X126608898Y-42298333D01*
X126966041Y-42869761D02*
X126864851Y-42917380D01*
X126626755Y-42917380D01*
X126537470Y-42869761D01*
X126501755Y-42774523D01*
X126513660Y-42679285D01*
X126573184Y-42584047D01*
X126674375Y-42536428D01*
X126912470Y-42536428D01*
X127013660Y-42488809D01*
X127579136Y-42917380D02*
X127489851Y-42869761D01*
X127454136Y-42774523D01*
X127561279Y-41917380D01*
X127948184Y-42250714D02*
X128102946Y-42917380D01*
X128424375Y-42250714D02*
X128102946Y-42917380D01*
X127977946Y-43155476D01*
X127924375Y-43203095D01*
X127823184Y-43250714D01*
X128710089Y-42250714D02*
X129233898Y-42250714D01*
X128626755Y-42917380D01*
X129150565Y-42917380D01*
X129918422Y-42869761D02*
X129817232Y-42917380D01*
X129626755Y-42917380D01*
X129537470Y-42869761D01*
X129501755Y-42774523D01*
X129549375Y-42393571D01*
X129608898Y-42298333D01*
X129710089Y-42250714D01*
X129900565Y-42250714D01*
X129989851Y-42298333D01*
X130025565Y-42393571D01*
X130013660Y-42488809D01*
X129525565Y-42584047D01*
X130388660Y-42917380D02*
X130471994Y-42250714D01*
X130448184Y-42441190D02*
X130507708Y-42345952D01*
X130561279Y-42298333D01*
X130662470Y-42250714D01*
X130757708Y-42250714D01*
X131751755Y-41917380D02*
X131960089Y-42917380D01*
X132418422Y-41917380D01*
X133138660Y-42250714D02*
X133055327Y-42917380D01*
X132948184Y-41869761D02*
X132620803Y-42584047D01*
X133239851Y-42584047D01*
X134912470Y-42917380D02*
X134638660Y-42441190D01*
X134341041Y-42917380D02*
X134466041Y-41917380D01*
X134846994Y-41917380D01*
X134936279Y-41965000D01*
X134977946Y-42012619D01*
X135013660Y-42107857D01*
X134995803Y-42250714D01*
X134936279Y-42345952D01*
X134882708Y-42393571D01*
X134781517Y-42441190D01*
X134400565Y-42441190D01*
X135727946Y-42869761D02*
X135626755Y-42917380D01*
X135436279Y-42917380D01*
X135346994Y-42869761D01*
X135311279Y-42774523D01*
X135358898Y-42393571D01*
X135418422Y-42298333D01*
X135519613Y-42250714D01*
X135710089Y-42250714D01*
X135799375Y-42298333D01*
X135835089Y-42393571D01*
X135823184Y-42488809D01*
X135335089Y-42584047D01*
X136186279Y-42250714D02*
X136341041Y-42917380D01*
X136662470Y-42250714D01*
X137710089Y-42631666D02*
X138186279Y-42631666D01*
X137579136Y-42917380D02*
X138037470Y-41917380D01*
X138245803Y-42917380D01*
X122644613Y-44003571D02*
X122977946Y-44003571D01*
X123055327Y-44527380D02*
X122579136Y-44527380D01*
X122704136Y-43527380D01*
X123180327Y-43527380D01*
X123626755Y-44527380D02*
X123537470Y-44479761D01*
X123501755Y-44384523D01*
X123608898Y-43527380D01*
X124007708Y-44527380D02*
X124091041Y-43860714D01*
X124132708Y-43527380D02*
X124079136Y-43575000D01*
X124120803Y-43622619D01*
X124174375Y-43575000D01*
X124132708Y-43527380D01*
X124120803Y-43622619D01*
X125245803Y-44527380D02*
X125370803Y-43527380D01*
X125614851Y-44241666D01*
X126037470Y-43527380D01*
X125912470Y-44527380D01*
X126817232Y-44527380D02*
X126882708Y-44003571D01*
X126846994Y-43908333D01*
X126757708Y-43860714D01*
X126567232Y-43860714D01*
X126466041Y-43908333D01*
X126823184Y-44479761D02*
X126721994Y-44527380D01*
X126483898Y-44527380D01*
X126394613Y-44479761D01*
X126358898Y-44384523D01*
X126370803Y-44289285D01*
X126430327Y-44194047D01*
X126531517Y-44146428D01*
X126769613Y-44146428D01*
X126870803Y-44098809D01*
X127233898Y-43860714D02*
X127614851Y-43860714D01*
X127418422Y-43527380D02*
X127311279Y-44384523D01*
X127346994Y-44479761D01*
X127436279Y-44527380D01*
X127531517Y-44527380D01*
X127805327Y-43860714D02*
X128186279Y-43860714D01*
X127989851Y-43527380D02*
X127882708Y-44384523D01*
X127918422Y-44479761D01*
X128007708Y-44527380D01*
X128102946Y-44527380D01*
X128436279Y-44527380D02*
X128519613Y-43860714D01*
X128561279Y-43527380D02*
X128507708Y-43575000D01*
X128549375Y-43622619D01*
X128602946Y-43575000D01*
X128561279Y-43527380D01*
X128549375Y-43622619D01*
X128995803Y-43860714D02*
X128912470Y-44527380D01*
X128983898Y-43955952D02*
X129037470Y-43908333D01*
X129138660Y-43860714D01*
X129281517Y-43860714D01*
X129370803Y-43908333D01*
X129406517Y-44003571D01*
X129341041Y-44527380D01*
X130329136Y-43860714D02*
X130227946Y-44670238D01*
X130168422Y-44765476D01*
X130114851Y-44813095D01*
X130013660Y-44860714D01*
X129870803Y-44860714D01*
X129781517Y-44813095D01*
X130251755Y-44479761D02*
X130150565Y-44527380D01*
X129960089Y-44527380D01*
X129870803Y-44479761D01*
X129829136Y-44432142D01*
X129793422Y-44336904D01*
X129829136Y-44051190D01*
X129888660Y-43955952D01*
X129942232Y-43908333D01*
X130043422Y-43860714D01*
X130233898Y-43860714D01*
X130323184Y-43908333D01*
X130864851Y-44527380D02*
X130775565Y-44479761D01*
X130739851Y-44384523D01*
X130846994Y-43527380D01*
X131233898Y-43860714D02*
X131388660Y-44527380D01*
X131710089Y-43860714D02*
X131388660Y-44527380D01*
X131263660Y-44765476D01*
X131210089Y-44813095D01*
X131108898Y-44860714D01*
X122751755Y-45137380D02*
X123370803Y-45137380D01*
X122989851Y-45518333D01*
X123132708Y-45518333D01*
X123221994Y-45565952D01*
X123263660Y-45613571D01*
X123299375Y-45708809D01*
X123269613Y-45946904D01*
X123210089Y-46042142D01*
X123156517Y-46089761D01*
X123055327Y-46137380D01*
X122769613Y-46137380D01*
X122680327Y-46089761D01*
X122638660Y-46042142D01*
X124436279Y-46137380D02*
X124561279Y-45137380D01*
X124805327Y-45851666D01*
X125227946Y-45137380D01*
X125102946Y-46137380D01*
X125567232Y-45851666D02*
X126043422Y-45851666D01*
X125436279Y-46137380D02*
X125894613Y-45137380D01*
X126102946Y-46137380D01*
X126686279Y-45661190D02*
X126626755Y-46137380D01*
X126418422Y-45137380D02*
X126686279Y-45661190D01*
X127085089Y-45137380D01*
X128120803Y-45232619D02*
X128174375Y-45185000D01*
X128275565Y-45137380D01*
X128513660Y-45137380D01*
X128602946Y-45185000D01*
X128644613Y-45232619D01*
X128680327Y-45327857D01*
X128668422Y-45423095D01*
X128602946Y-45565952D01*
X127960089Y-46137380D01*
X128579136Y-46137380D01*
X129323184Y-45137380D02*
X129418422Y-45137380D01*
X129507708Y-45185000D01*
X129549375Y-45232619D01*
X129585089Y-45327857D01*
X129608898Y-45518333D01*
X129579136Y-45756428D01*
X129507708Y-45946904D01*
X129448184Y-46042142D01*
X129394613Y-46089761D01*
X129293422Y-46137380D01*
X129198184Y-46137380D01*
X129108898Y-46089761D01*
X129067232Y-46042142D01*
X129031517Y-45946904D01*
X129007708Y-45756428D01*
X129037470Y-45518333D01*
X129108898Y-45327857D01*
X129168422Y-45232619D01*
X129221994Y-45185000D01*
X129323184Y-45137380D01*
X130025565Y-45232619D02*
X130079136Y-45185000D01*
X130180327Y-45137380D01*
X130418422Y-45137380D01*
X130507708Y-45185000D01*
X130549375Y-45232619D01*
X130585089Y-45327857D01*
X130573184Y-45423095D01*
X130507708Y-45565952D01*
X129864851Y-46137380D01*
X130483898Y-46137380D01*
X131424375Y-45470714D02*
X131341041Y-46137380D01*
X131233898Y-45089761D02*
X130906517Y-45804047D01*
X131525565Y-45804047D01*
X108890476Y-105321428D02*
X109652380Y-105321428D01*
X109271428Y-105702380D02*
X109271428Y-104940476D01*
X109985714Y-104702380D02*
X110319047Y-105702380D01*
X110652380Y-104702380D01*
D11*
X91267380Y-51200273D02*
X91267380Y-50350273D01*
X91672142Y-50633607D02*
X91672142Y-51200273D01*
X91672142Y-50714559D02*
X91712619Y-50674083D01*
X91793571Y-50633607D01*
X91915000Y-50633607D01*
X91995952Y-50674083D01*
X92036428Y-50755035D01*
X92036428Y-51200273D01*
X92441190Y-50633607D02*
X92441190Y-51483607D01*
X92441190Y-50674083D02*
X92522142Y-50633607D01*
X92684047Y-50633607D01*
X92765000Y-50674083D01*
X92805476Y-50714559D01*
X92845952Y-50795511D01*
X92845952Y-51038369D01*
X92805476Y-51119321D01*
X92765000Y-51159797D01*
X92684047Y-51200273D01*
X92522142Y-51200273D01*
X92441190Y-51159797D01*
X93574523Y-50633607D02*
X93574523Y-51200273D01*
X93210238Y-50633607D02*
X93210238Y-51078845D01*
X93250714Y-51159797D01*
X93331666Y-51200273D01*
X93453095Y-51200273D01*
X93534047Y-51159797D01*
X93574523Y-51119321D01*
X93857857Y-50633607D02*
X94181666Y-50633607D01*
X93979285Y-50350273D02*
X93979285Y-51078845D01*
X94019761Y-51159797D01*
X94100714Y-51200273D01*
X94181666Y-51200273D01*
X91672142Y-52568773D02*
X91267380Y-52568773D01*
X91267380Y-51718773D01*
X91955476Y-52568773D02*
X91955476Y-51718773D01*
X92279285Y-51718773D01*
X92360238Y-51759250D01*
X92400714Y-51799726D01*
X92441190Y-51880678D01*
X92441190Y-52002107D01*
X92400714Y-52083059D01*
X92360238Y-52123535D01*
X92279285Y-52164011D01*
X91955476Y-52164011D01*
X93736428Y-52123535D02*
X93453095Y-52123535D01*
X93453095Y-52568773D02*
X93453095Y-51718773D01*
X93857857Y-51718773D01*
X94181666Y-52568773D02*
X94181666Y-52002107D01*
X94181666Y-51718773D02*
X94141190Y-51759250D01*
X94181666Y-51799726D01*
X94222142Y-51759250D01*
X94181666Y-51718773D01*
X94181666Y-51799726D01*
X94707857Y-52568773D02*
X94626904Y-52528297D01*
X94586428Y-52447345D01*
X94586428Y-51718773D01*
X94910238Y-52002107D02*
X95234047Y-52002107D01*
X95031666Y-51718773D02*
X95031666Y-52447345D01*
X95072142Y-52528297D01*
X95153095Y-52568773D01*
X95234047Y-52568773D01*
X95841190Y-52528297D02*
X95760238Y-52568773D01*
X95598333Y-52568773D01*
X95517380Y-52528297D01*
X95476904Y-52447345D01*
X95476904Y-52123535D01*
X95517380Y-52042583D01*
X95598333Y-52002107D01*
X95760238Y-52002107D01*
X95841190Y-52042583D01*
X95881666Y-52123535D01*
X95881666Y-52204488D01*
X95476904Y-52285440D01*
X96245952Y-52568773D02*
X96245952Y-52002107D01*
X96245952Y-52164011D02*
X96286428Y-52083059D01*
X96326904Y-52042583D01*
X96407857Y-52002107D01*
X96488809Y-52002107D01*
D10*
%TO.C,J8*%
X94782380Y-117833333D02*
X95496666Y-117833333D01*
X95639523Y-117880952D01*
X95734761Y-117976190D01*
X95782380Y-118119047D01*
X95782380Y-118214285D01*
X95210952Y-117214285D02*
X95163333Y-117309523D01*
X95115714Y-117357142D01*
X95020476Y-117404761D01*
X94972857Y-117404761D01*
X94877619Y-117357142D01*
X94830000Y-117309523D01*
X94782380Y-117214285D01*
X94782380Y-117023809D01*
X94830000Y-116928571D01*
X94877619Y-116880952D01*
X94972857Y-116833333D01*
X95020476Y-116833333D01*
X95115714Y-116880952D01*
X95163333Y-116928571D01*
X95210952Y-117023809D01*
X95210952Y-117214285D01*
X95258571Y-117309523D01*
X95306190Y-117357142D01*
X95401428Y-117404761D01*
X95591904Y-117404761D01*
X95687142Y-117357142D01*
X95734761Y-117309523D01*
X95782380Y-117214285D01*
X95782380Y-117023809D01*
X95734761Y-116928571D01*
X95687142Y-116880952D01*
X95591904Y-116833333D01*
X95401428Y-116833333D01*
X95306190Y-116880952D01*
X95258571Y-116928571D01*
X95210952Y-117023809D01*
%TO.C,J3*%
X101516666Y-133102380D02*
X101516666Y-133816666D01*
X101469047Y-133959523D01*
X101373809Y-134054761D01*
X101230952Y-134102380D01*
X101135714Y-134102380D01*
X101897619Y-133102380D02*
X102516666Y-133102380D01*
X102183333Y-133483333D01*
X102326190Y-133483333D01*
X102421428Y-133530952D01*
X102469047Y-133578571D01*
X102516666Y-133673809D01*
X102516666Y-133911904D01*
X102469047Y-134007142D01*
X102421428Y-134054761D01*
X102326190Y-134102380D01*
X102040476Y-134102380D01*
X101945238Y-134054761D01*
X101897619Y-134007142D01*
%TO.C,F1*%
X104416666Y-122358571D02*
X104083333Y-122358571D01*
X104083333Y-122882380D02*
X104083333Y-121882380D01*
X104559523Y-121882380D01*
X105464285Y-122882380D02*
X104892857Y-122882380D01*
X105178571Y-122882380D02*
X105178571Y-121882380D01*
X105083333Y-122025238D01*
X104988095Y-122120476D01*
X104892857Y-122168095D01*
%TO.C,J2*%
X100416666Y-134702380D02*
X100416666Y-135416666D01*
X100369047Y-135559523D01*
X100273809Y-135654761D01*
X100130952Y-135702380D01*
X100035714Y-135702380D01*
X100845238Y-134797619D02*
X100892857Y-134750000D01*
X100988095Y-134702380D01*
X101226190Y-134702380D01*
X101321428Y-134750000D01*
X101369047Y-134797619D01*
X101416666Y-134892857D01*
X101416666Y-134988095D01*
X101369047Y-135130952D01*
X100797619Y-135702380D01*
X101416666Y-135702380D01*
%TO.C,U3*%
X138952380Y-106811904D02*
X139761904Y-106811904D01*
X139857142Y-106764285D01*
X139904761Y-106716666D01*
X139952380Y-106621428D01*
X139952380Y-106430952D01*
X139904761Y-106335714D01*
X139857142Y-106288095D01*
X139761904Y-106240476D01*
X138952380Y-106240476D01*
X138952380Y-105859523D02*
X138952380Y-105240476D01*
X139333333Y-105573809D01*
X139333333Y-105430952D01*
X139380952Y-105335714D01*
X139428571Y-105288095D01*
X139523809Y-105240476D01*
X139761904Y-105240476D01*
X139857142Y-105288095D01*
X139904761Y-105335714D01*
X139952380Y-105430952D01*
X139952380Y-105716666D01*
X139904761Y-105811904D01*
X139857142Y-105859523D01*
%TO.C,Q4*%
X142947619Y-89157738D02*
X142900000Y-89252976D01*
X142804761Y-89348214D01*
X142661904Y-89491071D01*
X142614285Y-89586309D01*
X142614285Y-89681547D01*
X142852380Y-89633928D02*
X142804761Y-89729166D01*
X142709523Y-89824404D01*
X142519047Y-89872023D01*
X142185714Y-89872023D01*
X141995238Y-89824404D01*
X141900000Y-89729166D01*
X141852380Y-89633928D01*
X141852380Y-89443452D01*
X141900000Y-89348214D01*
X141995238Y-89252976D01*
X142185714Y-89205357D01*
X142519047Y-89205357D01*
X142709523Y-89252976D01*
X142804761Y-89348214D01*
X142852380Y-89443452D01*
X142852380Y-89633928D01*
X142185714Y-88348214D02*
X142852380Y-88348214D01*
X141804761Y-88586309D02*
X142519047Y-88824404D01*
X142519047Y-88205357D01*
%TO.C,K1*%
X149988096Y-98547619D02*
X149988096Y-99547619D01*
X149416667Y-98547619D02*
X149845239Y-99119047D01*
X149416667Y-99547619D02*
X149988096Y-98976190D01*
X148464286Y-98547619D02*
X149035715Y-98547619D01*
X148750001Y-98547619D02*
X148750001Y-99547619D01*
X148845239Y-99404761D01*
X148940477Y-99309523D01*
X149035715Y-99261904D01*
X153250000Y-109690953D02*
X153250000Y-109452857D01*
X153488095Y-109548095D02*
X153250000Y-109452857D01*
X153011904Y-109548095D01*
X153392857Y-109262381D02*
X153250000Y-109452857D01*
X153107142Y-109262381D01*
X153250000Y-108595714D02*
X153250000Y-108833810D01*
X153011904Y-108738572D02*
X153250000Y-108833810D01*
X153488095Y-108738572D01*
X153107142Y-109024286D02*
X153250000Y-108833810D01*
X153392857Y-109024286D01*
%TO.C,D7*%
X151761904Y-90452380D02*
X151761904Y-89452380D01*
X152000000Y-89452380D01*
X152142857Y-89500000D01*
X152238095Y-89595238D01*
X152285714Y-89690476D01*
X152333333Y-89880952D01*
X152333333Y-90023809D01*
X152285714Y-90214285D01*
X152238095Y-90309523D01*
X152142857Y-90404761D01*
X152000000Y-90452380D01*
X151761904Y-90452380D01*
X152666666Y-89452380D02*
X153333333Y-89452380D01*
X152904761Y-90452380D01*
%TO.C,Q3*%
X134147619Y-136345238D02*
X134100000Y-136440476D01*
X134004761Y-136535714D01*
X133861904Y-136678571D01*
X133814285Y-136773809D01*
X133814285Y-136869047D01*
X134052380Y-136821428D02*
X134004761Y-136916666D01*
X133909523Y-137011904D01*
X133719047Y-137059523D01*
X133385714Y-137059523D01*
X133195238Y-137011904D01*
X133100000Y-136916666D01*
X133052380Y-136821428D01*
X133052380Y-136630952D01*
X133100000Y-136535714D01*
X133195238Y-136440476D01*
X133385714Y-136392857D01*
X133719047Y-136392857D01*
X133909523Y-136440476D01*
X134004761Y-136535714D01*
X134052380Y-136630952D01*
X134052380Y-136821428D01*
X133052380Y-136059523D02*
X133052380Y-135440476D01*
X133433333Y-135773809D01*
X133433333Y-135630952D01*
X133480952Y-135535714D01*
X133528571Y-135488095D01*
X133623809Y-135440476D01*
X133861904Y-135440476D01*
X133957142Y-135488095D01*
X134004761Y-135535714D01*
X134052380Y-135630952D01*
X134052380Y-135916666D01*
X134004761Y-136011904D01*
X133957142Y-136059523D01*
%TO.C,Q2*%
X143947619Y-114595238D02*
X143900000Y-114690476D01*
X143804761Y-114785714D01*
X143661904Y-114928571D01*
X143614285Y-115023809D01*
X143614285Y-115119047D01*
X143852380Y-115071428D02*
X143804761Y-115166666D01*
X143709523Y-115261904D01*
X143519047Y-115309523D01*
X143185714Y-115309523D01*
X142995238Y-115261904D01*
X142900000Y-115166666D01*
X142852380Y-115071428D01*
X142852380Y-114880952D01*
X142900000Y-114785714D01*
X142995238Y-114690476D01*
X143185714Y-114642857D01*
X143519047Y-114642857D01*
X143709523Y-114690476D01*
X143804761Y-114785714D01*
X143852380Y-114880952D01*
X143852380Y-115071428D01*
X142947619Y-114261904D02*
X142900000Y-114214285D01*
X142852380Y-114119047D01*
X142852380Y-113880952D01*
X142900000Y-113785714D01*
X142947619Y-113738095D01*
X143042857Y-113690476D01*
X143138095Y-113690476D01*
X143280952Y-113738095D01*
X143852380Y-114309523D01*
X143852380Y-113690476D01*
%TO.C,K2*%
X132511904Y-124452381D02*
X132511904Y-123452381D01*
X133083333Y-124452381D02*
X132654761Y-123880953D01*
X133083333Y-123452381D02*
X132511904Y-124023810D01*
X133464285Y-123547620D02*
X133511904Y-123500001D01*
X133607142Y-123452381D01*
X133845238Y-123452381D01*
X133940476Y-123500001D01*
X133988095Y-123547620D01*
X134035714Y-123642858D01*
X134035714Y-123738096D01*
X133988095Y-123880953D01*
X133416666Y-124452381D01*
X134035714Y-124452381D01*
X128250000Y-115952380D02*
X128250000Y-116190476D01*
X128011904Y-116095238D02*
X128250000Y-116190476D01*
X128488095Y-116095238D01*
X128107142Y-116380952D02*
X128250000Y-116190476D01*
X128392857Y-116380952D01*
X129000000Y-115952380D02*
X129000000Y-116190476D01*
X128761904Y-116095238D02*
X129000000Y-116190476D01*
X129238095Y-116095238D01*
X128857142Y-116380952D02*
X129000000Y-116190476D01*
X129142857Y-116380952D01*
%TO.C,D3*%
X130111904Y-114702380D02*
X130111904Y-113702380D01*
X130350000Y-113702380D01*
X130492857Y-113750000D01*
X130588095Y-113845238D01*
X130635714Y-113940476D01*
X130683333Y-114130952D01*
X130683333Y-114273809D01*
X130635714Y-114464285D01*
X130588095Y-114559523D01*
X130492857Y-114654761D01*
X130350000Y-114702380D01*
X130111904Y-114702380D01*
X131016666Y-113702380D02*
X131635714Y-113702380D01*
X131302380Y-114083333D01*
X131445238Y-114083333D01*
X131540476Y-114130952D01*
X131588095Y-114178571D01*
X131635714Y-114273809D01*
X131635714Y-114511904D01*
X131588095Y-114607142D01*
X131540476Y-114654761D01*
X131445238Y-114702380D01*
X131159523Y-114702380D01*
X131064285Y-114654761D01*
X131016666Y-114607142D01*
%TO.C,D2*%
X136511904Y-133702380D02*
X136511904Y-132702380D01*
X136750000Y-132702380D01*
X136892857Y-132750000D01*
X136988095Y-132845238D01*
X137035714Y-132940476D01*
X137083333Y-133130952D01*
X137083333Y-133273809D01*
X137035714Y-133464285D01*
X136988095Y-133559523D01*
X136892857Y-133654761D01*
X136750000Y-133702380D01*
X136511904Y-133702380D01*
X137464285Y-132797619D02*
X137511904Y-132750000D01*
X137607142Y-132702380D01*
X137845238Y-132702380D01*
X137940476Y-132750000D01*
X137988095Y-132797619D01*
X138035714Y-132892857D01*
X138035714Y-132988095D01*
X137988095Y-133130952D01*
X137416666Y-133702380D01*
X138035714Y-133702380D01*
%TO.C,Q1*%
X148154761Y-111447619D02*
X148059523Y-111400000D01*
X147964285Y-111304761D01*
X147821428Y-111161904D01*
X147726190Y-111114285D01*
X147630952Y-111114285D01*
X147678571Y-111352380D02*
X147583333Y-111304761D01*
X147488095Y-111209523D01*
X147440476Y-111019047D01*
X147440476Y-110685714D01*
X147488095Y-110495238D01*
X147583333Y-110400000D01*
X147678571Y-110352380D01*
X147869047Y-110352380D01*
X147964285Y-110400000D01*
X148059523Y-110495238D01*
X148107142Y-110685714D01*
X148107142Y-111019047D01*
X148059523Y-111209523D01*
X147964285Y-111304761D01*
X147869047Y-111352380D01*
X147678571Y-111352380D01*
X149059523Y-111352380D02*
X148488095Y-111352380D01*
X148773809Y-111352380D02*
X148773809Y-110352380D01*
X148678571Y-110495238D01*
X148583333Y-110590476D01*
X148488095Y-110638095D01*
%TO.C,D1*%
X144952380Y-104088095D02*
X143952380Y-104088095D01*
X143952380Y-103850000D01*
X144000000Y-103707142D01*
X144095238Y-103611904D01*
X144190476Y-103564285D01*
X144380952Y-103516666D01*
X144523809Y-103516666D01*
X144714285Y-103564285D01*
X144809523Y-103611904D01*
X144904761Y-103707142D01*
X144952380Y-103850000D01*
X144952380Y-104088095D01*
X144952380Y-102564285D02*
X144952380Y-103135714D01*
X144952380Y-102850000D02*
X143952380Y-102850000D01*
X144095238Y-102945238D01*
X144190476Y-103040476D01*
X144238095Y-103135714D01*
%TO.C,R116*%
X87630952Y-126952380D02*
X87297619Y-126476190D01*
X87059523Y-126952380D02*
X87059523Y-125952380D01*
X87440476Y-125952380D01*
X87535714Y-126000000D01*
X87583333Y-126047619D01*
X87630952Y-126142857D01*
X87630952Y-126285714D01*
X87583333Y-126380952D01*
X87535714Y-126428571D01*
X87440476Y-126476190D01*
X87059523Y-126476190D01*
X88583333Y-126952380D02*
X88011904Y-126952380D01*
X88297619Y-126952380D02*
X88297619Y-125952380D01*
X88202380Y-126095238D01*
X88107142Y-126190476D01*
X88011904Y-126238095D01*
X89535714Y-126952380D02*
X88964285Y-126952380D01*
X89250000Y-126952380D02*
X89250000Y-125952380D01*
X89154761Y-126095238D01*
X89059523Y-126190476D01*
X88964285Y-126238095D01*
X90392857Y-125952380D02*
X90202380Y-125952380D01*
X90107142Y-126000000D01*
X90059523Y-126047619D01*
X89964285Y-126190476D01*
X89916666Y-126380952D01*
X89916666Y-126761904D01*
X89964285Y-126857142D01*
X90011904Y-126904761D01*
X90107142Y-126952380D01*
X90297619Y-126952380D01*
X90392857Y-126904761D01*
X90440476Y-126857142D01*
X90488095Y-126761904D01*
X90488095Y-126523809D01*
X90440476Y-126428571D01*
X90392857Y-126380952D01*
X90297619Y-126333333D01*
X90107142Y-126333333D01*
X90011904Y-126380952D01*
X89964285Y-126428571D01*
X89916666Y-126523809D01*
%TO.C,R115*%
X87630952Y-123952380D02*
X87297619Y-123476190D01*
X87059523Y-123952380D02*
X87059523Y-122952380D01*
X87440476Y-122952380D01*
X87535714Y-123000000D01*
X87583333Y-123047619D01*
X87630952Y-123142857D01*
X87630952Y-123285714D01*
X87583333Y-123380952D01*
X87535714Y-123428571D01*
X87440476Y-123476190D01*
X87059523Y-123476190D01*
X88583333Y-123952380D02*
X88011904Y-123952380D01*
X88297619Y-123952380D02*
X88297619Y-122952380D01*
X88202380Y-123095238D01*
X88107142Y-123190476D01*
X88011904Y-123238095D01*
X89535714Y-123952380D02*
X88964285Y-123952380D01*
X89250000Y-123952380D02*
X89250000Y-122952380D01*
X89154761Y-123095238D01*
X89059523Y-123190476D01*
X88964285Y-123238095D01*
X90440476Y-122952380D02*
X89964285Y-122952380D01*
X89916666Y-123428571D01*
X89964285Y-123380952D01*
X90059523Y-123333333D01*
X90297619Y-123333333D01*
X90392857Y-123380952D01*
X90440476Y-123428571D01*
X90488095Y-123523809D01*
X90488095Y-123761904D01*
X90440476Y-123857142D01*
X90392857Y-123904761D01*
X90297619Y-123952380D01*
X90059523Y-123952380D01*
X89964285Y-123904761D01*
X89916666Y-123857142D01*
%TO.C,R114*%
X87630952Y-132702380D02*
X87297619Y-132226190D01*
X87059523Y-132702380D02*
X87059523Y-131702380D01*
X87440476Y-131702380D01*
X87535714Y-131750000D01*
X87583333Y-131797619D01*
X87630952Y-131892857D01*
X87630952Y-132035714D01*
X87583333Y-132130952D01*
X87535714Y-132178571D01*
X87440476Y-132226190D01*
X87059523Y-132226190D01*
X88583333Y-132702380D02*
X88011904Y-132702380D01*
X88297619Y-132702380D02*
X88297619Y-131702380D01*
X88202380Y-131845238D01*
X88107142Y-131940476D01*
X88011904Y-131988095D01*
X89535714Y-132702380D02*
X88964285Y-132702380D01*
X89250000Y-132702380D02*
X89250000Y-131702380D01*
X89154761Y-131845238D01*
X89059523Y-131940476D01*
X88964285Y-131988095D01*
X90392857Y-132035714D02*
X90392857Y-132702380D01*
X90154761Y-131654761D02*
X89916666Y-132369047D01*
X90535714Y-132369047D01*
%TO.C,R113*%
X87630952Y-129702380D02*
X87297619Y-129226190D01*
X87059523Y-129702380D02*
X87059523Y-128702380D01*
X87440476Y-128702380D01*
X87535714Y-128750000D01*
X87583333Y-128797619D01*
X87630952Y-128892857D01*
X87630952Y-129035714D01*
X87583333Y-129130952D01*
X87535714Y-129178571D01*
X87440476Y-129226190D01*
X87059523Y-129226190D01*
X88583333Y-129702380D02*
X88011904Y-129702380D01*
X88297619Y-129702380D02*
X88297619Y-128702380D01*
X88202380Y-128845238D01*
X88107142Y-128940476D01*
X88011904Y-128988095D01*
X89535714Y-129702380D02*
X88964285Y-129702380D01*
X89250000Y-129702380D02*
X89250000Y-128702380D01*
X89154761Y-128845238D01*
X89059523Y-128940476D01*
X88964285Y-128988095D01*
X89869047Y-128702380D02*
X90488095Y-128702380D01*
X90154761Y-129083333D01*
X90297619Y-129083333D01*
X90392857Y-129130952D01*
X90440476Y-129178571D01*
X90488095Y-129273809D01*
X90488095Y-129511904D01*
X90440476Y-129607142D01*
X90392857Y-129654761D01*
X90297619Y-129702380D01*
X90011904Y-129702380D01*
X89916666Y-129654761D01*
X89869047Y-129607142D01*
%TO.C,Q23*%
X95928571Y-127547619D02*
X95833333Y-127500000D01*
X95738095Y-127404761D01*
X95595238Y-127261904D01*
X95500000Y-127214285D01*
X95404761Y-127214285D01*
X95452380Y-127452380D02*
X95357142Y-127404761D01*
X95261904Y-127309523D01*
X95214285Y-127119047D01*
X95214285Y-126785714D01*
X95261904Y-126595238D01*
X95357142Y-126500000D01*
X95452380Y-126452380D01*
X95642857Y-126452380D01*
X95738095Y-126500000D01*
X95833333Y-126595238D01*
X95880952Y-126785714D01*
X95880952Y-127119047D01*
X95833333Y-127309523D01*
X95738095Y-127404761D01*
X95642857Y-127452380D01*
X95452380Y-127452380D01*
X96261904Y-126547619D02*
X96309523Y-126500000D01*
X96404761Y-126452380D01*
X96642857Y-126452380D01*
X96738095Y-126500000D01*
X96785714Y-126547619D01*
X96833333Y-126642857D01*
X96833333Y-126738095D01*
X96785714Y-126880952D01*
X96214285Y-127452380D01*
X96833333Y-127452380D01*
X97166666Y-126452380D02*
X97785714Y-126452380D01*
X97452380Y-126833333D01*
X97595238Y-126833333D01*
X97690476Y-126880952D01*
X97738095Y-126928571D01*
X97785714Y-127023809D01*
X97785714Y-127261904D01*
X97738095Y-127357142D01*
X97690476Y-127404761D01*
X97595238Y-127452380D01*
X97309523Y-127452380D01*
X97214285Y-127404761D01*
X97166666Y-127357142D01*
%TO.C,Q22*%
X95928571Y-123547619D02*
X95833333Y-123500000D01*
X95738095Y-123404761D01*
X95595238Y-123261904D01*
X95500000Y-123214285D01*
X95404761Y-123214285D01*
X95452380Y-123452380D02*
X95357142Y-123404761D01*
X95261904Y-123309523D01*
X95214285Y-123119047D01*
X95214285Y-122785714D01*
X95261904Y-122595238D01*
X95357142Y-122500000D01*
X95452380Y-122452380D01*
X95642857Y-122452380D01*
X95738095Y-122500000D01*
X95833333Y-122595238D01*
X95880952Y-122785714D01*
X95880952Y-123119047D01*
X95833333Y-123309523D01*
X95738095Y-123404761D01*
X95642857Y-123452380D01*
X95452380Y-123452380D01*
X96261904Y-122547619D02*
X96309523Y-122500000D01*
X96404761Y-122452380D01*
X96642857Y-122452380D01*
X96738095Y-122500000D01*
X96785714Y-122547619D01*
X96833333Y-122642857D01*
X96833333Y-122738095D01*
X96785714Y-122880952D01*
X96214285Y-123452380D01*
X96833333Y-123452380D01*
X97214285Y-122547619D02*
X97261904Y-122500000D01*
X97357142Y-122452380D01*
X97595238Y-122452380D01*
X97690476Y-122500000D01*
X97738095Y-122547619D01*
X97785714Y-122642857D01*
X97785714Y-122738095D01*
X97738095Y-122880952D01*
X97166666Y-123452380D01*
X97785714Y-123452380D01*
%TO.C,Q21*%
X95678571Y-134297619D02*
X95583333Y-134250000D01*
X95488095Y-134154761D01*
X95345238Y-134011904D01*
X95250000Y-133964285D01*
X95154761Y-133964285D01*
X95202380Y-134202380D02*
X95107142Y-134154761D01*
X95011904Y-134059523D01*
X94964285Y-133869047D01*
X94964285Y-133535714D01*
X95011904Y-133345238D01*
X95107142Y-133250000D01*
X95202380Y-133202380D01*
X95392857Y-133202380D01*
X95488095Y-133250000D01*
X95583333Y-133345238D01*
X95630952Y-133535714D01*
X95630952Y-133869047D01*
X95583333Y-134059523D01*
X95488095Y-134154761D01*
X95392857Y-134202380D01*
X95202380Y-134202380D01*
X96011904Y-133297619D02*
X96059523Y-133250000D01*
X96154761Y-133202380D01*
X96392857Y-133202380D01*
X96488095Y-133250000D01*
X96535714Y-133297619D01*
X96583333Y-133392857D01*
X96583333Y-133488095D01*
X96535714Y-133630952D01*
X95964285Y-134202380D01*
X96583333Y-134202380D01*
X97535714Y-134202380D02*
X96964285Y-134202380D01*
X97250000Y-134202380D02*
X97250000Y-133202380D01*
X97154761Y-133345238D01*
X97059523Y-133440476D01*
X96964285Y-133488095D01*
%TO.C,Q20*%
X95928571Y-131047619D02*
X95833333Y-131000000D01*
X95738095Y-130904761D01*
X95595238Y-130761904D01*
X95500000Y-130714285D01*
X95404761Y-130714285D01*
X95452380Y-130952380D02*
X95357142Y-130904761D01*
X95261904Y-130809523D01*
X95214285Y-130619047D01*
X95214285Y-130285714D01*
X95261904Y-130095238D01*
X95357142Y-130000000D01*
X95452380Y-129952380D01*
X95642857Y-129952380D01*
X95738095Y-130000000D01*
X95833333Y-130095238D01*
X95880952Y-130285714D01*
X95880952Y-130619047D01*
X95833333Y-130809523D01*
X95738095Y-130904761D01*
X95642857Y-130952380D01*
X95452380Y-130952380D01*
X96261904Y-130047619D02*
X96309523Y-130000000D01*
X96404761Y-129952380D01*
X96642857Y-129952380D01*
X96738095Y-130000000D01*
X96785714Y-130047619D01*
X96833333Y-130142857D01*
X96833333Y-130238095D01*
X96785714Y-130380952D01*
X96214285Y-130952380D01*
X96833333Y-130952380D01*
X97452380Y-129952380D02*
X97547619Y-129952380D01*
X97642857Y-130000000D01*
X97690476Y-130047619D01*
X97738095Y-130142857D01*
X97785714Y-130333333D01*
X97785714Y-130571428D01*
X97738095Y-130761904D01*
X97690476Y-130857142D01*
X97642857Y-130904761D01*
X97547619Y-130952380D01*
X97452380Y-130952380D01*
X97357142Y-130904761D01*
X97309523Y-130857142D01*
X97261904Y-130761904D01*
X97214285Y-130571428D01*
X97214285Y-130333333D01*
X97261904Y-130142857D01*
X97309523Y-130047619D01*
X97357142Y-130000000D01*
X97452380Y-129952380D01*
%TO.C,D15*%
X79332919Y-123752314D02*
X80332919Y-123752314D01*
X80332919Y-123990409D01*
X80285300Y-124133266D01*
X80190061Y-124228504D01*
X80094823Y-124276123D01*
X79904347Y-124323742D01*
X79761490Y-124323742D01*
X79571014Y-124276123D01*
X79475776Y-124228504D01*
X79380538Y-124133266D01*
X79332919Y-123990409D01*
X79332919Y-123752314D01*
X79332919Y-125276123D02*
X79332919Y-124704695D01*
X79332919Y-124990409D02*
X80332919Y-124990409D01*
X80190061Y-124895171D01*
X80094823Y-124799933D01*
X80047204Y-124704695D01*
X80332919Y-126180885D02*
X80332919Y-125704695D01*
X79856728Y-125657076D01*
X79904347Y-125704695D01*
X79951966Y-125799933D01*
X79951966Y-126038028D01*
X79904347Y-126133266D01*
X79856728Y-126180885D01*
X79761490Y-126228504D01*
X79523395Y-126228504D01*
X79428157Y-126180885D01*
X79380538Y-126133266D01*
X79332919Y-126038028D01*
X79332919Y-125799933D01*
X79380538Y-125704695D01*
X79428157Y-125657076D01*
%TO.C,D14*%
X79332919Y-129502314D02*
X80332919Y-129502314D01*
X80332919Y-129740409D01*
X80285300Y-129883266D01*
X80190061Y-129978504D01*
X80094823Y-130026123D01*
X79904347Y-130073742D01*
X79761490Y-130073742D01*
X79571014Y-130026123D01*
X79475776Y-129978504D01*
X79380538Y-129883266D01*
X79332919Y-129740409D01*
X79332919Y-129502314D01*
X79332919Y-131026123D02*
X79332919Y-130454695D01*
X79332919Y-130740409D02*
X80332919Y-130740409D01*
X80190061Y-130645171D01*
X80094823Y-130549933D01*
X80047204Y-130454695D01*
X79999585Y-131883266D02*
X79332919Y-131883266D01*
X80380538Y-131645171D02*
X79666252Y-131407076D01*
X79666252Y-132026123D01*
%TO.C,J6*%
X159347619Y-66916666D02*
X158633333Y-66916666D01*
X158490476Y-66869047D01*
X158395238Y-66773809D01*
X158347619Y-66630952D01*
X158347619Y-66535714D01*
X159347619Y-67821428D02*
X159347619Y-67630952D01*
X159300000Y-67535714D01*
X159252380Y-67488095D01*
X159109523Y-67392857D01*
X158919047Y-67345238D01*
X158538095Y-67345238D01*
X158442857Y-67392857D01*
X158395238Y-67440476D01*
X158347619Y-67535714D01*
X158347619Y-67726190D01*
X158395238Y-67821428D01*
X158442857Y-67869047D01*
X158538095Y-67916666D01*
X158776190Y-67916666D01*
X158871428Y-67869047D01*
X158919047Y-67821428D01*
X158966666Y-67726190D01*
X158966666Y-67535714D01*
X158919047Y-67440476D01*
X158871428Y-67392857D01*
X158776190Y-67345238D01*
%TO.C,J7*%
X159197619Y-133566666D02*
X158483333Y-133566666D01*
X158340476Y-133519047D01*
X158245238Y-133423809D01*
X158197619Y-133280952D01*
X158197619Y-133185714D01*
X159197619Y-133947619D02*
X159197619Y-134614285D01*
X158197619Y-134185714D01*
%TO.C,R7*%
X125202380Y-107636666D02*
X124726190Y-107970000D01*
X125202380Y-108208095D02*
X124202380Y-108208095D01*
X124202380Y-107827142D01*
X124250000Y-107731904D01*
X124297619Y-107684285D01*
X124392857Y-107636666D01*
X124535714Y-107636666D01*
X124630952Y-107684285D01*
X124678571Y-107731904D01*
X124726190Y-107827142D01*
X124726190Y-108208095D01*
X124202380Y-107303333D02*
X124202380Y-106636666D01*
X125202380Y-107065238D01*
%TO.C,R8*%
X137083333Y-97202380D02*
X136750000Y-96726190D01*
X136511904Y-97202380D02*
X136511904Y-96202380D01*
X136892857Y-96202380D01*
X136988095Y-96250000D01*
X137035714Y-96297619D01*
X137083333Y-96392857D01*
X137083333Y-96535714D01*
X137035714Y-96630952D01*
X136988095Y-96678571D01*
X136892857Y-96726190D01*
X136511904Y-96726190D01*
X137654761Y-96630952D02*
X137559523Y-96583333D01*
X137511904Y-96535714D01*
X137464285Y-96440476D01*
X137464285Y-96392857D01*
X137511904Y-96297619D01*
X137559523Y-96250000D01*
X137654761Y-96202380D01*
X137845238Y-96202380D01*
X137940476Y-96250000D01*
X137988095Y-96297619D01*
X138035714Y-96392857D01*
X138035714Y-96440476D01*
X137988095Y-96535714D01*
X137940476Y-96583333D01*
X137845238Y-96630952D01*
X137654761Y-96630952D01*
X137559523Y-96678571D01*
X137511904Y-96726190D01*
X137464285Y-96821428D01*
X137464285Y-97011904D01*
X137511904Y-97107142D01*
X137559523Y-97154761D01*
X137654761Y-97202380D01*
X137845238Y-97202380D01*
X137940476Y-97154761D01*
X137988095Y-97107142D01*
X138035714Y-97011904D01*
X138035714Y-96821428D01*
X137988095Y-96726190D01*
X137940476Y-96678571D01*
X137845238Y-96630952D01*
%TO.C,J5*%
X159497619Y-111166666D02*
X158783333Y-111166666D01*
X158640476Y-111119047D01*
X158545238Y-111023809D01*
X158497619Y-110880952D01*
X158497619Y-110785714D01*
X159497619Y-112119047D02*
X159497619Y-111642857D01*
X159021428Y-111595238D01*
X159069047Y-111642857D01*
X159116666Y-111738095D01*
X159116666Y-111976190D01*
X159069047Y-112071428D01*
X159021428Y-112119047D01*
X158926190Y-112166666D01*
X158688095Y-112166666D01*
X158592857Y-112119047D01*
X158545238Y-112071428D01*
X158497619Y-111976190D01*
X158497619Y-111738095D01*
X158545238Y-111642857D01*
X158592857Y-111595238D01*
%TO.C,J4*%
X159297619Y-89266666D02*
X158583333Y-89266666D01*
X158440476Y-89219047D01*
X158345238Y-89123809D01*
X158297619Y-88980952D01*
X158297619Y-88885714D01*
X158964285Y-90171428D02*
X158297619Y-90171428D01*
X159345238Y-89933333D02*
X158630952Y-89695238D01*
X158630952Y-90314285D01*
%TO.C,U4*%
X138988095Y-93452380D02*
X138988095Y-94261904D01*
X139035714Y-94357142D01*
X139083333Y-94404761D01*
X139178571Y-94452380D01*
X139369047Y-94452380D01*
X139464285Y-94404761D01*
X139511904Y-94357142D01*
X139559523Y-94261904D01*
X139559523Y-93452380D01*
X140464285Y-93785714D02*
X140464285Y-94452380D01*
X140226190Y-93404761D02*
X139988095Y-94119047D01*
X140607142Y-94119047D01*
%TO.C,C7*%
X100112125Y-112857142D02*
X100064506Y-112904761D01*
X99921649Y-112952380D01*
X99826411Y-112952380D01*
X99683553Y-112904761D01*
X99588315Y-112809523D01*
X99540696Y-112714285D01*
X99493077Y-112523809D01*
X99493077Y-112380952D01*
X99540696Y-112190476D01*
X99588315Y-112095238D01*
X99683553Y-112000000D01*
X99826411Y-111952380D01*
X99921649Y-111952380D01*
X100064506Y-112000000D01*
X100112125Y-112047619D01*
X100445458Y-111952380D02*
X101112125Y-111952380D01*
X100683553Y-112952380D01*
%TO.C,C9*%
X118735984Y-120357142D02*
X118688365Y-120404761D01*
X118545508Y-120452380D01*
X118450270Y-120452380D01*
X118307412Y-120404761D01*
X118212174Y-120309523D01*
X118164555Y-120214285D01*
X118116936Y-120023809D01*
X118116936Y-119880952D01*
X118164555Y-119690476D01*
X118212174Y-119595238D01*
X118307412Y-119500000D01*
X118450270Y-119452380D01*
X118545508Y-119452380D01*
X118688365Y-119500000D01*
X118735984Y-119547619D01*
X119212174Y-120452380D02*
X119402651Y-120452380D01*
X119497889Y-120404761D01*
X119545508Y-120357142D01*
X119640746Y-120214285D01*
X119688365Y-120023809D01*
X119688365Y-119642857D01*
X119640746Y-119547619D01*
X119593127Y-119500000D01*
X119497889Y-119452380D01*
X119307412Y-119452380D01*
X119212174Y-119500000D01*
X119164555Y-119547619D01*
X119116936Y-119642857D01*
X119116936Y-119880952D01*
X119164555Y-119976190D01*
X119212174Y-120023809D01*
X119307412Y-120071428D01*
X119497889Y-120071428D01*
X119593127Y-120023809D01*
X119640746Y-119976190D01*
X119688365Y-119880952D01*
%TO.C,R2*%
X124927380Y-65064166D02*
X124451190Y-65397500D01*
X124927380Y-65635595D02*
X123927380Y-65635595D01*
X123927380Y-65254642D01*
X123975000Y-65159404D01*
X124022619Y-65111785D01*
X124117857Y-65064166D01*
X124260714Y-65064166D01*
X124355952Y-65111785D01*
X124403571Y-65159404D01*
X124451190Y-65254642D01*
X124451190Y-65635595D01*
X124022619Y-64683214D02*
X123975000Y-64635595D01*
X123927380Y-64540357D01*
X123927380Y-64302261D01*
X123975000Y-64207023D01*
X124022619Y-64159404D01*
X124117857Y-64111785D01*
X124213095Y-64111785D01*
X124355952Y-64159404D01*
X124927380Y-64730833D01*
X124927380Y-64111785D01*
%TO.C,C1*%
X96037142Y-64666666D02*
X96084761Y-64714285D01*
X96132380Y-64857142D01*
X96132380Y-64952380D01*
X96084761Y-65095238D01*
X95989523Y-65190476D01*
X95894285Y-65238095D01*
X95703809Y-65285714D01*
X95560952Y-65285714D01*
X95370476Y-65238095D01*
X95275238Y-65190476D01*
X95180000Y-65095238D01*
X95132380Y-64952380D01*
X95132380Y-64857142D01*
X95180000Y-64714285D01*
X95227619Y-64666666D01*
X96132380Y-63714285D02*
X96132380Y-64285714D01*
X96132380Y-64000000D02*
X95132380Y-64000000D01*
X95275238Y-64095238D01*
X95370476Y-64190476D01*
X95418095Y-64285714D01*
%TO.C,R1*%
X95833333Y-61452380D02*
X95500000Y-60976190D01*
X95261904Y-61452380D02*
X95261904Y-60452380D01*
X95642857Y-60452380D01*
X95738095Y-60500000D01*
X95785714Y-60547619D01*
X95833333Y-60642857D01*
X95833333Y-60785714D01*
X95785714Y-60880952D01*
X95738095Y-60928571D01*
X95642857Y-60976190D01*
X95261904Y-60976190D01*
X96785714Y-61452380D02*
X96214285Y-61452380D01*
X96500000Y-61452380D02*
X96500000Y-60452380D01*
X96404761Y-60595238D01*
X96309523Y-60690476D01*
X96214285Y-60738095D01*
%TO.C,U1*%
X115738095Y-56552380D02*
X115738095Y-57361904D01*
X115785714Y-57457142D01*
X115833333Y-57504761D01*
X115928571Y-57552380D01*
X116119047Y-57552380D01*
X116214285Y-57504761D01*
X116261904Y-57457142D01*
X116309523Y-57361904D01*
X116309523Y-56552380D01*
X117309523Y-57552380D02*
X116738095Y-57552380D01*
X117023809Y-57552380D02*
X117023809Y-56552380D01*
X116928571Y-56695238D01*
X116833333Y-56790476D01*
X116738095Y-56838095D01*
%TO.C,C14*%
X110357142Y-68642857D02*
X110404761Y-68690476D01*
X110452380Y-68833333D01*
X110452380Y-68928571D01*
X110404761Y-69071428D01*
X110309523Y-69166666D01*
X110214285Y-69214285D01*
X110023809Y-69261904D01*
X109880952Y-69261904D01*
X109690476Y-69214285D01*
X109595238Y-69166666D01*
X109500000Y-69071428D01*
X109452380Y-68928571D01*
X109452380Y-68833333D01*
X109500000Y-68690476D01*
X109547619Y-68642857D01*
X110452380Y-67690476D02*
X110452380Y-68261904D01*
X110452380Y-67976190D02*
X109452380Y-67976190D01*
X109595238Y-68071428D01*
X109690476Y-68166666D01*
X109738095Y-68261904D01*
X109785714Y-66833333D02*
X110452380Y-66833333D01*
X109404761Y-67071428D02*
X110119047Y-67309523D01*
X110119047Y-66690476D01*
%TO.C,C17*%
X133907142Y-101357142D02*
X133859523Y-101404761D01*
X133716666Y-101452380D01*
X133621428Y-101452380D01*
X133478571Y-101404761D01*
X133383333Y-101309523D01*
X133335714Y-101214285D01*
X133288095Y-101023809D01*
X133288095Y-100880952D01*
X133335714Y-100690476D01*
X133383333Y-100595238D01*
X133478571Y-100500000D01*
X133621428Y-100452380D01*
X133716666Y-100452380D01*
X133859523Y-100500000D01*
X133907142Y-100547619D01*
X134859523Y-101452380D02*
X134288095Y-101452380D01*
X134573809Y-101452380D02*
X134573809Y-100452380D01*
X134478571Y-100595238D01*
X134383333Y-100690476D01*
X134288095Y-100738095D01*
X135192857Y-100452380D02*
X135859523Y-100452380D01*
X135430952Y-101452380D01*
%TO.C,C19*%
X122907142Y-57007142D02*
X122859523Y-57054761D01*
X122716666Y-57102380D01*
X122621428Y-57102380D01*
X122478571Y-57054761D01*
X122383333Y-56959523D01*
X122335714Y-56864285D01*
X122288095Y-56673809D01*
X122288095Y-56530952D01*
X122335714Y-56340476D01*
X122383333Y-56245238D01*
X122478571Y-56150000D01*
X122621428Y-56102380D01*
X122716666Y-56102380D01*
X122859523Y-56150000D01*
X122907142Y-56197619D01*
X123859523Y-57102380D02*
X123288095Y-57102380D01*
X123573809Y-57102380D02*
X123573809Y-56102380D01*
X123478571Y-56245238D01*
X123383333Y-56340476D01*
X123288095Y-56388095D01*
X124335714Y-57102380D02*
X124526190Y-57102380D01*
X124621428Y-57054761D01*
X124669047Y-57007142D01*
X124764285Y-56864285D01*
X124811904Y-56673809D01*
X124811904Y-56292857D01*
X124764285Y-56197619D01*
X124716666Y-56150000D01*
X124621428Y-56102380D01*
X124430952Y-56102380D01*
X124335714Y-56150000D01*
X124288095Y-56197619D01*
X124240476Y-56292857D01*
X124240476Y-56530952D01*
X124288095Y-56626190D01*
X124335714Y-56673809D01*
X124430952Y-56721428D01*
X124621428Y-56721428D01*
X124716666Y-56673809D01*
X124764285Y-56626190D01*
X124811904Y-56530952D01*
%TO.C,C20*%
X112332142Y-68642857D02*
X112379761Y-68690476D01*
X112427380Y-68833333D01*
X112427380Y-68928571D01*
X112379761Y-69071428D01*
X112284523Y-69166666D01*
X112189285Y-69214285D01*
X111998809Y-69261904D01*
X111855952Y-69261904D01*
X111665476Y-69214285D01*
X111570238Y-69166666D01*
X111475000Y-69071428D01*
X111427380Y-68928571D01*
X111427380Y-68833333D01*
X111475000Y-68690476D01*
X111522619Y-68642857D01*
X111522619Y-68261904D02*
X111475000Y-68214285D01*
X111427380Y-68119047D01*
X111427380Y-67880952D01*
X111475000Y-67785714D01*
X111522619Y-67738095D01*
X111617857Y-67690476D01*
X111713095Y-67690476D01*
X111855952Y-67738095D01*
X112427380Y-68309523D01*
X112427380Y-67690476D01*
X111427380Y-67071428D02*
X111427380Y-66976190D01*
X111475000Y-66880952D01*
X111522619Y-66833333D01*
X111617857Y-66785714D01*
X111808333Y-66738095D01*
X112046428Y-66738095D01*
X112236904Y-66785714D01*
X112332142Y-66833333D01*
X112379761Y-66880952D01*
X112427380Y-66976190D01*
X112427380Y-67071428D01*
X112379761Y-67166666D01*
X112332142Y-67214285D01*
X112236904Y-67261904D01*
X112046428Y-67309523D01*
X111808333Y-67309523D01*
X111617857Y-67261904D01*
X111522619Y-67214285D01*
X111475000Y-67166666D01*
X111427380Y-67071428D01*
%TO.C,D4*%
X105761904Y-110452380D02*
X105761904Y-109452380D01*
X106000000Y-109452380D01*
X106142857Y-109500000D01*
X106238095Y-109595238D01*
X106285714Y-109690476D01*
X106333333Y-109880952D01*
X106333333Y-110023809D01*
X106285714Y-110214285D01*
X106238095Y-110309523D01*
X106142857Y-110404761D01*
X106000000Y-110452380D01*
X105761904Y-110452380D01*
X107190476Y-109785714D02*
X107190476Y-110452380D01*
X106952380Y-109404761D02*
X106714285Y-110119047D01*
X107333333Y-110119047D01*
%TO.C,D5*%
X105761904Y-103702380D02*
X105761904Y-102702380D01*
X106000000Y-102702380D01*
X106142857Y-102750000D01*
X106238095Y-102845238D01*
X106285714Y-102940476D01*
X106333333Y-103130952D01*
X106333333Y-103273809D01*
X106285714Y-103464285D01*
X106238095Y-103559523D01*
X106142857Y-103654761D01*
X106000000Y-103702380D01*
X105761904Y-103702380D01*
X107238095Y-102702380D02*
X106761904Y-102702380D01*
X106714285Y-103178571D01*
X106761904Y-103130952D01*
X106857142Y-103083333D01*
X107095238Y-103083333D01*
X107190476Y-103130952D01*
X107238095Y-103178571D01*
X107285714Y-103273809D01*
X107285714Y-103511904D01*
X107238095Y-103607142D01*
X107190476Y-103654761D01*
X107095238Y-103702380D01*
X106857142Y-103702380D01*
X106761904Y-103654761D01*
X106714285Y-103607142D01*
%TO.C,R19*%
X100319642Y-110452380D02*
X99986309Y-109976190D01*
X99748214Y-110452380D02*
X99748214Y-109452380D01*
X100129166Y-109452380D01*
X100224404Y-109500000D01*
X100272023Y-109547619D01*
X100319642Y-109642857D01*
X100319642Y-109785714D01*
X100272023Y-109880952D01*
X100224404Y-109928571D01*
X100129166Y-109976190D01*
X99748214Y-109976190D01*
X101272023Y-110452380D02*
X100700595Y-110452380D01*
X100986309Y-110452380D02*
X100986309Y-109452380D01*
X100891071Y-109595238D01*
X100795833Y-109690476D01*
X100700595Y-109738095D01*
X101748214Y-110452380D02*
X101938690Y-110452380D01*
X102033928Y-110404761D01*
X102081547Y-110357142D01*
X102176785Y-110214285D01*
X102224404Y-110023809D01*
X102224404Y-109642857D01*
X102176785Y-109547619D01*
X102129166Y-109500000D01*
X102033928Y-109452380D01*
X101843452Y-109452380D01*
X101748214Y-109500000D01*
X101700595Y-109547619D01*
X101652976Y-109642857D01*
X101652976Y-109880952D01*
X101700595Y-109976190D01*
X101748214Y-110023809D01*
X101843452Y-110071428D01*
X102033928Y-110071428D01*
X102129166Y-110023809D01*
X102176785Y-109976190D01*
X102224404Y-109880952D01*
%TO.C,R20*%
X100357142Y-103702380D02*
X100023809Y-103226190D01*
X99785714Y-103702380D02*
X99785714Y-102702380D01*
X100166666Y-102702380D01*
X100261904Y-102750000D01*
X100309523Y-102797619D01*
X100357142Y-102892857D01*
X100357142Y-103035714D01*
X100309523Y-103130952D01*
X100261904Y-103178571D01*
X100166666Y-103226190D01*
X99785714Y-103226190D01*
X100738095Y-102797619D02*
X100785714Y-102750000D01*
X100880952Y-102702380D01*
X101119047Y-102702380D01*
X101214285Y-102750000D01*
X101261904Y-102797619D01*
X101309523Y-102892857D01*
X101309523Y-102988095D01*
X101261904Y-103130952D01*
X100690476Y-103702380D01*
X101309523Y-103702380D01*
X101928571Y-102702380D02*
X102023809Y-102702380D01*
X102119047Y-102750000D01*
X102166666Y-102797619D01*
X102214285Y-102892857D01*
X102261904Y-103083333D01*
X102261904Y-103321428D01*
X102214285Y-103511904D01*
X102166666Y-103607142D01*
X102119047Y-103654761D01*
X102023809Y-103702380D01*
X101928571Y-103702380D01*
X101833333Y-103654761D01*
X101785714Y-103607142D01*
X101738095Y-103511904D01*
X101690476Y-103321428D01*
X101690476Y-103083333D01*
X101738095Y-102892857D01*
X101785714Y-102797619D01*
X101833333Y-102750000D01*
X101928571Y-102702380D01*
%TO.C,H1*%
X80488095Y-46352380D02*
X80488095Y-45352380D01*
X80488095Y-45828571D02*
X81059523Y-45828571D01*
X81059523Y-46352380D02*
X81059523Y-45352380D01*
X82059523Y-46352380D02*
X81488095Y-46352380D01*
X81773809Y-46352380D02*
X81773809Y-45352380D01*
X81678571Y-45495238D01*
X81583333Y-45590476D01*
X81488095Y-45638095D01*
%TO.C,H2*%
X147488095Y-43202380D02*
X147488095Y-42202380D01*
X147488095Y-42678571D02*
X148059523Y-42678571D01*
X148059523Y-43202380D02*
X148059523Y-42202380D01*
X148488095Y-42297619D02*
X148535714Y-42250000D01*
X148630952Y-42202380D01*
X148869047Y-42202380D01*
X148964285Y-42250000D01*
X149011904Y-42297619D01*
X149059523Y-42392857D01*
X149059523Y-42488095D01*
X149011904Y-42630952D01*
X148440476Y-43202380D01*
X149059523Y-43202380D01*
%TO.C,H4*%
X152238095Y-115202380D02*
X152238095Y-114202380D01*
X152238095Y-114678571D02*
X152809523Y-114678571D01*
X152809523Y-115202380D02*
X152809523Y-114202380D01*
X153714285Y-114535714D02*
X153714285Y-115202380D01*
X153476190Y-114154761D02*
X153238095Y-114869047D01*
X153857142Y-114869047D01*
%TO.C,H3*%
X79738095Y-137952380D02*
X79738095Y-136952380D01*
X79738095Y-137428571D02*
X80309523Y-137428571D01*
X80309523Y-137952380D02*
X80309523Y-136952380D01*
X80690476Y-136952380D02*
X81309523Y-136952380D01*
X80976190Y-137333333D01*
X81119047Y-137333333D01*
X81214285Y-137380952D01*
X81261904Y-137428571D01*
X81309523Y-137523809D01*
X81309523Y-137761904D01*
X81261904Y-137857142D01*
X81214285Y-137904761D01*
X81119047Y-137952380D01*
X80833333Y-137952380D01*
X80738095Y-137904761D01*
X80690476Y-137857142D01*
%TO.C,C22*%
X143497142Y-140357142D02*
X143449523Y-140404761D01*
X143306666Y-140452380D01*
X143211428Y-140452380D01*
X143068571Y-140404761D01*
X142973333Y-140309523D01*
X142925714Y-140214285D01*
X142878095Y-140023809D01*
X142878095Y-139880952D01*
X142925714Y-139690476D01*
X142973333Y-139595238D01*
X143068571Y-139500000D01*
X143211428Y-139452380D01*
X143306666Y-139452380D01*
X143449523Y-139500000D01*
X143497142Y-139547619D01*
X143878095Y-139547619D02*
X143925714Y-139500000D01*
X144020952Y-139452380D01*
X144259047Y-139452380D01*
X144354285Y-139500000D01*
X144401904Y-139547619D01*
X144449523Y-139642857D01*
X144449523Y-139738095D01*
X144401904Y-139880952D01*
X143830476Y-140452380D01*
X144449523Y-140452380D01*
X144830476Y-139547619D02*
X144878095Y-139500000D01*
X144973333Y-139452380D01*
X145211428Y-139452380D01*
X145306666Y-139500000D01*
X145354285Y-139547619D01*
X145401904Y-139642857D01*
X145401904Y-139738095D01*
X145354285Y-139880952D01*
X144782857Y-140452380D01*
X145401904Y-140452380D01*
%TO.C,C23*%
X143607142Y-84857142D02*
X143559523Y-84904761D01*
X143416666Y-84952380D01*
X143321428Y-84952380D01*
X143178571Y-84904761D01*
X143083333Y-84809523D01*
X143035714Y-84714285D01*
X142988095Y-84523809D01*
X142988095Y-84380952D01*
X143035714Y-84190476D01*
X143083333Y-84095238D01*
X143178571Y-84000000D01*
X143321428Y-83952380D01*
X143416666Y-83952380D01*
X143559523Y-84000000D01*
X143607142Y-84047619D01*
X143988095Y-84047619D02*
X144035714Y-84000000D01*
X144130952Y-83952380D01*
X144369047Y-83952380D01*
X144464285Y-84000000D01*
X144511904Y-84047619D01*
X144559523Y-84142857D01*
X144559523Y-84238095D01*
X144511904Y-84380952D01*
X143940476Y-84952380D01*
X144559523Y-84952380D01*
X144892857Y-83952380D02*
X145511904Y-83952380D01*
X145178571Y-84333333D01*
X145321428Y-84333333D01*
X145416666Y-84380952D01*
X145464285Y-84428571D01*
X145511904Y-84523809D01*
X145511904Y-84761904D01*
X145464285Y-84857142D01*
X145416666Y-84904761D01*
X145321428Y-84952380D01*
X145035714Y-84952380D01*
X144940476Y-84904761D01*
X144892857Y-84857142D01*
%TO.C,C24*%
X122832142Y-54857142D02*
X122784523Y-54904761D01*
X122641666Y-54952380D01*
X122546428Y-54952380D01*
X122403571Y-54904761D01*
X122308333Y-54809523D01*
X122260714Y-54714285D01*
X122213095Y-54523809D01*
X122213095Y-54380952D01*
X122260714Y-54190476D01*
X122308333Y-54095238D01*
X122403571Y-54000000D01*
X122546428Y-53952380D01*
X122641666Y-53952380D01*
X122784523Y-54000000D01*
X122832142Y-54047619D01*
X123213095Y-54047619D02*
X123260714Y-54000000D01*
X123355952Y-53952380D01*
X123594047Y-53952380D01*
X123689285Y-54000000D01*
X123736904Y-54047619D01*
X123784523Y-54142857D01*
X123784523Y-54238095D01*
X123736904Y-54380952D01*
X123165476Y-54952380D01*
X123784523Y-54952380D01*
X124641666Y-54285714D02*
X124641666Y-54952380D01*
X124403571Y-53904761D02*
X124165476Y-54619047D01*
X124784523Y-54619047D01*
%TO.C,C21*%
X147547142Y-125857142D02*
X147499523Y-125904761D01*
X147356666Y-125952380D01*
X147261428Y-125952380D01*
X147118571Y-125904761D01*
X147023333Y-125809523D01*
X146975714Y-125714285D01*
X146928095Y-125523809D01*
X146928095Y-125380952D01*
X146975714Y-125190476D01*
X147023333Y-125095238D01*
X147118571Y-125000000D01*
X147261428Y-124952380D01*
X147356666Y-124952380D01*
X147499523Y-125000000D01*
X147547142Y-125047619D01*
X147928095Y-125047619D02*
X147975714Y-125000000D01*
X148070952Y-124952380D01*
X148309047Y-124952380D01*
X148404285Y-125000000D01*
X148451904Y-125047619D01*
X148499523Y-125142857D01*
X148499523Y-125238095D01*
X148451904Y-125380952D01*
X147880476Y-125952380D01*
X148499523Y-125952380D01*
X149451904Y-125952380D02*
X148880476Y-125952380D01*
X149166190Y-125952380D02*
X149166190Y-124952380D01*
X149070952Y-125095238D01*
X148975714Y-125190476D01*
X148880476Y-125238095D01*
%TO.C,R9*%
X140487083Y-71412380D02*
X140153750Y-70936190D01*
X139915654Y-71412380D02*
X139915654Y-70412380D01*
X140296607Y-70412380D01*
X140391845Y-70460000D01*
X140439464Y-70507619D01*
X140487083Y-70602857D01*
X140487083Y-70745714D01*
X140439464Y-70840952D01*
X140391845Y-70888571D01*
X140296607Y-70936190D01*
X139915654Y-70936190D01*
X140963273Y-71412380D02*
X141153750Y-71412380D01*
X141248988Y-71364761D01*
X141296607Y-71317142D01*
X141391845Y-71174285D01*
X141439464Y-70983809D01*
X141439464Y-70602857D01*
X141391845Y-70507619D01*
X141344226Y-70460000D01*
X141248988Y-70412380D01*
X141058511Y-70412380D01*
X140963273Y-70460000D01*
X140915654Y-70507619D01*
X140868035Y-70602857D01*
X140868035Y-70840952D01*
X140915654Y-70936190D01*
X140963273Y-70983809D01*
X141058511Y-71031428D01*
X141248988Y-71031428D01*
X141344226Y-70983809D01*
X141391845Y-70936190D01*
X141439464Y-70840952D01*
%TO.C,R10*%
X122427380Y-66040357D02*
X121951190Y-66373690D01*
X122427380Y-66611785D02*
X121427380Y-66611785D01*
X121427380Y-66230833D01*
X121475000Y-66135595D01*
X121522619Y-66087976D01*
X121617857Y-66040357D01*
X121760714Y-66040357D01*
X121855952Y-66087976D01*
X121903571Y-66135595D01*
X121951190Y-66230833D01*
X121951190Y-66611785D01*
X122427380Y-65087976D02*
X122427380Y-65659404D01*
X122427380Y-65373690D02*
X121427380Y-65373690D01*
X121570238Y-65468928D01*
X121665476Y-65564166D01*
X121713095Y-65659404D01*
X121427380Y-64468928D02*
X121427380Y-64373690D01*
X121475000Y-64278452D01*
X121522619Y-64230833D01*
X121617857Y-64183214D01*
X121808333Y-64135595D01*
X122046428Y-64135595D01*
X122236904Y-64183214D01*
X122332142Y-64230833D01*
X122379761Y-64278452D01*
X122427380Y-64373690D01*
X122427380Y-64468928D01*
X122379761Y-64564166D01*
X122332142Y-64611785D01*
X122236904Y-64659404D01*
X122046428Y-64707023D01*
X121808333Y-64707023D01*
X121617857Y-64659404D01*
X121522619Y-64611785D01*
X121475000Y-64564166D01*
X121427380Y-64468928D01*
%TO.C,R18*%
X140452380Y-125855357D02*
X139976190Y-126188690D01*
X140452380Y-126426785D02*
X139452380Y-126426785D01*
X139452380Y-126045833D01*
X139500000Y-125950595D01*
X139547619Y-125902976D01*
X139642857Y-125855357D01*
X139785714Y-125855357D01*
X139880952Y-125902976D01*
X139928571Y-125950595D01*
X139976190Y-126045833D01*
X139976190Y-126426785D01*
X140452380Y-124902976D02*
X140452380Y-125474404D01*
X140452380Y-125188690D02*
X139452380Y-125188690D01*
X139595238Y-125283928D01*
X139690476Y-125379166D01*
X139738095Y-125474404D01*
X139880952Y-124331547D02*
X139833333Y-124426785D01*
X139785714Y-124474404D01*
X139690476Y-124522023D01*
X139642857Y-124522023D01*
X139547619Y-124474404D01*
X139500000Y-124426785D01*
X139452380Y-124331547D01*
X139452380Y-124141071D01*
X139500000Y-124045833D01*
X139547619Y-123998214D01*
X139642857Y-123950595D01*
X139690476Y-123950595D01*
X139785714Y-123998214D01*
X139833333Y-124045833D01*
X139880952Y-124141071D01*
X139880952Y-124331547D01*
X139928571Y-124426785D01*
X139976190Y-124474404D01*
X140071428Y-124522023D01*
X140261904Y-124522023D01*
X140357142Y-124474404D01*
X140404761Y-124426785D01*
X140452380Y-124331547D01*
X140452380Y-124141071D01*
X140404761Y-124045833D01*
X140357142Y-123998214D01*
X140261904Y-123950595D01*
X140071428Y-123950595D01*
X139976190Y-123998214D01*
X139928571Y-124045833D01*
X139880952Y-124141071D01*
%TO.C,U2*%
X142047380Y-132836904D02*
X142856904Y-132836904D01*
X142952142Y-132789285D01*
X142999761Y-132741666D01*
X143047380Y-132646428D01*
X143047380Y-132455952D01*
X142999761Y-132360714D01*
X142952142Y-132313095D01*
X142856904Y-132265476D01*
X142047380Y-132265476D01*
X142142619Y-131836904D02*
X142095000Y-131789285D01*
X142047380Y-131694047D01*
X142047380Y-131455952D01*
X142095000Y-131360714D01*
X142142619Y-131313095D01*
X142237857Y-131265476D01*
X142333095Y-131265476D01*
X142475952Y-131313095D01*
X143047380Y-131884523D01*
X143047380Y-131265476D01*
%TO.C,C3*%
X144023333Y-138357142D02*
X143975714Y-138404761D01*
X143832857Y-138452380D01*
X143737619Y-138452380D01*
X143594761Y-138404761D01*
X143499523Y-138309523D01*
X143451904Y-138214285D01*
X143404285Y-138023809D01*
X143404285Y-137880952D01*
X143451904Y-137690476D01*
X143499523Y-137595238D01*
X143594761Y-137500000D01*
X143737619Y-137452380D01*
X143832857Y-137452380D01*
X143975714Y-137500000D01*
X144023333Y-137547619D01*
X144356666Y-137452380D02*
X144975714Y-137452380D01*
X144642380Y-137833333D01*
X144785238Y-137833333D01*
X144880476Y-137880952D01*
X144928095Y-137928571D01*
X144975714Y-138023809D01*
X144975714Y-138261904D01*
X144928095Y-138357142D01*
X144880476Y-138404761D01*
X144785238Y-138452380D01*
X144499523Y-138452380D01*
X144404285Y-138404761D01*
X144356666Y-138357142D01*
%TO.C,C10*%
X120407142Y-121857142D02*
X120359523Y-121904761D01*
X120216666Y-121952380D01*
X120121428Y-121952380D01*
X119978571Y-121904761D01*
X119883333Y-121809523D01*
X119835714Y-121714285D01*
X119788095Y-121523809D01*
X119788095Y-121380952D01*
X119835714Y-121190476D01*
X119883333Y-121095238D01*
X119978571Y-121000000D01*
X120121428Y-120952380D01*
X120216666Y-120952380D01*
X120359523Y-121000000D01*
X120407142Y-121047619D01*
X121359523Y-121952380D02*
X120788095Y-121952380D01*
X121073809Y-121952380D02*
X121073809Y-120952380D01*
X120978571Y-121095238D01*
X120883333Y-121190476D01*
X120788095Y-121238095D01*
X121978571Y-120952380D02*
X122073809Y-120952380D01*
X122169047Y-121000000D01*
X122216666Y-121047619D01*
X122264285Y-121142857D01*
X122311904Y-121333333D01*
X122311904Y-121571428D01*
X122264285Y-121761904D01*
X122216666Y-121857142D01*
X122169047Y-121904761D01*
X122073809Y-121952380D01*
X121978571Y-121952380D01*
X121883333Y-121904761D01*
X121835714Y-121857142D01*
X121788095Y-121761904D01*
X121740476Y-121571428D01*
X121740476Y-121333333D01*
X121788095Y-121142857D01*
X121835714Y-121047619D01*
X121883333Y-121000000D01*
X121978571Y-120952380D01*
%TO.C,L2*%
X107452380Y-131691666D02*
X107452380Y-132167857D01*
X106452380Y-132167857D01*
X106547619Y-131405952D02*
X106500000Y-131358333D01*
X106452380Y-131263095D01*
X106452380Y-131025000D01*
X106500000Y-130929761D01*
X106547619Y-130882142D01*
X106642857Y-130834523D01*
X106738095Y-130834523D01*
X106880952Y-130882142D01*
X107452380Y-131453571D01*
X107452380Y-130834523D01*
%TO.C,Reg1*%
X131952380Y-140547619D02*
X131476190Y-140880952D01*
X131952380Y-141119047D02*
X130952380Y-141119047D01*
X130952380Y-140738095D01*
X131000000Y-140642857D01*
X131047619Y-140595238D01*
X131142857Y-140547619D01*
X131285714Y-140547619D01*
X131380952Y-140595238D01*
X131428571Y-140642857D01*
X131476190Y-140738095D01*
X131476190Y-141119047D01*
X131904761Y-139738095D02*
X131952380Y-139833333D01*
X131952380Y-140023809D01*
X131904761Y-140119047D01*
X131809523Y-140166666D01*
X131428571Y-140166666D01*
X131333333Y-140119047D01*
X131285714Y-140023809D01*
X131285714Y-139833333D01*
X131333333Y-139738095D01*
X131428571Y-139690476D01*
X131523809Y-139690476D01*
X131619047Y-140166666D01*
X131285714Y-138833333D02*
X132095238Y-138833333D01*
X132190476Y-138880952D01*
X132238095Y-138928571D01*
X132285714Y-139023809D01*
X132285714Y-139166666D01*
X132238095Y-139261904D01*
X131904761Y-138833333D02*
X131952380Y-138928571D01*
X131952380Y-139119047D01*
X131904761Y-139214285D01*
X131857142Y-139261904D01*
X131761904Y-139309523D01*
X131476190Y-139309523D01*
X131380952Y-139261904D01*
X131333333Y-139214285D01*
X131285714Y-139119047D01*
X131285714Y-138928571D01*
X131333333Y-138833333D01*
X131952380Y-137833333D02*
X131952380Y-138404761D01*
X131952380Y-138119047D02*
X130952380Y-138119047D01*
X131095238Y-138214285D01*
X131190476Y-138309523D01*
X131238095Y-138404761D01*
%TO.C,C8*%
X112333333Y-121857142D02*
X112285714Y-121904761D01*
X112142857Y-121952380D01*
X112047619Y-121952380D01*
X111904761Y-121904761D01*
X111809523Y-121809523D01*
X111761904Y-121714285D01*
X111714285Y-121523809D01*
X111714285Y-121380952D01*
X111761904Y-121190476D01*
X111809523Y-121095238D01*
X111904761Y-121000000D01*
X112047619Y-120952380D01*
X112142857Y-120952380D01*
X112285714Y-121000000D01*
X112333333Y-121047619D01*
X112904761Y-121380952D02*
X112809523Y-121333333D01*
X112761904Y-121285714D01*
X112714285Y-121190476D01*
X112714285Y-121142857D01*
X112761904Y-121047619D01*
X112809523Y-121000000D01*
X112904761Y-120952380D01*
X113095238Y-120952380D01*
X113190476Y-121000000D01*
X113238095Y-121047619D01*
X113285714Y-121142857D01*
X113285714Y-121190476D01*
X113238095Y-121285714D01*
X113190476Y-121333333D01*
X113095238Y-121380952D01*
X112904761Y-121380952D01*
X112809523Y-121428571D01*
X112761904Y-121476190D01*
X112714285Y-121571428D01*
X112714285Y-121761904D01*
X112761904Y-121857142D01*
X112809523Y-121904761D01*
X112904761Y-121952380D01*
X113095238Y-121952380D01*
X113190476Y-121904761D01*
X113238095Y-121857142D01*
X113285714Y-121761904D01*
X113285714Y-121571428D01*
X113238095Y-121476190D01*
X113190476Y-121428571D01*
X113095238Y-121380952D01*
%TO.C,L1*%
X119202380Y-131941666D02*
X119202380Y-132417857D01*
X118202380Y-132417857D01*
X119202380Y-131084523D02*
X119202380Y-131655952D01*
X119202380Y-131370238D02*
X118202380Y-131370238D01*
X118345238Y-131465476D01*
X118440476Y-131560714D01*
X118488095Y-131655952D01*
%TO.C,C18*%
X147547142Y-127857142D02*
X147499523Y-127904761D01*
X147356666Y-127952380D01*
X147261428Y-127952380D01*
X147118571Y-127904761D01*
X147023333Y-127809523D01*
X146975714Y-127714285D01*
X146928095Y-127523809D01*
X146928095Y-127380952D01*
X146975714Y-127190476D01*
X147023333Y-127095238D01*
X147118571Y-127000000D01*
X147261428Y-126952380D01*
X147356666Y-126952380D01*
X147499523Y-127000000D01*
X147547142Y-127047619D01*
X148499523Y-127952380D02*
X147928095Y-127952380D01*
X148213809Y-127952380D02*
X148213809Y-126952380D01*
X148118571Y-127095238D01*
X148023333Y-127190476D01*
X147928095Y-127238095D01*
X149070952Y-127380952D02*
X148975714Y-127333333D01*
X148928095Y-127285714D01*
X148880476Y-127190476D01*
X148880476Y-127142857D01*
X148928095Y-127047619D01*
X148975714Y-127000000D01*
X149070952Y-126952380D01*
X149261428Y-126952380D01*
X149356666Y-127000000D01*
X149404285Y-127047619D01*
X149451904Y-127142857D01*
X149451904Y-127190476D01*
X149404285Y-127285714D01*
X149356666Y-127333333D01*
X149261428Y-127380952D01*
X149070952Y-127380952D01*
X148975714Y-127428571D01*
X148928095Y-127476190D01*
X148880476Y-127571428D01*
X148880476Y-127761904D01*
X148928095Y-127857142D01*
X148975714Y-127904761D01*
X149070952Y-127952380D01*
X149261428Y-127952380D01*
X149356666Y-127904761D01*
X149404285Y-127857142D01*
X149451904Y-127761904D01*
X149451904Y-127571428D01*
X149404285Y-127476190D01*
X149356666Y-127428571D01*
X149261428Y-127380952D01*
%TO.C,R30*%
X139357142Y-60952380D02*
X139023809Y-60476190D01*
X138785714Y-60952380D02*
X138785714Y-59952380D01*
X139166666Y-59952380D01*
X139261904Y-60000000D01*
X139309523Y-60047619D01*
X139357142Y-60142857D01*
X139357142Y-60285714D01*
X139309523Y-60380952D01*
X139261904Y-60428571D01*
X139166666Y-60476190D01*
X138785714Y-60476190D01*
X139690476Y-59952380D02*
X140309523Y-59952380D01*
X139976190Y-60333333D01*
X140119047Y-60333333D01*
X140214285Y-60380952D01*
X140261904Y-60428571D01*
X140309523Y-60523809D01*
X140309523Y-60761904D01*
X140261904Y-60857142D01*
X140214285Y-60904761D01*
X140119047Y-60952380D01*
X139833333Y-60952380D01*
X139738095Y-60904761D01*
X139690476Y-60857142D01*
X140928571Y-59952380D02*
X141023809Y-59952380D01*
X141119047Y-60000000D01*
X141166666Y-60047619D01*
X141214285Y-60142857D01*
X141261904Y-60333333D01*
X141261904Y-60571428D01*
X141214285Y-60761904D01*
X141166666Y-60857142D01*
X141119047Y-60904761D01*
X141023809Y-60952380D01*
X140928571Y-60952380D01*
X140833333Y-60904761D01*
X140785714Y-60857142D01*
X140738095Y-60761904D01*
X140690476Y-60571428D01*
X140690476Y-60333333D01*
X140738095Y-60142857D01*
X140785714Y-60047619D01*
X140833333Y-60000000D01*
X140928571Y-59952380D01*
%TO.C,J18*%
X170050476Y-119907380D02*
X170050476Y-120621666D01*
X170002857Y-120764523D01*
X169907619Y-120859761D01*
X169764761Y-120907380D01*
X169669523Y-120907380D01*
X171050476Y-120907380D02*
X170479047Y-120907380D01*
X170764761Y-120907380D02*
X170764761Y-119907380D01*
X170669523Y-120050238D01*
X170574285Y-120145476D01*
X170479047Y-120193095D01*
X171621904Y-120335952D02*
X171526666Y-120288333D01*
X171479047Y-120240714D01*
X171431428Y-120145476D01*
X171431428Y-120097857D01*
X171479047Y-120002619D01*
X171526666Y-119955000D01*
X171621904Y-119907380D01*
X171812380Y-119907380D01*
X171907619Y-119955000D01*
X171955238Y-120002619D01*
X172002857Y-120097857D01*
X172002857Y-120145476D01*
X171955238Y-120240714D01*
X171907619Y-120288333D01*
X171812380Y-120335952D01*
X171621904Y-120335952D01*
X171526666Y-120383571D01*
X171479047Y-120431190D01*
X171431428Y-120526428D01*
X171431428Y-120716904D01*
X171479047Y-120812142D01*
X171526666Y-120859761D01*
X171621904Y-120907380D01*
X171812380Y-120907380D01*
X171907619Y-120859761D01*
X171955238Y-120812142D01*
X172002857Y-120716904D01*
X172002857Y-120526428D01*
X171955238Y-120431190D01*
X171907619Y-120383571D01*
X171812380Y-120335952D01*
%TO.C,R22*%
X95819642Y-58952380D02*
X95486309Y-58476190D01*
X95248214Y-58952380D02*
X95248214Y-57952380D01*
X95629166Y-57952380D01*
X95724404Y-58000000D01*
X95772023Y-58047619D01*
X95819642Y-58142857D01*
X95819642Y-58285714D01*
X95772023Y-58380952D01*
X95724404Y-58428571D01*
X95629166Y-58476190D01*
X95248214Y-58476190D01*
X96200595Y-58047619D02*
X96248214Y-58000000D01*
X96343452Y-57952380D01*
X96581547Y-57952380D01*
X96676785Y-58000000D01*
X96724404Y-58047619D01*
X96772023Y-58142857D01*
X96772023Y-58238095D01*
X96724404Y-58380952D01*
X96152976Y-58952380D01*
X96772023Y-58952380D01*
X97152976Y-58047619D02*
X97200595Y-58000000D01*
X97295833Y-57952380D01*
X97533928Y-57952380D01*
X97629166Y-58000000D01*
X97676785Y-58047619D01*
X97724404Y-58142857D01*
X97724404Y-58238095D01*
X97676785Y-58380952D01*
X97105357Y-58952380D01*
X97724404Y-58952380D01*
%TO.C,U7*%
X137738095Y-57952380D02*
X137738095Y-58761904D01*
X137785714Y-58857142D01*
X137833333Y-58904761D01*
X137928571Y-58952380D01*
X138119047Y-58952380D01*
X138214285Y-58904761D01*
X138261904Y-58857142D01*
X138309523Y-58761904D01*
X138309523Y-57952380D01*
X138690476Y-57952380D02*
X139357142Y-57952380D01*
X138928571Y-58952380D01*
%TO.C,C16*%
X110857142Y-45107142D02*
X110809523Y-45154761D01*
X110666666Y-45202380D01*
X110571428Y-45202380D01*
X110428571Y-45154761D01*
X110333333Y-45059523D01*
X110285714Y-44964285D01*
X110238095Y-44773809D01*
X110238095Y-44630952D01*
X110285714Y-44440476D01*
X110333333Y-44345238D01*
X110428571Y-44250000D01*
X110571428Y-44202380D01*
X110666666Y-44202380D01*
X110809523Y-44250000D01*
X110857142Y-44297619D01*
X111809523Y-45202380D02*
X111238095Y-45202380D01*
X111523809Y-45202380D02*
X111523809Y-44202380D01*
X111428571Y-44345238D01*
X111333333Y-44440476D01*
X111238095Y-44488095D01*
X112666666Y-44202380D02*
X112476190Y-44202380D01*
X112380952Y-44250000D01*
X112333333Y-44297619D01*
X112238095Y-44440476D01*
X112190476Y-44630952D01*
X112190476Y-45011904D01*
X112238095Y-45107142D01*
X112285714Y-45154761D01*
X112380952Y-45202380D01*
X112571428Y-45202380D01*
X112666666Y-45154761D01*
X112714285Y-45107142D01*
X112761904Y-45011904D01*
X112761904Y-44773809D01*
X112714285Y-44678571D01*
X112666666Y-44630952D01*
X112571428Y-44583333D01*
X112380952Y-44583333D01*
X112285714Y-44630952D01*
X112238095Y-44678571D01*
X112190476Y-44773809D01*
%TO.C,R24*%
X139510892Y-68912380D02*
X139177559Y-68436190D01*
X138939464Y-68912380D02*
X138939464Y-67912380D01*
X139320416Y-67912380D01*
X139415654Y-67960000D01*
X139463273Y-68007619D01*
X139510892Y-68102857D01*
X139510892Y-68245714D01*
X139463273Y-68340952D01*
X139415654Y-68388571D01*
X139320416Y-68436190D01*
X138939464Y-68436190D01*
X139891845Y-68007619D02*
X139939464Y-67960000D01*
X140034702Y-67912380D01*
X140272797Y-67912380D01*
X140368035Y-67960000D01*
X140415654Y-68007619D01*
X140463273Y-68102857D01*
X140463273Y-68198095D01*
X140415654Y-68340952D01*
X139844226Y-68912380D01*
X140463273Y-68912380D01*
X141320416Y-68245714D02*
X141320416Y-68912380D01*
X141082321Y-67864761D02*
X140844226Y-68579047D01*
X141463273Y-68579047D01*
%TO.C,R29*%
X139659642Y-54687380D02*
X139326309Y-54211190D01*
X139088214Y-54687380D02*
X139088214Y-53687380D01*
X139469166Y-53687380D01*
X139564404Y-53735000D01*
X139612023Y-53782619D01*
X139659642Y-53877857D01*
X139659642Y-54020714D01*
X139612023Y-54115952D01*
X139564404Y-54163571D01*
X139469166Y-54211190D01*
X139088214Y-54211190D01*
X140040595Y-53782619D02*
X140088214Y-53735000D01*
X140183452Y-53687380D01*
X140421547Y-53687380D01*
X140516785Y-53735000D01*
X140564404Y-53782619D01*
X140612023Y-53877857D01*
X140612023Y-53973095D01*
X140564404Y-54115952D01*
X139992976Y-54687380D01*
X140612023Y-54687380D01*
X141088214Y-54687380D02*
X141278690Y-54687380D01*
X141373928Y-54639761D01*
X141421547Y-54592142D01*
X141516785Y-54449285D01*
X141564404Y-54258809D01*
X141564404Y-53877857D01*
X141516785Y-53782619D01*
X141469166Y-53735000D01*
X141373928Y-53687380D01*
X141183452Y-53687380D01*
X141088214Y-53735000D01*
X141040595Y-53782619D01*
X140992976Y-53877857D01*
X140992976Y-54115952D01*
X141040595Y-54211190D01*
X141088214Y-54258809D01*
X141183452Y-54306428D01*
X141373928Y-54306428D01*
X141469166Y-54258809D01*
X141516785Y-54211190D01*
X141564404Y-54115952D01*
%TO.C,C25*%
X101117142Y-45107142D02*
X101069523Y-45154761D01*
X100926666Y-45202380D01*
X100831428Y-45202380D01*
X100688571Y-45154761D01*
X100593333Y-45059523D01*
X100545714Y-44964285D01*
X100498095Y-44773809D01*
X100498095Y-44630952D01*
X100545714Y-44440476D01*
X100593333Y-44345238D01*
X100688571Y-44250000D01*
X100831428Y-44202380D01*
X100926666Y-44202380D01*
X101069523Y-44250000D01*
X101117142Y-44297619D01*
X101498095Y-44297619D02*
X101545714Y-44250000D01*
X101640952Y-44202380D01*
X101879047Y-44202380D01*
X101974285Y-44250000D01*
X102021904Y-44297619D01*
X102069523Y-44392857D01*
X102069523Y-44488095D01*
X102021904Y-44630952D01*
X101450476Y-45202380D01*
X102069523Y-45202380D01*
X102974285Y-44202380D02*
X102498095Y-44202380D01*
X102450476Y-44678571D01*
X102498095Y-44630952D01*
X102593333Y-44583333D01*
X102831428Y-44583333D01*
X102926666Y-44630952D01*
X102974285Y-44678571D01*
X103021904Y-44773809D01*
X103021904Y-45011904D01*
X102974285Y-45107142D01*
X102926666Y-45154761D01*
X102831428Y-45202380D01*
X102593333Y-45202380D01*
X102498095Y-45154761D01*
X102450476Y-45107142D01*
%TO.C,J15*%
X170450476Y-75657380D02*
X170450476Y-76371666D01*
X170402857Y-76514523D01*
X170307619Y-76609761D01*
X170164761Y-76657380D01*
X170069523Y-76657380D01*
X171450476Y-76657380D02*
X170879047Y-76657380D01*
X171164761Y-76657380D02*
X171164761Y-75657380D01*
X171069523Y-75800238D01*
X170974285Y-75895476D01*
X170879047Y-75943095D01*
X172355238Y-75657380D02*
X171879047Y-75657380D01*
X171831428Y-76133571D01*
X171879047Y-76085952D01*
X171974285Y-76038333D01*
X172212380Y-76038333D01*
X172307619Y-76085952D01*
X172355238Y-76133571D01*
X172402857Y-76228809D01*
X172402857Y-76466904D01*
X172355238Y-76562142D01*
X172307619Y-76609761D01*
X172212380Y-76657380D01*
X171974285Y-76657380D01*
X171879047Y-76609761D01*
X171831428Y-76562142D01*
%TO.C,J20*%
X159047619Y-45790476D02*
X158333333Y-45790476D01*
X158190476Y-45742857D01*
X158095238Y-45647619D01*
X158047619Y-45504761D01*
X158047619Y-45409523D01*
X158952380Y-46219047D02*
X159000000Y-46266666D01*
X159047619Y-46361904D01*
X159047619Y-46600000D01*
X159000000Y-46695238D01*
X158952380Y-46742857D01*
X158857142Y-46790476D01*
X158761904Y-46790476D01*
X158619047Y-46742857D01*
X158047619Y-46171428D01*
X158047619Y-46790476D01*
X159047619Y-47409523D02*
X159047619Y-47504761D01*
X159000000Y-47600000D01*
X158952380Y-47647619D01*
X158857142Y-47695238D01*
X158666666Y-47742857D01*
X158428571Y-47742857D01*
X158238095Y-47695238D01*
X158142857Y-47647619D01*
X158095238Y-47600000D01*
X158047619Y-47504761D01*
X158047619Y-47409523D01*
X158095238Y-47314285D01*
X158142857Y-47266666D01*
X158238095Y-47219047D01*
X158428571Y-47171428D01*
X158666666Y-47171428D01*
X158857142Y-47219047D01*
X158952380Y-47266666D01*
X159000000Y-47314285D01*
X159047619Y-47409523D01*
%TO.C,R16*%
X150547142Y-122632380D02*
X150213809Y-122156190D01*
X149975714Y-122632380D02*
X149975714Y-121632380D01*
X150356666Y-121632380D01*
X150451904Y-121680000D01*
X150499523Y-121727619D01*
X150547142Y-121822857D01*
X150547142Y-121965714D01*
X150499523Y-122060952D01*
X150451904Y-122108571D01*
X150356666Y-122156190D01*
X149975714Y-122156190D01*
X151499523Y-122632380D02*
X150928095Y-122632380D01*
X151213809Y-122632380D02*
X151213809Y-121632380D01*
X151118571Y-121775238D01*
X151023333Y-121870476D01*
X150928095Y-121918095D01*
X152356666Y-121632380D02*
X152166190Y-121632380D01*
X152070952Y-121680000D01*
X152023333Y-121727619D01*
X151928095Y-121870476D01*
X151880476Y-122060952D01*
X151880476Y-122441904D01*
X151928095Y-122537142D01*
X151975714Y-122584761D01*
X152070952Y-122632380D01*
X152261428Y-122632380D01*
X152356666Y-122584761D01*
X152404285Y-122537142D01*
X152451904Y-122441904D01*
X152451904Y-122203809D01*
X152404285Y-122108571D01*
X152356666Y-122060952D01*
X152261428Y-122013333D01*
X152070952Y-122013333D01*
X151975714Y-122060952D01*
X151928095Y-122108571D01*
X151880476Y-122203809D01*
%TO.C,C15*%
X96357142Y-55642857D02*
X96404761Y-55690476D01*
X96452380Y-55833333D01*
X96452380Y-55928571D01*
X96404761Y-56071428D01*
X96309523Y-56166666D01*
X96214285Y-56214285D01*
X96023809Y-56261904D01*
X95880952Y-56261904D01*
X95690476Y-56214285D01*
X95595238Y-56166666D01*
X95500000Y-56071428D01*
X95452380Y-55928571D01*
X95452380Y-55833333D01*
X95500000Y-55690476D01*
X95547619Y-55642857D01*
X96452380Y-54690476D02*
X96452380Y-55261904D01*
X96452380Y-54976190D02*
X95452380Y-54976190D01*
X95595238Y-55071428D01*
X95690476Y-55166666D01*
X95738095Y-55261904D01*
X95452380Y-53785714D02*
X95452380Y-54261904D01*
X95928571Y-54309523D01*
X95880952Y-54261904D01*
X95833333Y-54166666D01*
X95833333Y-53928571D01*
X95880952Y-53833333D01*
X95928571Y-53785714D01*
X96023809Y-53738095D01*
X96261904Y-53738095D01*
X96357142Y-53785714D01*
X96404761Y-53833333D01*
X96452380Y-53928571D01*
X96452380Y-54166666D01*
X96404761Y-54261904D01*
X96357142Y-54309523D01*
%TO.C,U6*%
X139988095Y-77202380D02*
X139988095Y-78011904D01*
X140035714Y-78107142D01*
X140083333Y-78154761D01*
X140178571Y-78202380D01*
X140369047Y-78202380D01*
X140464285Y-78154761D01*
X140511904Y-78107142D01*
X140559523Y-78011904D01*
X140559523Y-77202380D01*
X141464285Y-77202380D02*
X141273809Y-77202380D01*
X141178571Y-77250000D01*
X141130952Y-77297619D01*
X141035714Y-77440476D01*
X140988095Y-77630952D01*
X140988095Y-78011904D01*
X141035714Y-78107142D01*
X141083333Y-78154761D01*
X141178571Y-78202380D01*
X141369047Y-78202380D01*
X141464285Y-78154761D01*
X141511904Y-78107142D01*
X141559523Y-78011904D01*
X141559523Y-77773809D01*
X141511904Y-77678571D01*
X141464285Y-77630952D01*
X141369047Y-77583333D01*
X141178571Y-77583333D01*
X141083333Y-77630952D01*
X141035714Y-77678571D01*
X140988095Y-77773809D01*
%TO.C,R28*%
X139622142Y-57187380D02*
X139288809Y-56711190D01*
X139050714Y-57187380D02*
X139050714Y-56187380D01*
X139431666Y-56187380D01*
X139526904Y-56235000D01*
X139574523Y-56282619D01*
X139622142Y-56377857D01*
X139622142Y-56520714D01*
X139574523Y-56615952D01*
X139526904Y-56663571D01*
X139431666Y-56711190D01*
X139050714Y-56711190D01*
X140003095Y-56282619D02*
X140050714Y-56235000D01*
X140145952Y-56187380D01*
X140384047Y-56187380D01*
X140479285Y-56235000D01*
X140526904Y-56282619D01*
X140574523Y-56377857D01*
X140574523Y-56473095D01*
X140526904Y-56615952D01*
X139955476Y-57187380D01*
X140574523Y-57187380D01*
X141145952Y-56615952D02*
X141050714Y-56568333D01*
X141003095Y-56520714D01*
X140955476Y-56425476D01*
X140955476Y-56377857D01*
X141003095Y-56282619D01*
X141050714Y-56235000D01*
X141145952Y-56187380D01*
X141336428Y-56187380D01*
X141431666Y-56235000D01*
X141479285Y-56282619D01*
X141526904Y-56377857D01*
X141526904Y-56425476D01*
X141479285Y-56520714D01*
X141431666Y-56568333D01*
X141336428Y-56615952D01*
X141145952Y-56615952D01*
X141050714Y-56663571D01*
X141003095Y-56711190D01*
X140955476Y-56806428D01*
X140955476Y-56996904D01*
X141003095Y-57092142D01*
X141050714Y-57139761D01*
X141145952Y-57187380D01*
X141336428Y-57187380D01*
X141431666Y-57139761D01*
X141479285Y-57092142D01*
X141526904Y-56996904D01*
X141526904Y-56806428D01*
X141479285Y-56711190D01*
X141431666Y-56663571D01*
X141336428Y-56615952D01*
%TO.C,C26*%
X107607142Y-139037142D02*
X107559523Y-139084761D01*
X107416666Y-139132380D01*
X107321428Y-139132380D01*
X107178571Y-139084761D01*
X107083333Y-138989523D01*
X107035714Y-138894285D01*
X106988095Y-138703809D01*
X106988095Y-138560952D01*
X107035714Y-138370476D01*
X107083333Y-138275238D01*
X107178571Y-138180000D01*
X107321428Y-138132380D01*
X107416666Y-138132380D01*
X107559523Y-138180000D01*
X107607142Y-138227619D01*
X107988095Y-138227619D02*
X108035714Y-138180000D01*
X108130952Y-138132380D01*
X108369047Y-138132380D01*
X108464285Y-138180000D01*
X108511904Y-138227619D01*
X108559523Y-138322857D01*
X108559523Y-138418095D01*
X108511904Y-138560952D01*
X107940476Y-139132380D01*
X108559523Y-139132380D01*
X109416666Y-138132380D02*
X109226190Y-138132380D01*
X109130952Y-138180000D01*
X109083333Y-138227619D01*
X108988095Y-138370476D01*
X108940476Y-138560952D01*
X108940476Y-138941904D01*
X108988095Y-139037142D01*
X109035714Y-139084761D01*
X109130952Y-139132380D01*
X109321428Y-139132380D01*
X109416666Y-139084761D01*
X109464285Y-139037142D01*
X109511904Y-138941904D01*
X109511904Y-138703809D01*
X109464285Y-138608571D01*
X109416666Y-138560952D01*
X109321428Y-138513333D01*
X109130952Y-138513333D01*
X109035714Y-138560952D01*
X108988095Y-138608571D01*
X108940476Y-138703809D01*
%TO.C,J19*%
X147955476Y-51187380D02*
X147955476Y-51901666D01*
X147907857Y-52044523D01*
X147812619Y-52139761D01*
X147669761Y-52187380D01*
X147574523Y-52187380D01*
X148955476Y-52187380D02*
X148384047Y-52187380D01*
X148669761Y-52187380D02*
X148669761Y-51187380D01*
X148574523Y-51330238D01*
X148479285Y-51425476D01*
X148384047Y-51473095D01*
X149431666Y-52187380D02*
X149622142Y-52187380D01*
X149717380Y-52139761D01*
X149765000Y-52092142D01*
X149860238Y-51949285D01*
X149907857Y-51758809D01*
X149907857Y-51377857D01*
X149860238Y-51282619D01*
X149812619Y-51235000D01*
X149717380Y-51187380D01*
X149526904Y-51187380D01*
X149431666Y-51235000D01*
X149384047Y-51282619D01*
X149336428Y-51377857D01*
X149336428Y-51615952D01*
X149384047Y-51711190D01*
X149431666Y-51758809D01*
X149526904Y-51806428D01*
X149717380Y-51806428D01*
X149812619Y-51758809D01*
X149860238Y-51711190D01*
X149907857Y-51615952D01*
%TO.C,R14*%
X142952380Y-125855357D02*
X142476190Y-126188690D01*
X142952380Y-126426785D02*
X141952380Y-126426785D01*
X141952380Y-126045833D01*
X142000000Y-125950595D01*
X142047619Y-125902976D01*
X142142857Y-125855357D01*
X142285714Y-125855357D01*
X142380952Y-125902976D01*
X142428571Y-125950595D01*
X142476190Y-126045833D01*
X142476190Y-126426785D01*
X142952380Y-124902976D02*
X142952380Y-125474404D01*
X142952380Y-125188690D02*
X141952380Y-125188690D01*
X142095238Y-125283928D01*
X142190476Y-125379166D01*
X142238095Y-125474404D01*
X142285714Y-124045833D02*
X142952380Y-124045833D01*
X141904761Y-124283928D02*
X142619047Y-124522023D01*
X142619047Y-123902976D01*
%TO.C,C12*%
X122832142Y-52357142D02*
X122784523Y-52404761D01*
X122641666Y-52452380D01*
X122546428Y-52452380D01*
X122403571Y-52404761D01*
X122308333Y-52309523D01*
X122260714Y-52214285D01*
X122213095Y-52023809D01*
X122213095Y-51880952D01*
X122260714Y-51690476D01*
X122308333Y-51595238D01*
X122403571Y-51500000D01*
X122546428Y-51452380D01*
X122641666Y-51452380D01*
X122784523Y-51500000D01*
X122832142Y-51547619D01*
X123784523Y-52452380D02*
X123213095Y-52452380D01*
X123498809Y-52452380D02*
X123498809Y-51452380D01*
X123403571Y-51595238D01*
X123308333Y-51690476D01*
X123213095Y-51738095D01*
X124165476Y-51547619D02*
X124213095Y-51500000D01*
X124308333Y-51452380D01*
X124546428Y-51452380D01*
X124641666Y-51500000D01*
X124689285Y-51547619D01*
X124736904Y-51642857D01*
X124736904Y-51738095D01*
X124689285Y-51880952D01*
X124117857Y-52452380D01*
X124736904Y-52452380D01*
%TO.C,C11*%
X107832142Y-69577857D02*
X107879761Y-69625476D01*
X107927380Y-69768333D01*
X107927380Y-69863571D01*
X107879761Y-70006428D01*
X107784523Y-70101666D01*
X107689285Y-70149285D01*
X107498809Y-70196904D01*
X107355952Y-70196904D01*
X107165476Y-70149285D01*
X107070238Y-70101666D01*
X106975000Y-70006428D01*
X106927380Y-69863571D01*
X106927380Y-69768333D01*
X106975000Y-69625476D01*
X107022619Y-69577857D01*
X107927380Y-68625476D02*
X107927380Y-69196904D01*
X107927380Y-68911190D02*
X106927380Y-68911190D01*
X107070238Y-69006428D01*
X107165476Y-69101666D01*
X107213095Y-69196904D01*
X107927380Y-67673095D02*
X107927380Y-68244523D01*
X107927380Y-67958809D02*
X106927380Y-67958809D01*
X107070238Y-68054047D01*
X107165476Y-68149285D01*
X107213095Y-68244523D01*
%TO.C,J17*%
X148844226Y-72912380D02*
X148844226Y-73626666D01*
X148796607Y-73769523D01*
X148701369Y-73864761D01*
X148558511Y-73912380D01*
X148463273Y-73912380D01*
X149844226Y-73912380D02*
X149272797Y-73912380D01*
X149558511Y-73912380D02*
X149558511Y-72912380D01*
X149463273Y-73055238D01*
X149368035Y-73150476D01*
X149272797Y-73198095D01*
X150177559Y-72912380D02*
X150844226Y-72912380D01*
X150415654Y-73912380D01*
%TO.C,C13*%
X152609642Y-128507142D02*
X152562023Y-128554761D01*
X152419166Y-128602380D01*
X152323928Y-128602380D01*
X152181071Y-128554761D01*
X152085833Y-128459523D01*
X152038214Y-128364285D01*
X151990595Y-128173809D01*
X151990595Y-128030952D01*
X152038214Y-127840476D01*
X152085833Y-127745238D01*
X152181071Y-127650000D01*
X152323928Y-127602380D01*
X152419166Y-127602380D01*
X152562023Y-127650000D01*
X152609642Y-127697619D01*
X153562023Y-128602380D02*
X152990595Y-128602380D01*
X153276309Y-128602380D02*
X153276309Y-127602380D01*
X153181071Y-127745238D01*
X153085833Y-127840476D01*
X152990595Y-127888095D01*
X153895357Y-127602380D02*
X154514404Y-127602380D01*
X154181071Y-127983333D01*
X154323928Y-127983333D01*
X154419166Y-128030952D01*
X154466785Y-128078571D01*
X154514404Y-128173809D01*
X154514404Y-128411904D01*
X154466785Y-128507142D01*
X154419166Y-128554761D01*
X154323928Y-128602380D01*
X154038214Y-128602380D01*
X153942976Y-128554761D01*
X153895357Y-128507142D01*
%TO.C,C2*%
X145270833Y-111357142D02*
X145223214Y-111404761D01*
X145080357Y-111452380D01*
X144985119Y-111452380D01*
X144842261Y-111404761D01*
X144747023Y-111309523D01*
X144699404Y-111214285D01*
X144651785Y-111023809D01*
X144651785Y-110880952D01*
X144699404Y-110690476D01*
X144747023Y-110595238D01*
X144842261Y-110500000D01*
X144985119Y-110452380D01*
X145080357Y-110452380D01*
X145223214Y-110500000D01*
X145270833Y-110547619D01*
X145651785Y-110547619D02*
X145699404Y-110500000D01*
X145794642Y-110452380D01*
X146032738Y-110452380D01*
X146127976Y-110500000D01*
X146175595Y-110547619D01*
X146223214Y-110642857D01*
X146223214Y-110738095D01*
X146175595Y-110880952D01*
X145604166Y-111452380D01*
X146223214Y-111452380D01*
%TO.C,J21*%
X130915476Y-64727380D02*
X130915476Y-65441666D01*
X130867857Y-65584523D01*
X130772619Y-65679761D01*
X130629761Y-65727380D01*
X130534523Y-65727380D01*
X131344047Y-64822619D02*
X131391666Y-64775000D01*
X131486904Y-64727380D01*
X131725000Y-64727380D01*
X131820238Y-64775000D01*
X131867857Y-64822619D01*
X131915476Y-64917857D01*
X131915476Y-65013095D01*
X131867857Y-65155952D01*
X131296428Y-65727380D01*
X131915476Y-65727380D01*
X132867857Y-65727380D02*
X132296428Y-65727380D01*
X132582142Y-65727380D02*
X132582142Y-64727380D01*
X132486904Y-64870238D01*
X132391666Y-64965476D01*
X132296428Y-65013095D01*
%TO.C,R26*%
X138107142Y-81202380D02*
X137773809Y-80726190D01*
X137535714Y-81202380D02*
X137535714Y-80202380D01*
X137916666Y-80202380D01*
X138011904Y-80250000D01*
X138059523Y-80297619D01*
X138107142Y-80392857D01*
X138107142Y-80535714D01*
X138059523Y-80630952D01*
X138011904Y-80678571D01*
X137916666Y-80726190D01*
X137535714Y-80726190D01*
X138488095Y-80297619D02*
X138535714Y-80250000D01*
X138630952Y-80202380D01*
X138869047Y-80202380D01*
X138964285Y-80250000D01*
X139011904Y-80297619D01*
X139059523Y-80392857D01*
X139059523Y-80488095D01*
X139011904Y-80630952D01*
X138440476Y-81202380D01*
X139059523Y-81202380D01*
X139916666Y-80202380D02*
X139726190Y-80202380D01*
X139630952Y-80250000D01*
X139583333Y-80297619D01*
X139488095Y-80440476D01*
X139440476Y-80630952D01*
X139440476Y-81011904D01*
X139488095Y-81107142D01*
X139535714Y-81154761D01*
X139630952Y-81202380D01*
X139821428Y-81202380D01*
X139916666Y-81154761D01*
X139964285Y-81107142D01*
X140011904Y-81011904D01*
X140011904Y-80773809D01*
X139964285Y-80678571D01*
X139916666Y-80630952D01*
X139821428Y-80583333D01*
X139630952Y-80583333D01*
X139535714Y-80630952D01*
X139488095Y-80678571D01*
X139440476Y-80773809D01*
%TO.C,R31*%
X139357142Y-63952380D02*
X139023809Y-63476190D01*
X138785714Y-63952380D02*
X138785714Y-62952380D01*
X139166666Y-62952380D01*
X139261904Y-63000000D01*
X139309523Y-63047619D01*
X139357142Y-63142857D01*
X139357142Y-63285714D01*
X139309523Y-63380952D01*
X139261904Y-63428571D01*
X139166666Y-63476190D01*
X138785714Y-63476190D01*
X139690476Y-62952380D02*
X140309523Y-62952380D01*
X139976190Y-63333333D01*
X140119047Y-63333333D01*
X140214285Y-63380952D01*
X140261904Y-63428571D01*
X140309523Y-63523809D01*
X140309523Y-63761904D01*
X140261904Y-63857142D01*
X140214285Y-63904761D01*
X140119047Y-63952380D01*
X139833333Y-63952380D01*
X139738095Y-63904761D01*
X139690476Y-63857142D01*
X141261904Y-63952380D02*
X140690476Y-63952380D01*
X140976190Y-63952380D02*
X140976190Y-62952380D01*
X140880952Y-63095238D01*
X140785714Y-63190476D01*
X140690476Y-63238095D01*
D12*
%TO.C,J8*%
X89130000Y-116170000D02*
X89130000Y-118830000D01*
X91730000Y-116170000D02*
X89130000Y-116170000D01*
X91730000Y-118830000D02*
X89130000Y-118830000D01*
X91730000Y-116170000D02*
X91730000Y-118830000D01*
X93000000Y-116170000D02*
X94330000Y-116170000D01*
X94330000Y-116170000D02*
X94330000Y-117500000D01*
%TO.C,J3*%
X103180000Y-127450000D02*
X100520000Y-127450000D01*
X103180000Y-130050000D02*
X103180000Y-127450000D01*
X100520000Y-130050000D02*
X100520000Y-127450000D01*
X103180000Y-130050000D02*
X100520000Y-130050000D01*
X103180000Y-131320000D02*
X103180000Y-132650000D01*
X103180000Y-132650000D02*
X101850000Y-132650000D01*
%TO.C,F1*%
X104147936Y-123340000D02*
X105352064Y-123340000D01*
X104147936Y-125160000D02*
X105352064Y-125160000D01*
D10*
%TO.C,J2*%
X102550000Y-136350000D02*
X103550000Y-136350000D01*
X98950000Y-136350000D02*
X97950000Y-136350000D01*
X98950000Y-135925000D02*
X98950000Y-136350000D01*
X99675000Y-135925000D02*
X98950000Y-135925000D01*
X104900000Y-139500000D02*
X104900000Y-138100000D01*
X104900000Y-142050000D02*
X104900000Y-141900000D01*
X104600000Y-142050000D02*
X104900000Y-142050000D01*
X104600000Y-142500000D02*
X104600000Y-142050000D01*
X96900000Y-142050000D02*
X96900000Y-142500000D01*
X96600000Y-142050000D02*
X96900000Y-142050000D01*
X96600000Y-141900000D02*
X96600000Y-142050000D01*
X96600000Y-138100000D02*
X96600000Y-139500000D01*
D12*
%TO.C,U3*%
X138650000Y-104540000D02*
X128370000Y-104540000D01*
X128370000Y-108190000D02*
X128370000Y-109840000D01*
X138650000Y-109840000D02*
X138650000Y-104540000D01*
X128370000Y-104540000D02*
X128370000Y-106190000D01*
X128370000Y-109840000D02*
X138650000Y-109840000D01*
X128370000Y-108190000D02*
G75*
G03*
X128370000Y-106190000I0J1000000D01*
G01*
%TO.C,Q4*%
X146360000Y-89062500D02*
X146360000Y-88412500D01*
X146360000Y-89062500D02*
X146360000Y-89712500D01*
X143240000Y-89062500D02*
X143240000Y-88412500D01*
X143240000Y-89062500D02*
X143240000Y-90737500D01*
D13*
%TO.C,K1*%
X153027001Y-99441960D02*
X153027001Y-98558040D01*
X145473000Y-96018040D02*
X145473000Y-96901960D01*
X153027001Y-96901960D02*
X153027001Y-96018040D01*
X145473000Y-93478040D02*
X145473000Y-94361960D01*
X153027001Y-91821960D02*
X153027001Y-91473000D01*
X145473000Y-106178040D02*
X145473000Y-106527001D01*
X153027001Y-91473000D02*
X145473000Y-91473000D01*
X145473000Y-91473000D02*
X145473000Y-91821960D01*
X153027001Y-104521960D02*
X153027001Y-101098040D01*
X153027001Y-106527001D02*
X153027001Y-106178040D01*
X145473000Y-98558040D02*
X145473000Y-99441960D01*
X153027001Y-94361960D02*
X153027001Y-93478040D01*
X145473000Y-101098040D02*
X145473000Y-104521960D01*
X145473000Y-106527001D02*
X153027001Y-106527001D01*
D12*
%TO.C,D7*%
X151500000Y-91000000D02*
X151500000Y-89000000D01*
X151500000Y-89000000D02*
X147600000Y-89000000D01*
X151500000Y-91000000D02*
X147600000Y-91000000D01*
%TO.C,Q3*%
X137560000Y-136250000D02*
X137560000Y-135600000D01*
X137560000Y-136250000D02*
X137560000Y-136900000D01*
X134440000Y-136250000D02*
X134440000Y-135600000D01*
X134440000Y-136250000D02*
X134440000Y-137925000D01*
%TO.C,Q2*%
X139440000Y-114500000D02*
X139440000Y-115150000D01*
X139440000Y-114500000D02*
X139440000Y-113850000D01*
X142560000Y-114500000D02*
X142560000Y-115150000D01*
X142560000Y-114500000D02*
X142560000Y-112825000D01*
D13*
%TO.C,K2*%
X129473000Y-123558041D02*
X129473000Y-124441961D01*
X137027001Y-126981961D02*
X137027001Y-126098041D01*
X129473000Y-126098041D02*
X129473000Y-126981961D01*
X137027001Y-129521961D02*
X137027001Y-128638041D01*
X129473000Y-131178041D02*
X129473000Y-131527001D01*
X137027001Y-116821961D02*
X137027001Y-116473000D01*
X129473000Y-131527001D02*
X137027001Y-131527001D01*
X137027001Y-131527001D02*
X137027001Y-131178041D01*
X129473000Y-118478041D02*
X129473000Y-121901961D01*
X129473000Y-116473000D02*
X129473000Y-116821961D01*
X137027001Y-124441961D02*
X137027001Y-123558041D01*
X129473000Y-128638041D02*
X129473000Y-129521961D01*
X137027001Y-121901961D02*
X137027001Y-118478041D01*
X137027001Y-116473000D02*
X129473000Y-116473000D01*
D12*
%TO.C,D3*%
X132250000Y-113250000D02*
X132250000Y-115250000D01*
X132250000Y-115250000D02*
X136150000Y-115250000D01*
X132250000Y-113250000D02*
X136150000Y-113250000D01*
%TO.C,D2*%
X131500000Y-132000000D02*
X131500000Y-134000000D01*
X131500000Y-134000000D02*
X135400000Y-134000000D01*
X131500000Y-132000000D02*
X135400000Y-132000000D01*
%TO.C,Q1*%
X148250000Y-106940000D02*
X147600000Y-106940000D01*
X148250000Y-106940000D02*
X148900000Y-106940000D01*
X148250000Y-110060000D02*
X147600000Y-110060000D01*
X148250000Y-110060000D02*
X149925000Y-110060000D01*
%TO.C,D1*%
X143500000Y-101100000D02*
X141500000Y-101100000D01*
X141500000Y-101100000D02*
X141500000Y-105000000D01*
X143500000Y-101100000D02*
X143500000Y-105000000D01*
%TO.C,R116*%
X84772936Y-125765000D02*
X85227064Y-125765000D01*
X84772936Y-127235000D02*
X85227064Y-127235000D01*
%TO.C,R115*%
X84772936Y-122765000D02*
X85227064Y-122765000D01*
X84772936Y-124235000D02*
X85227064Y-124235000D01*
%TO.C,R114*%
X84772936Y-131515000D02*
X85227064Y-131515000D01*
X84772936Y-132985000D02*
X85227064Y-132985000D01*
%TO.C,R113*%
X84772936Y-128515000D02*
X85227064Y-128515000D01*
X84772936Y-129985000D02*
X85227064Y-129985000D01*
%TO.C,Q23*%
X93000000Y-125190000D02*
X92350000Y-125190000D01*
X93000000Y-125190000D02*
X93650000Y-125190000D01*
X93000000Y-128310000D02*
X92350000Y-128310000D01*
X93000000Y-128310000D02*
X94675000Y-128310000D01*
%TO.C,Q22*%
X93000000Y-121690000D02*
X92350000Y-121690000D01*
X93000000Y-121690000D02*
X93650000Y-121690000D01*
X93000000Y-124810000D02*
X92350000Y-124810000D01*
X93000000Y-124810000D02*
X94675000Y-124810000D01*
%TO.C,Q21*%
X93000000Y-132190000D02*
X92350000Y-132190000D01*
X93000000Y-132190000D02*
X93650000Y-132190000D01*
X93000000Y-135310000D02*
X92350000Y-135310000D01*
X93000000Y-135310000D02*
X94675000Y-135310000D01*
%TO.C,Q20*%
X93000000Y-131810000D02*
X94675000Y-131810000D01*
X93000000Y-131810000D02*
X92350000Y-131810000D01*
X93000000Y-128690000D02*
X93650000Y-128690000D01*
X93000000Y-128690000D02*
X92350000Y-128690000D01*
D14*
%TO.C,J1*%
X74381000Y-122890500D02*
G75*
G03*
X74381000Y-122890500I-381000J0D01*
G01*
D13*
%TO.C,D15*%
X81231935Y-127252600D02*
X82579300Y-127252600D01*
X82579300Y-127252600D02*
X82579300Y-122680600D01*
X82579300Y-122680600D02*
X81231935Y-122680600D01*
X70107900Y-127252600D02*
X78338665Y-127252600D01*
X78338665Y-122680600D02*
X70107900Y-122680600D01*
X70107900Y-122680600D02*
X70107900Y-127252600D01*
X80878665Y-122680600D02*
X78691935Y-122680600D01*
X78691935Y-127252600D02*
X80878665Y-127252600D01*
D14*
X81436300Y-127887600D02*
G75*
G03*
X81436300Y-127887600I-381000J0D01*
G01*
%TO.C,D14*%
X81436300Y-133637600D02*
G75*
G03*
X81436300Y-133637600I-381000J0D01*
G01*
D13*
X78691935Y-133002600D02*
X80878665Y-133002600D01*
X80878665Y-128430600D02*
X78691935Y-128430600D01*
X70107900Y-128430600D02*
X70107900Y-133002600D01*
X78338665Y-128430600D02*
X70107900Y-128430600D01*
X70107900Y-133002600D02*
X78338665Y-133002600D01*
X82579300Y-128430600D02*
X81231935Y-128430600D01*
X82579300Y-133002600D02*
X82579300Y-128430600D01*
X81231935Y-133002600D02*
X82579300Y-133002600D01*
D12*
%TO.C,R7*%
X125590000Y-106772936D02*
X125590000Y-108227064D01*
X127410000Y-106772936D02*
X127410000Y-108227064D01*
%TO.C,R8*%
X134477064Y-97660000D02*
X133022936Y-97660000D01*
X134477064Y-95840000D02*
X133022936Y-95840000D01*
%TO.C,U4*%
X134690000Y-95080000D02*
X136340000Y-95080000D01*
X136340000Y-95080000D02*
X136340000Y-84800000D01*
X131040000Y-95080000D02*
X132690000Y-95080000D01*
X131040000Y-84800000D02*
X131040000Y-95080000D01*
X136340000Y-84800000D02*
X131040000Y-84800000D01*
X134690000Y-95080000D02*
G75*
G03*
X132690000Y-95080000I-1000000J0D01*
G01*
%TO.C,C7*%
X107399792Y-117540000D02*
X107399792Y-119151000D01*
X107159792Y-113593000D02*
X107159792Y-115460000D01*
X104358792Y-112420000D02*
X104358792Y-120580000D01*
X108319792Y-115732000D02*
X108319792Y-117268000D01*
X107479792Y-117540000D02*
X107479792Y-119056000D01*
X107879792Y-114536000D02*
X107879792Y-118464000D01*
X108039792Y-114855000D02*
X108039792Y-118145000D01*
X106439792Y-113031000D02*
X106439792Y-115460000D01*
X107759792Y-114334000D02*
X107759792Y-115460000D01*
X104558792Y-112429000D02*
X104558792Y-120571000D01*
X107399792Y-113849000D02*
X107399792Y-115460000D01*
X105439792Y-112586000D02*
X105439792Y-120414000D01*
X106679792Y-117540000D02*
X106679792Y-119809000D01*
X104398792Y-112421000D02*
X104398792Y-120579000D01*
X108079792Y-114948000D02*
X108079792Y-118052000D01*
X108239792Y-115402000D02*
X108239792Y-117598000D01*
X106599792Y-117540000D02*
X106599792Y-119865000D01*
X107359792Y-113803000D02*
X107359792Y-115460000D01*
X107039792Y-113481000D02*
X107039792Y-115460000D01*
X107239792Y-113674000D02*
X107239792Y-115460000D01*
X106759792Y-117540000D02*
X106759792Y-119750000D01*
X106279792Y-112938000D02*
X106279792Y-115460000D01*
X107159792Y-117540000D02*
X107159792Y-119407000D01*
X104318792Y-112420000D02*
X104318792Y-120580000D01*
X106959792Y-113410000D02*
X106959792Y-115460000D01*
X106159792Y-117540000D02*
X106159792Y-120127000D01*
X107079792Y-117540000D02*
X107079792Y-119483000D01*
X108279792Y-115552000D02*
X108279792Y-117448000D01*
X104918792Y-112470000D02*
X104918792Y-120530000D01*
X106799792Y-113280000D02*
X106799792Y-115460000D01*
X104678792Y-112439000D02*
X104678792Y-120561000D01*
X107439792Y-117540000D02*
X107439792Y-119104000D01*
X104838792Y-112458000D02*
X104838792Y-120542000D01*
X105479792Y-112598000D02*
X105479792Y-120402000D01*
X107679792Y-117540000D02*
X107679792Y-118787000D01*
X106599792Y-113135000D02*
X106599792Y-115460000D01*
X106119792Y-112853000D02*
X106119792Y-115460000D01*
X107279792Y-113716000D02*
X107279792Y-115460000D01*
X105279792Y-112543000D02*
X105279792Y-120457000D01*
X107919792Y-114610000D02*
X107919792Y-118390000D01*
X105799792Y-112710000D02*
X105799792Y-115460000D01*
X107519792Y-113995000D02*
X107519792Y-115460000D01*
X106359792Y-112983000D02*
X106359792Y-115460000D01*
X106559792Y-113108000D02*
X106559792Y-115460000D01*
X106239792Y-112916000D02*
X106239792Y-115460000D01*
X106679792Y-113191000D02*
X106679792Y-115460000D01*
X106639792Y-113162000D02*
X106639792Y-115460000D01*
X104999792Y-112483000D02*
X104999792Y-120517000D01*
X105639792Y-112650000D02*
X105639792Y-120350000D01*
X106719792Y-117540000D02*
X106719792Y-119780000D01*
X105519792Y-112611000D02*
X105519792Y-120389000D01*
X107319792Y-117540000D02*
X107319792Y-119241000D01*
X106239792Y-117540000D02*
X106239792Y-120084000D01*
X107599792Y-114100000D02*
X107599792Y-115460000D01*
X106319792Y-112960000D02*
X106319792Y-115460000D01*
X104598792Y-112432000D02*
X104598792Y-120568000D01*
X104758792Y-112448000D02*
X104758792Y-120552000D01*
X105399792Y-112575000D02*
X105399792Y-120425000D01*
X105159792Y-112515000D02*
X105159792Y-120485000D01*
X107799792Y-114398000D02*
X107799792Y-115460000D01*
X106719792Y-113220000D02*
X106719792Y-115460000D01*
X106919792Y-117540000D02*
X106919792Y-119624000D01*
X105759792Y-112695000D02*
X105759792Y-115460000D01*
X105759792Y-117540000D02*
X105759792Y-120305000D01*
X106479792Y-117540000D02*
X106479792Y-119944000D01*
X104278792Y-112420000D02*
X104278792Y-120580000D01*
X106559792Y-117540000D02*
X106559792Y-119892000D01*
X104478792Y-112424000D02*
X104478792Y-120576000D01*
X105719792Y-112679000D02*
X105719792Y-120321000D01*
X107199792Y-117540000D02*
X107199792Y-119367000D01*
X107119792Y-117540000D02*
X107119792Y-119445000D01*
X106839792Y-117540000D02*
X106839792Y-119689000D01*
X107559792Y-117540000D02*
X107559792Y-118954000D01*
X105959792Y-117540000D02*
X105959792Y-120222000D01*
X106199792Y-117540000D02*
X106199792Y-120106000D01*
X105079792Y-112498000D02*
X105079792Y-120502000D01*
X107279792Y-117540000D02*
X107279792Y-119284000D01*
X106279792Y-117540000D02*
X106279792Y-120062000D01*
X105359792Y-112564000D02*
X105359792Y-120436000D01*
X106519792Y-113082000D02*
X106519792Y-115460000D01*
X107599792Y-117540000D02*
X107599792Y-118900000D01*
X107639792Y-117540000D02*
X107639792Y-118845000D01*
X108159792Y-115154000D02*
X108159792Y-117846000D01*
X107319792Y-113759000D02*
X107319792Y-115460000D01*
X106519792Y-117540000D02*
X106519792Y-119918000D01*
X108199792Y-115271000D02*
X108199792Y-117729000D01*
X104438792Y-112423000D02*
X104438792Y-120577000D01*
X106759792Y-113250000D02*
X106759792Y-115460000D01*
X104798792Y-112452000D02*
X104798792Y-120548000D01*
X106079792Y-117540000D02*
X106079792Y-120166000D01*
X104518792Y-112426000D02*
X104518792Y-120574000D01*
X105679792Y-112665000D02*
X105679792Y-120335000D01*
X106799792Y-117540000D02*
X106799792Y-119720000D01*
X107999792Y-114769000D02*
X107999792Y-118231000D01*
X105839792Y-112726000D02*
X105839792Y-115460000D01*
X104718792Y-112443000D02*
X104718792Y-120557000D01*
X105319792Y-112553000D02*
X105319792Y-120447000D01*
X105999792Y-112796000D02*
X105999792Y-115460000D01*
X107839792Y-114466000D02*
X107839792Y-118534000D01*
X107519792Y-117540000D02*
X107519792Y-119005000D01*
X107559792Y-114046000D02*
X107559792Y-115460000D01*
X107199792Y-113633000D02*
X107199792Y-115460000D01*
X104878792Y-112463000D02*
X104878792Y-120537000D01*
X107359792Y-117540000D02*
X107359792Y-119197000D01*
X105559792Y-112623000D02*
X105559792Y-120377000D01*
X106839792Y-113311000D02*
X106839792Y-115460000D01*
X108359792Y-115967000D02*
X108359792Y-117033000D01*
X100269094Y-113785000D02*
X100269094Y-114585000D01*
X105919792Y-112760000D02*
X105919792Y-115460000D01*
X105039792Y-112490000D02*
X105039792Y-120510000D01*
X107639792Y-114155000D02*
X107639792Y-115460000D01*
X99869094Y-114185000D02*
X100669094Y-114185000D01*
X106639792Y-117540000D02*
X106639792Y-119838000D01*
X104638792Y-112435000D02*
X104638792Y-120565000D01*
X105959792Y-112778000D02*
X105959792Y-115460000D01*
X106999792Y-117540000D02*
X106999792Y-119555000D01*
X107679792Y-114213000D02*
X107679792Y-115460000D01*
X106999792Y-113445000D02*
X106999792Y-115460000D01*
X106439792Y-117540000D02*
X106439792Y-119969000D01*
X106319792Y-117540000D02*
X106319792Y-120040000D01*
X106199792Y-112894000D02*
X106199792Y-115460000D01*
X107079792Y-113517000D02*
X107079792Y-115460000D01*
X106399792Y-117540000D02*
X106399792Y-119993000D01*
X106119792Y-117540000D02*
X106119792Y-120147000D01*
X107719792Y-114272000D02*
X107719792Y-115460000D01*
X106959792Y-117540000D02*
X106959792Y-119590000D01*
X106039792Y-117540000D02*
X106039792Y-120186000D01*
X107799792Y-117540000D02*
X107799792Y-118602000D01*
X106159792Y-112873000D02*
X106159792Y-115460000D01*
X106879792Y-113344000D02*
X106879792Y-115460000D01*
X105599792Y-112637000D02*
X105599792Y-120363000D01*
X107239792Y-117540000D02*
X107239792Y-119326000D01*
X107119792Y-113555000D02*
X107119792Y-115460000D01*
X106079792Y-112834000D02*
X106079792Y-115460000D01*
X107959792Y-114687000D02*
X107959792Y-118313000D01*
X108119792Y-115047000D02*
X108119792Y-117953000D01*
X105799792Y-117540000D02*
X105799792Y-120290000D01*
X105239792Y-112533000D02*
X105239792Y-120467000D01*
X105919792Y-117540000D02*
X105919792Y-120240000D01*
X105839792Y-117540000D02*
X105839792Y-120274000D01*
X107479792Y-113944000D02*
X107479792Y-115460000D01*
X107759792Y-117540000D02*
X107759792Y-118666000D01*
X105879792Y-112743000D02*
X105879792Y-115460000D01*
X107039792Y-117540000D02*
X107039792Y-119519000D01*
X106039792Y-112814000D02*
X106039792Y-115460000D01*
X106479792Y-113056000D02*
X106479792Y-115460000D01*
X107439792Y-113896000D02*
X107439792Y-115460000D01*
X106399792Y-113007000D02*
X106399792Y-115460000D01*
X104958792Y-112476000D02*
X104958792Y-120524000D01*
X105199792Y-112524000D02*
X105199792Y-120476000D01*
X105999792Y-117540000D02*
X105999792Y-120204000D01*
X107719792Y-117540000D02*
X107719792Y-118728000D01*
X106879792Y-117540000D02*
X106879792Y-119656000D01*
X105879792Y-117540000D02*
X105879792Y-120257000D01*
X105119792Y-112506000D02*
X105119792Y-120494000D01*
X106919792Y-113376000D02*
X106919792Y-115460000D01*
X106359792Y-117540000D02*
X106359792Y-120017000D01*
X108398792Y-116500000D02*
G75*
G03*
X108398792Y-116500000I-4120000J0D01*
G01*
%TO.C,C9*%
X114322651Y-120580000D02*
X114322651Y-112420000D01*
X113882651Y-120548000D02*
X113882651Y-112452000D01*
X118812349Y-118815000D02*
X118012349Y-118815000D01*
X112761651Y-120240000D02*
X112761651Y-117540000D01*
X118412349Y-119215000D02*
X118412349Y-118415000D01*
X112001651Y-119809000D02*
X112001651Y-117540000D01*
X111841651Y-115460000D02*
X111841651Y-113311000D01*
X110561651Y-117953000D02*
X110561651Y-115047000D01*
X111801651Y-115460000D02*
X111801651Y-113344000D01*
X112161651Y-115460000D02*
X112161651Y-113082000D01*
X112321651Y-120017000D02*
X112321651Y-117540000D01*
X112841651Y-120274000D02*
X112841651Y-117540000D01*
X111481651Y-119367000D02*
X111481651Y-117540000D01*
X113361651Y-120447000D02*
X113361651Y-112553000D01*
X112041651Y-115460000D02*
X112041651Y-113162000D01*
X110881651Y-118602000D02*
X110881651Y-117540000D01*
X114162651Y-120574000D02*
X114162651Y-112426000D01*
X112561651Y-115460000D02*
X112561651Y-112853000D01*
X112521651Y-120127000D02*
X112521651Y-117540000D01*
X110921651Y-115460000D02*
X110921651Y-114334000D01*
X112201651Y-119944000D02*
X112201651Y-117540000D01*
X113601651Y-120502000D02*
X113601651Y-112498000D01*
X111361651Y-115460000D02*
X111361651Y-113759000D01*
X113201651Y-120402000D02*
X113201651Y-112598000D01*
X110721651Y-118313000D02*
X110721651Y-114687000D01*
X113521651Y-120485000D02*
X113521651Y-112515000D01*
X111961651Y-115460000D02*
X111961651Y-113220000D01*
X112001651Y-115460000D02*
X112001651Y-113191000D01*
X113681651Y-120517000D02*
X113681651Y-112483000D01*
X111641651Y-115460000D02*
X111641651Y-113481000D01*
X113481651Y-120476000D02*
X113481651Y-112524000D01*
X110841651Y-118534000D02*
X110841651Y-114466000D01*
X112241651Y-119969000D02*
X112241651Y-117540000D01*
X111521651Y-115460000D02*
X111521651Y-113593000D01*
X111001651Y-115460000D02*
X111001651Y-114213000D01*
X111681651Y-115460000D02*
X111681651Y-113445000D01*
X112441651Y-120084000D02*
X112441651Y-117540000D01*
X111761651Y-119624000D02*
X111761651Y-117540000D01*
X113321651Y-120436000D02*
X113321651Y-112564000D01*
X113962651Y-120557000D02*
X113962651Y-112443000D01*
X112641651Y-120186000D02*
X112641651Y-117540000D01*
X114082651Y-120568000D02*
X114082651Y-112432000D01*
X113922651Y-120552000D02*
X113922651Y-112448000D01*
X111081651Y-118900000D02*
X111081651Y-117540000D01*
X110441651Y-117598000D02*
X110441651Y-115402000D01*
X111961651Y-119780000D02*
X111961651Y-117540000D01*
X113762651Y-120530000D02*
X113762651Y-112470000D01*
X111721651Y-119590000D02*
X111721651Y-117540000D01*
X111801651Y-119656000D02*
X111801651Y-117540000D01*
X113561651Y-120494000D02*
X113561651Y-112506000D01*
X113041651Y-120350000D02*
X113041651Y-112650000D01*
X113722651Y-120524000D02*
X113722651Y-112476000D01*
X112601651Y-120166000D02*
X112601651Y-117540000D01*
X110761651Y-118390000D02*
X110761651Y-114610000D01*
X111601651Y-119483000D02*
X111601651Y-117540000D01*
X112801651Y-115460000D02*
X112801651Y-112743000D01*
X111241651Y-119104000D02*
X111241651Y-117540000D01*
X112721651Y-115460000D02*
X112721651Y-112778000D01*
X110961651Y-115460000D02*
X110961651Y-114272000D01*
X112281651Y-115460000D02*
X112281651Y-113007000D01*
X112481651Y-115460000D02*
X112481651Y-112894000D01*
X111201651Y-115460000D02*
X111201651Y-113944000D01*
X112801651Y-120257000D02*
X112801651Y-117540000D01*
X112961651Y-120321000D02*
X112961651Y-112679000D01*
X110481651Y-117729000D02*
X110481651Y-115271000D01*
X111881651Y-119720000D02*
X111881651Y-117540000D01*
X111041651Y-118845000D02*
X111041651Y-117540000D01*
X111721651Y-115460000D02*
X111721651Y-113410000D01*
X114122651Y-120571000D02*
X114122651Y-112429000D01*
X112721651Y-120222000D02*
X112721651Y-117540000D01*
X110521651Y-117846000D02*
X110521651Y-115154000D01*
X111401651Y-119284000D02*
X111401651Y-117540000D01*
X113161651Y-120389000D02*
X113161651Y-112611000D01*
X111001651Y-118787000D02*
X111001651Y-117540000D01*
X111121651Y-118954000D02*
X111121651Y-117540000D01*
X111161651Y-115460000D02*
X111161651Y-113995000D01*
X111641651Y-119519000D02*
X111641651Y-117540000D01*
X111681651Y-119555000D02*
X111681651Y-117540000D01*
X111201651Y-119056000D02*
X111201651Y-117540000D01*
X112881651Y-115460000D02*
X112881651Y-112710000D01*
X110601651Y-118052000D02*
X110601651Y-114948000D01*
X113121651Y-120377000D02*
X113121651Y-112623000D01*
X110921651Y-118666000D02*
X110921651Y-117540000D01*
X111761651Y-115460000D02*
X111761651Y-113376000D01*
X112441651Y-115460000D02*
X112441651Y-112916000D01*
X113001651Y-120335000D02*
X113001651Y-112665000D01*
X112921651Y-115460000D02*
X112921651Y-112695000D01*
X112081651Y-115460000D02*
X112081651Y-113135000D01*
X112481651Y-120106000D02*
X112481651Y-117540000D01*
X112521651Y-115460000D02*
X112521651Y-112873000D01*
X112121651Y-115460000D02*
X112121651Y-113108000D01*
X112241651Y-115460000D02*
X112241651Y-113031000D01*
X112921651Y-120305000D02*
X112921651Y-117540000D01*
X110961651Y-118728000D02*
X110961651Y-117540000D01*
X112161651Y-119918000D02*
X112161651Y-117540000D01*
X111121651Y-115460000D02*
X111121651Y-114046000D01*
X111041651Y-115460000D02*
X111041651Y-114155000D01*
X111161651Y-119005000D02*
X111161651Y-117540000D01*
X112201651Y-115460000D02*
X112201651Y-113056000D01*
X110681651Y-118231000D02*
X110681651Y-114769000D01*
X111921651Y-115460000D02*
X111921651Y-113250000D01*
X112081651Y-119865000D02*
X112081651Y-117540000D01*
X112401651Y-115460000D02*
X112401651Y-112938000D01*
X112121651Y-119892000D02*
X112121651Y-117540000D01*
X111521651Y-119407000D02*
X111521651Y-117540000D01*
X112321651Y-115460000D02*
X112321651Y-112983000D01*
X110361651Y-117268000D02*
X110361651Y-115732000D01*
X111841651Y-119689000D02*
X111841651Y-117540000D01*
X114362651Y-120580000D02*
X114362651Y-112420000D01*
X112761651Y-115460000D02*
X112761651Y-112760000D01*
X112641651Y-115460000D02*
X112641651Y-112814000D01*
X113441651Y-120467000D02*
X113441651Y-112533000D01*
X114042651Y-120565000D02*
X114042651Y-112435000D01*
X111601651Y-115460000D02*
X111601651Y-113517000D01*
X111321651Y-115460000D02*
X111321651Y-113803000D01*
X114402651Y-120580000D02*
X114402651Y-112420000D01*
X112401651Y-120062000D02*
X112401651Y-117540000D01*
X110321651Y-117033000D02*
X110321651Y-115967000D01*
X111081651Y-115460000D02*
X111081651Y-114100000D01*
X111881651Y-115460000D02*
X111881651Y-113280000D01*
X111441651Y-115460000D02*
X111441651Y-113674000D01*
X112041651Y-119838000D02*
X112041651Y-117540000D01*
X111321651Y-119197000D02*
X111321651Y-117540000D01*
X112681651Y-120204000D02*
X112681651Y-117540000D01*
X112681651Y-115460000D02*
X112681651Y-112796000D01*
X111561651Y-115460000D02*
X111561651Y-113555000D01*
X111241651Y-115460000D02*
X111241651Y-113896000D01*
X113842651Y-120542000D02*
X113842651Y-112458000D01*
X114202651Y-120576000D02*
X114202651Y-112424000D01*
X110881651Y-115460000D02*
X110881651Y-114398000D01*
X111921651Y-119750000D02*
X111921651Y-117540000D01*
X111441651Y-119326000D02*
X111441651Y-117540000D01*
X111481651Y-115460000D02*
X111481651Y-113633000D01*
X111561651Y-119445000D02*
X111561651Y-117540000D01*
X112561651Y-120147000D02*
X112561651Y-117540000D01*
X111281651Y-119151000D02*
X111281651Y-117540000D01*
X114282651Y-120579000D02*
X114282651Y-112421000D01*
X111361651Y-119241000D02*
X111361651Y-117540000D01*
X110641651Y-118145000D02*
X110641651Y-114855000D01*
X112361651Y-120040000D02*
X112361651Y-117540000D01*
X113081651Y-120363000D02*
X113081651Y-112637000D01*
X111401651Y-115460000D02*
X111401651Y-113716000D01*
X113241651Y-120414000D02*
X113241651Y-112586000D01*
X113281651Y-120425000D02*
X113281651Y-112575000D01*
X114002651Y-120561000D02*
X114002651Y-112439000D01*
X111281651Y-115460000D02*
X111281651Y-113849000D01*
X113802651Y-120537000D02*
X113802651Y-112463000D01*
X112841651Y-115460000D02*
X112841651Y-112726000D01*
X113401651Y-120457000D02*
X113401651Y-112543000D01*
X112281651Y-119993000D02*
X112281651Y-117540000D01*
X112361651Y-115460000D02*
X112361651Y-112960000D01*
X113641651Y-120510000D02*
X113641651Y-112490000D01*
X112881651Y-120290000D02*
X112881651Y-117540000D01*
X112601651Y-115460000D02*
X112601651Y-112834000D01*
X110401651Y-117448000D02*
X110401651Y-115552000D01*
X110801651Y-118464000D02*
X110801651Y-114536000D01*
X114242651Y-120577000D02*
X114242651Y-112423000D01*
X118522651Y-116500000D02*
G75*
G03*
X118522651Y-116500000I-4120000J0D01*
G01*
%TO.C,R2*%
X123565000Y-60707936D02*
X123565000Y-62162064D01*
X125385000Y-60707936D02*
X125385000Y-62162064D01*
%TO.C,C1*%
X94735000Y-64238748D02*
X94735000Y-64761252D01*
X93265000Y-64238748D02*
X93265000Y-64761252D01*
%TO.C,R1*%
X93227064Y-60090000D02*
X91772936Y-60090000D01*
X93227064Y-61910000D02*
X91772936Y-61910000D01*
%TO.C,U1*%
X116500000Y-57940000D02*
X113050000Y-57940000D01*
X116500000Y-63060000D02*
X118450000Y-63060000D01*
X116500000Y-63060000D02*
X114550000Y-63060000D01*
X116500000Y-57940000D02*
X118450000Y-57940000D01*
%TO.C,C14*%
X110735000Y-64738748D02*
X110735000Y-65261252D01*
X109265000Y-64738748D02*
X109265000Y-65261252D01*
%TO.C,C17*%
X131761252Y-100265000D02*
X131238748Y-100265000D01*
X131761252Y-101735000D02*
X131238748Y-101735000D01*
%TO.C,C19*%
X119738748Y-57485000D02*
X120261252Y-57485000D01*
X119738748Y-56015000D02*
X120261252Y-56015000D01*
%TO.C,C20*%
X111240000Y-64738748D02*
X111240000Y-65261252D01*
X112710000Y-64738748D02*
X112710000Y-65261252D01*
%TO.C,D4*%
X108535000Y-109135000D02*
X108535000Y-106865000D01*
X108535000Y-106865000D02*
X104650000Y-106865000D01*
X104650000Y-109135000D02*
X108535000Y-109135000D01*
%TO.C,D5*%
X104215000Y-104115000D02*
X104215000Y-106385000D01*
X104215000Y-106385000D02*
X108100000Y-106385000D01*
X108100000Y-104115000D02*
X104215000Y-104115000D01*
%TO.C,R19*%
X101727064Y-107090000D02*
X100272936Y-107090000D01*
X101727064Y-108910000D02*
X100272936Y-108910000D01*
%TO.C,R20*%
X101727064Y-104090000D02*
X100272936Y-104090000D01*
X101727064Y-105910000D02*
X100272936Y-105910000D01*
%TO.C,C22*%
X147451252Y-140735000D02*
X146928748Y-140735000D01*
X147451252Y-139265000D02*
X146928748Y-139265000D01*
%TO.C,C23*%
X140738748Y-85235000D02*
X141261252Y-85235000D01*
X140738748Y-83765000D02*
X141261252Y-83765000D01*
%TO.C,C24*%
X119713748Y-53765000D02*
X120236252Y-53765000D01*
X119713748Y-55235000D02*
X120236252Y-55235000D01*
%TO.C,C21*%
X144928748Y-126235000D02*
X145451252Y-126235000D01*
X144928748Y-124765000D02*
X145451252Y-124765000D01*
%TO.C,R9*%
X144880814Y-71870000D02*
X143426686Y-71870000D01*
X144880814Y-70050000D02*
X143426686Y-70050000D01*
%TO.C,R10*%
X121065000Y-60707936D02*
X121065000Y-62162064D01*
X122885000Y-60707936D02*
X122885000Y-62162064D01*
%TO.C,R18*%
X139090000Y-120485436D02*
X139090000Y-121939564D01*
X140910000Y-120485436D02*
X140910000Y-121939564D01*
%TO.C,U2*%
X148655000Y-132575000D02*
X148655000Y-134525000D01*
X143535000Y-132575000D02*
X143535000Y-134525000D01*
X148655000Y-132575000D02*
X148655000Y-129125000D01*
X143535000Y-132575000D02*
X143535000Y-130625000D01*
%TO.C,C3*%
X147406252Y-138310000D02*
X146883748Y-138310000D01*
X147406252Y-136840000D02*
X146883748Y-136840000D01*
%TO.C,C10*%
X121261252Y-122765000D02*
X120738748Y-122765000D01*
X121261252Y-124235000D02*
X120738748Y-124235000D01*
%TO.C,L2*%
X114100000Y-125000000D02*
X114100000Y-133000000D01*
X107900000Y-125000000D02*
X107900000Y-133000000D01*
%TO.C,Reg1*%
X110340000Y-134210000D02*
X110340000Y-141830000D01*
X110340000Y-141830000D02*
X130660000Y-141830000D01*
X130660000Y-141830000D02*
X130660000Y-134210000D01*
X130660000Y-134210000D02*
X110340000Y-134210000D01*
%TO.C,C8*%
X112288748Y-124235000D02*
X112811252Y-124235000D01*
X112288748Y-122765000D02*
X112811252Y-122765000D01*
%TO.C,L1*%
X125600000Y-125000000D02*
X125600000Y-133000000D01*
X119400000Y-125000000D02*
X119400000Y-133000000D01*
%TO.C,C18*%
X144928748Y-128235000D02*
X145451252Y-128235000D01*
X144928748Y-126765000D02*
X145451252Y-126765000D01*
%TO.C,R30*%
X136727064Y-59590000D02*
X135272936Y-59590000D01*
X136727064Y-61410000D02*
X135272936Y-61410000D01*
%TO.C,J18*%
X167915000Y-121395000D02*
X167915000Y-126595000D01*
X170575000Y-122885000D02*
X176575000Y-122885000D01*
X165205000Y-121455000D02*
X166475000Y-121455000D01*
X170575000Y-123005000D02*
X176575000Y-123005000D01*
X170575000Y-122345000D02*
X176575000Y-122345000D01*
X165205000Y-122725000D02*
X165205000Y-121455000D01*
X167585000Y-123105000D02*
X167915000Y-123105000D01*
X167915000Y-123995000D02*
X170575000Y-123995000D01*
X170575000Y-121395000D02*
X167915000Y-121395000D01*
X176575000Y-122345000D02*
X176575000Y-123105000D01*
X167517929Y-124885000D02*
X167915000Y-124885000D01*
X176575000Y-124885000D02*
X176575000Y-125645000D01*
X167517929Y-125645000D02*
X167915000Y-125645000D01*
X170575000Y-126595000D02*
X170575000Y-121395000D01*
X167585000Y-122345000D02*
X167915000Y-122345000D01*
X167915000Y-126595000D02*
X170575000Y-126595000D01*
X170575000Y-122765000D02*
X176575000Y-122765000D01*
X176575000Y-123105000D02*
X170575000Y-123105000D01*
X170575000Y-122405000D02*
X176575000Y-122405000D01*
X170575000Y-122525000D02*
X176575000Y-122525000D01*
X170575000Y-122645000D02*
X176575000Y-122645000D01*
X176575000Y-125645000D02*
X170575000Y-125645000D01*
X170575000Y-124885000D02*
X176575000Y-124885000D01*
%TO.C,R22*%
X93227064Y-57590000D02*
X91772936Y-57590000D01*
X93227064Y-59410000D02*
X91772936Y-59410000D01*
%TO.C,U7*%
X133715000Y-58405000D02*
X135365000Y-58405000D01*
X130065000Y-48125000D02*
X130065000Y-58405000D01*
X135365000Y-58405000D02*
X135365000Y-48125000D01*
X130065000Y-58405000D02*
X131715000Y-58405000D01*
X135365000Y-48125000D02*
X130065000Y-48125000D01*
X133715000Y-58405000D02*
G75*
G03*
X131715000Y-58405000I-1000000J0D01*
G01*
%TO.C,C16*%
X111500000Y-45920000D02*
X111500000Y-54080000D01*
X114061000Y-51040000D02*
X114061000Y-53189000D01*
X111940000Y-45943000D02*
X111940000Y-54057000D01*
X114581000Y-47303000D02*
X114581000Y-48960000D01*
X115181000Y-48187000D02*
X115181000Y-51813000D01*
X113381000Y-46373000D02*
X113381000Y-48960000D01*
X113781000Y-46608000D02*
X113781000Y-48960000D01*
X114581000Y-51040000D02*
X114581000Y-52697000D01*
X113421000Y-46394000D02*
X113421000Y-48960000D01*
X112140000Y-45970000D02*
X112140000Y-54030000D01*
X115381000Y-48654000D02*
X115381000Y-51346000D01*
X115061000Y-47966000D02*
X115061000Y-52034000D01*
X114421000Y-51040000D02*
X114421000Y-52867000D01*
X113861000Y-51040000D02*
X113861000Y-53338000D01*
X114341000Y-47055000D02*
X114341000Y-48960000D01*
X113581000Y-46483000D02*
X113581000Y-48960000D01*
X111580000Y-45920000D02*
X111580000Y-54080000D01*
X114101000Y-46844000D02*
X114101000Y-48960000D01*
X115261000Y-48355000D02*
X115261000Y-51645000D01*
X114541000Y-51040000D02*
X114541000Y-52741000D01*
X113821000Y-51040000D02*
X113821000Y-53365000D01*
X111900000Y-45939000D02*
X111900000Y-54061000D01*
X115101000Y-48036000D02*
X115101000Y-51964000D01*
X112261000Y-45990000D02*
X112261000Y-54010000D01*
X112701000Y-46098000D02*
X112701000Y-53902000D01*
X113701000Y-51040000D02*
X113701000Y-53444000D01*
X114421000Y-47133000D02*
X114421000Y-48960000D01*
X114061000Y-46811000D02*
X114061000Y-48960000D01*
X113541000Y-51040000D02*
X113541000Y-53540000D01*
X111660000Y-45923000D02*
X111660000Y-54077000D01*
X114541000Y-47259000D02*
X114541000Y-48960000D01*
X114861000Y-51040000D02*
X114861000Y-52345000D01*
X113341000Y-46353000D02*
X113341000Y-48960000D01*
X114981000Y-47834000D02*
X114981000Y-48960000D01*
X114781000Y-51040000D02*
X114781000Y-52454000D01*
X113901000Y-51040000D02*
X113901000Y-53309000D01*
X114021000Y-46780000D02*
X114021000Y-48960000D01*
X114101000Y-51040000D02*
X114101000Y-53156000D01*
X113501000Y-51040000D02*
X113501000Y-53562000D01*
X113141000Y-51040000D02*
X113141000Y-53740000D01*
X115541000Y-49232000D02*
X115541000Y-50768000D01*
X114981000Y-51040000D02*
X114981000Y-52166000D01*
X114141000Y-51040000D02*
X114141000Y-53124000D01*
X115301000Y-48448000D02*
X115301000Y-51552000D01*
X114621000Y-51040000D02*
X114621000Y-52651000D01*
X114901000Y-47713000D02*
X114901000Y-48960000D01*
X115581000Y-49467000D02*
X115581000Y-50533000D01*
X113021000Y-51040000D02*
X113021000Y-53790000D01*
X114181000Y-51040000D02*
X114181000Y-53090000D01*
X113941000Y-46720000D02*
X113941000Y-48960000D01*
X112621000Y-46075000D02*
X112621000Y-53925000D01*
X114181000Y-46910000D02*
X114181000Y-48960000D01*
X113101000Y-51040000D02*
X113101000Y-53757000D01*
X114461000Y-47174000D02*
X114461000Y-48960000D01*
X113741000Y-51040000D02*
X113741000Y-53418000D01*
X112941000Y-46179000D02*
X112941000Y-53821000D01*
X113301000Y-46334000D02*
X113301000Y-48960000D01*
X114941000Y-47772000D02*
X114941000Y-48960000D01*
X113621000Y-46507000D02*
X113621000Y-48960000D01*
X112381000Y-46015000D02*
X112381000Y-53985000D01*
X111740000Y-45926000D02*
X111740000Y-54074000D01*
X112221000Y-45983000D02*
X112221000Y-54017000D01*
X115341000Y-48547000D02*
X115341000Y-51453000D01*
X114141000Y-46876000D02*
X114141000Y-48960000D01*
X113381000Y-51040000D02*
X113381000Y-53627000D01*
X113861000Y-46662000D02*
X113861000Y-48960000D01*
X112821000Y-46137000D02*
X112821000Y-53863000D01*
X115221000Y-48269000D02*
X115221000Y-51731000D01*
X114461000Y-51040000D02*
X114461000Y-52826000D01*
X113221000Y-51040000D02*
X113221000Y-53704000D01*
X113661000Y-51040000D02*
X113661000Y-53469000D01*
X112301000Y-45998000D02*
X112301000Y-54002000D01*
X115501000Y-49052000D02*
X115501000Y-50948000D01*
X114221000Y-46945000D02*
X114221000Y-48960000D01*
X113541000Y-46460000D02*
X113541000Y-48960000D01*
X112180000Y-45976000D02*
X112180000Y-54024000D01*
X113901000Y-46691000D02*
X113901000Y-48960000D01*
X114661000Y-47396000D02*
X114661000Y-48960000D01*
X113021000Y-46210000D02*
X113021000Y-48960000D01*
X114221000Y-51040000D02*
X114221000Y-53055000D01*
X114621000Y-47349000D02*
X114621000Y-48960000D01*
X114781000Y-47546000D02*
X114781000Y-48960000D01*
X107090302Y-47685000D02*
X107890302Y-47685000D01*
X113461000Y-51040000D02*
X113461000Y-53584000D01*
X112100000Y-45963000D02*
X112100000Y-54037000D01*
X114821000Y-47600000D02*
X114821000Y-48960000D01*
X115021000Y-51040000D02*
X115021000Y-52102000D01*
X114501000Y-51040000D02*
X114501000Y-52784000D01*
X114741000Y-51040000D02*
X114741000Y-52505000D01*
X114741000Y-47495000D02*
X114741000Y-48960000D01*
X111700000Y-45924000D02*
X111700000Y-54076000D01*
X107490302Y-47285000D02*
X107490302Y-48085000D01*
X114701000Y-47444000D02*
X114701000Y-48960000D01*
X115421000Y-48771000D02*
X115421000Y-51229000D01*
X113061000Y-51040000D02*
X113061000Y-53774000D01*
X113181000Y-51040000D02*
X113181000Y-53722000D01*
X113341000Y-51040000D02*
X113341000Y-53647000D01*
X112861000Y-46150000D02*
X112861000Y-53850000D01*
X114341000Y-51040000D02*
X114341000Y-52945000D01*
X114261000Y-51040000D02*
X114261000Y-53019000D01*
X114301000Y-47017000D02*
X114301000Y-48960000D01*
X113501000Y-46438000D02*
X113501000Y-48960000D01*
X113221000Y-46296000D02*
X113221000Y-48960000D01*
X113741000Y-46582000D02*
X113741000Y-48960000D01*
X114381000Y-47093000D02*
X114381000Y-48960000D01*
X112901000Y-46165000D02*
X112901000Y-53835000D01*
X113141000Y-46260000D02*
X113141000Y-48960000D01*
X114021000Y-51040000D02*
X114021000Y-53220000D01*
X113701000Y-46556000D02*
X113701000Y-48960000D01*
X113981000Y-46750000D02*
X113981000Y-48960000D01*
X112421000Y-46024000D02*
X112421000Y-53976000D01*
X111540000Y-45920000D02*
X111540000Y-54080000D01*
X114821000Y-51040000D02*
X114821000Y-52400000D01*
X112981000Y-51040000D02*
X112981000Y-53805000D01*
X112060000Y-45958000D02*
X112060000Y-54042000D01*
X111860000Y-45935000D02*
X111860000Y-54065000D01*
X113781000Y-51040000D02*
X113781000Y-53392000D01*
X112020000Y-45952000D02*
X112020000Y-54048000D01*
X113101000Y-46243000D02*
X113101000Y-48960000D01*
X113421000Y-51040000D02*
X113421000Y-53606000D01*
X115461000Y-48902000D02*
X115461000Y-51098000D01*
X115021000Y-47898000D02*
X115021000Y-48960000D01*
X112541000Y-46053000D02*
X112541000Y-53947000D01*
X114381000Y-51040000D02*
X114381000Y-52907000D01*
X113261000Y-51040000D02*
X113261000Y-53686000D01*
X113061000Y-46226000D02*
X113061000Y-48960000D01*
X113661000Y-46531000D02*
X113661000Y-48960000D01*
X114301000Y-51040000D02*
X114301000Y-52983000D01*
X114941000Y-51040000D02*
X114941000Y-52228000D01*
X113461000Y-46416000D02*
X113461000Y-48960000D01*
X111780000Y-45929000D02*
X111780000Y-54071000D01*
X114261000Y-46981000D02*
X114261000Y-48960000D01*
X111820000Y-45932000D02*
X111820000Y-54068000D01*
X112781000Y-46123000D02*
X112781000Y-53877000D01*
X114861000Y-47655000D02*
X114861000Y-48960000D01*
X112741000Y-46111000D02*
X112741000Y-53889000D01*
X113301000Y-51040000D02*
X113301000Y-53666000D01*
X114661000Y-51040000D02*
X114661000Y-52604000D01*
X115141000Y-48110000D02*
X115141000Y-51890000D01*
X113941000Y-51040000D02*
X113941000Y-53280000D01*
X114901000Y-51040000D02*
X114901000Y-52287000D01*
X112341000Y-46006000D02*
X112341000Y-53994000D01*
X111980000Y-45948000D02*
X111980000Y-54052000D01*
X112461000Y-46033000D02*
X112461000Y-53967000D01*
X111620000Y-45921000D02*
X111620000Y-54079000D01*
X114501000Y-47216000D02*
X114501000Y-48960000D01*
X113181000Y-46278000D02*
X113181000Y-48960000D01*
X112661000Y-46086000D02*
X112661000Y-53914000D01*
X114701000Y-51040000D02*
X114701000Y-52556000D01*
X113621000Y-51040000D02*
X113621000Y-53493000D01*
X112501000Y-46043000D02*
X112501000Y-53957000D01*
X112581000Y-46064000D02*
X112581000Y-53936000D01*
X112981000Y-46195000D02*
X112981000Y-48960000D01*
X113261000Y-46314000D02*
X113261000Y-48960000D01*
X113821000Y-46635000D02*
X113821000Y-48960000D01*
X113581000Y-51040000D02*
X113581000Y-53517000D01*
X113981000Y-51040000D02*
X113981000Y-53250000D01*
X115620000Y-50000000D02*
G75*
G03*
X115620000Y-50000000I-4120000J0D01*
G01*
%TO.C,R24*%
X144880814Y-67550000D02*
X143426686Y-67550000D01*
X144880814Y-69370000D02*
X143426686Y-69370000D01*
%TO.C,R29*%
X145029564Y-55145000D02*
X143575436Y-55145000D01*
X145029564Y-53325000D02*
X143575436Y-53325000D01*
%TO.C,C25*%
X103801000Y-46460000D02*
X103801000Y-48960000D01*
X103041000Y-46123000D02*
X103041000Y-53877000D01*
X105161000Y-51040000D02*
X105161000Y-52287000D01*
X102040000Y-45929000D02*
X102040000Y-54071000D01*
X103841000Y-46483000D02*
X103841000Y-48960000D01*
X104761000Y-47216000D02*
X104761000Y-48960000D01*
X104961000Y-47444000D02*
X104961000Y-48960000D01*
X105761000Y-49052000D02*
X105761000Y-50948000D01*
X104121000Y-51040000D02*
X104121000Y-53338000D01*
X105721000Y-48902000D02*
X105721000Y-51098000D01*
X104361000Y-51040000D02*
X104361000Y-53156000D01*
X103921000Y-51040000D02*
X103921000Y-53469000D01*
X102561000Y-45998000D02*
X102561000Y-54002000D01*
X102601000Y-46006000D02*
X102601000Y-53994000D01*
X103881000Y-51040000D02*
X103881000Y-53493000D01*
X102120000Y-45935000D02*
X102120000Y-54065000D01*
X103281000Y-46210000D02*
X103281000Y-48960000D01*
X105841000Y-49467000D02*
X105841000Y-50533000D01*
X101960000Y-45924000D02*
X101960000Y-54076000D01*
X103681000Y-46394000D02*
X103681000Y-48960000D01*
X104321000Y-51040000D02*
X104321000Y-53189000D01*
X103321000Y-51040000D02*
X103321000Y-53774000D01*
X103561000Y-46334000D02*
X103561000Y-48960000D01*
X104041000Y-46608000D02*
X104041000Y-48960000D01*
X105681000Y-48771000D02*
X105681000Y-51229000D01*
X102360000Y-45963000D02*
X102360000Y-54037000D01*
X105081000Y-51040000D02*
X105081000Y-52400000D01*
X104921000Y-51040000D02*
X104921000Y-52604000D01*
X104241000Y-51040000D02*
X104241000Y-53250000D01*
X104601000Y-47055000D02*
X104601000Y-48960000D01*
X105081000Y-47600000D02*
X105081000Y-48960000D01*
X105161000Y-47713000D02*
X105161000Y-48960000D01*
X102801000Y-46053000D02*
X102801000Y-53947000D01*
X104681000Y-51040000D02*
X104681000Y-52867000D01*
X104441000Y-51040000D02*
X104441000Y-53090000D01*
X105001000Y-51040000D02*
X105001000Y-52505000D01*
X103681000Y-51040000D02*
X103681000Y-53606000D01*
X103241000Y-46195000D02*
X103241000Y-48960000D01*
X102721000Y-46033000D02*
X102721000Y-53967000D01*
X105241000Y-51040000D02*
X105241000Y-52166000D01*
X103401000Y-46260000D02*
X103401000Y-48960000D01*
X103121000Y-46150000D02*
X103121000Y-53850000D01*
X105521000Y-48355000D02*
X105521000Y-51645000D01*
X102481000Y-45983000D02*
X102481000Y-54017000D01*
X105561000Y-48448000D02*
X105561000Y-51552000D01*
X104961000Y-51040000D02*
X104961000Y-52556000D01*
X105281000Y-51040000D02*
X105281000Y-52102000D01*
X102200000Y-45943000D02*
X102200000Y-54057000D01*
X105481000Y-48269000D02*
X105481000Y-51731000D01*
X101760000Y-45920000D02*
X101760000Y-54080000D01*
X103721000Y-46416000D02*
X103721000Y-48960000D01*
X103401000Y-51040000D02*
X103401000Y-53740000D01*
X104001000Y-51040000D02*
X104001000Y-53418000D01*
X105281000Y-47898000D02*
X105281000Y-48960000D01*
X104241000Y-46750000D02*
X104241000Y-48960000D01*
X104681000Y-47133000D02*
X104681000Y-48960000D01*
X104641000Y-51040000D02*
X104641000Y-52907000D01*
X105401000Y-48110000D02*
X105401000Y-51890000D01*
X105001000Y-47495000D02*
X105001000Y-48960000D01*
X102881000Y-46075000D02*
X102881000Y-53925000D01*
X102961000Y-46098000D02*
X102961000Y-53902000D01*
X103521000Y-51040000D02*
X103521000Y-53686000D01*
X104401000Y-51040000D02*
X104401000Y-53124000D01*
X104641000Y-47093000D02*
X104641000Y-48960000D01*
X103841000Y-51040000D02*
X103841000Y-53517000D01*
X104841000Y-47303000D02*
X104841000Y-48960000D01*
X104521000Y-51040000D02*
X104521000Y-53019000D01*
X104121000Y-46662000D02*
X104121000Y-48960000D01*
X105121000Y-47655000D02*
X105121000Y-48960000D01*
X103001000Y-46111000D02*
X103001000Y-53889000D01*
X105121000Y-51040000D02*
X105121000Y-52345000D01*
X105041000Y-51040000D02*
X105041000Y-52454000D01*
X102320000Y-45958000D02*
X102320000Y-54042000D01*
X102761000Y-46043000D02*
X102761000Y-53957000D01*
X104081000Y-46635000D02*
X104081000Y-48960000D01*
X104041000Y-51040000D02*
X104041000Y-53392000D01*
X103961000Y-51040000D02*
X103961000Y-53444000D01*
X104721000Y-51040000D02*
X104721000Y-52826000D01*
X103881000Y-46507000D02*
X103881000Y-48960000D01*
X102440000Y-45976000D02*
X102440000Y-54024000D01*
X105361000Y-48036000D02*
X105361000Y-51964000D01*
X104721000Y-47174000D02*
X104721000Y-48960000D01*
X103721000Y-51040000D02*
X103721000Y-53584000D01*
X104881000Y-47349000D02*
X104881000Y-48960000D01*
X105641000Y-48654000D02*
X105641000Y-51346000D01*
X104801000Y-51040000D02*
X104801000Y-52741000D01*
X103521000Y-46314000D02*
X103521000Y-48960000D01*
X102000000Y-45926000D02*
X102000000Y-54074000D01*
X103761000Y-46438000D02*
X103761000Y-48960000D01*
X104601000Y-51040000D02*
X104601000Y-52945000D01*
X102080000Y-45932000D02*
X102080000Y-54068000D01*
X103761000Y-51040000D02*
X103761000Y-53562000D01*
X101800000Y-45920000D02*
X101800000Y-54080000D01*
X103481000Y-51040000D02*
X103481000Y-53704000D01*
X105041000Y-47546000D02*
X105041000Y-48960000D01*
X103641000Y-51040000D02*
X103641000Y-53627000D01*
X104481000Y-46945000D02*
X104481000Y-48960000D01*
X97750302Y-47285000D02*
X97750302Y-48085000D01*
X103161000Y-46165000D02*
X103161000Y-53835000D01*
X103441000Y-46278000D02*
X103441000Y-48960000D01*
X105241000Y-47834000D02*
X105241000Y-48960000D01*
X103961000Y-46556000D02*
X103961000Y-48960000D01*
X101840000Y-45920000D02*
X101840000Y-54080000D01*
X105801000Y-49232000D02*
X105801000Y-50768000D01*
X103361000Y-51040000D02*
X103361000Y-53757000D01*
X104761000Y-51040000D02*
X104761000Y-52784000D01*
X105201000Y-51040000D02*
X105201000Y-52228000D01*
X103801000Y-51040000D02*
X103801000Y-53540000D01*
X103281000Y-51040000D02*
X103281000Y-53790000D01*
X104801000Y-47259000D02*
X104801000Y-48960000D01*
X104361000Y-46844000D02*
X104361000Y-48960000D01*
X104841000Y-51040000D02*
X104841000Y-52697000D01*
X105601000Y-48547000D02*
X105601000Y-51453000D01*
X103441000Y-51040000D02*
X103441000Y-53722000D01*
X102841000Y-46064000D02*
X102841000Y-53936000D01*
X104081000Y-51040000D02*
X104081000Y-53365000D01*
X102400000Y-45970000D02*
X102400000Y-54030000D01*
X102240000Y-45948000D02*
X102240000Y-54052000D01*
X102641000Y-46015000D02*
X102641000Y-53985000D01*
X103201000Y-46179000D02*
X103201000Y-53821000D01*
X104281000Y-51040000D02*
X104281000Y-53220000D01*
X104561000Y-47017000D02*
X104561000Y-48960000D01*
X103601000Y-46353000D02*
X103601000Y-48960000D01*
X102160000Y-45939000D02*
X102160000Y-54061000D01*
X104441000Y-46910000D02*
X104441000Y-48960000D01*
X104201000Y-46720000D02*
X104201000Y-48960000D01*
X104161000Y-51040000D02*
X104161000Y-53309000D01*
X103481000Y-46296000D02*
X103481000Y-48960000D01*
X103241000Y-51040000D02*
X103241000Y-53805000D01*
X103641000Y-46373000D02*
X103641000Y-48960000D01*
X104521000Y-46981000D02*
X104521000Y-48960000D01*
X104281000Y-46780000D02*
X104281000Y-48960000D01*
X102921000Y-46086000D02*
X102921000Y-53914000D01*
X101920000Y-45923000D02*
X101920000Y-54077000D01*
X97350302Y-47685000D02*
X98150302Y-47685000D01*
X103601000Y-51040000D02*
X103601000Y-53647000D01*
X102681000Y-46024000D02*
X102681000Y-53976000D01*
X102280000Y-45952000D02*
X102280000Y-54048000D01*
X104561000Y-51040000D02*
X104561000Y-52983000D01*
X104201000Y-51040000D02*
X104201000Y-53280000D01*
X105321000Y-47966000D02*
X105321000Y-52034000D01*
X105201000Y-47772000D02*
X105201000Y-48960000D01*
X103361000Y-46243000D02*
X103361000Y-48960000D01*
X103321000Y-46226000D02*
X103321000Y-48960000D01*
X103081000Y-46137000D02*
X103081000Y-53863000D01*
X104161000Y-46691000D02*
X104161000Y-48960000D01*
X104481000Y-51040000D02*
X104481000Y-53055000D01*
X104321000Y-46811000D02*
X104321000Y-48960000D01*
X105441000Y-48187000D02*
X105441000Y-51813000D01*
X104001000Y-46582000D02*
X104001000Y-48960000D01*
X104881000Y-51040000D02*
X104881000Y-52651000D01*
X104921000Y-47396000D02*
X104921000Y-48960000D01*
X103921000Y-46531000D02*
X103921000Y-48960000D01*
X104401000Y-46876000D02*
X104401000Y-48960000D01*
X102521000Y-45990000D02*
X102521000Y-54010000D01*
X103561000Y-51040000D02*
X103561000Y-53666000D01*
X101880000Y-45921000D02*
X101880000Y-54079000D01*
X105880000Y-50000000D02*
G75*
G03*
X105880000Y-50000000I-4120000J0D01*
G01*
%TO.C,J15*%
X176975000Y-78095000D02*
X176975000Y-78855000D01*
X165605000Y-77205000D02*
X166875000Y-77205000D01*
X170975000Y-78515000D02*
X176975000Y-78515000D01*
X167917929Y-80635000D02*
X168315000Y-80635000D01*
X167985000Y-78855000D02*
X168315000Y-78855000D01*
X170975000Y-82345000D02*
X170975000Y-77145000D01*
X170975000Y-80635000D02*
X176975000Y-80635000D01*
X176975000Y-80635000D02*
X176975000Y-81395000D01*
X176975000Y-81395000D02*
X170975000Y-81395000D01*
X170975000Y-78395000D02*
X176975000Y-78395000D01*
X167917929Y-81395000D02*
X168315000Y-81395000D01*
X170975000Y-78155000D02*
X176975000Y-78155000D01*
X168315000Y-79745000D02*
X170975000Y-79745000D01*
X170975000Y-78755000D02*
X176975000Y-78755000D01*
X170975000Y-78275000D02*
X176975000Y-78275000D01*
X165605000Y-78475000D02*
X165605000Y-77205000D01*
X170975000Y-77145000D02*
X168315000Y-77145000D01*
X168315000Y-77145000D02*
X168315000Y-82345000D01*
X176975000Y-78855000D02*
X170975000Y-78855000D01*
X168315000Y-82345000D02*
X170975000Y-82345000D01*
X170975000Y-78635000D02*
X176975000Y-78635000D01*
X170975000Y-78095000D02*
X176975000Y-78095000D01*
X167985000Y-78095000D02*
X168315000Y-78095000D01*
%TO.C,R16*%
X150462936Y-124910000D02*
X151917064Y-124910000D01*
X150462936Y-123090000D02*
X151917064Y-123090000D01*
%TO.C,C15*%
X94735000Y-55261252D02*
X94735000Y-54738748D01*
X93265000Y-55261252D02*
X93265000Y-54738748D01*
%TO.C,U6*%
X135440000Y-79080000D02*
G75*
G03*
X133440000Y-79080000I-1000000J0D01*
G01*
X137090000Y-68800000D02*
X131790000Y-68800000D01*
X137090000Y-79080000D02*
X137090000Y-68800000D01*
X131790000Y-79080000D02*
X133440000Y-79080000D01*
X131790000Y-68800000D02*
X131790000Y-79080000D01*
X135440000Y-79080000D02*
X137090000Y-79080000D01*
%TO.C,R28*%
X144954564Y-55825000D02*
X143500436Y-55825000D01*
X144954564Y-57645000D02*
X143500436Y-57645000D01*
%TO.C,C26*%
X108511252Y-137735000D02*
X107988748Y-137735000D01*
X108511252Y-136265000D02*
X107988748Y-136265000D01*
%TO.C,J19*%
X149995000Y-58105000D02*
X149995000Y-55505000D01*
X149995000Y-55505000D02*
X147395000Y-55505000D01*
X147395000Y-55505000D02*
X147395000Y-52905000D01*
X147395000Y-58105000D02*
X147395000Y-56775000D01*
X152595000Y-58105000D02*
X152595000Y-52905000D01*
X149995000Y-58105000D02*
X152595000Y-58105000D01*
X147395000Y-52905000D02*
X152595000Y-52905000D01*
X148725000Y-58105000D02*
X147395000Y-58105000D01*
%TO.C,R14*%
X141590000Y-120485436D02*
X141590000Y-121939564D01*
X143410000Y-120485436D02*
X143410000Y-121939564D01*
%TO.C,C12*%
X118826248Y-52910000D02*
X120248752Y-52910000D01*
X118826248Y-51090000D02*
X120248752Y-51090000D01*
%TO.C,C11*%
X106565000Y-65646252D02*
X106565000Y-64223748D01*
X108385000Y-65646252D02*
X108385000Y-64223748D01*
%TO.C,J17*%
X149923750Y-69690000D02*
X147323750Y-69690000D01*
X147323750Y-67090000D02*
X152523750Y-67090000D01*
X148653750Y-72290000D02*
X147323750Y-72290000D01*
X149923750Y-72290000D02*
X149923750Y-69690000D01*
X149923750Y-72290000D02*
X152523750Y-72290000D01*
X152523750Y-72290000D02*
X152523750Y-67090000D01*
X147323750Y-69690000D02*
X147323750Y-67090000D01*
X147323750Y-72290000D02*
X147323750Y-70960000D01*
%TO.C,C13*%
X152541248Y-130910000D02*
X153963752Y-130910000D01*
X152541248Y-129090000D02*
X153963752Y-129090000D01*
%TO.C,C2*%
X142648752Y-110090000D02*
X141226248Y-110090000D01*
X142648752Y-111910000D02*
X141226248Y-111910000D01*
%TO.C,J21*%
X130230000Y-59170000D02*
X127630000Y-59170000D01*
X130230000Y-61770000D02*
X132830000Y-61770000D01*
X127630000Y-59170000D02*
X127630000Y-64370000D01*
X130230000Y-59170000D02*
X130230000Y-61770000D01*
X132830000Y-64370000D02*
X127630000Y-64370000D01*
X132830000Y-61770000D02*
X132830000Y-64370000D01*
X131500000Y-59170000D02*
X132830000Y-59170000D01*
X132830000Y-59170000D02*
X132830000Y-60500000D01*
%TO.C,R26*%
X134022936Y-81660000D02*
X135477064Y-81660000D01*
X134022936Y-79840000D02*
X135477064Y-79840000D01*
%TO.C,R31*%
X135272936Y-64410000D02*
X136727064Y-64410000D01*
X135272936Y-62590000D02*
X136727064Y-62590000D01*
%TD*%
M02*
