%TF.GenerationSoftware,KiCad,Pcbnew,(6.0.0)*%
%TF.CreationDate,2024-05-04T22:15:16-04:00*%
%TF.ProjectId,Impedance_Analyzer_V4,496d7065-6461-46e6-9365-5f416e616c79,rev?*%
%TF.SameCoordinates,Original*%
%TF.FileFunction,Legend,Bot*%
%TF.FilePolarity,Positive*%
%FSLAX46Y46*%
G04 Gerber Fmt 4.6, Leading zero omitted, Abs format (unit mm)*
G04 Created by KiCad (PCBNEW (6.0.0)) date 2024-05-04 22:15:16*
%MOMM*%
%LPD*%
G01*
G04 APERTURE LIST*
%ADD10C,0.300000*%
%ADD11C,0.150000*%
%ADD12C,0.152400*%
%ADD13C,0.508000*%
%ADD14C,0.120000*%
G04 APERTURE END LIST*
D10*
X119285714Y-129678571D02*
X118428571Y-129678571D01*
X118857142Y-131178571D02*
X118857142Y-129678571D01*
X118142857Y-129678571D02*
X117642857Y-131178571D01*
X117142857Y-129678571D01*
X116714285Y-131107142D02*
X116500000Y-131178571D01*
X116142857Y-131178571D01*
X116000000Y-131107142D01*
X115928571Y-131035714D01*
X115857142Y-130892857D01*
X115857142Y-130750000D01*
X115928571Y-130607142D01*
X116000000Y-130535714D01*
X116142857Y-130464285D01*
X116428571Y-130392857D01*
X116571428Y-130321428D01*
X116642857Y-130250000D01*
X116714285Y-130107142D01*
X116714285Y-129964285D01*
X116642857Y-129821428D01*
X116571428Y-129750000D01*
X116428571Y-129678571D01*
X116071428Y-129678571D01*
X115857142Y-129750000D01*
D11*
%TO.C,J1*%
X76452619Y-89378333D02*
X75738333Y-89378333D01*
X75595476Y-89425952D01*
X75500238Y-89521190D01*
X75452619Y-89664047D01*
X75452619Y-89759285D01*
X75452619Y-88378333D02*
X75452619Y-88949761D01*
X75452619Y-88664047D02*
X76452619Y-88664047D01*
X76309761Y-88759285D01*
X76214523Y-88854523D01*
X76166904Y-88949761D01*
%TO.C,D6*%
X117738095Y-125452380D02*
X117738095Y-124452380D01*
X117500000Y-124452380D01*
X117357142Y-124500000D01*
X117261904Y-124595238D01*
X117214285Y-124690476D01*
X117166666Y-124880952D01*
X117166666Y-125023809D01*
X117214285Y-125214285D01*
X117261904Y-125309523D01*
X117357142Y-125404761D01*
X117500000Y-125452380D01*
X117738095Y-125452380D01*
X116309523Y-124452380D02*
X116500000Y-124452380D01*
X116595238Y-124500000D01*
X116642857Y-124547619D01*
X116738095Y-124690476D01*
X116785714Y-124880952D01*
X116785714Y-125261904D01*
X116738095Y-125357142D01*
X116690476Y-125404761D01*
X116595238Y-125452380D01*
X116404761Y-125452380D01*
X116309523Y-125404761D01*
X116261904Y-125357142D01*
X116214285Y-125261904D01*
X116214285Y-125023809D01*
X116261904Y-124928571D01*
X116309523Y-124880952D01*
X116404761Y-124833333D01*
X116595238Y-124833333D01*
X116690476Y-124880952D01*
X116738095Y-124928571D01*
X116785714Y-125023809D01*
D12*
%TO.C,J1*%
X87716000Y-121112500D02*
X78227913Y-121112500D01*
X70317000Y-56977500D02*
X77392087Y-56977500D01*
X78227913Y-56977500D02*
X87716000Y-56977500D01*
X87716000Y-56977500D02*
X87716000Y-121112500D01*
X70317000Y-121112500D02*
X70317000Y-56977500D01*
X77392087Y-121112500D02*
X70317000Y-121112500D01*
D13*
X74381000Y-122890500D02*
G75*
G03*
X74381000Y-122890500I-381000J0D01*
G01*
%TO.C,D15*%
X81436300Y-127887600D02*
G75*
G03*
X81436300Y-127887600I-381000J0D01*
G01*
%TO.C,D14*%
X81436300Y-133637600D02*
G75*
G03*
X81436300Y-133637600I-381000J0D01*
G01*
D14*
%TO.C,D6*%
X120400000Y-125850000D02*
X115000000Y-125850000D01*
X120400000Y-125850000D02*
X120400000Y-129150000D01*
X120400000Y-129150000D02*
X115000000Y-129150000D01*
%TD*%
M02*
