M48
; DRILL file {KiCad (6.0.0)} date Tue Aug 23 11:31:40 2022
; FORMAT={-:-/ absolute / inch / decimal}
; #@! TF.CreationDate,2022-08-23T11:31:40-04:00
; #@! TF.GenerationSoftware,Kicad,Pcbnew,(6.0.0)
; #@! TF.FileFunction,Plated,1,2,PTH
FMAT,2
INCH
; #@! TA.AperFunction,Plated,PTH,ViaDrill
T1C0.0157
; #@! TA.AperFunction,Plated,PTH,ComponentDrill
T2C0.0217
; #@! TA.AperFunction,Plated,PTH,ComponentDrill
T3C0.0300
; #@! TA.AperFunction,Plated,PTH,ComponentDrill
T4C0.0315
; #@! TA.AperFunction,Plated,PTH,ComponentDrill
T5C0.0335
; #@! TA.AperFunction,Plated,PTH,ComponentDrill
T6C0.0394
; #@! TA.AperFunction,Plated,PTH,ComponentDrill
T7C0.0433
; #@! TA.AperFunction,Plated,PTH,ComponentDrill
T8C0.0500
; #@! TA.AperFunction,Plated,PTH,ComponentDrill
T9C0.0598
; #@! TA.AperFunction,Plated,PTH,ComponentDrill
T10C0.0600
; #@! TA.AperFunction,Plated,PTH,ComponentDrill
T11C0.1693
%
G90
G05
T1
X2.815Y-2.4508
X2.815Y-2.5508
X2.815Y-2.6508
X2.815Y-2.7508
X2.815Y-2.8508
X2.815Y-2.9508
X2.815Y-3.0508
X2.815Y-3.1508
X2.815Y-3.2508
X2.815Y-3.3508
X2.815Y-3.4508
X2.815Y-3.5508
X2.815Y-3.6508
X2.815Y-3.7508
X2.815Y-3.8508
X2.815Y-3.9508
X2.815Y-4.0508
X2.815Y-4.1508
X2.815Y-4.2508
X2.815Y-4.3508
X2.815Y-4.4508
X2.815Y-4.5508
X2.815Y-4.6508
X2.815Y-4.7508
X2.815Y-4.8508
X2.815Y-4.9508
X2.815Y-5.0508
X2.815Y-5.0787
X2.815Y-5.1508
X2.815Y-5.2508
X2.815Y-5.3508
X3.0823Y-5.561
X3.1004Y-2.5591
X3.1118Y-2.1063
X3.1823Y-5.561
X3.2118Y-2.1063
X3.248Y-2.3031
X3.248Y-2.4213
X3.3118Y-2.1063
X3.3823Y-5.561
X3.4118Y-2.1063
X3.4547Y-5.315
X3.4823Y-5.561
X3.4843Y-2.8543
X3.5118Y-2.1063
X3.561Y-5.002
X3.5925Y-2.5394
X3.6118Y-2.1063
X3.6417Y-2.7362
X3.6417Y-2.8445
X3.6823Y-5.561
X3.7106Y-2.9429
X3.7118Y-2.1063
X3.7598Y-3.0906
X3.7823Y-5.561
X3.8118Y-2.1063
X3.8189Y-2.5197
X3.8189Y-2.9213
X3.8425Y-2.811
X3.8681Y-3.2677
X3.8823Y-5.561
X3.9118Y-2.1063
X3.9272Y-3.937
X3.9272Y-4.0846
X3.937Y-2.8937
X3.9567Y-2.6969
X3.9823Y-5.561
X4.0118Y-2.1063
X4.0157Y-2.9134
X4.0157Y-3.1378
X4.0354Y-2.6181
X4.0551Y-3.2756
X4.0689Y-3.5177
X4.0823Y-5.561
X4.0846Y-3.937
X4.0846Y-4.0846
X4.0846Y-4.498
X4.1118Y-2.1063
X4.128Y-3.3701
X4.1732Y-2.8543
X4.1732Y-3.2283
X4.1823Y-5.561
X4.1929Y-3.1496
X4.1929Y-4.2717
X4.1939Y-3.0537
X4.2118Y-2.1063
X4.2224Y-3.8386
X4.2224Y-3.937
X4.2224Y-4.0846
X4.2323Y-3.3661
X4.2323Y-3.4941
X4.2323Y-3.6024
X4.2323Y-5.2264
X4.2421Y-4.9705
X4.25Y-3.7205
X4.2618Y-4.813
X4.2815Y-3.2382
X4.2823Y-5.561
X4.2913Y-2.628
X4.311Y-3.937
X4.3118Y-2.1063
X4.3228Y-4.1024
X4.3228Y-4.4882
X4.3504Y-5.1378
X4.3701Y-2.9921
X4.3701Y-3.3169
X4.3701Y-3.4941
X4.3701Y-3.6024
X4.3701Y-3.8386
X4.3701Y-3.937
X4.3701Y-4.0945
X4.3799Y-4.7244
X4.3823Y-5.561
X4.3898Y-2.5689
X4.3898Y-2.7165
X4.3898Y-2.8543
X4.3898Y-4.626
X4.3996Y-3.1988
X4.3996Y-2.8937
X4.4094Y-3.6417
X4.4094Y-3.7205
X4.4094Y-3.7697
X4.4118Y-2.1063
X4.4271Y-3.0295
X4.4291Y-4.8524
X4.4291Y-4.9606
X4.4291Y-5.0492
X4.4291Y-5.4921
X4.439Y-4.065
X4.439Y-4.1535
X4.439Y-4.2913
X4.439Y-4.4488
X4.498Y-2.7264
X4.4996Y-2.1063
X4.5048Y-4.5245
X4.5177Y-3.9272
X4.5276Y-2.8543
X4.5276Y-3.0315
X4.5472Y-3.6811
X4.5996Y-2.1063
X4.6063Y-3.0709
X4.6063Y-4.0945
X4.6161Y-4.6358
X4.6358Y-2.7264
X4.6752Y-5.2953
X4.685Y-2.8543
X4.6996Y-2.1063
X4.7047Y-3.7402
X4.7244Y-3.4843
X4.7244Y-4.9803
X4.7275Y-4.7472
X4.75Y-4.8287
X4.7835Y-2.9724
X4.7835Y-3.9961
X4.7933Y-2.7264
X4.7996Y-2.1063
X4.8259Y-4.3338
X4.8425Y-3.6024
X4.8425Y-4.9705
X4.8622Y-4.2126
X4.872Y-4.7539
X4.8917Y-5.0394
X4.8917Y-5.2362
X4.8917Y-5.3543
X4.8917Y-5.5512
X4.8996Y-2.1063
X4.9016Y-2.8346
X4.9016Y-2.9921
X4.9016Y-4.0354
X4.9016Y-4.4783
X4.9409Y-3.6024
X4.9409Y-4.9213
X4.9606Y-3.8976
X4.9996Y-2.1063
X5.0197Y-2.8346
X5.0394Y-2.9921
X5.0394Y-3.8976
X5.0394Y-4.7638
X5.0689Y-3.5433
X5.0689Y-4.9705
X5.0984Y-3.2677
X5.0984Y-4.8917
X5.0996Y-2.1063
X5.1378Y-5.2559
X5.1378Y-5.3543
X5.1476Y-4.9902
X5.1575Y-2.8346
X5.1575Y-2.9921
X5.1996Y-2.1063
X5.2264Y-3.4252
X5.2362Y-3.5728
X5.2461Y-4.2126
X5.2559Y-3.9567
X5.2953Y-3.3661
X5.2996Y-2.1063
X5.3051Y-3.5138
X5.3051Y-3.6024
X5.315Y-2.8346
X5.3248Y-3.189
X5.374Y-3.3071
X5.374Y-5.2165
X5.3839Y-3.4547
X5.3996Y-2.1063
X5.4134Y-4.7835
X5.4528Y-4.5472
X5.4528Y-4.6654
X5.4921Y-2.8346
X5.4921Y-4.311
X5.4921Y-4.4488
X5.4996Y-2.1063
X5.5118Y-5.187
X5.5467Y-3.8809
X5.5906Y-4.7835
X5.5996Y-2.1063
X5.6102Y-4.4291
X5.6102Y-4.5472
X5.6996Y-2.1063
X5.7087Y-4.3701
X5.7132Y-3.8967
X5.7972Y-4.5866
X5.8071Y-4.1732
X5.8268Y-4.2717
X5.8268Y-4.4685
X5.8661Y-4.4094
X6.1319Y-2.4508
X6.1909Y-5.0295
X6.3386Y-3.0512
X6.3386Y-4.4783
X6.3583Y-3.1791
X6.3681Y-4.3602
X6.4075Y-3.6516
X6.4075Y-3.8484
T3
X4.5276Y-4.8969
X4.5276Y-4.9969
X4.5276Y-5.2969
X4.5276Y-5.3969
X4.5276Y-5.4969
T4
X3.7402Y-5.0
X3.8189Y-5.0
X4.0157Y-5.0
X4.0945Y-5.0
X4.698Y-3.9638
X4.698Y-4.0638
X4.698Y-4.1638
X4.698Y-4.2638
X4.998Y-3.9638
X4.998Y-4.0638
X4.998Y-4.1638
X4.998Y-4.2638
X5.1528Y-3.2925
X5.1528Y-3.3925
X5.1528Y-3.4925
X5.1528Y-3.5925
X5.3582Y-5.4429
X5.3603Y-4.9803
X5.4528Y-3.2925
X5.4528Y-3.3925
X5.4528Y-3.4925
X5.4528Y-3.5925
X5.555Y-5.4429
X5.5572Y-4.9803
T6
X3.4252Y-2.4606
X3.4252Y-2.5606
X3.5252Y-2.4606
X3.5252Y-2.5606
X3.7096Y-3.1683
X3.7096Y-3.2683
X3.8096Y-3.1683
X3.8096Y-3.2683
X4.6136Y-4.4203
X4.6136Y-4.5203
X4.7136Y-4.4203
X4.7136Y-4.5203
X5.088Y-3.7096
X5.088Y-3.8096
X5.0984Y-4.0354
X5.0984Y-4.1354
X5.188Y-3.7096
X5.188Y-3.8096
X5.1984Y-4.0354
X5.1984Y-4.1354
X5.3242Y-4.0354
X5.3242Y-4.1354
X5.4242Y-4.0354
X5.4242Y-4.1354
X5.5709Y-2.8921
X5.5709Y-2.9921
X5.6709Y-2.8921
X5.6709Y-2.9921
T7
X3.6386Y-4.5276
X3.7386Y-4.5276
X3.8386Y-4.5276
T8
X3.0709Y-2.6772
X3.0709Y-4.1142
X3.0778Y-3.3907
X6.0039Y-2.8642
X6.0433Y-4.685
X6.1152Y-3.4646
X6.122Y-4.0945
T9
X3.7598Y-5.374
X3.9598Y-5.374
X4.1598Y-5.374
T10
X2.9459Y-2.5522
X2.9459Y-2.8022
X2.9459Y-3.9892
X2.9459Y-4.2392
X2.9528Y-3.2657
X2.9528Y-3.5157
X3.1959Y-2.5522
X3.1959Y-2.8022
X3.1959Y-3.9892
X3.1959Y-4.2392
X3.2028Y-3.2657
X3.2028Y-3.5157
X5.8508Y-2.7758
X5.8902Y-4.7734
X5.9155Y-3.0173
X5.9549Y-4.5319
X5.974Y-3.3582
X5.9809Y-4.2009
X6.0088Y-3.6057
X6.0157Y-3.9533
X6.0923Y-2.7111
X6.1317Y-4.8381
X6.157Y-2.9526
X6.1964Y-4.5967
X6.2215Y-3.3234
X6.2284Y-4.2357
X6.2563Y-3.571
X6.2632Y-3.9881
T11
X5.9055Y-2.2638
T2
G00X3.2382Y-5.5187
M15
G01X3.2382Y-5.5443
M16
G05
G00X3.5433Y-5.5187
M15
G01X3.5433Y-5.5443
M16
G05
T5
G00X3.2441Y-5.3711
M15
G01X3.2441Y-5.3927
M16
G05
G00X3.5374Y-5.3711
M15
G01X3.5374Y-5.3927
M16
G05
T6
G00X3.0512Y-4.6063
M15
G01X3.0512Y-4.685
M16
G05
G00X3.1299Y-4.8307
M15
G01X3.2087Y-4.8307
M16
G05
G00X3.2874Y-4.6063
M15
G01X3.2874Y-4.685
M16
G05
T0
M30
