%TF.GenerationSoftware,KiCad,Pcbnew,(6.0.0)*%
%TF.CreationDate,2022-08-23T11:31:34-04:00*%
%TF.ProjectId,Impedance_Analyzer_V2,496d7065-6461-46e6-9365-5f416e616c79,rev?*%
%TF.SameCoordinates,Original*%
%TF.FileFunction,Legend,Top*%
%TF.FilePolarity,Positive*%
%FSLAX46Y46*%
G04 Gerber Fmt 4.6, Leading zero omitted, Abs format (unit mm)*
G04 Created by KiCad (PCBNEW (6.0.0)) date 2022-08-23 11:31:34*
%MOMM*%
%LPD*%
G01*
G04 APERTURE LIST*
%ADD10C,0.120000*%
%ADD11C,0.150000*%
%ADD12C,0.100000*%
G04 APERTURE END LIST*
D10*
X90000000Y-99000000D02*
X92500000Y-99000000D01*
X96000000Y-97000000D02*
X96000000Y-99500000D01*
X94500000Y-96000000D02*
X99000000Y-96000000D01*
X99000000Y-96000000D02*
X99000000Y-100500000D01*
X99000000Y-100500000D02*
X94500000Y-100500000D01*
X94500000Y-100500000D02*
X94500000Y-96000000D01*
X131000000Y-68000000D02*
X143000000Y-68000000D01*
X89000000Y-96000000D02*
X93500000Y-96000000D01*
X93500000Y-96000000D02*
X93500000Y-100500000D01*
X93500000Y-100500000D02*
X89000000Y-100500000D01*
X89000000Y-100500000D02*
X89000000Y-96000000D01*
X90000000Y-97500000D02*
X92500000Y-97500000D01*
X97500000Y-97000000D02*
X97500000Y-99500000D01*
D11*
X85363660Y-87147380D02*
X85571994Y-88147380D01*
X86030327Y-87147380D01*
X86381517Y-88147380D02*
X86292232Y-88099761D01*
X86250565Y-88052142D01*
X86214851Y-87956904D01*
X86250565Y-87671190D01*
X86310089Y-87575952D01*
X86363660Y-87528333D01*
X86464851Y-87480714D01*
X86607708Y-87480714D01*
X86696994Y-87528333D01*
X86738660Y-87575952D01*
X86774375Y-87671190D01*
X86738660Y-87956904D01*
X86679136Y-88052142D01*
X86625565Y-88099761D01*
X86524375Y-88147380D01*
X86381517Y-88147380D01*
X87286279Y-88147380D02*
X87196994Y-88099761D01*
X87161279Y-88004523D01*
X87268422Y-87147380D01*
X87607708Y-87480714D02*
X87988660Y-87480714D01*
X87792232Y-87147380D02*
X87685089Y-88004523D01*
X87720803Y-88099761D01*
X87810089Y-88147380D01*
X87905327Y-88147380D01*
X88667232Y-88147380D02*
X88732708Y-87623571D01*
X88696994Y-87528333D01*
X88607708Y-87480714D01*
X88417232Y-87480714D01*
X88316041Y-87528333D01*
X88673184Y-88099761D02*
X88571994Y-88147380D01*
X88333898Y-88147380D01*
X88244613Y-88099761D01*
X88208898Y-88004523D01*
X88220803Y-87909285D01*
X88280327Y-87814047D01*
X88381517Y-87766428D01*
X88619613Y-87766428D01*
X88720803Y-87718809D01*
X89655327Y-87480714D02*
X89554136Y-88290238D01*
X89494613Y-88385476D01*
X89441041Y-88433095D01*
X89339851Y-88480714D01*
X89196994Y-88480714D01*
X89107708Y-88433095D01*
X89577946Y-88099761D02*
X89476755Y-88147380D01*
X89286279Y-88147380D01*
X89196994Y-88099761D01*
X89155327Y-88052142D01*
X89119613Y-87956904D01*
X89155327Y-87671190D01*
X89214851Y-87575952D01*
X89268422Y-87528333D01*
X89369613Y-87480714D01*
X89560089Y-87480714D01*
X89649375Y-87528333D01*
X90435089Y-88099761D02*
X90333898Y-88147380D01*
X90143422Y-88147380D01*
X90054136Y-88099761D01*
X90018422Y-88004523D01*
X90066041Y-87623571D01*
X90125565Y-87528333D01*
X90226755Y-87480714D01*
X90417232Y-87480714D01*
X90506517Y-87528333D01*
X90542232Y-87623571D01*
X90530327Y-87718809D01*
X90042232Y-87814047D01*
X85911279Y-89709761D02*
X86048184Y-89757380D01*
X86286279Y-89757380D01*
X86387470Y-89709761D01*
X86441041Y-89662142D01*
X86500565Y-89566904D01*
X86512470Y-89471666D01*
X86476755Y-89376428D01*
X86435089Y-89328809D01*
X86345803Y-89281190D01*
X86161279Y-89233571D01*
X86071994Y-89185952D01*
X86030327Y-89138333D01*
X85994613Y-89043095D01*
X86006517Y-88947857D01*
X86066041Y-88852619D01*
X86119613Y-88805000D01*
X86220803Y-88757380D01*
X86458898Y-88757380D01*
X86595803Y-88805000D01*
X87292232Y-89709761D02*
X87191041Y-89757380D01*
X87000565Y-89757380D01*
X86911279Y-89709761D01*
X86875565Y-89614523D01*
X86923184Y-89233571D01*
X86982708Y-89138333D01*
X87083898Y-89090714D01*
X87274375Y-89090714D01*
X87363660Y-89138333D01*
X87399375Y-89233571D01*
X87387470Y-89328809D01*
X86899375Y-89424047D01*
X87845803Y-89090714D02*
X87762470Y-89757380D01*
X87833898Y-89185952D02*
X87887470Y-89138333D01*
X87988660Y-89090714D01*
X88131517Y-89090714D01*
X88220803Y-89138333D01*
X88256517Y-89233571D01*
X88191041Y-89757380D01*
X88625565Y-89709761D02*
X88714851Y-89757380D01*
X88905327Y-89757380D01*
X89006517Y-89709761D01*
X89066041Y-89614523D01*
X89071994Y-89566904D01*
X89036279Y-89471666D01*
X88946994Y-89424047D01*
X88804136Y-89424047D01*
X88714851Y-89376428D01*
X88679136Y-89281190D01*
X88685089Y-89233571D01*
X88744613Y-89138333D01*
X88845803Y-89090714D01*
X88988660Y-89090714D01*
X89077946Y-89138333D01*
X89863660Y-89709761D02*
X89762470Y-89757380D01*
X89571994Y-89757380D01*
X89482708Y-89709761D01*
X89446994Y-89614523D01*
X89494613Y-89233571D01*
X89554136Y-89138333D01*
X89655327Y-89090714D01*
X89845803Y-89090714D01*
X89935089Y-89138333D01*
X89970803Y-89233571D01*
X89958898Y-89328809D01*
X89470803Y-89424047D01*
X75613660Y-74147380D02*
X75821994Y-75147380D01*
X76280327Y-74147380D01*
X76631517Y-75147380D02*
X76542232Y-75099761D01*
X76500565Y-75052142D01*
X76464851Y-74956904D01*
X76500565Y-74671190D01*
X76560089Y-74575952D01*
X76613660Y-74528333D01*
X76714851Y-74480714D01*
X76857708Y-74480714D01*
X76946994Y-74528333D01*
X76988660Y-74575952D01*
X77024375Y-74671190D01*
X76988660Y-74956904D01*
X76929136Y-75052142D01*
X76875565Y-75099761D01*
X76774375Y-75147380D01*
X76631517Y-75147380D01*
X77536279Y-75147380D02*
X77446994Y-75099761D01*
X77411279Y-75004523D01*
X77518422Y-74147380D01*
X77857708Y-74480714D02*
X78238660Y-74480714D01*
X78042232Y-74147380D02*
X77935089Y-75004523D01*
X77970803Y-75099761D01*
X78060089Y-75147380D01*
X78155327Y-75147380D01*
X78917232Y-75147380D02*
X78982708Y-74623571D01*
X78946994Y-74528333D01*
X78857708Y-74480714D01*
X78667232Y-74480714D01*
X78566041Y-74528333D01*
X78923184Y-75099761D02*
X78821994Y-75147380D01*
X78583898Y-75147380D01*
X78494613Y-75099761D01*
X78458898Y-75004523D01*
X78470803Y-74909285D01*
X78530327Y-74814047D01*
X78631517Y-74766428D01*
X78869613Y-74766428D01*
X78970803Y-74718809D01*
X79905327Y-74480714D02*
X79804136Y-75290238D01*
X79744613Y-75385476D01*
X79691041Y-75433095D01*
X79589851Y-75480714D01*
X79446994Y-75480714D01*
X79357708Y-75433095D01*
X79827946Y-75099761D02*
X79726755Y-75147380D01*
X79536279Y-75147380D01*
X79446994Y-75099761D01*
X79405327Y-75052142D01*
X79369613Y-74956904D01*
X79405327Y-74671190D01*
X79464851Y-74575952D01*
X79518422Y-74528333D01*
X79619613Y-74480714D01*
X79810089Y-74480714D01*
X79899375Y-74528333D01*
X80685089Y-75099761D02*
X80583898Y-75147380D01*
X80393422Y-75147380D01*
X80304136Y-75099761D01*
X80268422Y-75004523D01*
X80316041Y-74623571D01*
X80375565Y-74528333D01*
X80476755Y-74480714D01*
X80667232Y-74480714D01*
X80756517Y-74528333D01*
X80792232Y-74623571D01*
X80780327Y-74718809D01*
X80292232Y-74814047D01*
X76512470Y-76757380D02*
X76637470Y-75757380D01*
X77071994Y-76090714D02*
X76988660Y-76757380D01*
X77060089Y-76185952D02*
X77113660Y-76138333D01*
X77214851Y-76090714D01*
X77357708Y-76090714D01*
X77446994Y-76138333D01*
X77482708Y-76233571D01*
X77417232Y-76757380D01*
X77976755Y-76090714D02*
X77851755Y-77090714D01*
X77970803Y-76138333D02*
X78071994Y-76090714D01*
X78262470Y-76090714D01*
X78351755Y-76138333D01*
X78393422Y-76185952D01*
X78429136Y-76281190D01*
X78393422Y-76566904D01*
X78333898Y-76662142D01*
X78280327Y-76709761D01*
X78179136Y-76757380D01*
X77988660Y-76757380D01*
X77899375Y-76709761D01*
X79310089Y-76090714D02*
X79226755Y-76757380D01*
X78881517Y-76090714D02*
X78816041Y-76614523D01*
X78851755Y-76709761D01*
X78941041Y-76757380D01*
X79083898Y-76757380D01*
X79185089Y-76709761D01*
X79238660Y-76662142D01*
X79643422Y-76090714D02*
X80024375Y-76090714D01*
X79827946Y-75757380D02*
X79720803Y-76614523D01*
X79756517Y-76709761D01*
X79845803Y-76757380D01*
X79941041Y-76757380D01*
X160112022Y-72719247D02*
X159113744Y-72857325D01*
X159589115Y-72791573D02*
X159441218Y-72239616D01*
X159964126Y-72167289D02*
X158965848Y-72305367D01*
X159597908Y-71168517D02*
X159657770Y-71207938D01*
X159742281Y-71339353D01*
X159766930Y-71431346D01*
X159756367Y-71575910D01*
X159685943Y-71681053D01*
X159603193Y-71740200D01*
X159425370Y-71812497D01*
X159282759Y-71832223D01*
X159080286Y-71812527D01*
X158972887Y-71779681D01*
X158853163Y-71700838D01*
X158768652Y-71569424D01*
X158744003Y-71477431D01*
X158754566Y-71332866D01*
X158789778Y-71280295D01*
X158805618Y-70419483D02*
X159471137Y-70327430D01*
X158916541Y-70833451D02*
X159439448Y-70761124D01*
X159522198Y-70701977D01*
X159545085Y-70603409D01*
X159508111Y-70465420D01*
X159435925Y-70380002D01*
X159376063Y-70340581D01*
X159347890Y-69867466D02*
X158682371Y-69959518D01*
X158872519Y-69933217D02*
X158765120Y-69900371D01*
X158705259Y-69860950D01*
X158633072Y-69775532D01*
X158608423Y-69683539D01*
X163173227Y-88789771D02*
X162165562Y-88805161D01*
X162645403Y-88797833D02*
X162565875Y-88231965D01*
X163093700Y-88223904D02*
X162086035Y-88239294D01*
X163027427Y-87752348D02*
X162019762Y-87767737D01*
X161966744Y-87390492D01*
X162001473Y-87295448D01*
X162042830Y-87247560D01*
X162132171Y-87198939D01*
X162276123Y-87196740D01*
X162378718Y-87242430D01*
X162433329Y-87288853D01*
X162494568Y-87382431D01*
X162547586Y-87759676D01*
X162868372Y-86620613D02*
X162833642Y-86715657D01*
X162792286Y-86763545D01*
X162702945Y-86812167D01*
X162415041Y-86816564D01*
X162312445Y-86770874D01*
X162257834Y-86724451D01*
X162196595Y-86630873D01*
X162176713Y-86489406D01*
X162211443Y-86394362D01*
X162252800Y-86346473D01*
X162342140Y-86297852D01*
X162630045Y-86293455D01*
X162732640Y-86339145D01*
X162787251Y-86385568D01*
X162848490Y-86479146D01*
X162868372Y-86620613D01*
X162110440Y-86017849D02*
X162057422Y-85640604D01*
X161754670Y-85881512D02*
X162618383Y-85868321D01*
X162707724Y-85819700D01*
X162742453Y-85724656D01*
X162729199Y-85630345D01*
X163074306Y-106320748D02*
X163016273Y-106793389D01*
X162038961Y-106547451D01*
X163114930Y-105989899D02*
X162137617Y-105743961D01*
X162184043Y-105365849D01*
X162242189Y-105283032D01*
X162294531Y-105247479D01*
X162393411Y-105223638D01*
X162533027Y-105258771D01*
X162620302Y-105329458D01*
X162661037Y-105388434D01*
X162695969Y-105494673D01*
X162649543Y-105872786D01*
X163254209Y-104855561D02*
X163196063Y-104938378D01*
X163143721Y-104973930D01*
X163044841Y-104997772D01*
X162765609Y-104927504D01*
X162678335Y-104856817D01*
X162637599Y-104797842D01*
X162602667Y-104691602D01*
X162620077Y-104549810D01*
X162678222Y-104466993D01*
X162730564Y-104431440D01*
X162829445Y-104407599D01*
X163108677Y-104477867D01*
X163195951Y-104548553D01*
X163236687Y-104607529D01*
X163271619Y-104713768D01*
X163254209Y-104855561D01*
X162678110Y-104077169D02*
X162724536Y-103699056D01*
X162369749Y-103853397D02*
X163207446Y-104064201D01*
X163306326Y-104040360D01*
X163364471Y-103957543D01*
X163376078Y-103863014D01*
X160165969Y-122128460D02*
X160042721Y-122588425D01*
X159109148Y-122208865D01*
X160311226Y-121218379D02*
X160343358Y-121282450D01*
X160350839Y-121438513D01*
X160326190Y-121530506D01*
X160244760Y-121650421D01*
X160131199Y-121706266D01*
X160029962Y-121716114D01*
X159839814Y-121689813D01*
X159706446Y-121635590D01*
X159540948Y-121517297D01*
X159464360Y-121435152D01*
X159400098Y-121307010D01*
X159392616Y-121150947D01*
X159417266Y-121058954D01*
X159498696Y-120939038D01*
X159555476Y-120911116D01*
X159999601Y-120173551D02*
X160621983Y-120426591D01*
X159888678Y-120587519D02*
X160377693Y-120786336D01*
X160478929Y-120776489D01*
X160548035Y-120702570D01*
X160585009Y-120564580D01*
X160565202Y-120454513D01*
X160533071Y-120390443D01*
X160745230Y-119966626D02*
X160122848Y-119713587D01*
X160300671Y-119785884D02*
X160224084Y-119703739D01*
X160191953Y-119639668D01*
X160172147Y-119529601D01*
X160196796Y-119437608D01*
X104285714Y-141571428D02*
X105047619Y-141571428D01*
X105380952Y-140952380D02*
X105714285Y-141952380D01*
X106047619Y-140952380D01*
X106333333Y-141904761D02*
X106428571Y-141952380D01*
X106619047Y-141952380D01*
X106714285Y-141904761D01*
X106761904Y-141809523D01*
X106761904Y-141761904D01*
X106714285Y-141666666D01*
X106619047Y-141619047D01*
X106476190Y-141619047D01*
X106380952Y-141571428D01*
X106333333Y-141476190D01*
X106333333Y-141428571D01*
X106380952Y-141333333D01*
X106476190Y-141285714D01*
X106619047Y-141285714D01*
X106714285Y-141333333D01*
X93785714Y-141571428D02*
X94547619Y-141571428D01*
X94166666Y-141952380D02*
X94166666Y-141190476D01*
X94880952Y-140952380D02*
X95214285Y-141952380D01*
X95547619Y-140952380D01*
X95833333Y-141904761D02*
X95928571Y-141952380D01*
X96119047Y-141952380D01*
X96214285Y-141904761D01*
X96261904Y-141809523D01*
X96261904Y-141761904D01*
X96214285Y-141666666D01*
X96119047Y-141619047D01*
X95976190Y-141619047D01*
X95880952Y-141571428D01*
X95833333Y-141476190D01*
X95833333Y-141428571D01*
X95880952Y-141333333D01*
X95976190Y-141285714D01*
X96119047Y-141285714D01*
X96214285Y-141333333D01*
X99738095Y-141000000D02*
X99642857Y-140952380D01*
X99500000Y-140952380D01*
X99357142Y-141000000D01*
X99261904Y-141095238D01*
X99214285Y-141190476D01*
X99166666Y-141380952D01*
X99166666Y-141523809D01*
X99214285Y-141714285D01*
X99261904Y-141809523D01*
X99357142Y-141904761D01*
X99500000Y-141952380D01*
X99595238Y-141952380D01*
X99738095Y-141904761D01*
X99785714Y-141857142D01*
X99785714Y-141523809D01*
X99595238Y-141523809D01*
X100214285Y-141952380D02*
X100214285Y-140952380D01*
X100785714Y-141952380D01*
X100785714Y-140952380D01*
X101261904Y-141952380D02*
X101261904Y-140952380D01*
X101500000Y-140952380D01*
X101642857Y-141000000D01*
X101738095Y-141095238D01*
X101785714Y-141190476D01*
X101833333Y-141380952D01*
X101833333Y-141523809D01*
X101785714Y-141714285D01*
X101738095Y-141809523D01*
X101642857Y-141904761D01*
X101500000Y-141952380D01*
X101261904Y-141952380D01*
X142470803Y-111978571D02*
X142607708Y-112026190D01*
X142649375Y-112073809D01*
X142685089Y-112169047D01*
X142667232Y-112311904D01*
X142607708Y-112407142D01*
X142554136Y-112454761D01*
X142452946Y-112502380D01*
X142071994Y-112502380D01*
X142196994Y-111502380D01*
X142530327Y-111502380D01*
X142619613Y-111550000D01*
X142661279Y-111597619D01*
X142696994Y-111692857D01*
X142685089Y-111788095D01*
X142625565Y-111883333D01*
X142571994Y-111930952D01*
X142470803Y-111978571D01*
X142137470Y-111978571D01*
X143101755Y-111502380D02*
X143214851Y-112502380D01*
X143494613Y-111788095D01*
X143595803Y-112502380D01*
X143958898Y-111502380D01*
X125464285Y-126571428D02*
X126226190Y-126571428D01*
X127178571Y-125952380D02*
X126702380Y-125952380D01*
X126654761Y-126428571D01*
X126702380Y-126380952D01*
X126797619Y-126333333D01*
X127035714Y-126333333D01*
X127130952Y-126380952D01*
X127178571Y-126428571D01*
X127226190Y-126523809D01*
X127226190Y-126761904D01*
X127178571Y-126857142D01*
X127130952Y-126904761D01*
X127035714Y-126952380D01*
X126797619Y-126952380D01*
X126702380Y-126904761D01*
X126654761Y-126857142D01*
X127511904Y-125952380D02*
X127845238Y-126952380D01*
X128178571Y-125952380D01*
X92531674Y-96696428D02*
X92634352Y-96732142D01*
X92665602Y-96767857D01*
X92692388Y-96839285D01*
X92678995Y-96946428D01*
X92634352Y-97017857D01*
X92594174Y-97053571D01*
X92518281Y-97089285D01*
X92232566Y-97089285D01*
X92326316Y-96339285D01*
X92576316Y-96339285D01*
X92643281Y-96375000D01*
X92674531Y-96410714D01*
X92701316Y-96482142D01*
X92692388Y-96553571D01*
X92647745Y-96625000D01*
X92607566Y-96660714D01*
X92531674Y-96696428D01*
X92281674Y-96696428D01*
X108071428Y-122285714D02*
X108071428Y-121523809D01*
X107452380Y-120571428D02*
X107452380Y-121047619D01*
X107928571Y-121095238D01*
X107880952Y-121047619D01*
X107833333Y-120952380D01*
X107833333Y-120714285D01*
X107880952Y-120619047D01*
X107928571Y-120571428D01*
X108023809Y-120523809D01*
X108261904Y-120523809D01*
X108357142Y-120571428D01*
X108404761Y-120619047D01*
X108452380Y-120714285D01*
X108452380Y-120952380D01*
X108404761Y-121047619D01*
X108357142Y-121095238D01*
X107452380Y-120238095D02*
X108452380Y-119904761D01*
X107452380Y-119571428D01*
X136190476Y-66842380D02*
X136190476Y-67556666D01*
X136142857Y-67699523D01*
X136047619Y-67794761D01*
X135904761Y-67842380D01*
X135809523Y-67842380D01*
X137190476Y-67842380D02*
X136619047Y-67842380D01*
X136904761Y-67842380D02*
X136904761Y-66842380D01*
X136809523Y-66985238D01*
X136714285Y-67080476D01*
X136619047Y-67128095D01*
X137523809Y-66842380D02*
X138190476Y-66842380D01*
X137761904Y-67842380D01*
X131000000Y-69452380D02*
X131000000Y-68452380D01*
X131380952Y-68452380D01*
X131476190Y-68500000D01*
X131523809Y-68547619D01*
X131571428Y-68642857D01*
X131571428Y-68785714D01*
X131523809Y-68880952D01*
X131476190Y-68928571D01*
X131380952Y-68976190D01*
X131000000Y-68976190D01*
X132000000Y-69452380D02*
X132000000Y-68785714D01*
X132000000Y-68452380D02*
X131952380Y-68500000D01*
X132000000Y-68547619D01*
X132047619Y-68500000D01*
X132000000Y-68452380D01*
X132000000Y-68547619D01*
X132904761Y-69404761D02*
X132809523Y-69452380D01*
X132619047Y-69452380D01*
X132523809Y-69404761D01*
X132476190Y-69357142D01*
X132428571Y-69261904D01*
X132428571Y-68976190D01*
X132476190Y-68880952D01*
X132523809Y-68833333D01*
X132619047Y-68785714D01*
X132809523Y-68785714D01*
X132904761Y-68833333D01*
X133333333Y-69452380D02*
X133333333Y-68452380D01*
X133428571Y-69071428D02*
X133714285Y-69452380D01*
X133714285Y-68785714D02*
X133333333Y-69166666D01*
X135476190Y-69452380D02*
X135142857Y-68976190D01*
X134904761Y-69452380D02*
X134904761Y-68452380D01*
X135285714Y-68452380D01*
X135380952Y-68500000D01*
X135428571Y-68547619D01*
X135476190Y-68642857D01*
X135476190Y-68785714D01*
X135428571Y-68880952D01*
X135380952Y-68928571D01*
X135285714Y-68976190D01*
X134904761Y-68976190D01*
X136523809Y-68785714D02*
X136904761Y-68785714D01*
X136666666Y-68452380D02*
X136666666Y-69309523D01*
X136714285Y-69404761D01*
X136809523Y-69452380D01*
X136904761Y-69452380D01*
X137380952Y-69452380D02*
X137285714Y-69404761D01*
X137238095Y-69357142D01*
X137190476Y-69261904D01*
X137190476Y-68976190D01*
X137238095Y-68880952D01*
X137285714Y-68833333D01*
X137380952Y-68785714D01*
X137523809Y-68785714D01*
X137619047Y-68833333D01*
X137666666Y-68880952D01*
X137714285Y-68976190D01*
X137714285Y-69261904D01*
X137666666Y-69357142D01*
X137619047Y-69404761D01*
X137523809Y-69452380D01*
X137380952Y-69452380D01*
X138904761Y-69452380D02*
X138904761Y-68785714D01*
X138904761Y-68880952D02*
X138952380Y-68833333D01*
X139047619Y-68785714D01*
X139190476Y-68785714D01*
X139285714Y-68833333D01*
X139333333Y-68928571D01*
X139333333Y-69452380D01*
X139333333Y-68928571D02*
X139380952Y-68833333D01*
X139476190Y-68785714D01*
X139619047Y-68785714D01*
X139714285Y-68833333D01*
X139761904Y-68928571D01*
X139761904Y-69452380D01*
X140666666Y-69452380D02*
X140666666Y-68928571D01*
X140619047Y-68833333D01*
X140523809Y-68785714D01*
X140333333Y-68785714D01*
X140238095Y-68833333D01*
X140666666Y-69404761D02*
X140571428Y-69452380D01*
X140333333Y-69452380D01*
X140238095Y-69404761D01*
X140190476Y-69309523D01*
X140190476Y-69214285D01*
X140238095Y-69119047D01*
X140333333Y-69071428D01*
X140571428Y-69071428D01*
X140666666Y-69023809D01*
X141000000Y-68785714D02*
X141380952Y-68785714D01*
X141142857Y-68452380D02*
X141142857Y-69309523D01*
X141190476Y-69404761D01*
X141285714Y-69452380D01*
X141380952Y-69452380D01*
X142142857Y-69404761D02*
X142047619Y-69452380D01*
X141857142Y-69452380D01*
X141761904Y-69404761D01*
X141714285Y-69357142D01*
X141666666Y-69261904D01*
X141666666Y-68976190D01*
X141714285Y-68880952D01*
X141761904Y-68833333D01*
X141857142Y-68785714D01*
X142047619Y-68785714D01*
X142142857Y-68833333D01*
X142571428Y-69452380D02*
X142571428Y-68452380D01*
X143000000Y-69452380D02*
X143000000Y-68928571D01*
X142952380Y-68833333D01*
X142857142Y-68785714D01*
X142714285Y-68785714D01*
X142619047Y-68833333D01*
X142571428Y-68880952D01*
X132214285Y-71062380D02*
X131880952Y-70586190D01*
X131642857Y-71062380D02*
X131642857Y-70062380D01*
X132023809Y-70062380D01*
X132119047Y-70110000D01*
X132166666Y-70157619D01*
X132214285Y-70252857D01*
X132214285Y-70395714D01*
X132166666Y-70490952D01*
X132119047Y-70538571D01*
X132023809Y-70586190D01*
X131642857Y-70586190D01*
X132642857Y-70681428D02*
X133404761Y-70681428D01*
X133833333Y-71014761D02*
X133976190Y-71062380D01*
X134214285Y-71062380D01*
X134309523Y-71014761D01*
X134357142Y-70967142D01*
X134404761Y-70871904D01*
X134404761Y-70776666D01*
X134357142Y-70681428D01*
X134309523Y-70633809D01*
X134214285Y-70586190D01*
X134023809Y-70538571D01*
X133928571Y-70490952D01*
X133880952Y-70443333D01*
X133833333Y-70348095D01*
X133833333Y-70252857D01*
X133880952Y-70157619D01*
X133928571Y-70110000D01*
X134023809Y-70062380D01*
X134261904Y-70062380D01*
X134404761Y-70110000D01*
X134833333Y-71062380D02*
X134833333Y-70062380D01*
X135261904Y-71062380D02*
X135261904Y-70538571D01*
X135214285Y-70443333D01*
X135119047Y-70395714D01*
X134976190Y-70395714D01*
X134880952Y-70443333D01*
X134833333Y-70490952D01*
X136166666Y-70395714D02*
X136166666Y-71062380D01*
X135738095Y-70395714D02*
X135738095Y-70919523D01*
X135785714Y-71014761D01*
X135880952Y-71062380D01*
X136023809Y-71062380D01*
X136119047Y-71014761D01*
X136166666Y-70967142D01*
X136642857Y-70395714D02*
X136642857Y-71062380D01*
X136642857Y-70490952D02*
X136690476Y-70443333D01*
X136785714Y-70395714D01*
X136928571Y-70395714D01*
X137023809Y-70443333D01*
X137071428Y-70538571D01*
X137071428Y-71062380D01*
X137404761Y-70395714D02*
X137785714Y-70395714D01*
X137547619Y-70062380D02*
X137547619Y-70919523D01*
X137595238Y-71014761D01*
X137690476Y-71062380D01*
X137785714Y-71062380D01*
X138785714Y-70395714D02*
X139023809Y-71062380D01*
X139261904Y-70395714D01*
X140071428Y-71062380D02*
X140071428Y-70538571D01*
X140023809Y-70443333D01*
X139928571Y-70395714D01*
X139738095Y-70395714D01*
X139642857Y-70443333D01*
X140071428Y-71014761D02*
X139976190Y-71062380D01*
X139738095Y-71062380D01*
X139642857Y-71014761D01*
X139595238Y-70919523D01*
X139595238Y-70824285D01*
X139642857Y-70729047D01*
X139738095Y-70681428D01*
X139976190Y-70681428D01*
X140071428Y-70633809D01*
X140690476Y-71062380D02*
X140595238Y-71014761D01*
X140547619Y-70919523D01*
X140547619Y-70062380D01*
X141500000Y-70395714D02*
X141500000Y-71062380D01*
X141071428Y-70395714D02*
X141071428Y-70919523D01*
X141119047Y-71014761D01*
X141214285Y-71062380D01*
X141357142Y-71062380D01*
X141452380Y-71014761D01*
X141500000Y-70967142D01*
X142357142Y-71014761D02*
X142261904Y-71062380D01*
X142071428Y-71062380D01*
X141976190Y-71014761D01*
X141928571Y-70919523D01*
X141928571Y-70538571D01*
X141976190Y-70443333D01*
X142071428Y-70395714D01*
X142261904Y-70395714D01*
X142357142Y-70443333D01*
X142404761Y-70538571D01*
X142404761Y-70633809D01*
X141928571Y-70729047D01*
X91286279Y-55842380D02*
X91411279Y-54842380D01*
X91762470Y-55842380D02*
X91845803Y-55175714D01*
X91833898Y-55270952D02*
X91887470Y-55223333D01*
X91988660Y-55175714D01*
X92131517Y-55175714D01*
X92220803Y-55223333D01*
X92256517Y-55318571D01*
X92191041Y-55842380D01*
X92256517Y-55318571D02*
X92316041Y-55223333D01*
X92417232Y-55175714D01*
X92560089Y-55175714D01*
X92649374Y-55223333D01*
X92685089Y-55318571D01*
X92619613Y-55842380D01*
X93179136Y-55175714D02*
X93054136Y-56175714D01*
X93173184Y-55223333D02*
X93274374Y-55175714D01*
X93464851Y-55175714D01*
X93554136Y-55223333D01*
X93595803Y-55270952D01*
X93631517Y-55366190D01*
X93595803Y-55651904D01*
X93536279Y-55747142D01*
X93482708Y-55794761D01*
X93381517Y-55842380D01*
X93191041Y-55842380D01*
X93101755Y-55794761D01*
X94387470Y-55794761D02*
X94286279Y-55842380D01*
X94095803Y-55842380D01*
X94006517Y-55794761D01*
X93970803Y-55699523D01*
X94018422Y-55318571D01*
X94077946Y-55223333D01*
X94179136Y-55175714D01*
X94369613Y-55175714D01*
X94458898Y-55223333D01*
X94494613Y-55318571D01*
X94482708Y-55413809D01*
X93994613Y-55509047D01*
X95286279Y-55842380D02*
X95411279Y-54842380D01*
X95292232Y-55794761D02*
X95191041Y-55842380D01*
X95000565Y-55842380D01*
X94911279Y-55794761D01*
X94869613Y-55747142D01*
X94833898Y-55651904D01*
X94869613Y-55366190D01*
X94929136Y-55270952D01*
X94982708Y-55223333D01*
X95083898Y-55175714D01*
X95274374Y-55175714D01*
X95363660Y-55223333D01*
X96191041Y-55842380D02*
X96256517Y-55318571D01*
X96220803Y-55223333D01*
X96131517Y-55175714D01*
X95941041Y-55175714D01*
X95839851Y-55223333D01*
X96196994Y-55794761D02*
X96095803Y-55842380D01*
X95857708Y-55842380D01*
X95768422Y-55794761D01*
X95732708Y-55699523D01*
X95744613Y-55604285D01*
X95804136Y-55509047D01*
X95905327Y-55461428D01*
X96143422Y-55461428D01*
X96244613Y-55413809D01*
X96750565Y-55175714D02*
X96667232Y-55842380D01*
X96738660Y-55270952D02*
X96792232Y-55223333D01*
X96893422Y-55175714D01*
X97036279Y-55175714D01*
X97125565Y-55223333D01*
X97161279Y-55318571D01*
X97095803Y-55842380D01*
X98006517Y-55794761D02*
X97905327Y-55842380D01*
X97714851Y-55842380D01*
X97625565Y-55794761D01*
X97583898Y-55747142D01*
X97548184Y-55651904D01*
X97583898Y-55366190D01*
X97643422Y-55270952D01*
X97696994Y-55223333D01*
X97798184Y-55175714D01*
X97988660Y-55175714D01*
X98077946Y-55223333D01*
X98816041Y-55794761D02*
X98714851Y-55842380D01*
X98524374Y-55842380D01*
X98435089Y-55794761D01*
X98399374Y-55699523D01*
X98446994Y-55318571D01*
X98506517Y-55223333D01*
X98607708Y-55175714D01*
X98798184Y-55175714D01*
X98887470Y-55223333D01*
X98923184Y-55318571D01*
X98911279Y-55413809D01*
X98423184Y-55509047D01*
X100036279Y-55556666D02*
X100512470Y-55556666D01*
X99905327Y-55842380D02*
X100363660Y-54842380D01*
X100571994Y-55842380D01*
X100988660Y-55175714D02*
X100905327Y-55842380D01*
X100976755Y-55270952D02*
X101030327Y-55223333D01*
X101131517Y-55175714D01*
X101274374Y-55175714D01*
X101363660Y-55223333D01*
X101399374Y-55318571D01*
X101333898Y-55842380D01*
X102238660Y-55842380D02*
X102304136Y-55318571D01*
X102268422Y-55223333D01*
X102179136Y-55175714D01*
X101988660Y-55175714D01*
X101887470Y-55223333D01*
X102244613Y-55794761D02*
X102143422Y-55842380D01*
X101905327Y-55842380D01*
X101816041Y-55794761D01*
X101780327Y-55699523D01*
X101792232Y-55604285D01*
X101851755Y-55509047D01*
X101952946Y-55461428D01*
X102191041Y-55461428D01*
X102292232Y-55413809D01*
X102857708Y-55842380D02*
X102768422Y-55794761D01*
X102732708Y-55699523D01*
X102839851Y-54842380D01*
X103226755Y-55175714D02*
X103381517Y-55842380D01*
X103702946Y-55175714D02*
X103381517Y-55842380D01*
X103256517Y-56080476D01*
X103202946Y-56128095D01*
X103101755Y-56175714D01*
X103988660Y-55175714D02*
X104512470Y-55175714D01*
X103905327Y-55842380D01*
X104429136Y-55842380D01*
X105196994Y-55794761D02*
X105095803Y-55842380D01*
X104905327Y-55842380D01*
X104816041Y-55794761D01*
X104780327Y-55699523D01*
X104827946Y-55318571D01*
X104887470Y-55223333D01*
X104988660Y-55175714D01*
X105179136Y-55175714D01*
X105268422Y-55223333D01*
X105304136Y-55318571D01*
X105292232Y-55413809D01*
X104804136Y-55509047D01*
X105667232Y-55842380D02*
X105750565Y-55175714D01*
X105726755Y-55366190D02*
X105786279Y-55270952D01*
X105839851Y-55223333D01*
X105941041Y-55175714D01*
X106036279Y-55175714D01*
X107030327Y-54842380D02*
X107238660Y-55842380D01*
X107696994Y-54842380D01*
X107970803Y-54937619D02*
X108024374Y-54890000D01*
X108125565Y-54842380D01*
X108363660Y-54842380D01*
X108452946Y-54890000D01*
X108494613Y-54937619D01*
X108530327Y-55032857D01*
X108518422Y-55128095D01*
X108452946Y-55270952D01*
X107810089Y-55842380D01*
X108429136Y-55842380D01*
X110191041Y-55842380D02*
X109917232Y-55366190D01*
X109619613Y-55842380D02*
X109744613Y-54842380D01*
X110125565Y-54842380D01*
X110214851Y-54890000D01*
X110256517Y-54937619D01*
X110292232Y-55032857D01*
X110274374Y-55175714D01*
X110214851Y-55270952D01*
X110161279Y-55318571D01*
X110060089Y-55366190D01*
X109679136Y-55366190D01*
X111006517Y-55794761D02*
X110905327Y-55842380D01*
X110714851Y-55842380D01*
X110625565Y-55794761D01*
X110589851Y-55699523D01*
X110637470Y-55318571D01*
X110696994Y-55223333D01*
X110798184Y-55175714D01*
X110988660Y-55175714D01*
X111077946Y-55223333D01*
X111113660Y-55318571D01*
X111101755Y-55413809D01*
X110613660Y-55509047D01*
X111464851Y-55175714D02*
X111619613Y-55842380D01*
X111941041Y-55175714D01*
X113399374Y-55318571D02*
X113536279Y-55366190D01*
X113577946Y-55413809D01*
X113613660Y-55509047D01*
X113595803Y-55651904D01*
X113536279Y-55747142D01*
X113482708Y-55794761D01*
X113381517Y-55842380D01*
X113000565Y-55842380D01*
X113125565Y-54842380D01*
X113458898Y-54842380D01*
X113548184Y-54890000D01*
X113589851Y-54937619D01*
X113625565Y-55032857D01*
X113613660Y-55128095D01*
X113554136Y-55223333D01*
X113500565Y-55270952D01*
X113399374Y-55318571D01*
X113066041Y-55318571D01*
X97994613Y-56928571D02*
X98327946Y-56928571D01*
X98405327Y-57452380D02*
X97929136Y-57452380D01*
X98054136Y-56452380D01*
X98530327Y-56452380D01*
X98976755Y-57452380D02*
X98887470Y-57404761D01*
X98851755Y-57309523D01*
X98958898Y-56452380D01*
X99357708Y-57452380D02*
X99441041Y-56785714D01*
X99482708Y-56452380D02*
X99429136Y-56500000D01*
X99470803Y-56547619D01*
X99524375Y-56500000D01*
X99482708Y-56452380D01*
X99470803Y-56547619D01*
X100595803Y-57452380D02*
X100720803Y-56452380D01*
X100964851Y-57166666D01*
X101387470Y-56452380D01*
X101262470Y-57452380D01*
X102167232Y-57452380D02*
X102232708Y-56928571D01*
X102196994Y-56833333D01*
X102107708Y-56785714D01*
X101917232Y-56785714D01*
X101816041Y-56833333D01*
X102173184Y-57404761D02*
X102071994Y-57452380D01*
X101833898Y-57452380D01*
X101744613Y-57404761D01*
X101708898Y-57309523D01*
X101720803Y-57214285D01*
X101780327Y-57119047D01*
X101881517Y-57071428D01*
X102119613Y-57071428D01*
X102220803Y-57023809D01*
X102583898Y-56785714D02*
X102964851Y-56785714D01*
X102768422Y-56452380D02*
X102661279Y-57309523D01*
X102696994Y-57404761D01*
X102786279Y-57452380D01*
X102881517Y-57452380D01*
X103155327Y-56785714D02*
X103536279Y-56785714D01*
X103339851Y-56452380D02*
X103232708Y-57309523D01*
X103268422Y-57404761D01*
X103357708Y-57452380D01*
X103452946Y-57452380D01*
X103786279Y-57452380D02*
X103869613Y-56785714D01*
X103911279Y-56452380D02*
X103857708Y-56500000D01*
X103899375Y-56547619D01*
X103952946Y-56500000D01*
X103911279Y-56452380D01*
X103899375Y-56547619D01*
X104345803Y-56785714D02*
X104262470Y-57452380D01*
X104333898Y-56880952D02*
X104387470Y-56833333D01*
X104488660Y-56785714D01*
X104631517Y-56785714D01*
X104720803Y-56833333D01*
X104756517Y-56928571D01*
X104691041Y-57452380D01*
X105679136Y-56785714D02*
X105577946Y-57595238D01*
X105518422Y-57690476D01*
X105464851Y-57738095D01*
X105363660Y-57785714D01*
X105220803Y-57785714D01*
X105131517Y-57738095D01*
X105601755Y-57404761D02*
X105500565Y-57452380D01*
X105310089Y-57452380D01*
X105220803Y-57404761D01*
X105179136Y-57357142D01*
X105143422Y-57261904D01*
X105179136Y-56976190D01*
X105238660Y-56880952D01*
X105292232Y-56833333D01*
X105393422Y-56785714D01*
X105583898Y-56785714D01*
X105673184Y-56833333D01*
X106214851Y-57452380D02*
X106125565Y-57404761D01*
X106089851Y-57309523D01*
X106196994Y-56452380D01*
X106583898Y-56785714D02*
X106738660Y-57452380D01*
X107060089Y-56785714D02*
X106738660Y-57452380D01*
X106613660Y-57690476D01*
X106560089Y-57738095D01*
X106458898Y-57785714D01*
X97744613Y-58062380D02*
X98363660Y-58062380D01*
X97982708Y-58443333D01*
X98125565Y-58443333D01*
X98214851Y-58490952D01*
X98256517Y-58538571D01*
X98292232Y-58633809D01*
X98262470Y-58871904D01*
X98202946Y-58967142D01*
X98149375Y-59014761D01*
X98048184Y-59062380D01*
X97762470Y-59062380D01*
X97673184Y-59014761D01*
X97631517Y-58967142D01*
X99191041Y-59062380D02*
X98619613Y-59062380D01*
X98905327Y-59062380D02*
X99030327Y-58062380D01*
X98917232Y-58205238D01*
X98810089Y-58300476D01*
X98708898Y-58348095D01*
X100792232Y-58062380D02*
X100702946Y-58776666D01*
X100637470Y-58919523D01*
X100530327Y-59014761D01*
X100381517Y-59062380D01*
X100286279Y-59062380D01*
X101268422Y-58062380D02*
X101167232Y-58871904D01*
X101202946Y-58967142D01*
X101244613Y-59014761D01*
X101333898Y-59062380D01*
X101524375Y-59062380D01*
X101625565Y-59014761D01*
X101679136Y-58967142D01*
X101738660Y-58871904D01*
X101839851Y-58062380D01*
X102667232Y-59062380D02*
X102191041Y-59062380D01*
X102316041Y-58062380D01*
X103827946Y-58157619D02*
X103881517Y-58110000D01*
X103982708Y-58062380D01*
X104220803Y-58062380D01*
X104310089Y-58110000D01*
X104351755Y-58157619D01*
X104387470Y-58252857D01*
X104375565Y-58348095D01*
X104310089Y-58490952D01*
X103667232Y-59062380D01*
X104286279Y-59062380D01*
X105030327Y-58062380D02*
X105125565Y-58062380D01*
X105214851Y-58110000D01*
X105256517Y-58157619D01*
X105292232Y-58252857D01*
X105316041Y-58443333D01*
X105286279Y-58681428D01*
X105214851Y-58871904D01*
X105155327Y-58967142D01*
X105101755Y-59014761D01*
X105000565Y-59062380D01*
X104905327Y-59062380D01*
X104816041Y-59014761D01*
X104774375Y-58967142D01*
X104738660Y-58871904D01*
X104714851Y-58681428D01*
X104744613Y-58443333D01*
X104816041Y-58252857D01*
X104875565Y-58157619D01*
X104929136Y-58110000D01*
X105030327Y-58062380D01*
X105732708Y-58157619D02*
X105786279Y-58110000D01*
X105887470Y-58062380D01*
X106125565Y-58062380D01*
X106214851Y-58110000D01*
X106256517Y-58157619D01*
X106292232Y-58252857D01*
X106280327Y-58348095D01*
X106214851Y-58490952D01*
X105571994Y-59062380D01*
X106191041Y-59062380D01*
X106685089Y-58157619D02*
X106738660Y-58110000D01*
X106839851Y-58062380D01*
X107077946Y-58062380D01*
X107167232Y-58110000D01*
X107208898Y-58157619D01*
X107244613Y-58252857D01*
X107232708Y-58348095D01*
X107167232Y-58490952D01*
X106524375Y-59062380D01*
X107143422Y-59062380D01*
D12*
X116638575Y-117200273D02*
X116744825Y-116350273D01*
X117083813Y-116876464D02*
X117731433Y-116876464D01*
X118095718Y-117200273D02*
X118201968Y-116350273D01*
X118409409Y-116957416D01*
X118768635Y-116350273D01*
X118662385Y-117200273D01*
X119188575Y-117200273D02*
X119112683Y-117159797D01*
X119077266Y-117119321D01*
X119046909Y-117038369D01*
X119077266Y-116795511D01*
X119127861Y-116714559D01*
X119173397Y-116674083D01*
X119259409Y-116633607D01*
X119380837Y-116633607D01*
X119456730Y-116674083D01*
X119492147Y-116714559D01*
X119522504Y-116795511D01*
X119492147Y-117038369D01*
X119441552Y-117119321D01*
X119396016Y-117159797D01*
X119310004Y-117200273D01*
X119188575Y-117200273D01*
X119907028Y-116633607D02*
X119836194Y-117200273D01*
X119896909Y-116714559D02*
X119942444Y-116674083D01*
X120028456Y-116633607D01*
X120149885Y-116633607D01*
X120225778Y-116674083D01*
X120256135Y-116755035D01*
X120200480Y-117200273D01*
X115485004Y-117759250D02*
X115409111Y-117718773D01*
X115287683Y-117718773D01*
X115161194Y-117759250D01*
X115070123Y-117840202D01*
X115019528Y-117921154D01*
X114958813Y-118083059D01*
X114943635Y-118204488D01*
X114963873Y-118366392D01*
X114994230Y-118447345D01*
X115065063Y-118528297D01*
X115181433Y-118568773D01*
X115262385Y-118568773D01*
X115388873Y-118528297D01*
X115434409Y-118487821D01*
X115469825Y-118204488D01*
X115307921Y-118204488D01*
X116152861Y-118568773D02*
X116208516Y-118123535D01*
X116178159Y-118042583D01*
X116102266Y-118002107D01*
X115940361Y-118002107D01*
X115854349Y-118042583D01*
X116157921Y-118528297D02*
X116071909Y-118568773D01*
X115869528Y-118568773D01*
X115793635Y-118528297D01*
X115763278Y-118447345D01*
X115773397Y-118366392D01*
X115823992Y-118285440D01*
X115910004Y-118244964D01*
X116112385Y-118244964D01*
X116198397Y-118204488D01*
X116557623Y-118568773D02*
X116628456Y-118002107D01*
X116663873Y-117718773D02*
X116618337Y-117759250D01*
X116653754Y-117799726D01*
X116699290Y-117759250D01*
X116663873Y-117718773D01*
X116653754Y-117799726D01*
X117033218Y-118002107D02*
X116962385Y-118568773D01*
X117023099Y-118083059D02*
X117068635Y-118042583D01*
X117154647Y-118002107D01*
X117276075Y-118002107D01*
X117351968Y-118042583D01*
X117382325Y-118123535D01*
X117326671Y-118568773D01*
X118343635Y-118528297D02*
X118460004Y-118568773D01*
X118662385Y-118568773D01*
X118748397Y-118528297D01*
X118793933Y-118487821D01*
X118844528Y-118406869D01*
X118854647Y-118325916D01*
X118824290Y-118244964D01*
X118788873Y-118204488D01*
X118712980Y-118164011D01*
X118556135Y-118123535D01*
X118480242Y-118083059D01*
X118444825Y-118042583D01*
X118414468Y-117961630D01*
X118424587Y-117880678D01*
X118475183Y-117799726D01*
X118520718Y-117759250D01*
X118606730Y-117718773D01*
X118809111Y-117718773D01*
X118925480Y-117759250D01*
X119517444Y-118528297D02*
X119431433Y-118568773D01*
X119269528Y-118568773D01*
X119193635Y-118528297D01*
X119163278Y-118447345D01*
X119203754Y-118123535D01*
X119254349Y-118042583D01*
X119340361Y-118002107D01*
X119502266Y-118002107D01*
X119578159Y-118042583D01*
X119608516Y-118123535D01*
X119598397Y-118204488D01*
X119183516Y-118285440D01*
X120038575Y-118568773D02*
X119962683Y-118528297D01*
X119932325Y-118447345D01*
X120023397Y-117718773D01*
X120691254Y-118528297D02*
X120605242Y-118568773D01*
X120443337Y-118568773D01*
X120367444Y-118528297D01*
X120337087Y-118447345D01*
X120377563Y-118123535D01*
X120428159Y-118042583D01*
X120514171Y-118002107D01*
X120676075Y-118002107D01*
X120751968Y-118042583D01*
X120782325Y-118123535D01*
X120772206Y-118204488D01*
X120357325Y-118285440D01*
X121460302Y-118528297D02*
X121374290Y-118568773D01*
X121212385Y-118568773D01*
X121136492Y-118528297D01*
X121101075Y-118487821D01*
X121070718Y-118406869D01*
X121101075Y-118164011D01*
X121151671Y-118083059D01*
X121197206Y-118042583D01*
X121283218Y-118002107D01*
X121445123Y-118002107D01*
X121521016Y-118042583D01*
X121768933Y-118002107D02*
X122092742Y-118002107D01*
X121925778Y-117718773D02*
X121834706Y-118447345D01*
X121865063Y-118528297D01*
X121940956Y-118568773D01*
X122021909Y-118568773D01*
D11*
X101970803Y-64928571D02*
X102107708Y-64976190D01*
X102149375Y-65023809D01*
X102185089Y-65119047D01*
X102167232Y-65261904D01*
X102107708Y-65357142D01*
X102054136Y-65404761D01*
X101952946Y-65452380D01*
X101571994Y-65452380D01*
X101696994Y-64452380D01*
X102030327Y-64452380D01*
X102119613Y-64500000D01*
X102161279Y-64547619D01*
X102196994Y-64642857D01*
X102185089Y-64738095D01*
X102125565Y-64833333D01*
X102071994Y-64880952D01*
X101970803Y-64928571D01*
X101637470Y-64928571D01*
X102601755Y-64452380D02*
X102714851Y-65452380D01*
X102994613Y-64738095D01*
X103095803Y-65452380D01*
X103458898Y-64452380D01*
X92277209Y-99875000D02*
X92634352Y-99875000D01*
X92178995Y-100089285D02*
X92522745Y-99339285D01*
X92678995Y-100089285D01*
D12*
X89834761Y-80175273D02*
X89834761Y-79325273D01*
X90239523Y-79608607D02*
X90239523Y-80175273D01*
X90239523Y-79689559D02*
X90280000Y-79649083D01*
X90360952Y-79608607D01*
X90482380Y-79608607D01*
X90563333Y-79649083D01*
X90603809Y-79730035D01*
X90603809Y-80175273D01*
X91008571Y-79608607D02*
X91008571Y-80458607D01*
X91008571Y-79649083D02*
X91089523Y-79608607D01*
X91251428Y-79608607D01*
X91332380Y-79649083D01*
X91372857Y-79689559D01*
X91413333Y-79770511D01*
X91413333Y-80013369D01*
X91372857Y-80094321D01*
X91332380Y-80134797D01*
X91251428Y-80175273D01*
X91089523Y-80175273D01*
X91008571Y-80134797D01*
X92141904Y-79608607D02*
X92141904Y-80175273D01*
X91777619Y-79608607D02*
X91777619Y-80053845D01*
X91818095Y-80134797D01*
X91899047Y-80175273D01*
X92020476Y-80175273D01*
X92101428Y-80134797D01*
X92141904Y-80094321D01*
X92425238Y-79608607D02*
X92749047Y-79608607D01*
X92546666Y-79325273D02*
X92546666Y-80053845D01*
X92587142Y-80134797D01*
X92668095Y-80175273D01*
X92749047Y-80175273D01*
X87932380Y-81543773D02*
X87527619Y-81543773D01*
X87527619Y-80693773D01*
X88215714Y-81543773D02*
X88215714Y-80693773D01*
X88539523Y-80693773D01*
X88620476Y-80734250D01*
X88660952Y-80774726D01*
X88701428Y-80855678D01*
X88701428Y-80977107D01*
X88660952Y-81058059D01*
X88620476Y-81098535D01*
X88539523Y-81139011D01*
X88215714Y-81139011D01*
X89996666Y-81098535D02*
X89713333Y-81098535D01*
X89713333Y-81543773D02*
X89713333Y-80693773D01*
X90118095Y-80693773D01*
X90441904Y-81543773D02*
X90441904Y-80977107D01*
X90441904Y-80693773D02*
X90401428Y-80734250D01*
X90441904Y-80774726D01*
X90482380Y-80734250D01*
X90441904Y-80693773D01*
X90441904Y-80774726D01*
X90968095Y-81543773D02*
X90887142Y-81503297D01*
X90846666Y-81422345D01*
X90846666Y-80693773D01*
X91170476Y-80977107D02*
X91494285Y-80977107D01*
X91291904Y-80693773D02*
X91291904Y-81422345D01*
X91332380Y-81503297D01*
X91413333Y-81543773D01*
X91494285Y-81543773D01*
X92101428Y-81503297D02*
X92020476Y-81543773D01*
X91858571Y-81543773D01*
X91777619Y-81503297D01*
X91737142Y-81422345D01*
X91737142Y-81098535D01*
X91777619Y-81017583D01*
X91858571Y-80977107D01*
X92020476Y-80977107D01*
X92101428Y-81017583D01*
X92141904Y-81098535D01*
X92141904Y-81179488D01*
X91737142Y-81260440D01*
X92506190Y-81543773D02*
X92506190Y-80977107D01*
X92506190Y-81139011D02*
X92546666Y-81058059D01*
X92587142Y-81017583D01*
X92668095Y-80977107D01*
X92749047Y-80977107D01*
D11*
X98281674Y-96946428D02*
X98384352Y-96982142D01*
X98415602Y-97017857D01*
X98442388Y-97089285D01*
X98428995Y-97196428D01*
X98384352Y-97267857D01*
X98344174Y-97303571D01*
X98268281Y-97339285D01*
X97982566Y-97339285D01*
X98076316Y-96589285D01*
X98326316Y-96589285D01*
X98393281Y-96625000D01*
X98424531Y-96660714D01*
X98451316Y-96732142D01*
X98442388Y-96803571D01*
X98397745Y-96875000D01*
X98357566Y-96910714D01*
X98281674Y-96946428D01*
X98031674Y-96946428D01*
X125464285Y-134821428D02*
X126226190Y-134821428D01*
X125845238Y-135202380D02*
X125845238Y-134440476D01*
X127178571Y-134202380D02*
X126702380Y-134202380D01*
X126654761Y-134678571D01*
X126702380Y-134630952D01*
X126797619Y-134583333D01*
X127035714Y-134583333D01*
X127130952Y-134630952D01*
X127178571Y-134678571D01*
X127226190Y-134773809D01*
X127226190Y-135011904D01*
X127178571Y-135107142D01*
X127130952Y-135154761D01*
X127035714Y-135202380D01*
X126797619Y-135202380D01*
X126702380Y-135154761D01*
X126654761Y-135107142D01*
X127511904Y-134202380D02*
X127845238Y-135202380D01*
X128178571Y-134202380D01*
X85988660Y-106552142D02*
X85935089Y-106599761D01*
X85786279Y-106647380D01*
X85691041Y-106647380D01*
X85554136Y-106599761D01*
X85470803Y-106504523D01*
X85435089Y-106409285D01*
X85411279Y-106218809D01*
X85429136Y-106075952D01*
X85500565Y-105885476D01*
X85560089Y-105790238D01*
X85667232Y-105695000D01*
X85816041Y-105647380D01*
X85911279Y-105647380D01*
X86048184Y-105695000D01*
X86089851Y-105742619D01*
X86917232Y-105980714D02*
X86833898Y-106647380D01*
X86488660Y-105980714D02*
X86423184Y-106504523D01*
X86458898Y-106599761D01*
X86548184Y-106647380D01*
X86691041Y-106647380D01*
X86792232Y-106599761D01*
X86845803Y-106552142D01*
X87310089Y-106647380D02*
X87393422Y-105980714D01*
X87369613Y-106171190D02*
X87429136Y-106075952D01*
X87482708Y-106028333D01*
X87583898Y-105980714D01*
X87679136Y-105980714D01*
X87929136Y-106647380D02*
X88012470Y-105980714D01*
X87988660Y-106171190D02*
X88048184Y-106075952D01*
X88101755Y-106028333D01*
X88202946Y-105980714D01*
X88298184Y-105980714D01*
X88935089Y-106599761D02*
X88833898Y-106647380D01*
X88643422Y-106647380D01*
X88554136Y-106599761D01*
X88518422Y-106504523D01*
X88566041Y-106123571D01*
X88625565Y-106028333D01*
X88726755Y-105980714D01*
X88917232Y-105980714D01*
X89006517Y-106028333D01*
X89042232Y-106123571D01*
X89030327Y-106218809D01*
X88542232Y-106314047D01*
X89488660Y-105980714D02*
X89405327Y-106647380D01*
X89476755Y-106075952D02*
X89530327Y-106028333D01*
X89631517Y-105980714D01*
X89774375Y-105980714D01*
X89863660Y-106028333D01*
X89899375Y-106123571D01*
X89833898Y-106647380D01*
X90250565Y-105980714D02*
X90631517Y-105980714D01*
X90435089Y-105647380D02*
X90327946Y-106504523D01*
X90363660Y-106599761D01*
X90452946Y-106647380D01*
X90548184Y-106647380D01*
X85911279Y-108209761D02*
X86048184Y-108257380D01*
X86286279Y-108257380D01*
X86387470Y-108209761D01*
X86441041Y-108162142D01*
X86500565Y-108066904D01*
X86512470Y-107971666D01*
X86476755Y-107876428D01*
X86435089Y-107828809D01*
X86345803Y-107781190D01*
X86161279Y-107733571D01*
X86071994Y-107685952D01*
X86030327Y-107638333D01*
X85994613Y-107543095D01*
X86006517Y-107447857D01*
X86066041Y-107352619D01*
X86119613Y-107305000D01*
X86220803Y-107257380D01*
X86458898Y-107257380D01*
X86595803Y-107305000D01*
X87292232Y-108209761D02*
X87191041Y-108257380D01*
X87000565Y-108257380D01*
X86911279Y-108209761D01*
X86875565Y-108114523D01*
X86923184Y-107733571D01*
X86982708Y-107638333D01*
X87083898Y-107590714D01*
X87274375Y-107590714D01*
X87363660Y-107638333D01*
X87399375Y-107733571D01*
X87387470Y-107828809D01*
X86899375Y-107924047D01*
X87845803Y-107590714D02*
X87762470Y-108257380D01*
X87833898Y-107685952D02*
X87887470Y-107638333D01*
X87988660Y-107590714D01*
X88131517Y-107590714D01*
X88220803Y-107638333D01*
X88256517Y-107733571D01*
X88191041Y-108257380D01*
X88625565Y-108209761D02*
X88714851Y-108257380D01*
X88905327Y-108257380D01*
X89006517Y-108209761D01*
X89066041Y-108114523D01*
X89071994Y-108066904D01*
X89036279Y-107971666D01*
X88946994Y-107924047D01*
X88804136Y-107924047D01*
X88714851Y-107876428D01*
X88679136Y-107781190D01*
X88685089Y-107733571D01*
X88744613Y-107638333D01*
X88845803Y-107590714D01*
X88988660Y-107590714D01*
X89077946Y-107638333D01*
X89863660Y-108209761D02*
X89762470Y-108257380D01*
X89571994Y-108257380D01*
X89482708Y-108209761D01*
X89446994Y-108114523D01*
X89494613Y-107733571D01*
X89554136Y-107638333D01*
X89655327Y-107590714D01*
X89845803Y-107590714D01*
X89935089Y-107638333D01*
X89970803Y-107733571D01*
X89958898Y-107828809D01*
X89470803Y-107924047D01*
X91714285Y-91342380D02*
X91714285Y-92056666D01*
X91666666Y-92199523D01*
X91571428Y-92294761D01*
X91428571Y-92342380D01*
X91333333Y-92342380D01*
X92714285Y-92342380D02*
X92142857Y-92342380D01*
X92428571Y-92342380D02*
X92428571Y-91342380D01*
X92333333Y-91485238D01*
X92238095Y-91580476D01*
X92142857Y-91628095D01*
X93047619Y-91342380D02*
X93666666Y-91342380D01*
X93333333Y-91723333D01*
X93476190Y-91723333D01*
X93571428Y-91770952D01*
X93619047Y-91818571D01*
X93666666Y-91913809D01*
X93666666Y-92151904D01*
X93619047Y-92247142D01*
X93571428Y-92294761D01*
X93476190Y-92342380D01*
X93190476Y-92342380D01*
X93095238Y-92294761D01*
X93047619Y-92247142D01*
X94809523Y-91294761D02*
X93952380Y-92580476D01*
X95666666Y-92342380D02*
X95095238Y-92342380D01*
X95380952Y-92342380D02*
X95380952Y-91342380D01*
X95285714Y-91485238D01*
X95190476Y-91580476D01*
X95095238Y-91628095D01*
X96523809Y-91675714D02*
X96523809Y-92342380D01*
X96285714Y-91294761D02*
X96047619Y-92009047D01*
X96666666Y-92009047D01*
X88357142Y-93952380D02*
X88023809Y-93476190D01*
X87785714Y-93952380D02*
X87785714Y-92952380D01*
X88166666Y-92952380D01*
X88261904Y-93000000D01*
X88309523Y-93047619D01*
X88357142Y-93142857D01*
X88357142Y-93285714D01*
X88309523Y-93380952D01*
X88261904Y-93428571D01*
X88166666Y-93476190D01*
X87785714Y-93476190D01*
X88738095Y-93904761D02*
X88880952Y-93952380D01*
X89119047Y-93952380D01*
X89214285Y-93904761D01*
X89261904Y-93857142D01*
X89309523Y-93761904D01*
X89309523Y-93666666D01*
X89261904Y-93571428D01*
X89214285Y-93523809D01*
X89119047Y-93476190D01*
X88928571Y-93428571D01*
X88833333Y-93380952D01*
X88785714Y-93333333D01*
X88738095Y-93238095D01*
X88738095Y-93142857D01*
X88785714Y-93047619D01*
X88833333Y-93000000D01*
X88928571Y-92952380D01*
X89166666Y-92952380D01*
X89309523Y-93000000D01*
X89738095Y-93952380D02*
X89738095Y-92952380D01*
X90166666Y-93952380D02*
X90166666Y-93428571D01*
X90119047Y-93333333D01*
X90023809Y-93285714D01*
X89880952Y-93285714D01*
X89785714Y-93333333D01*
X89738095Y-93380952D01*
X91071428Y-93285714D02*
X91071428Y-93952380D01*
X90642857Y-93285714D02*
X90642857Y-93809523D01*
X90690476Y-93904761D01*
X90785714Y-93952380D01*
X90928571Y-93952380D01*
X91023809Y-93904761D01*
X91071428Y-93857142D01*
X91547619Y-93285714D02*
X91547619Y-93952380D01*
X91547619Y-93380952D02*
X91595238Y-93333333D01*
X91690476Y-93285714D01*
X91833333Y-93285714D01*
X91928571Y-93333333D01*
X91976190Y-93428571D01*
X91976190Y-93952380D01*
X92309523Y-93285714D02*
X92690476Y-93285714D01*
X92452380Y-92952380D02*
X92452380Y-93809523D01*
X92500000Y-93904761D01*
X92595238Y-93952380D01*
X92690476Y-93952380D01*
X93738095Y-93904761D02*
X93880952Y-93952380D01*
X94119047Y-93952380D01*
X94214285Y-93904761D01*
X94261904Y-93857142D01*
X94309523Y-93761904D01*
X94309523Y-93666666D01*
X94261904Y-93571428D01*
X94214285Y-93523809D01*
X94119047Y-93476190D01*
X93928571Y-93428571D01*
X93833333Y-93380952D01*
X93785714Y-93333333D01*
X93738095Y-93238095D01*
X93738095Y-93142857D01*
X93785714Y-93047619D01*
X93833333Y-93000000D01*
X93928571Y-92952380D01*
X94166666Y-92952380D01*
X94309523Y-93000000D01*
X95119047Y-93904761D02*
X95023809Y-93952380D01*
X94833333Y-93952380D01*
X94738095Y-93904761D01*
X94690476Y-93809523D01*
X94690476Y-93428571D01*
X94738095Y-93333333D01*
X94833333Y-93285714D01*
X95023809Y-93285714D01*
X95119047Y-93333333D01*
X95166666Y-93428571D01*
X95166666Y-93523809D01*
X94690476Y-93619047D01*
X95738095Y-93952380D02*
X95642857Y-93904761D01*
X95595238Y-93809523D01*
X95595238Y-92952380D01*
X96500000Y-93904761D02*
X96404761Y-93952380D01*
X96214285Y-93952380D01*
X96119047Y-93904761D01*
X96071428Y-93809523D01*
X96071428Y-93428571D01*
X96119047Y-93333333D01*
X96214285Y-93285714D01*
X96404761Y-93285714D01*
X96500000Y-93333333D01*
X96547619Y-93428571D01*
X96547619Y-93523809D01*
X96071428Y-93619047D01*
X97404761Y-93904761D02*
X97309523Y-93952380D01*
X97119047Y-93952380D01*
X97023809Y-93904761D01*
X96976190Y-93857142D01*
X96928571Y-93761904D01*
X96928571Y-93476190D01*
X96976190Y-93380952D01*
X97023809Y-93333333D01*
X97119047Y-93285714D01*
X97309523Y-93285714D01*
X97404761Y-93333333D01*
X97690476Y-93285714D02*
X98071428Y-93285714D01*
X97833333Y-92952380D02*
X97833333Y-93809523D01*
X97880952Y-93904761D01*
X97976190Y-93952380D01*
X98071428Y-93952380D01*
X98404761Y-93952380D02*
X98404761Y-93285714D01*
X98404761Y-92952380D02*
X98357142Y-93000000D01*
X98404761Y-93047619D01*
X98452380Y-93000000D01*
X98404761Y-92952380D01*
X98404761Y-93047619D01*
X99023809Y-93952380D02*
X98928571Y-93904761D01*
X98880952Y-93857142D01*
X98833333Y-93761904D01*
X98833333Y-93476190D01*
X98880952Y-93380952D01*
X98928571Y-93333333D01*
X99023809Y-93285714D01*
X99166666Y-93285714D01*
X99261904Y-93333333D01*
X99309523Y-93380952D01*
X99357142Y-93476190D01*
X99357142Y-93761904D01*
X99309523Y-93857142D01*
X99261904Y-93904761D01*
X99166666Y-93952380D01*
X99023809Y-93952380D01*
X99785714Y-93285714D02*
X99785714Y-93952380D01*
X99785714Y-93380952D02*
X99833333Y-93333333D01*
X99928571Y-93285714D01*
X100071428Y-93285714D01*
X100166666Y-93333333D01*
X100214285Y-93428571D01*
X100214285Y-93952380D01*
X83166666Y-94562380D02*
X83166666Y-95371904D01*
X83214285Y-95467142D01*
X83261904Y-95514761D01*
X83357142Y-95562380D01*
X83547619Y-95562380D01*
X83642857Y-95514761D01*
X83690476Y-95467142D01*
X83738095Y-95371904D01*
X83738095Y-94562380D01*
X84166666Y-95514761D02*
X84261904Y-95562380D01*
X84452380Y-95562380D01*
X84547619Y-95514761D01*
X84595238Y-95419523D01*
X84595238Y-95371904D01*
X84547619Y-95276666D01*
X84452380Y-95229047D01*
X84309523Y-95229047D01*
X84214285Y-95181428D01*
X84166666Y-95086190D01*
X84166666Y-95038571D01*
X84214285Y-94943333D01*
X84309523Y-94895714D01*
X84452380Y-94895714D01*
X84547619Y-94943333D01*
X85404761Y-95514761D02*
X85309523Y-95562380D01*
X85119047Y-95562380D01*
X85023809Y-95514761D01*
X84976190Y-95419523D01*
X84976190Y-95038571D01*
X85023809Y-94943333D01*
X85119047Y-94895714D01*
X85309523Y-94895714D01*
X85404761Y-94943333D01*
X85452380Y-95038571D01*
X85452380Y-95133809D01*
X84976190Y-95229047D01*
X86642857Y-95562380D02*
X86642857Y-94562380D01*
X86642857Y-94943333D02*
X86738095Y-94895714D01*
X86928571Y-94895714D01*
X87023809Y-94943333D01*
X87071428Y-94990952D01*
X87119047Y-95086190D01*
X87119047Y-95371904D01*
X87071428Y-95467142D01*
X87023809Y-95514761D01*
X86928571Y-95562380D01*
X86738095Y-95562380D01*
X86642857Y-95514761D01*
X87690476Y-95562380D02*
X87595238Y-95514761D01*
X87547619Y-95467142D01*
X87500000Y-95371904D01*
X87500000Y-95086190D01*
X87547619Y-94990952D01*
X87595238Y-94943333D01*
X87690476Y-94895714D01*
X87833333Y-94895714D01*
X87928571Y-94943333D01*
X87976190Y-94990952D01*
X88023809Y-95086190D01*
X88023809Y-95371904D01*
X87976190Y-95467142D01*
X87928571Y-95514761D01*
X87833333Y-95562380D01*
X87690476Y-95562380D01*
X88309523Y-94895714D02*
X88690476Y-94895714D01*
X88452380Y-94562380D02*
X88452380Y-95419523D01*
X88500000Y-95514761D01*
X88595238Y-95562380D01*
X88690476Y-95562380D01*
X89023809Y-95562380D02*
X89023809Y-94562380D01*
X89452380Y-95562380D02*
X89452380Y-95038571D01*
X89404761Y-94943333D01*
X89309523Y-94895714D01*
X89166666Y-94895714D01*
X89071428Y-94943333D01*
X89023809Y-94990952D01*
X90642857Y-95276666D02*
X91119047Y-95276666D01*
X90547619Y-95562380D02*
X90880952Y-94562380D01*
X91214285Y-95562380D01*
X92452380Y-95562380D02*
X92357142Y-95514761D01*
X92309523Y-95467142D01*
X92261904Y-95371904D01*
X92261904Y-95086190D01*
X92309523Y-94990952D01*
X92357142Y-94943333D01*
X92452380Y-94895714D01*
X92595238Y-94895714D01*
X92690476Y-94943333D01*
X92738095Y-94990952D01*
X92785714Y-95086190D01*
X92785714Y-95371904D01*
X92738095Y-95467142D01*
X92690476Y-95514761D01*
X92595238Y-95562380D01*
X92452380Y-95562380D01*
X93214285Y-95562380D02*
X93214285Y-94895714D01*
X93214285Y-95086190D02*
X93261904Y-94990952D01*
X93309523Y-94943333D01*
X93404761Y-94895714D01*
X93500000Y-94895714D01*
X94928571Y-95038571D02*
X95071428Y-95086190D01*
X95119047Y-95133809D01*
X95166666Y-95229047D01*
X95166666Y-95371904D01*
X95119047Y-95467142D01*
X95071428Y-95514761D01*
X94976190Y-95562380D01*
X94595238Y-95562380D01*
X94595238Y-94562380D01*
X94928571Y-94562380D01*
X95023809Y-94610000D01*
X95071428Y-94657619D01*
X95119047Y-94752857D01*
X95119047Y-94848095D01*
X95071428Y-94943333D01*
X95023809Y-94990952D01*
X94928571Y-95038571D01*
X94595238Y-95038571D01*
X96785714Y-95514761D02*
X96690476Y-95562380D01*
X96500000Y-95562380D01*
X96404761Y-95514761D01*
X96357142Y-95467142D01*
X96309523Y-95371904D01*
X96309523Y-95086190D01*
X96357142Y-94990952D01*
X96404761Y-94943333D01*
X96500000Y-94895714D01*
X96690476Y-94895714D01*
X96785714Y-94943333D01*
X97357142Y-95562380D02*
X97261904Y-95514761D01*
X97214285Y-95467142D01*
X97166666Y-95371904D01*
X97166666Y-95086190D01*
X97214285Y-94990952D01*
X97261904Y-94943333D01*
X97357142Y-94895714D01*
X97500000Y-94895714D01*
X97595238Y-94943333D01*
X97642857Y-94990952D01*
X97690476Y-95086190D01*
X97690476Y-95371904D01*
X97642857Y-95467142D01*
X97595238Y-95514761D01*
X97500000Y-95562380D01*
X97357142Y-95562380D01*
X98119047Y-94895714D02*
X98119047Y-95562380D01*
X98119047Y-94990952D02*
X98166666Y-94943333D01*
X98261904Y-94895714D01*
X98404761Y-94895714D01*
X98500000Y-94943333D01*
X98547619Y-95038571D01*
X98547619Y-95562380D01*
X99023809Y-94895714D02*
X99023809Y-95562380D01*
X99023809Y-94990952D02*
X99071428Y-94943333D01*
X99166666Y-94895714D01*
X99309523Y-94895714D01*
X99404761Y-94943333D01*
X99452380Y-95038571D01*
X99452380Y-95562380D01*
X100309523Y-95514761D02*
X100214285Y-95562380D01*
X100023809Y-95562380D01*
X99928571Y-95514761D01*
X99880952Y-95419523D01*
X99880952Y-95038571D01*
X99928571Y-94943333D01*
X100023809Y-94895714D01*
X100214285Y-94895714D01*
X100309523Y-94943333D01*
X100357142Y-95038571D01*
X100357142Y-95133809D01*
X99880952Y-95229047D01*
X101214285Y-95514761D02*
X101119047Y-95562380D01*
X100928571Y-95562380D01*
X100833333Y-95514761D01*
X100785714Y-95467142D01*
X100738095Y-95371904D01*
X100738095Y-95086190D01*
X100785714Y-94990952D01*
X100833333Y-94943333D01*
X100928571Y-94895714D01*
X101119047Y-94895714D01*
X101214285Y-94943333D01*
X101500000Y-94895714D02*
X101880952Y-94895714D01*
X101642857Y-94562380D02*
X101642857Y-95419523D01*
X101690476Y-95514761D01*
X101785714Y-95562380D01*
X101880952Y-95562380D01*
X102214285Y-95562380D02*
X102214285Y-94895714D01*
X102214285Y-94562380D02*
X102166666Y-94610000D01*
X102214285Y-94657619D01*
X102261904Y-94610000D01*
X102214285Y-94562380D01*
X102214285Y-94657619D01*
X102833333Y-95562380D02*
X102738095Y-95514761D01*
X102690476Y-95467142D01*
X102642857Y-95371904D01*
X102642857Y-95086190D01*
X102690476Y-94990952D01*
X102738095Y-94943333D01*
X102833333Y-94895714D01*
X102976190Y-94895714D01*
X103071428Y-94943333D01*
X103119047Y-94990952D01*
X103166666Y-95086190D01*
X103166666Y-95371904D01*
X103119047Y-95467142D01*
X103071428Y-95514761D01*
X102976190Y-95562380D01*
X102833333Y-95562380D01*
X103595238Y-94895714D02*
X103595238Y-95562380D01*
X103595238Y-94990952D02*
X103642857Y-94943333D01*
X103738095Y-94895714D01*
X103880952Y-94895714D01*
X103976190Y-94943333D01*
X104023809Y-95038571D01*
X104023809Y-95562380D01*
X104452380Y-95514761D02*
X104547619Y-95562380D01*
X104738095Y-95562380D01*
X104833333Y-95514761D01*
X104880952Y-95419523D01*
X104880952Y-95371904D01*
X104833333Y-95276666D01*
X104738095Y-95229047D01*
X104595238Y-95229047D01*
X104500000Y-95181428D01*
X104452380Y-95086190D01*
X104452380Y-95038571D01*
X104500000Y-94943333D01*
X104595238Y-94895714D01*
X104738095Y-94895714D01*
X104833333Y-94943333D01*
X105071428Y-122285714D02*
X105071428Y-121523809D01*
X105452380Y-121904761D02*
X104690476Y-121904761D01*
X104452380Y-120571428D02*
X104452380Y-121047619D01*
X104928571Y-121095238D01*
X104880952Y-121047619D01*
X104833333Y-120952380D01*
X104833333Y-120714285D01*
X104880952Y-120619047D01*
X104928571Y-120571428D01*
X105023809Y-120523809D01*
X105261904Y-120523809D01*
X105357142Y-120571428D01*
X105404761Y-120619047D01*
X105452380Y-120714285D01*
X105452380Y-120952380D01*
X105404761Y-121047619D01*
X105357142Y-121095238D01*
X104452380Y-120238095D02*
X105452380Y-119904761D01*
X104452380Y-119571428D01*
D12*
X91267380Y-64700273D02*
X91267380Y-63850273D01*
X91672142Y-64133607D02*
X91672142Y-64700273D01*
X91672142Y-64214559D02*
X91712619Y-64174083D01*
X91793571Y-64133607D01*
X91915000Y-64133607D01*
X91995952Y-64174083D01*
X92036428Y-64255035D01*
X92036428Y-64700273D01*
X92441190Y-64133607D02*
X92441190Y-64983607D01*
X92441190Y-64174083D02*
X92522142Y-64133607D01*
X92684047Y-64133607D01*
X92765000Y-64174083D01*
X92805476Y-64214559D01*
X92845952Y-64295511D01*
X92845952Y-64538369D01*
X92805476Y-64619321D01*
X92765000Y-64659797D01*
X92684047Y-64700273D01*
X92522142Y-64700273D01*
X92441190Y-64659797D01*
X93574523Y-64133607D02*
X93574523Y-64700273D01*
X93210238Y-64133607D02*
X93210238Y-64578845D01*
X93250714Y-64659797D01*
X93331666Y-64700273D01*
X93453095Y-64700273D01*
X93534047Y-64659797D01*
X93574523Y-64619321D01*
X93857857Y-64133607D02*
X94181666Y-64133607D01*
X93979285Y-63850273D02*
X93979285Y-64578845D01*
X94019761Y-64659797D01*
X94100714Y-64700273D01*
X94181666Y-64700273D01*
X91672142Y-66068773D02*
X91267380Y-66068773D01*
X91267380Y-65218773D01*
X91955476Y-66068773D02*
X91955476Y-65218773D01*
X92279285Y-65218773D01*
X92360238Y-65259250D01*
X92400714Y-65299726D01*
X92441190Y-65380678D01*
X92441190Y-65502107D01*
X92400714Y-65583059D01*
X92360238Y-65623535D01*
X92279285Y-65664011D01*
X91955476Y-65664011D01*
X93736428Y-65623535D02*
X93453095Y-65623535D01*
X93453095Y-66068773D02*
X93453095Y-65218773D01*
X93857857Y-65218773D01*
X94181666Y-66068773D02*
X94181666Y-65502107D01*
X94181666Y-65218773D02*
X94141190Y-65259250D01*
X94181666Y-65299726D01*
X94222142Y-65259250D01*
X94181666Y-65218773D01*
X94181666Y-65299726D01*
X94707857Y-66068773D02*
X94626904Y-66028297D01*
X94586428Y-65947345D01*
X94586428Y-65218773D01*
X94910238Y-65502107D02*
X95234047Y-65502107D01*
X95031666Y-65218773D02*
X95031666Y-65947345D01*
X95072142Y-66028297D01*
X95153095Y-66068773D01*
X95234047Y-66068773D01*
X95841190Y-66028297D02*
X95760238Y-66068773D01*
X95598333Y-66068773D01*
X95517380Y-66028297D01*
X95476904Y-65947345D01*
X95476904Y-65623535D01*
X95517380Y-65542583D01*
X95598333Y-65502107D01*
X95760238Y-65502107D01*
X95841190Y-65542583D01*
X95881666Y-65623535D01*
X95881666Y-65704488D01*
X95476904Y-65785440D01*
X96245952Y-66068773D02*
X96245952Y-65502107D01*
X96245952Y-65664011D02*
X96286428Y-65583059D01*
X96326904Y-65542583D01*
X96407857Y-65502107D01*
X96488809Y-65502107D01*
D11*
X95027209Y-97125000D02*
X95384352Y-97125000D01*
X94928995Y-97339285D02*
X95272745Y-96589285D01*
X95428995Y-97339285D01*
D12*
X123570723Y-94850273D02*
X123747806Y-95700273D01*
X124137389Y-94850273D01*
X124354949Y-95376464D02*
X125002568Y-95376464D01*
X125366854Y-95700273D02*
X125473104Y-94850273D01*
X125680544Y-95457416D01*
X126039770Y-94850273D01*
X125933520Y-95700273D01*
X126459711Y-95700273D02*
X126383818Y-95659797D01*
X126348401Y-95619321D01*
X126318044Y-95538369D01*
X126348401Y-95295511D01*
X126398997Y-95214559D01*
X126444532Y-95174083D01*
X126530544Y-95133607D01*
X126651973Y-95133607D01*
X126727866Y-95174083D01*
X126763282Y-95214559D01*
X126793639Y-95295511D01*
X126763282Y-95538369D01*
X126712687Y-95619321D01*
X126667151Y-95659797D01*
X126581139Y-95700273D01*
X126459711Y-95700273D01*
X127178163Y-95133607D02*
X127107330Y-95700273D01*
X127168044Y-95214559D02*
X127213580Y-95174083D01*
X127299592Y-95133607D01*
X127421020Y-95133607D01*
X127496913Y-95174083D01*
X127527270Y-95255035D01*
X127471616Y-95700273D01*
X121056139Y-96259250D02*
X120980247Y-96218773D01*
X120858818Y-96218773D01*
X120732330Y-96259250D01*
X120641258Y-96340202D01*
X120590663Y-96421154D01*
X120529949Y-96583059D01*
X120514770Y-96704488D01*
X120535008Y-96866392D01*
X120565366Y-96947345D01*
X120636199Y-97028297D01*
X120752568Y-97068773D01*
X120833520Y-97068773D01*
X120960008Y-97028297D01*
X121005544Y-96987821D01*
X121040961Y-96704488D01*
X120879056Y-96704488D01*
X121723997Y-97068773D02*
X121779651Y-96623535D01*
X121749294Y-96542583D01*
X121673401Y-96502107D01*
X121511497Y-96502107D01*
X121425485Y-96542583D01*
X121729056Y-97028297D02*
X121643044Y-97068773D01*
X121440663Y-97068773D01*
X121364770Y-97028297D01*
X121334413Y-96947345D01*
X121344532Y-96866392D01*
X121395127Y-96785440D01*
X121481139Y-96744964D01*
X121683520Y-96744964D01*
X121769532Y-96704488D01*
X122128758Y-97068773D02*
X122199592Y-96502107D01*
X122235008Y-96218773D02*
X122189473Y-96259250D01*
X122224889Y-96299726D01*
X122270425Y-96259250D01*
X122235008Y-96218773D01*
X122224889Y-96299726D01*
X122604354Y-96502107D02*
X122533520Y-97068773D01*
X122594235Y-96583059D02*
X122639770Y-96542583D01*
X122725782Y-96502107D01*
X122847211Y-96502107D01*
X122923104Y-96542583D01*
X122953461Y-96623535D01*
X122897806Y-97068773D01*
X123914770Y-97028297D02*
X124031139Y-97068773D01*
X124233520Y-97068773D01*
X124319532Y-97028297D01*
X124365068Y-96987821D01*
X124415663Y-96906869D01*
X124425782Y-96825916D01*
X124395425Y-96744964D01*
X124360008Y-96704488D01*
X124284116Y-96664011D01*
X124127270Y-96623535D01*
X124051377Y-96583059D01*
X124015961Y-96542583D01*
X123985604Y-96461630D01*
X123995723Y-96380678D01*
X124046318Y-96299726D01*
X124091854Y-96259250D01*
X124177866Y-96218773D01*
X124380247Y-96218773D01*
X124496616Y-96259250D01*
X125088580Y-97028297D02*
X125002568Y-97068773D01*
X124840663Y-97068773D01*
X124764770Y-97028297D01*
X124734413Y-96947345D01*
X124774889Y-96623535D01*
X124825485Y-96542583D01*
X124911497Y-96502107D01*
X125073401Y-96502107D01*
X125149294Y-96542583D01*
X125179651Y-96623535D01*
X125169532Y-96704488D01*
X124754651Y-96785440D01*
X125609711Y-97068773D02*
X125533818Y-97028297D01*
X125503461Y-96947345D01*
X125594532Y-96218773D01*
X126262389Y-97028297D02*
X126176377Y-97068773D01*
X126014473Y-97068773D01*
X125938580Y-97028297D01*
X125908223Y-96947345D01*
X125948699Y-96623535D01*
X125999294Y-96542583D01*
X126085306Y-96502107D01*
X126247211Y-96502107D01*
X126323104Y-96542583D01*
X126353461Y-96623535D01*
X126343342Y-96704488D01*
X125928461Y-96785440D01*
X127031437Y-97028297D02*
X126945425Y-97068773D01*
X126783520Y-97068773D01*
X126707627Y-97028297D01*
X126672211Y-96987821D01*
X126641854Y-96906869D01*
X126672211Y-96664011D01*
X126722806Y-96583059D01*
X126768342Y-96542583D01*
X126854354Y-96502107D01*
X127016258Y-96502107D01*
X127092151Y-96542583D01*
X127340068Y-96502107D02*
X127663877Y-96502107D01*
X127496913Y-96218773D02*
X127405842Y-96947345D01*
X127436199Y-97028297D01*
X127512092Y-97068773D01*
X127593044Y-97068773D01*
D11*
%TO.C,J2*%
X77591666Y-79327380D02*
X77591666Y-80041666D01*
X77544047Y-80184523D01*
X77448809Y-80279761D01*
X77305952Y-80327380D01*
X77210714Y-80327380D01*
X78020238Y-79422619D02*
X78067857Y-79375000D01*
X78163095Y-79327380D01*
X78401190Y-79327380D01*
X78496428Y-79375000D01*
X78544047Y-79422619D01*
X78591666Y-79517857D01*
X78591666Y-79613095D01*
X78544047Y-79755952D01*
X77972619Y-80327380D01*
X78591666Y-80327380D01*
%TO.C,J6*%
X150177190Y-66334981D02*
X150362061Y-67024928D01*
X150353038Y-67175242D01*
X150285695Y-67291885D01*
X150160030Y-67374855D01*
X150068037Y-67399505D01*
X151051123Y-66100812D02*
X150867137Y-66150110D01*
X150787469Y-66220756D01*
X150753797Y-66279077D01*
X150698778Y-66441716D01*
X150702081Y-66638027D01*
X150800678Y-67005999D01*
X150871324Y-67085667D01*
X150929645Y-67119339D01*
X151033963Y-67140686D01*
X151217949Y-67091387D01*
X151297617Y-67020741D01*
X151331289Y-66962420D01*
X151352636Y-66858102D01*
X151291012Y-66628120D01*
X151220367Y-66548451D01*
X151162045Y-66514780D01*
X151057728Y-66493433D01*
X150873742Y-66542732D01*
X150794074Y-66613377D01*
X150760402Y-66671699D01*
X150739055Y-66776016D01*
%TO.C,J7*%
X154695896Y-112283026D02*
X154511026Y-112972973D01*
X154428055Y-113098638D01*
X154311413Y-113165981D01*
X154161099Y-113175004D01*
X154069106Y-113150354D01*
X155063868Y-112381624D02*
X155707819Y-112554170D01*
X155035032Y-113409173D01*
%TO.C,R5*%
X87833333Y-103052380D02*
X87500000Y-102576190D01*
X87261904Y-103052380D02*
X87261904Y-102052380D01*
X87642857Y-102052380D01*
X87738095Y-102100000D01*
X87785714Y-102147619D01*
X87833333Y-102242857D01*
X87833333Y-102385714D01*
X87785714Y-102480952D01*
X87738095Y-102528571D01*
X87642857Y-102576190D01*
X87261904Y-102576190D01*
X88738095Y-102052380D02*
X88261904Y-102052380D01*
X88214285Y-102528571D01*
X88261904Y-102480952D01*
X88357142Y-102433333D01*
X88595238Y-102433333D01*
X88690476Y-102480952D01*
X88738095Y-102528571D01*
X88785714Y-102623809D01*
X88785714Y-102861904D01*
X88738095Y-102957142D01*
X88690476Y-103004761D01*
X88595238Y-103052380D01*
X88357142Y-103052380D01*
X88261904Y-103004761D01*
X88214285Y-102957142D01*
%TO.C,R6*%
X87933333Y-84302380D02*
X87600000Y-83826190D01*
X87361904Y-84302380D02*
X87361904Y-83302380D01*
X87742857Y-83302380D01*
X87838095Y-83350000D01*
X87885714Y-83397619D01*
X87933333Y-83492857D01*
X87933333Y-83635714D01*
X87885714Y-83730952D01*
X87838095Y-83778571D01*
X87742857Y-83826190D01*
X87361904Y-83826190D01*
X88790476Y-83302380D02*
X88600000Y-83302380D01*
X88504761Y-83350000D01*
X88457142Y-83397619D01*
X88361904Y-83540476D01*
X88314285Y-83730952D01*
X88314285Y-84111904D01*
X88361904Y-84207142D01*
X88409523Y-84254761D01*
X88504761Y-84302380D01*
X88695238Y-84302380D01*
X88790476Y-84254761D01*
X88838095Y-84207142D01*
X88885714Y-84111904D01*
X88885714Y-83873809D01*
X88838095Y-83778571D01*
X88790476Y-83730952D01*
X88695238Y-83683333D01*
X88504761Y-83683333D01*
X88409523Y-83730952D01*
X88361904Y-83778571D01*
X88314285Y-83873809D01*
%TO.C,R7*%
X127745833Y-115502380D02*
X127412500Y-115026190D01*
X127174404Y-115502380D02*
X127174404Y-114502380D01*
X127555357Y-114502380D01*
X127650595Y-114550000D01*
X127698214Y-114597619D01*
X127745833Y-114692857D01*
X127745833Y-114835714D01*
X127698214Y-114930952D01*
X127650595Y-114978571D01*
X127555357Y-115026190D01*
X127174404Y-115026190D01*
X128079166Y-114502380D02*
X128745833Y-114502380D01*
X128317261Y-115502380D01*
%TO.C,R8*%
X139333333Y-96952380D02*
X139000000Y-96476190D01*
X138761904Y-96952380D02*
X138761904Y-95952380D01*
X139142857Y-95952380D01*
X139238095Y-96000000D01*
X139285714Y-96047619D01*
X139333333Y-96142857D01*
X139333333Y-96285714D01*
X139285714Y-96380952D01*
X139238095Y-96428571D01*
X139142857Y-96476190D01*
X138761904Y-96476190D01*
X139904761Y-96380952D02*
X139809523Y-96333333D01*
X139761904Y-96285714D01*
X139714285Y-96190476D01*
X139714285Y-96142857D01*
X139761904Y-96047619D01*
X139809523Y-96000000D01*
X139904761Y-95952380D01*
X140095238Y-95952380D01*
X140190476Y-96000000D01*
X140238095Y-96047619D01*
X140285714Y-96142857D01*
X140285714Y-96190476D01*
X140238095Y-96285714D01*
X140190476Y-96333333D01*
X140095238Y-96380952D01*
X139904761Y-96380952D01*
X139809523Y-96428571D01*
X139761904Y-96476190D01*
X139714285Y-96571428D01*
X139714285Y-96761904D01*
X139761904Y-96857142D01*
X139809523Y-96904761D01*
X139904761Y-96952380D01*
X140095238Y-96952380D01*
X140190476Y-96904761D01*
X140238095Y-96857142D01*
X140285714Y-96761904D01*
X140285714Y-96571428D01*
X140238095Y-96476190D01*
X140190476Y-96428571D01*
X140095238Y-96380952D01*
%TO.C,U3*%
X128438095Y-107752380D02*
X128438095Y-108561904D01*
X128485714Y-108657142D01*
X128533333Y-108704761D01*
X128628571Y-108752380D01*
X128819047Y-108752380D01*
X128914285Y-108704761D01*
X128961904Y-108657142D01*
X129009523Y-108561904D01*
X129009523Y-107752380D01*
X129390476Y-107752380D02*
X130009523Y-107752380D01*
X129676190Y-108133333D01*
X129819047Y-108133333D01*
X129914285Y-108180952D01*
X129961904Y-108228571D01*
X130009523Y-108323809D01*
X130009523Y-108561904D01*
X129961904Y-108657142D01*
X129914285Y-108704761D01*
X129819047Y-108752380D01*
X129533333Y-108752380D01*
X129438095Y-108704761D01*
X129390476Y-108657142D01*
%TO.C,J5*%
X155868389Y-97187350D02*
X155768980Y-97894684D01*
X155701942Y-98029524D01*
X155594376Y-98110580D01*
X155446282Y-98137854D01*
X155351971Y-98124600D01*
X156811501Y-97319896D02*
X156339945Y-97253623D01*
X156226517Y-97718552D01*
X156280300Y-97678023D01*
X156381238Y-97644122D01*
X156617016Y-97677259D01*
X156704700Y-97737669D01*
X156745229Y-97791452D01*
X156779130Y-97892390D01*
X156745993Y-98128168D01*
X156685583Y-98215852D01*
X156631800Y-98256381D01*
X156530861Y-98290282D01*
X156295083Y-98257145D01*
X156207399Y-98196735D01*
X156166871Y-98142952D01*
%TO.C,J4*%
X153801297Y-81349719D02*
X153900707Y-82057053D01*
X153873433Y-82205147D01*
X153792376Y-82312713D01*
X153657537Y-82379751D01*
X153563225Y-82393005D01*
X154743645Y-81553890D02*
X154836427Y-82214068D01*
X154454849Y-81209781D02*
X154318480Y-81950252D01*
X154931503Y-81864097D01*
%TO.C,U4*%
X139988095Y-90952380D02*
X139988095Y-91761904D01*
X140035714Y-91857142D01*
X140083333Y-91904761D01*
X140178571Y-91952380D01*
X140369047Y-91952380D01*
X140464285Y-91904761D01*
X140511904Y-91857142D01*
X140559523Y-91761904D01*
X140559523Y-90952380D01*
X141464285Y-91285714D02*
X141464285Y-91952380D01*
X141226190Y-90904761D02*
X140988095Y-91619047D01*
X141607142Y-91619047D01*
%TO.C,C4*%
X95833333Y-123607142D02*
X95785714Y-123654761D01*
X95642857Y-123702380D01*
X95547619Y-123702380D01*
X95404761Y-123654761D01*
X95309523Y-123559523D01*
X95261904Y-123464285D01*
X95214285Y-123273809D01*
X95214285Y-123130952D01*
X95261904Y-122940476D01*
X95309523Y-122845238D01*
X95404761Y-122750000D01*
X95547619Y-122702380D01*
X95642857Y-122702380D01*
X95785714Y-122750000D01*
X95833333Y-122797619D01*
X96690476Y-123035714D02*
X96690476Y-123702380D01*
X96452380Y-122654761D02*
X96214285Y-123369047D01*
X96833333Y-123369047D01*
%TO.C,C5*%
X92487142Y-125216666D02*
X92534761Y-125264285D01*
X92582380Y-125407142D01*
X92582380Y-125502380D01*
X92534761Y-125645238D01*
X92439523Y-125740476D01*
X92344285Y-125788095D01*
X92153809Y-125835714D01*
X92010952Y-125835714D01*
X91820476Y-125788095D01*
X91725238Y-125740476D01*
X91630000Y-125645238D01*
X91582380Y-125502380D01*
X91582380Y-125407142D01*
X91630000Y-125264285D01*
X91677619Y-125216666D01*
X91582380Y-124311904D02*
X91582380Y-124788095D01*
X92058571Y-124835714D01*
X92010952Y-124788095D01*
X91963333Y-124692857D01*
X91963333Y-124454761D01*
X92010952Y-124359523D01*
X92058571Y-124311904D01*
X92153809Y-124264285D01*
X92391904Y-124264285D01*
X92487142Y-124311904D01*
X92534761Y-124359523D01*
X92582380Y-124454761D01*
X92582380Y-124692857D01*
X92534761Y-124788095D01*
X92487142Y-124835714D01*
%TO.C,D1*%
X95761904Y-122452380D02*
X95761904Y-121452380D01*
X96000000Y-121452380D01*
X96142857Y-121500000D01*
X96238095Y-121595238D01*
X96285714Y-121690476D01*
X96333333Y-121880952D01*
X96333333Y-122023809D01*
X96285714Y-122214285D01*
X96238095Y-122309523D01*
X96142857Y-122404761D01*
X96000000Y-122452380D01*
X95761904Y-122452380D01*
X97285714Y-122452380D02*
X96714285Y-122452380D01*
X97000000Y-122452380D02*
X97000000Y-121452380D01*
X96904761Y-121595238D01*
X96809523Y-121690476D01*
X96714285Y-121738095D01*
%TO.C,D2*%
X88402380Y-127288095D02*
X87402380Y-127288095D01*
X87402380Y-127050000D01*
X87450000Y-126907142D01*
X87545238Y-126811904D01*
X87640476Y-126764285D01*
X87830952Y-126716666D01*
X87973809Y-126716666D01*
X88164285Y-126764285D01*
X88259523Y-126811904D01*
X88354761Y-126907142D01*
X88402380Y-127050000D01*
X88402380Y-127288095D01*
X87497619Y-126335714D02*
X87450000Y-126288095D01*
X87402380Y-126192857D01*
X87402380Y-125954761D01*
X87450000Y-125859523D01*
X87497619Y-125811904D01*
X87592857Y-125764285D01*
X87688095Y-125764285D01*
X87830952Y-125811904D01*
X88402380Y-126383333D01*
X88402380Y-125764285D01*
%TO.C,FB1*%
X88579166Y-121078571D02*
X88245833Y-121078571D01*
X88245833Y-121602380D02*
X88245833Y-120602380D01*
X88722023Y-120602380D01*
X89436309Y-121078571D02*
X89579166Y-121126190D01*
X89626785Y-121173809D01*
X89674404Y-121269047D01*
X89674404Y-121411904D01*
X89626785Y-121507142D01*
X89579166Y-121554761D01*
X89483928Y-121602380D01*
X89102976Y-121602380D01*
X89102976Y-120602380D01*
X89436309Y-120602380D01*
X89531547Y-120650000D01*
X89579166Y-120697619D01*
X89626785Y-120792857D01*
X89626785Y-120888095D01*
X89579166Y-120983333D01*
X89531547Y-121030952D01*
X89436309Y-121078571D01*
X89102976Y-121078571D01*
X90626785Y-121602380D02*
X90055357Y-121602380D01*
X90341071Y-121602380D02*
X90341071Y-120602380D01*
X90245833Y-120745238D01*
X90150595Y-120840476D01*
X90055357Y-120888095D01*
%TO.C,J8*%
X74716666Y-123202380D02*
X74716666Y-123916666D01*
X74669047Y-124059523D01*
X74573809Y-124154761D01*
X74430952Y-124202380D01*
X74335714Y-124202380D01*
X75335714Y-123630952D02*
X75240476Y-123583333D01*
X75192857Y-123535714D01*
X75145238Y-123440476D01*
X75145238Y-123392857D01*
X75192857Y-123297619D01*
X75240476Y-123250000D01*
X75335714Y-123202380D01*
X75526190Y-123202380D01*
X75621428Y-123250000D01*
X75669047Y-123297619D01*
X75716666Y-123392857D01*
X75716666Y-123440476D01*
X75669047Y-123535714D01*
X75621428Y-123583333D01*
X75526190Y-123630952D01*
X75335714Y-123630952D01*
X75240476Y-123678571D01*
X75192857Y-123726190D01*
X75145238Y-123821428D01*
X75145238Y-124011904D01*
X75192857Y-124107142D01*
X75240476Y-124154761D01*
X75335714Y-124202380D01*
X75526190Y-124202380D01*
X75621428Y-124154761D01*
X75669047Y-124107142D01*
X75716666Y-124011904D01*
X75716666Y-123821428D01*
X75669047Y-123726190D01*
X75621428Y-123678571D01*
X75526190Y-123630952D01*
%TO.C,J9*%
X85791666Y-134502380D02*
X85791666Y-135216666D01*
X85744047Y-135359523D01*
X85648809Y-135454761D01*
X85505952Y-135502380D01*
X85410714Y-135502380D01*
X86315476Y-135502380D02*
X86505952Y-135502380D01*
X86601190Y-135454761D01*
X86648809Y-135407142D01*
X86744047Y-135264285D01*
X86791666Y-135073809D01*
X86791666Y-134692857D01*
X86744047Y-134597619D01*
X86696428Y-134550000D01*
X86601190Y-134502380D01*
X86410714Y-134502380D01*
X86315476Y-134550000D01*
X86267857Y-134597619D01*
X86220238Y-134692857D01*
X86220238Y-134930952D01*
X86267857Y-135026190D01*
X86315476Y-135073809D01*
X86410714Y-135121428D01*
X86601190Y-135121428D01*
X86696428Y-135073809D01*
X86744047Y-135026190D01*
X86791666Y-134930952D01*
%TO.C,C6*%
X102833333Y-123607142D02*
X102785714Y-123654761D01*
X102642857Y-123702380D01*
X102547619Y-123702380D01*
X102404761Y-123654761D01*
X102309523Y-123559523D01*
X102261904Y-123464285D01*
X102214285Y-123273809D01*
X102214285Y-123130952D01*
X102261904Y-122940476D01*
X102309523Y-122845238D01*
X102404761Y-122750000D01*
X102547619Y-122702380D01*
X102642857Y-122702380D01*
X102785714Y-122750000D01*
X102833333Y-122797619D01*
X103690476Y-122702380D02*
X103500000Y-122702380D01*
X103404761Y-122750000D01*
X103357142Y-122797619D01*
X103261904Y-122940476D01*
X103214285Y-123130952D01*
X103214285Y-123511904D01*
X103261904Y-123607142D01*
X103309523Y-123654761D01*
X103404761Y-123702380D01*
X103595238Y-123702380D01*
X103690476Y-123654761D01*
X103738095Y-123607142D01*
X103785714Y-123511904D01*
X103785714Y-123273809D01*
X103738095Y-123178571D01*
X103690476Y-123130952D01*
X103595238Y-123083333D01*
X103404761Y-123083333D01*
X103309523Y-123130952D01*
X103261904Y-123178571D01*
X103214285Y-123273809D01*
%TO.C,D3*%
X78361904Y-127632380D02*
X78361904Y-126632380D01*
X78600000Y-126632380D01*
X78742857Y-126680000D01*
X78838095Y-126775238D01*
X78885714Y-126870476D01*
X78933333Y-127060952D01*
X78933333Y-127203809D01*
X78885714Y-127394285D01*
X78838095Y-127489523D01*
X78742857Y-127584761D01*
X78600000Y-127632380D01*
X78361904Y-127632380D01*
X79266666Y-126632380D02*
X79885714Y-126632380D01*
X79552380Y-127013333D01*
X79695238Y-127013333D01*
X79790476Y-127060952D01*
X79838095Y-127108571D01*
X79885714Y-127203809D01*
X79885714Y-127441904D01*
X79838095Y-127537142D01*
X79790476Y-127584761D01*
X79695238Y-127632380D01*
X79409523Y-127632380D01*
X79314285Y-127584761D01*
X79266666Y-127537142D01*
%TO.C,R13*%
X73319642Y-127702380D02*
X72986309Y-127226190D01*
X72748214Y-127702380D02*
X72748214Y-126702380D01*
X73129166Y-126702380D01*
X73224404Y-126750000D01*
X73272023Y-126797619D01*
X73319642Y-126892857D01*
X73319642Y-127035714D01*
X73272023Y-127130952D01*
X73224404Y-127178571D01*
X73129166Y-127226190D01*
X72748214Y-127226190D01*
X74272023Y-127702380D02*
X73700595Y-127702380D01*
X73986309Y-127702380D02*
X73986309Y-126702380D01*
X73891071Y-126845238D01*
X73795833Y-126940476D01*
X73700595Y-126988095D01*
X74605357Y-126702380D02*
X75224404Y-126702380D01*
X74891071Y-127083333D01*
X75033928Y-127083333D01*
X75129166Y-127130952D01*
X75176785Y-127178571D01*
X75224404Y-127273809D01*
X75224404Y-127511904D01*
X75176785Y-127607142D01*
X75129166Y-127654761D01*
X75033928Y-127702380D01*
X74748214Y-127702380D01*
X74652976Y-127654761D01*
X74605357Y-127607142D01*
%TO.C,U5*%
X100738095Y-114952380D02*
X100738095Y-115761904D01*
X100785714Y-115857142D01*
X100833333Y-115904761D01*
X100928571Y-115952380D01*
X101119047Y-115952380D01*
X101214285Y-115904761D01*
X101261904Y-115857142D01*
X101309523Y-115761904D01*
X101309523Y-114952380D01*
X102261904Y-114952380D02*
X101785714Y-114952380D01*
X101738095Y-115428571D01*
X101785714Y-115380952D01*
X101880952Y-115333333D01*
X102119047Y-115333333D01*
X102214285Y-115380952D01*
X102261904Y-115428571D01*
X102309523Y-115523809D01*
X102309523Y-115761904D01*
X102261904Y-115857142D01*
X102214285Y-115904761D01*
X102119047Y-115952380D01*
X101880952Y-115952380D01*
X101785714Y-115904761D01*
X101738095Y-115857142D01*
%TO.C,C7*%
X142485984Y-130857142D02*
X142438365Y-130904761D01*
X142295508Y-130952380D01*
X142200270Y-130952380D01*
X142057412Y-130904761D01*
X141962174Y-130809523D01*
X141914555Y-130714285D01*
X141866936Y-130523809D01*
X141866936Y-130380952D01*
X141914555Y-130190476D01*
X141962174Y-130095238D01*
X142057412Y-130000000D01*
X142200270Y-129952380D01*
X142295508Y-129952380D01*
X142438365Y-130000000D01*
X142485984Y-130047619D01*
X142819317Y-129952380D02*
X143485984Y-129952380D01*
X143057412Y-130952380D01*
%TO.C,C9*%
X133930682Y-135107142D02*
X133883063Y-135154761D01*
X133740206Y-135202380D01*
X133644968Y-135202380D01*
X133502110Y-135154761D01*
X133406872Y-135059523D01*
X133359253Y-134964285D01*
X133311634Y-134773809D01*
X133311634Y-134630952D01*
X133359253Y-134440476D01*
X133406872Y-134345238D01*
X133502110Y-134250000D01*
X133644968Y-134202380D01*
X133740206Y-134202380D01*
X133883063Y-134250000D01*
X133930682Y-134297619D01*
X134406872Y-135202380D02*
X134597349Y-135202380D01*
X134692587Y-135154761D01*
X134740206Y-135107142D01*
X134835444Y-134964285D01*
X134883063Y-134773809D01*
X134883063Y-134392857D01*
X134835444Y-134297619D01*
X134787825Y-134250000D01*
X134692587Y-134202380D01*
X134502110Y-134202380D01*
X134406872Y-134250000D01*
X134359253Y-134297619D01*
X134311634Y-134392857D01*
X134311634Y-134630952D01*
X134359253Y-134726190D01*
X134406872Y-134773809D01*
X134502110Y-134821428D01*
X134692587Y-134821428D01*
X134787825Y-134773809D01*
X134835444Y-134726190D01*
X134883063Y-134630952D01*
%TO.C,R3*%
X114952380Y-84666666D02*
X114476190Y-85000000D01*
X114952380Y-85238095D02*
X113952380Y-85238095D01*
X113952380Y-84857142D01*
X114000000Y-84761904D01*
X114047619Y-84714285D01*
X114142857Y-84666666D01*
X114285714Y-84666666D01*
X114380952Y-84714285D01*
X114428571Y-84761904D01*
X114476190Y-84857142D01*
X114476190Y-85238095D01*
X113952380Y-84333333D02*
X113952380Y-83714285D01*
X114333333Y-84047619D01*
X114333333Y-83904761D01*
X114380952Y-83809523D01*
X114428571Y-83761904D01*
X114523809Y-83714285D01*
X114761904Y-83714285D01*
X114857142Y-83761904D01*
X114904761Y-83809523D01*
X114952380Y-83904761D01*
X114952380Y-84190476D01*
X114904761Y-84285714D01*
X114857142Y-84333333D01*
%TO.C,R2*%
X117452380Y-84666666D02*
X116976190Y-85000000D01*
X117452380Y-85238095D02*
X116452380Y-85238095D01*
X116452380Y-84857142D01*
X116500000Y-84761904D01*
X116547619Y-84714285D01*
X116642857Y-84666666D01*
X116785714Y-84666666D01*
X116880952Y-84714285D01*
X116928571Y-84761904D01*
X116976190Y-84857142D01*
X116976190Y-85238095D01*
X116547619Y-84285714D02*
X116500000Y-84238095D01*
X116452380Y-84142857D01*
X116452380Y-83904761D01*
X116500000Y-83809523D01*
X116547619Y-83761904D01*
X116642857Y-83714285D01*
X116738095Y-83714285D01*
X116880952Y-83761904D01*
X117452380Y-84333333D01*
X117452380Y-83714285D01*
%TO.C,C1*%
X98787142Y-86466666D02*
X98834761Y-86514285D01*
X98882380Y-86657142D01*
X98882380Y-86752380D01*
X98834761Y-86895238D01*
X98739523Y-86990476D01*
X98644285Y-87038095D01*
X98453809Y-87085714D01*
X98310952Y-87085714D01*
X98120476Y-87038095D01*
X98025238Y-86990476D01*
X97930000Y-86895238D01*
X97882380Y-86752380D01*
X97882380Y-86657142D01*
X97930000Y-86514285D01*
X97977619Y-86466666D01*
X98882380Y-85514285D02*
X98882380Y-86085714D01*
X98882380Y-85800000D02*
X97882380Y-85800000D01*
X98025238Y-85895238D01*
X98120476Y-85990476D01*
X98168095Y-86085714D01*
%TO.C,R1*%
X98632380Y-77204166D02*
X98156190Y-77537500D01*
X98632380Y-77775595D02*
X97632380Y-77775595D01*
X97632380Y-77394642D01*
X97680000Y-77299404D01*
X97727619Y-77251785D01*
X97822857Y-77204166D01*
X97965714Y-77204166D01*
X98060952Y-77251785D01*
X98108571Y-77299404D01*
X98156190Y-77394642D01*
X98156190Y-77775595D01*
X98632380Y-76251785D02*
X98632380Y-76823214D01*
X98632380Y-76537500D02*
X97632380Y-76537500D01*
X97775238Y-76632738D01*
X97870476Y-76727976D01*
X97918095Y-76823214D01*
%TO.C,U1*%
X105763095Y-73617380D02*
X105763095Y-74426904D01*
X105810714Y-74522142D01*
X105858333Y-74569761D01*
X105953571Y-74617380D01*
X106144047Y-74617380D01*
X106239285Y-74569761D01*
X106286904Y-74522142D01*
X106334523Y-74426904D01*
X106334523Y-73617380D01*
X107334523Y-74617380D02*
X106763095Y-74617380D01*
X107048809Y-74617380D02*
X107048809Y-73617380D01*
X106953571Y-73760238D01*
X106858333Y-73855476D01*
X106763095Y-73903095D01*
%TO.C,C14*%
X100307142Y-74437142D02*
X100259523Y-74484761D01*
X100116666Y-74532380D01*
X100021428Y-74532380D01*
X99878571Y-74484761D01*
X99783333Y-74389523D01*
X99735714Y-74294285D01*
X99688095Y-74103809D01*
X99688095Y-73960952D01*
X99735714Y-73770476D01*
X99783333Y-73675238D01*
X99878571Y-73580000D01*
X100021428Y-73532380D01*
X100116666Y-73532380D01*
X100259523Y-73580000D01*
X100307142Y-73627619D01*
X101259523Y-74532380D02*
X100688095Y-74532380D01*
X100973809Y-74532380D02*
X100973809Y-73532380D01*
X100878571Y-73675238D01*
X100783333Y-73770476D01*
X100688095Y-73818095D01*
X102116666Y-73865714D02*
X102116666Y-74532380D01*
X101878571Y-73484761D02*
X101640476Y-74199047D01*
X102259523Y-74199047D01*
%TO.C,C17*%
X115357142Y-108037142D02*
X115309523Y-108084761D01*
X115166666Y-108132380D01*
X115071428Y-108132380D01*
X114928571Y-108084761D01*
X114833333Y-107989523D01*
X114785714Y-107894285D01*
X114738095Y-107703809D01*
X114738095Y-107560952D01*
X114785714Y-107370476D01*
X114833333Y-107275238D01*
X114928571Y-107180000D01*
X115071428Y-107132380D01*
X115166666Y-107132380D01*
X115309523Y-107180000D01*
X115357142Y-107227619D01*
X116309523Y-108132380D02*
X115738095Y-108132380D01*
X116023809Y-108132380D02*
X116023809Y-107132380D01*
X115928571Y-107275238D01*
X115833333Y-107370476D01*
X115738095Y-107418095D01*
X116642857Y-107132380D02*
X117309523Y-107132380D01*
X116880952Y-108132380D01*
%TO.C,C19*%
X111757142Y-76157142D02*
X111709523Y-76204761D01*
X111566666Y-76252380D01*
X111471428Y-76252380D01*
X111328571Y-76204761D01*
X111233333Y-76109523D01*
X111185714Y-76014285D01*
X111138095Y-75823809D01*
X111138095Y-75680952D01*
X111185714Y-75490476D01*
X111233333Y-75395238D01*
X111328571Y-75300000D01*
X111471428Y-75252380D01*
X111566666Y-75252380D01*
X111709523Y-75300000D01*
X111757142Y-75347619D01*
X112709523Y-76252380D02*
X112138095Y-76252380D01*
X112423809Y-76252380D02*
X112423809Y-75252380D01*
X112328571Y-75395238D01*
X112233333Y-75490476D01*
X112138095Y-75538095D01*
X113185714Y-76252380D02*
X113376190Y-76252380D01*
X113471428Y-76204761D01*
X113519047Y-76157142D01*
X113614285Y-76014285D01*
X113661904Y-75823809D01*
X113661904Y-75442857D01*
X113614285Y-75347619D01*
X113566666Y-75300000D01*
X113471428Y-75252380D01*
X113280952Y-75252380D01*
X113185714Y-75300000D01*
X113138095Y-75347619D01*
X113090476Y-75442857D01*
X113090476Y-75680952D01*
X113138095Y-75776190D01*
X113185714Y-75823809D01*
X113280952Y-75871428D01*
X113471428Y-75871428D01*
X113566666Y-75823809D01*
X113614285Y-75776190D01*
X113661904Y-75680952D01*
%TO.C,D4*%
X110452380Y-118238095D02*
X109452380Y-118238095D01*
X109452380Y-118000000D01*
X109500000Y-117857142D01*
X109595238Y-117761904D01*
X109690476Y-117714285D01*
X109880952Y-117666666D01*
X110023809Y-117666666D01*
X110214285Y-117714285D01*
X110309523Y-117761904D01*
X110404761Y-117857142D01*
X110452380Y-118000000D01*
X110452380Y-118238095D01*
X109785714Y-116809523D02*
X110452380Y-116809523D01*
X109404761Y-117047619D02*
X110119047Y-117285714D01*
X110119047Y-116666666D01*
%TO.C,D5*%
X103452380Y-117738095D02*
X102452380Y-117738095D01*
X102452380Y-117500000D01*
X102500000Y-117357142D01*
X102595238Y-117261904D01*
X102690476Y-117214285D01*
X102880952Y-117166666D01*
X103023809Y-117166666D01*
X103214285Y-117214285D01*
X103309523Y-117261904D01*
X103404761Y-117357142D01*
X103452380Y-117500000D01*
X103452380Y-117738095D01*
X102452380Y-116261904D02*
X102452380Y-116738095D01*
X102928571Y-116785714D01*
X102880952Y-116738095D01*
X102833333Y-116642857D01*
X102833333Y-116404761D01*
X102880952Y-116309523D01*
X102928571Y-116261904D01*
X103023809Y-116214285D01*
X103261904Y-116214285D01*
X103357142Y-116261904D01*
X103404761Y-116309523D01*
X103452380Y-116404761D01*
X103452380Y-116642857D01*
X103404761Y-116738095D01*
X103357142Y-116785714D01*
%TO.C,R19*%
X110452380Y-112142857D02*
X109976190Y-112476190D01*
X110452380Y-112714285D02*
X109452380Y-112714285D01*
X109452380Y-112333333D01*
X109500000Y-112238095D01*
X109547619Y-112190476D01*
X109642857Y-112142857D01*
X109785714Y-112142857D01*
X109880952Y-112190476D01*
X109928571Y-112238095D01*
X109976190Y-112333333D01*
X109976190Y-112714285D01*
X110452380Y-111190476D02*
X110452380Y-111761904D01*
X110452380Y-111476190D02*
X109452380Y-111476190D01*
X109595238Y-111571428D01*
X109690476Y-111666666D01*
X109738095Y-111761904D01*
X110452380Y-110714285D02*
X110452380Y-110523809D01*
X110404761Y-110428571D01*
X110357142Y-110380952D01*
X110214285Y-110285714D01*
X110023809Y-110238095D01*
X109642857Y-110238095D01*
X109547619Y-110285714D01*
X109500000Y-110333333D01*
X109452380Y-110428571D01*
X109452380Y-110619047D01*
X109500000Y-110714285D01*
X109547619Y-110761904D01*
X109642857Y-110809523D01*
X109880952Y-110809523D01*
X109976190Y-110761904D01*
X110023809Y-110714285D01*
X110071428Y-110619047D01*
X110071428Y-110428571D01*
X110023809Y-110333333D01*
X109976190Y-110285714D01*
X109880952Y-110238095D01*
%TO.C,R20*%
X103632380Y-112032857D02*
X103156190Y-112366190D01*
X103632380Y-112604285D02*
X102632380Y-112604285D01*
X102632380Y-112223333D01*
X102680000Y-112128095D01*
X102727619Y-112080476D01*
X102822857Y-112032857D01*
X102965714Y-112032857D01*
X103060952Y-112080476D01*
X103108571Y-112128095D01*
X103156190Y-112223333D01*
X103156190Y-112604285D01*
X102727619Y-111651904D02*
X102680000Y-111604285D01*
X102632380Y-111509047D01*
X102632380Y-111270952D01*
X102680000Y-111175714D01*
X102727619Y-111128095D01*
X102822857Y-111080476D01*
X102918095Y-111080476D01*
X103060952Y-111128095D01*
X103632380Y-111699523D01*
X103632380Y-111080476D01*
X102632380Y-110461428D02*
X102632380Y-110366190D01*
X102680000Y-110270952D01*
X102727619Y-110223333D01*
X102822857Y-110175714D01*
X103013333Y-110128095D01*
X103251428Y-110128095D01*
X103441904Y-110175714D01*
X103537142Y-110223333D01*
X103584761Y-110270952D01*
X103632380Y-110366190D01*
X103632380Y-110461428D01*
X103584761Y-110556666D01*
X103537142Y-110604285D01*
X103441904Y-110651904D01*
X103251428Y-110699523D01*
X103013333Y-110699523D01*
X102822857Y-110651904D01*
X102727619Y-110604285D01*
X102680000Y-110556666D01*
X102632380Y-110461428D01*
%TO.C,H1*%
X143238095Y-58702380D02*
X143238095Y-57702380D01*
X143238095Y-58178571D02*
X143809523Y-58178571D01*
X143809523Y-58702380D02*
X143809523Y-57702380D01*
X144809523Y-58702380D02*
X144238095Y-58702380D01*
X144523809Y-58702380D02*
X144523809Y-57702380D01*
X144428571Y-57845238D01*
X144333333Y-57940476D01*
X144238095Y-57988095D01*
%TO.C,H2*%
X74238095Y-132952380D02*
X74238095Y-131952380D01*
X74238095Y-132428571D02*
X74809523Y-132428571D01*
X74809523Y-132952380D02*
X74809523Y-131952380D01*
X75238095Y-132047619D02*
X75285714Y-132000000D01*
X75380952Y-131952380D01*
X75619047Y-131952380D01*
X75714285Y-132000000D01*
X75761904Y-132047619D01*
X75809523Y-132142857D01*
X75809523Y-132238095D01*
X75761904Y-132380952D01*
X75190476Y-132952380D01*
X75809523Y-132952380D01*
%TO.C,H4*%
X149238095Y-132952380D02*
X149238095Y-131952380D01*
X149238095Y-132428571D02*
X149809523Y-132428571D01*
X149809523Y-132952380D02*
X149809523Y-131952380D01*
X150714285Y-132285714D02*
X150714285Y-132952380D01*
X150476190Y-131904761D02*
X150238095Y-132619047D01*
X150857142Y-132619047D01*
%TO.C,H3*%
X79738095Y-57952380D02*
X79738095Y-56952380D01*
X79738095Y-57428571D02*
X80309523Y-57428571D01*
X80309523Y-57952380D02*
X80309523Y-56952380D01*
X80690476Y-56952380D02*
X81309523Y-56952380D01*
X80976190Y-57333333D01*
X81119047Y-57333333D01*
X81214285Y-57380952D01*
X81261904Y-57428571D01*
X81309523Y-57523809D01*
X81309523Y-57761904D01*
X81261904Y-57857142D01*
X81214285Y-57904761D01*
X81119047Y-57952380D01*
X80833333Y-57952380D01*
X80738095Y-57904761D01*
X80690476Y-57857142D01*
%TO.C,C22*%
X143857142Y-98692857D02*
X143904761Y-98740476D01*
X143952380Y-98883333D01*
X143952380Y-98978571D01*
X143904761Y-99121428D01*
X143809523Y-99216666D01*
X143714285Y-99264285D01*
X143523809Y-99311904D01*
X143380952Y-99311904D01*
X143190476Y-99264285D01*
X143095238Y-99216666D01*
X143000000Y-99121428D01*
X142952380Y-98978571D01*
X142952380Y-98883333D01*
X143000000Y-98740476D01*
X143047619Y-98692857D01*
X143047619Y-98311904D02*
X143000000Y-98264285D01*
X142952380Y-98169047D01*
X142952380Y-97930952D01*
X143000000Y-97835714D01*
X143047619Y-97788095D01*
X143142857Y-97740476D01*
X143238095Y-97740476D01*
X143380952Y-97788095D01*
X143952380Y-98359523D01*
X143952380Y-97740476D01*
X143047619Y-97359523D02*
X143000000Y-97311904D01*
X142952380Y-97216666D01*
X142952380Y-96978571D01*
X143000000Y-96883333D01*
X143047619Y-96835714D01*
X143142857Y-96788095D01*
X143238095Y-96788095D01*
X143380952Y-96835714D01*
X143952380Y-97407142D01*
X143952380Y-96788095D01*
%TO.C,C23*%
X136657142Y-79357142D02*
X136609523Y-79404761D01*
X136466666Y-79452380D01*
X136371428Y-79452380D01*
X136228571Y-79404761D01*
X136133333Y-79309523D01*
X136085714Y-79214285D01*
X136038095Y-79023809D01*
X136038095Y-78880952D01*
X136085714Y-78690476D01*
X136133333Y-78595238D01*
X136228571Y-78500000D01*
X136371428Y-78452380D01*
X136466666Y-78452380D01*
X136609523Y-78500000D01*
X136657142Y-78547619D01*
X137038095Y-78547619D02*
X137085714Y-78500000D01*
X137180952Y-78452380D01*
X137419047Y-78452380D01*
X137514285Y-78500000D01*
X137561904Y-78547619D01*
X137609523Y-78642857D01*
X137609523Y-78738095D01*
X137561904Y-78880952D01*
X136990476Y-79452380D01*
X137609523Y-79452380D01*
X137942857Y-78452380D02*
X138561904Y-78452380D01*
X138228571Y-78833333D01*
X138371428Y-78833333D01*
X138466666Y-78880952D01*
X138514285Y-78928571D01*
X138561904Y-79023809D01*
X138561904Y-79261904D01*
X138514285Y-79357142D01*
X138466666Y-79404761D01*
X138371428Y-79452380D01*
X138085714Y-79452380D01*
X137990476Y-79404761D01*
X137942857Y-79357142D01*
%TO.C,C24*%
X111757142Y-71242857D02*
X111804761Y-71290476D01*
X111852380Y-71433333D01*
X111852380Y-71528571D01*
X111804761Y-71671428D01*
X111709523Y-71766666D01*
X111614285Y-71814285D01*
X111423809Y-71861904D01*
X111280952Y-71861904D01*
X111090476Y-71814285D01*
X110995238Y-71766666D01*
X110900000Y-71671428D01*
X110852380Y-71528571D01*
X110852380Y-71433333D01*
X110900000Y-71290476D01*
X110947619Y-71242857D01*
X110947619Y-70861904D02*
X110900000Y-70814285D01*
X110852380Y-70719047D01*
X110852380Y-70480952D01*
X110900000Y-70385714D01*
X110947619Y-70338095D01*
X111042857Y-70290476D01*
X111138095Y-70290476D01*
X111280952Y-70338095D01*
X111852380Y-70909523D01*
X111852380Y-70290476D01*
X111185714Y-69433333D02*
X111852380Y-69433333D01*
X110804761Y-69671428D02*
X111519047Y-69909523D01*
X111519047Y-69290476D01*
%TO.C,R9*%
X133333333Y-76452380D02*
X133000000Y-75976190D01*
X132761904Y-76452380D02*
X132761904Y-75452380D01*
X133142857Y-75452380D01*
X133238095Y-75500000D01*
X133285714Y-75547619D01*
X133333333Y-75642857D01*
X133333333Y-75785714D01*
X133285714Y-75880952D01*
X133238095Y-75928571D01*
X133142857Y-75976190D01*
X132761904Y-75976190D01*
X133809523Y-76452380D02*
X134000000Y-76452380D01*
X134095238Y-76404761D01*
X134142857Y-76357142D01*
X134238095Y-76214285D01*
X134285714Y-76023809D01*
X134285714Y-75642857D01*
X134238095Y-75547619D01*
X134190476Y-75500000D01*
X134095238Y-75452380D01*
X133904761Y-75452380D01*
X133809523Y-75500000D01*
X133761904Y-75547619D01*
X133714285Y-75642857D01*
X133714285Y-75880952D01*
X133761904Y-75976190D01*
X133809523Y-76023809D01*
X133904761Y-76071428D01*
X134095238Y-76071428D01*
X134190476Y-76023809D01*
X134238095Y-75976190D01*
X134285714Y-75880952D01*
%TO.C,J1*%
X77416666Y-61202380D02*
X77416666Y-61916666D01*
X77369047Y-62059523D01*
X77273809Y-62154761D01*
X77130952Y-62202380D01*
X77035714Y-62202380D01*
X78416666Y-62202380D02*
X77845238Y-62202380D01*
X78130952Y-62202380D02*
X78130952Y-61202380D01*
X78035714Y-61345238D01*
X77940476Y-61440476D01*
X77845238Y-61488095D01*
%TO.C,BUF1*%
X105042857Y-66928571D02*
X105185714Y-66976190D01*
X105233333Y-67023809D01*
X105280952Y-67119047D01*
X105280952Y-67261904D01*
X105233333Y-67357142D01*
X105185714Y-67404761D01*
X105090476Y-67452380D01*
X104709523Y-67452380D01*
X104709523Y-66452380D01*
X105042857Y-66452380D01*
X105138095Y-66500000D01*
X105185714Y-66547619D01*
X105233333Y-66642857D01*
X105233333Y-66738095D01*
X105185714Y-66833333D01*
X105138095Y-66880952D01*
X105042857Y-66928571D01*
X104709523Y-66928571D01*
X105709523Y-66452380D02*
X105709523Y-67261904D01*
X105757142Y-67357142D01*
X105804761Y-67404761D01*
X105900000Y-67452380D01*
X106090476Y-67452380D01*
X106185714Y-67404761D01*
X106233333Y-67357142D01*
X106280952Y-67261904D01*
X106280952Y-66452380D01*
X107090476Y-66928571D02*
X106757142Y-66928571D01*
X106757142Y-67452380D02*
X106757142Y-66452380D01*
X107233333Y-66452380D01*
X108138095Y-67452380D02*
X107566666Y-67452380D01*
X107852380Y-67452380D02*
X107852380Y-66452380D01*
X107757142Y-66595238D01*
X107661904Y-66690476D01*
X107566666Y-66738095D01*
%TO.C,BUF2*%
X146428571Y-104907142D02*
X146476190Y-104764285D01*
X146523809Y-104716666D01*
X146619047Y-104669047D01*
X146761904Y-104669047D01*
X146857142Y-104716666D01*
X146904761Y-104764285D01*
X146952380Y-104859523D01*
X146952380Y-105240476D01*
X145952380Y-105240476D01*
X145952380Y-104907142D01*
X146000000Y-104811904D01*
X146047619Y-104764285D01*
X146142857Y-104716666D01*
X146238095Y-104716666D01*
X146333333Y-104764285D01*
X146380952Y-104811904D01*
X146428571Y-104907142D01*
X146428571Y-105240476D01*
X145952380Y-104240476D02*
X146761904Y-104240476D01*
X146857142Y-104192857D01*
X146904761Y-104145238D01*
X146952380Y-104050000D01*
X146952380Y-103859523D01*
X146904761Y-103764285D01*
X146857142Y-103716666D01*
X146761904Y-103669047D01*
X145952380Y-103669047D01*
X146428571Y-102859523D02*
X146428571Y-103192857D01*
X146952380Y-103192857D02*
X145952380Y-103192857D01*
X145952380Y-102716666D01*
X146047619Y-102383333D02*
X146000000Y-102335714D01*
X145952380Y-102240476D01*
X145952380Y-102002380D01*
X146000000Y-101907142D01*
X146047619Y-101859523D01*
X146142857Y-101811904D01*
X146238095Y-101811904D01*
X146380952Y-101859523D01*
X146952380Y-102430952D01*
X146952380Y-101811904D01*
%TO.C,R4*%
X105970833Y-63632380D02*
X105637500Y-63156190D01*
X105399404Y-63632380D02*
X105399404Y-62632380D01*
X105780357Y-62632380D01*
X105875595Y-62680000D01*
X105923214Y-62727619D01*
X105970833Y-62822857D01*
X105970833Y-62965714D01*
X105923214Y-63060952D01*
X105875595Y-63108571D01*
X105780357Y-63156190D01*
X105399404Y-63156190D01*
X106827976Y-62965714D02*
X106827976Y-63632380D01*
X106589880Y-62584761D02*
X106351785Y-63299047D01*
X106970833Y-63299047D01*
%TO.C,R10*%
X115872380Y-73180357D02*
X115396190Y-73513690D01*
X115872380Y-73751785D02*
X114872380Y-73751785D01*
X114872380Y-73370833D01*
X114920000Y-73275595D01*
X114967619Y-73227976D01*
X115062857Y-73180357D01*
X115205714Y-73180357D01*
X115300952Y-73227976D01*
X115348571Y-73275595D01*
X115396190Y-73370833D01*
X115396190Y-73751785D01*
X115872380Y-72227976D02*
X115872380Y-72799404D01*
X115872380Y-72513690D02*
X114872380Y-72513690D01*
X115015238Y-72608928D01*
X115110476Y-72704166D01*
X115158095Y-72799404D01*
X114872380Y-71608928D02*
X114872380Y-71513690D01*
X114920000Y-71418452D01*
X114967619Y-71370833D01*
X115062857Y-71323214D01*
X115253333Y-71275595D01*
X115491428Y-71275595D01*
X115681904Y-71323214D01*
X115777142Y-71370833D01*
X115824761Y-71418452D01*
X115872380Y-71513690D01*
X115872380Y-71608928D01*
X115824761Y-71704166D01*
X115777142Y-71751785D01*
X115681904Y-71799404D01*
X115491428Y-71847023D01*
X115253333Y-71847023D01*
X115062857Y-71799404D01*
X114967619Y-71751785D01*
X114920000Y-71704166D01*
X114872380Y-71608928D01*
%TO.C,R18*%
X135452380Y-114180357D02*
X134976190Y-114513690D01*
X135452380Y-114751785D02*
X134452380Y-114751785D01*
X134452380Y-114370833D01*
X134500000Y-114275595D01*
X134547619Y-114227976D01*
X134642857Y-114180357D01*
X134785714Y-114180357D01*
X134880952Y-114227976D01*
X134928571Y-114275595D01*
X134976190Y-114370833D01*
X134976190Y-114751785D01*
X135452380Y-113227976D02*
X135452380Y-113799404D01*
X135452380Y-113513690D02*
X134452380Y-113513690D01*
X134595238Y-113608928D01*
X134690476Y-113704166D01*
X134738095Y-113799404D01*
X134880952Y-112656547D02*
X134833333Y-112751785D01*
X134785714Y-112799404D01*
X134690476Y-112847023D01*
X134642857Y-112847023D01*
X134547619Y-112799404D01*
X134500000Y-112751785D01*
X134452380Y-112656547D01*
X134452380Y-112466071D01*
X134500000Y-112370833D01*
X134547619Y-112323214D01*
X134642857Y-112275595D01*
X134690476Y-112275595D01*
X134785714Y-112323214D01*
X134833333Y-112370833D01*
X134880952Y-112466071D01*
X134880952Y-112656547D01*
X134928571Y-112751785D01*
X134976190Y-112799404D01*
X135071428Y-112847023D01*
X135261904Y-112847023D01*
X135357142Y-112799404D01*
X135404761Y-112751785D01*
X135452380Y-112656547D01*
X135452380Y-112466071D01*
X135404761Y-112370833D01*
X135357142Y-112323214D01*
X135261904Y-112275595D01*
X135071428Y-112275595D01*
X134976190Y-112323214D01*
X134928571Y-112370833D01*
X134880952Y-112466071D01*
%TO.C,R21*%
X142184642Y-108607380D02*
X141851309Y-108131190D01*
X141613214Y-108607380D02*
X141613214Y-107607380D01*
X141994166Y-107607380D01*
X142089404Y-107655000D01*
X142137023Y-107702619D01*
X142184642Y-107797857D01*
X142184642Y-107940714D01*
X142137023Y-108035952D01*
X142089404Y-108083571D01*
X141994166Y-108131190D01*
X141613214Y-108131190D01*
X142565595Y-107702619D02*
X142613214Y-107655000D01*
X142708452Y-107607380D01*
X142946547Y-107607380D01*
X143041785Y-107655000D01*
X143089404Y-107702619D01*
X143137023Y-107797857D01*
X143137023Y-107893095D01*
X143089404Y-108035952D01*
X142517976Y-108607380D01*
X143137023Y-108607380D01*
X144089404Y-108607380D02*
X143517976Y-108607380D01*
X143803690Y-108607380D02*
X143803690Y-107607380D01*
X143708452Y-107750238D01*
X143613214Y-107845476D01*
X143517976Y-107893095D01*
%TO.C,U2*%
X138952380Y-117261904D02*
X139761904Y-117261904D01*
X139857142Y-117214285D01*
X139904761Y-117166666D01*
X139952380Y-117071428D01*
X139952380Y-116880952D01*
X139904761Y-116785714D01*
X139857142Y-116738095D01*
X139761904Y-116690476D01*
X138952380Y-116690476D01*
X139047619Y-116261904D02*
X139000000Y-116214285D01*
X138952380Y-116119047D01*
X138952380Y-115880952D01*
X139000000Y-115785714D01*
X139047619Y-115738095D01*
X139142857Y-115690476D01*
X139238095Y-115690476D01*
X139380952Y-115738095D01*
X139952380Y-116309523D01*
X139952380Y-115690476D01*
%TO.C,C3*%
X143883333Y-124037142D02*
X143835714Y-124084761D01*
X143692857Y-124132380D01*
X143597619Y-124132380D01*
X143454761Y-124084761D01*
X143359523Y-123989523D01*
X143311904Y-123894285D01*
X143264285Y-123703809D01*
X143264285Y-123560952D01*
X143311904Y-123370476D01*
X143359523Y-123275238D01*
X143454761Y-123180000D01*
X143597619Y-123132380D01*
X143692857Y-123132380D01*
X143835714Y-123180000D01*
X143883333Y-123227619D01*
X144216666Y-123132380D02*
X144835714Y-123132380D01*
X144502380Y-123513333D01*
X144645238Y-123513333D01*
X144740476Y-123560952D01*
X144788095Y-123608571D01*
X144835714Y-123703809D01*
X144835714Y-123941904D01*
X144788095Y-124037142D01*
X144740476Y-124084761D01*
X144645238Y-124132380D01*
X144359523Y-124132380D01*
X144264285Y-124084761D01*
X144216666Y-124037142D01*
%TO.C,J11*%
X99740476Y-131302380D02*
X99740476Y-132016666D01*
X99692857Y-132159523D01*
X99597619Y-132254761D01*
X99454761Y-132302380D01*
X99359523Y-132302380D01*
X100740476Y-132302380D02*
X100169047Y-132302380D01*
X100454761Y-132302380D02*
X100454761Y-131302380D01*
X100359523Y-131445238D01*
X100264285Y-131540476D01*
X100169047Y-131588095D01*
X101692857Y-132302380D02*
X101121428Y-132302380D01*
X101407142Y-132302380D02*
X101407142Y-131302380D01*
X101311904Y-131445238D01*
X101216666Y-131540476D01*
X101121428Y-131588095D01*
%TO.C,C10*%
X132857142Y-138642857D02*
X132904761Y-138690476D01*
X132952380Y-138833333D01*
X132952380Y-138928571D01*
X132904761Y-139071428D01*
X132809523Y-139166666D01*
X132714285Y-139214285D01*
X132523809Y-139261904D01*
X132380952Y-139261904D01*
X132190476Y-139214285D01*
X132095238Y-139166666D01*
X132000000Y-139071428D01*
X131952380Y-138928571D01*
X131952380Y-138833333D01*
X132000000Y-138690476D01*
X132047619Y-138642857D01*
X132952380Y-137690476D02*
X132952380Y-138261904D01*
X132952380Y-137976190D02*
X131952380Y-137976190D01*
X132095238Y-138071428D01*
X132190476Y-138166666D01*
X132238095Y-138261904D01*
X131952380Y-137071428D02*
X131952380Y-136976190D01*
X132000000Y-136880952D01*
X132047619Y-136833333D01*
X132142857Y-136785714D01*
X132333333Y-136738095D01*
X132571428Y-136738095D01*
X132761904Y-136785714D01*
X132857142Y-136833333D01*
X132904761Y-136880952D01*
X132952380Y-136976190D01*
X132952380Y-137071428D01*
X132904761Y-137166666D01*
X132857142Y-137214285D01*
X132761904Y-137261904D01*
X132571428Y-137309523D01*
X132333333Y-137309523D01*
X132142857Y-137261904D01*
X132047619Y-137214285D01*
X132000000Y-137166666D01*
X131952380Y-137071428D01*
%TO.C,L2*%
X121583333Y-126952380D02*
X121107142Y-126952380D01*
X121107142Y-125952380D01*
X121869047Y-126047619D02*
X121916666Y-126000000D01*
X122011904Y-125952380D01*
X122250000Y-125952380D01*
X122345238Y-126000000D01*
X122392857Y-126047619D01*
X122440476Y-126142857D01*
X122440476Y-126238095D01*
X122392857Y-126380952D01*
X121821428Y-126952380D01*
X122440476Y-126952380D01*
%TO.C,Reg1*%
X112702380Y-121202380D02*
X112369047Y-120726190D01*
X112130952Y-121202380D02*
X112130952Y-120202380D01*
X112511904Y-120202380D01*
X112607142Y-120250000D01*
X112654761Y-120297619D01*
X112702380Y-120392857D01*
X112702380Y-120535714D01*
X112654761Y-120630952D01*
X112607142Y-120678571D01*
X112511904Y-120726190D01*
X112130952Y-120726190D01*
X113511904Y-121154761D02*
X113416666Y-121202380D01*
X113226190Y-121202380D01*
X113130952Y-121154761D01*
X113083333Y-121059523D01*
X113083333Y-120678571D01*
X113130952Y-120583333D01*
X113226190Y-120535714D01*
X113416666Y-120535714D01*
X113511904Y-120583333D01*
X113559523Y-120678571D01*
X113559523Y-120773809D01*
X113083333Y-120869047D01*
X114416666Y-120535714D02*
X114416666Y-121345238D01*
X114369047Y-121440476D01*
X114321428Y-121488095D01*
X114226190Y-121535714D01*
X114083333Y-121535714D01*
X113988095Y-121488095D01*
X114416666Y-121154761D02*
X114321428Y-121202380D01*
X114130952Y-121202380D01*
X114035714Y-121154761D01*
X113988095Y-121107142D01*
X113940476Y-121011904D01*
X113940476Y-120726190D01*
X113988095Y-120630952D01*
X114035714Y-120583333D01*
X114130952Y-120535714D01*
X114321428Y-120535714D01*
X114416666Y-120583333D01*
X115416666Y-121202380D02*
X114845238Y-121202380D01*
X115130952Y-121202380D02*
X115130952Y-120202380D01*
X115035714Y-120345238D01*
X114940476Y-120440476D01*
X114845238Y-120488095D01*
%TO.C,C8*%
X132857142Y-131666666D02*
X132904761Y-131714285D01*
X132952380Y-131857142D01*
X132952380Y-131952380D01*
X132904761Y-132095238D01*
X132809523Y-132190476D01*
X132714285Y-132238095D01*
X132523809Y-132285714D01*
X132380952Y-132285714D01*
X132190476Y-132238095D01*
X132095238Y-132190476D01*
X132000000Y-132095238D01*
X131952380Y-131952380D01*
X131952380Y-131857142D01*
X132000000Y-131714285D01*
X132047619Y-131666666D01*
X132380952Y-131095238D02*
X132333333Y-131190476D01*
X132285714Y-131238095D01*
X132190476Y-131285714D01*
X132142857Y-131285714D01*
X132047619Y-131238095D01*
X132000000Y-131190476D01*
X131952380Y-131095238D01*
X131952380Y-130904761D01*
X132000000Y-130809523D01*
X132047619Y-130761904D01*
X132142857Y-130714285D01*
X132190476Y-130714285D01*
X132285714Y-130761904D01*
X132333333Y-130809523D01*
X132380952Y-130904761D01*
X132380952Y-131095238D01*
X132428571Y-131190476D01*
X132476190Y-131238095D01*
X132571428Y-131285714D01*
X132761904Y-131285714D01*
X132857142Y-131238095D01*
X132904761Y-131190476D01*
X132952380Y-131095238D01*
X132952380Y-130904761D01*
X132904761Y-130809523D01*
X132857142Y-130761904D01*
X132761904Y-130714285D01*
X132571428Y-130714285D01*
X132476190Y-130761904D01*
X132428571Y-130809523D01*
X132380952Y-130904761D01*
%TO.C,L1*%
X121333333Y-135202380D02*
X120857142Y-135202380D01*
X120857142Y-134202380D01*
X122190476Y-135202380D02*
X121619047Y-135202380D01*
X121904761Y-135202380D02*
X121904761Y-134202380D01*
X121809523Y-134345238D01*
X121714285Y-134440476D01*
X121619047Y-134488095D01*
%TO.C,C18*%
X148357142Y-109142857D02*
X148404761Y-109190476D01*
X148452380Y-109333333D01*
X148452380Y-109428571D01*
X148404761Y-109571428D01*
X148309523Y-109666666D01*
X148214285Y-109714285D01*
X148023809Y-109761904D01*
X147880952Y-109761904D01*
X147690476Y-109714285D01*
X147595238Y-109666666D01*
X147500000Y-109571428D01*
X147452380Y-109428571D01*
X147452380Y-109333333D01*
X147500000Y-109190476D01*
X147547619Y-109142857D01*
X148452380Y-108190476D02*
X148452380Y-108761904D01*
X148452380Y-108476190D02*
X147452380Y-108476190D01*
X147595238Y-108571428D01*
X147690476Y-108666666D01*
X147738095Y-108761904D01*
X147880952Y-107619047D02*
X147833333Y-107714285D01*
X147785714Y-107761904D01*
X147690476Y-107809523D01*
X147642857Y-107809523D01*
X147547619Y-107761904D01*
X147500000Y-107714285D01*
X147452380Y-107619047D01*
X147452380Y-107428571D01*
X147500000Y-107333333D01*
X147547619Y-107285714D01*
X147642857Y-107238095D01*
X147690476Y-107238095D01*
X147785714Y-107285714D01*
X147833333Y-107333333D01*
X147880952Y-107428571D01*
X147880952Y-107619047D01*
X147928571Y-107714285D01*
X147976190Y-107761904D01*
X148071428Y-107809523D01*
X148261904Y-107809523D01*
X148357142Y-107761904D01*
X148404761Y-107714285D01*
X148452380Y-107619047D01*
X148452380Y-107428571D01*
X148404761Y-107333333D01*
X148357142Y-107285714D01*
X148261904Y-107238095D01*
X148071428Y-107238095D01*
X147976190Y-107285714D01*
X147928571Y-107333333D01*
X147880952Y-107428571D01*
%TO.C,R22*%
X87319642Y-70272380D02*
X86986309Y-69796190D01*
X86748214Y-70272380D02*
X86748214Y-69272380D01*
X87129166Y-69272380D01*
X87224404Y-69320000D01*
X87272023Y-69367619D01*
X87319642Y-69462857D01*
X87319642Y-69605714D01*
X87272023Y-69700952D01*
X87224404Y-69748571D01*
X87129166Y-69796190D01*
X86748214Y-69796190D01*
X87700595Y-69367619D02*
X87748214Y-69320000D01*
X87843452Y-69272380D01*
X88081547Y-69272380D01*
X88176785Y-69320000D01*
X88224404Y-69367619D01*
X88272023Y-69462857D01*
X88272023Y-69558095D01*
X88224404Y-69700952D01*
X87652976Y-70272380D01*
X88272023Y-70272380D01*
X88652976Y-69367619D02*
X88700595Y-69320000D01*
X88795833Y-69272380D01*
X89033928Y-69272380D01*
X89129166Y-69320000D01*
X89176785Y-69367619D01*
X89224404Y-69462857D01*
X89224404Y-69558095D01*
X89176785Y-69700952D01*
X88605357Y-70272380D01*
X89224404Y-70272380D01*
%TO.C,C16*%
X91607142Y-59992857D02*
X91654761Y-60040476D01*
X91702380Y-60183333D01*
X91702380Y-60278571D01*
X91654761Y-60421428D01*
X91559523Y-60516666D01*
X91464285Y-60564285D01*
X91273809Y-60611904D01*
X91130952Y-60611904D01*
X90940476Y-60564285D01*
X90845238Y-60516666D01*
X90750000Y-60421428D01*
X90702380Y-60278571D01*
X90702380Y-60183333D01*
X90750000Y-60040476D01*
X90797619Y-59992857D01*
X91702380Y-59040476D02*
X91702380Y-59611904D01*
X91702380Y-59326190D02*
X90702380Y-59326190D01*
X90845238Y-59421428D01*
X90940476Y-59516666D01*
X90988095Y-59611904D01*
X90702380Y-58183333D02*
X90702380Y-58373809D01*
X90750000Y-58469047D01*
X90797619Y-58516666D01*
X90940476Y-58611904D01*
X91130952Y-58659523D01*
X91511904Y-58659523D01*
X91607142Y-58611904D01*
X91654761Y-58564285D01*
X91702380Y-58469047D01*
X91702380Y-58278571D01*
X91654761Y-58183333D01*
X91607142Y-58135714D01*
X91511904Y-58088095D01*
X91273809Y-58088095D01*
X91178571Y-58135714D01*
X91130952Y-58183333D01*
X91083333Y-58278571D01*
X91083333Y-58469047D01*
X91130952Y-58564285D01*
X91178571Y-58611904D01*
X91273809Y-58659523D01*
%TO.C,J16*%
X94685476Y-77597380D02*
X94685476Y-78311666D01*
X94637857Y-78454523D01*
X94542619Y-78549761D01*
X94399761Y-78597380D01*
X94304523Y-78597380D01*
X95685476Y-78597380D02*
X95114047Y-78597380D01*
X95399761Y-78597380D02*
X95399761Y-77597380D01*
X95304523Y-77740238D01*
X95209285Y-77835476D01*
X95114047Y-77883095D01*
X96542619Y-77597380D02*
X96352142Y-77597380D01*
X96256904Y-77645000D01*
X96209285Y-77692619D01*
X96114047Y-77835476D01*
X96066428Y-78025952D01*
X96066428Y-78406904D01*
X96114047Y-78502142D01*
X96161666Y-78549761D01*
X96256904Y-78597380D01*
X96447380Y-78597380D01*
X96542619Y-78549761D01*
X96590238Y-78502142D01*
X96637857Y-78406904D01*
X96637857Y-78168809D01*
X96590238Y-78073571D01*
X96542619Y-78025952D01*
X96447380Y-77978333D01*
X96256904Y-77978333D01*
X96161666Y-78025952D01*
X96114047Y-78073571D01*
X96066428Y-78168809D01*
%TO.C,R24*%
X132357142Y-73952380D02*
X132023809Y-73476190D01*
X131785714Y-73952380D02*
X131785714Y-72952380D01*
X132166666Y-72952380D01*
X132261904Y-73000000D01*
X132309523Y-73047619D01*
X132357142Y-73142857D01*
X132357142Y-73285714D01*
X132309523Y-73380952D01*
X132261904Y-73428571D01*
X132166666Y-73476190D01*
X131785714Y-73476190D01*
X132738095Y-73047619D02*
X132785714Y-73000000D01*
X132880952Y-72952380D01*
X133119047Y-72952380D01*
X133214285Y-73000000D01*
X133261904Y-73047619D01*
X133309523Y-73142857D01*
X133309523Y-73238095D01*
X133261904Y-73380952D01*
X132690476Y-73952380D01*
X133309523Y-73952380D01*
X134166666Y-73285714D02*
X134166666Y-73952380D01*
X133928571Y-72904761D02*
X133690476Y-73619047D01*
X134309523Y-73619047D01*
%TO.C,R17*%
X147452380Y-117680357D02*
X146976190Y-118013690D01*
X147452380Y-118251785D02*
X146452380Y-118251785D01*
X146452380Y-117870833D01*
X146500000Y-117775595D01*
X146547619Y-117727976D01*
X146642857Y-117680357D01*
X146785714Y-117680357D01*
X146880952Y-117727976D01*
X146928571Y-117775595D01*
X146976190Y-117870833D01*
X146976190Y-118251785D01*
X147452380Y-116727976D02*
X147452380Y-117299404D01*
X147452380Y-117013690D02*
X146452380Y-117013690D01*
X146595238Y-117108928D01*
X146690476Y-117204166D01*
X146738095Y-117299404D01*
X146452380Y-116394642D02*
X146452380Y-115727976D01*
X147452380Y-116156547D01*
%TO.C,R23*%
X122357142Y-77132380D02*
X122023809Y-76656190D01*
X121785714Y-77132380D02*
X121785714Y-76132380D01*
X122166666Y-76132380D01*
X122261904Y-76180000D01*
X122309523Y-76227619D01*
X122357142Y-76322857D01*
X122357142Y-76465714D01*
X122309523Y-76560952D01*
X122261904Y-76608571D01*
X122166666Y-76656190D01*
X121785714Y-76656190D01*
X122738095Y-76227619D02*
X122785714Y-76180000D01*
X122880952Y-76132380D01*
X123119047Y-76132380D01*
X123214285Y-76180000D01*
X123261904Y-76227619D01*
X123309523Y-76322857D01*
X123309523Y-76418095D01*
X123261904Y-76560952D01*
X122690476Y-77132380D01*
X123309523Y-77132380D01*
X123642857Y-76132380D02*
X124261904Y-76132380D01*
X123928571Y-76513333D01*
X124071428Y-76513333D01*
X124166666Y-76560952D01*
X124214285Y-76608571D01*
X124261904Y-76703809D01*
X124261904Y-76941904D01*
X124214285Y-77037142D01*
X124166666Y-77084761D01*
X124071428Y-77132380D01*
X123785714Y-77132380D01*
X123690476Y-77084761D01*
X123642857Y-77037142D01*
%TO.C,J15*%
X91690476Y-61452380D02*
X91690476Y-62166666D01*
X91642857Y-62309523D01*
X91547619Y-62404761D01*
X91404761Y-62452380D01*
X91309523Y-62452380D01*
X92690476Y-62452380D02*
X92119047Y-62452380D01*
X92404761Y-62452380D02*
X92404761Y-61452380D01*
X92309523Y-61595238D01*
X92214285Y-61690476D01*
X92119047Y-61738095D01*
X93595238Y-61452380D02*
X93119047Y-61452380D01*
X93071428Y-61928571D01*
X93119047Y-61880952D01*
X93214285Y-61833333D01*
X93452380Y-61833333D01*
X93547619Y-61880952D01*
X93595238Y-61928571D01*
X93642857Y-62023809D01*
X93642857Y-62261904D01*
X93595238Y-62357142D01*
X93547619Y-62404761D01*
X93452380Y-62452380D01*
X93214285Y-62452380D01*
X93119047Y-62404761D01*
X93071428Y-62357142D01*
%TO.C,C15*%
X85677142Y-59942857D02*
X85724761Y-59990476D01*
X85772380Y-60133333D01*
X85772380Y-60228571D01*
X85724761Y-60371428D01*
X85629523Y-60466666D01*
X85534285Y-60514285D01*
X85343809Y-60561904D01*
X85200952Y-60561904D01*
X85010476Y-60514285D01*
X84915238Y-60466666D01*
X84820000Y-60371428D01*
X84772380Y-60228571D01*
X84772380Y-60133333D01*
X84820000Y-59990476D01*
X84867619Y-59942857D01*
X85772380Y-58990476D02*
X85772380Y-59561904D01*
X85772380Y-59276190D02*
X84772380Y-59276190D01*
X84915238Y-59371428D01*
X85010476Y-59466666D01*
X85058095Y-59561904D01*
X84772380Y-58085714D02*
X84772380Y-58561904D01*
X85248571Y-58609523D01*
X85200952Y-58561904D01*
X85153333Y-58466666D01*
X85153333Y-58228571D01*
X85200952Y-58133333D01*
X85248571Y-58085714D01*
X85343809Y-58038095D01*
X85581904Y-58038095D01*
X85677142Y-58085714D01*
X85724761Y-58133333D01*
X85772380Y-58228571D01*
X85772380Y-58466666D01*
X85724761Y-58561904D01*
X85677142Y-58609523D01*
%TO.C,C25*%
X92857142Y-86892857D02*
X92904761Y-86940476D01*
X92952380Y-87083333D01*
X92952380Y-87178571D01*
X92904761Y-87321428D01*
X92809523Y-87416666D01*
X92714285Y-87464285D01*
X92523809Y-87511904D01*
X92380952Y-87511904D01*
X92190476Y-87464285D01*
X92095238Y-87416666D01*
X92000000Y-87321428D01*
X91952380Y-87178571D01*
X91952380Y-87083333D01*
X92000000Y-86940476D01*
X92047619Y-86892857D01*
X92047619Y-86511904D02*
X92000000Y-86464285D01*
X91952380Y-86369047D01*
X91952380Y-86130952D01*
X92000000Y-86035714D01*
X92047619Y-85988095D01*
X92142857Y-85940476D01*
X92238095Y-85940476D01*
X92380952Y-85988095D01*
X92952380Y-86559523D01*
X92952380Y-85940476D01*
X91952380Y-85035714D02*
X91952380Y-85511904D01*
X92428571Y-85559523D01*
X92380952Y-85511904D01*
X92333333Y-85416666D01*
X92333333Y-85178571D01*
X92380952Y-85083333D01*
X92428571Y-85035714D01*
X92523809Y-84988095D01*
X92761904Y-84988095D01*
X92857142Y-85035714D01*
X92904761Y-85083333D01*
X92952380Y-85178571D01*
X92952380Y-85416666D01*
X92904761Y-85511904D01*
X92857142Y-85559523D01*
%TO.C,R14*%
X137952380Y-114180357D02*
X137476190Y-114513690D01*
X137952380Y-114751785D02*
X136952380Y-114751785D01*
X136952380Y-114370833D01*
X137000000Y-114275595D01*
X137047619Y-114227976D01*
X137142857Y-114180357D01*
X137285714Y-114180357D01*
X137380952Y-114227976D01*
X137428571Y-114275595D01*
X137476190Y-114370833D01*
X137476190Y-114751785D01*
X137952380Y-113227976D02*
X137952380Y-113799404D01*
X137952380Y-113513690D02*
X136952380Y-113513690D01*
X137095238Y-113608928D01*
X137190476Y-113704166D01*
X137238095Y-113799404D01*
X137285714Y-112370833D02*
X137952380Y-112370833D01*
X136904761Y-112608928D02*
X137619047Y-112847023D01*
X137619047Y-112227976D01*
%TO.C,J13*%
X129960476Y-99452380D02*
X129960476Y-100166666D01*
X129912857Y-100309523D01*
X129817619Y-100404761D01*
X129674761Y-100452380D01*
X129579523Y-100452380D01*
X130960476Y-100452380D02*
X130389047Y-100452380D01*
X130674761Y-100452380D02*
X130674761Y-99452380D01*
X130579523Y-99595238D01*
X130484285Y-99690476D01*
X130389047Y-99738095D01*
X131293809Y-99452380D02*
X131912857Y-99452380D01*
X131579523Y-99833333D01*
X131722380Y-99833333D01*
X131817619Y-99880952D01*
X131865238Y-99928571D01*
X131912857Y-100023809D01*
X131912857Y-100261904D01*
X131865238Y-100357142D01*
X131817619Y-100404761D01*
X131722380Y-100452380D01*
X131436666Y-100452380D01*
X131341428Y-100404761D01*
X131293809Y-100357142D01*
%TO.C,J10*%
X114402380Y-114354523D02*
X115116666Y-114354523D01*
X115259523Y-114402142D01*
X115354761Y-114497380D01*
X115402380Y-114640238D01*
X115402380Y-114735476D01*
X115402380Y-113354523D02*
X115402380Y-113925952D01*
X115402380Y-113640238D02*
X114402380Y-113640238D01*
X114545238Y-113735476D01*
X114640476Y-113830714D01*
X114688095Y-113925952D01*
X114402380Y-112735476D02*
X114402380Y-112640238D01*
X114450000Y-112545000D01*
X114497619Y-112497380D01*
X114592857Y-112449761D01*
X114783333Y-112402142D01*
X115021428Y-112402142D01*
X115211904Y-112449761D01*
X115307142Y-112497380D01*
X115354761Y-112545000D01*
X115402380Y-112640238D01*
X115402380Y-112735476D01*
X115354761Y-112830714D01*
X115307142Y-112878333D01*
X115211904Y-112925952D01*
X115021428Y-112973571D01*
X114783333Y-112973571D01*
X114592857Y-112925952D01*
X114497619Y-112878333D01*
X114450000Y-112830714D01*
X114402380Y-112735476D01*
%TO.C,J3*%
X77416666Y-97702380D02*
X77416666Y-98416666D01*
X77369047Y-98559523D01*
X77273809Y-98654761D01*
X77130952Y-98702380D01*
X77035714Y-98702380D01*
X77797619Y-97702380D02*
X78416666Y-97702380D01*
X78083333Y-98083333D01*
X78226190Y-98083333D01*
X78321428Y-98130952D01*
X78369047Y-98178571D01*
X78416666Y-98273809D01*
X78416666Y-98511904D01*
X78369047Y-98607142D01*
X78321428Y-98654761D01*
X78226190Y-98702380D01*
X77940476Y-98702380D01*
X77845238Y-98654761D01*
X77797619Y-98607142D01*
%TO.C,R15*%
X99394642Y-68632380D02*
X99061309Y-68156190D01*
X98823214Y-68632380D02*
X98823214Y-67632380D01*
X99204166Y-67632380D01*
X99299404Y-67680000D01*
X99347023Y-67727619D01*
X99394642Y-67822857D01*
X99394642Y-67965714D01*
X99347023Y-68060952D01*
X99299404Y-68108571D01*
X99204166Y-68156190D01*
X98823214Y-68156190D01*
X100347023Y-68632380D02*
X99775595Y-68632380D01*
X100061309Y-68632380D02*
X100061309Y-67632380D01*
X99966071Y-67775238D01*
X99870833Y-67870476D01*
X99775595Y-67918095D01*
X101251785Y-67632380D02*
X100775595Y-67632380D01*
X100727976Y-68108571D01*
X100775595Y-68060952D01*
X100870833Y-68013333D01*
X101108928Y-68013333D01*
X101204166Y-68060952D01*
X101251785Y-68108571D01*
X101299404Y-68203809D01*
X101299404Y-68441904D01*
X101251785Y-68537142D01*
X101204166Y-68584761D01*
X101108928Y-68632380D01*
X100870833Y-68632380D01*
X100775595Y-68584761D01*
X100727976Y-68537142D01*
%TO.C,J17*%
X141690476Y-77952380D02*
X141690476Y-78666666D01*
X141642857Y-78809523D01*
X141547619Y-78904761D01*
X141404761Y-78952380D01*
X141309523Y-78952380D01*
X142690476Y-78952380D02*
X142119047Y-78952380D01*
X142404761Y-78952380D02*
X142404761Y-77952380D01*
X142309523Y-78095238D01*
X142214285Y-78190476D01*
X142119047Y-78238095D01*
X143023809Y-77952380D02*
X143690476Y-77952380D01*
X143261904Y-78952380D01*
%TO.C,J12*%
X125690476Y-93452380D02*
X125690476Y-94166666D01*
X125642857Y-94309523D01*
X125547619Y-94404761D01*
X125404761Y-94452380D01*
X125309523Y-94452380D01*
X126690476Y-94452380D02*
X126119047Y-94452380D01*
X126404761Y-94452380D02*
X126404761Y-93452380D01*
X126309523Y-93595238D01*
X126214285Y-93690476D01*
X126119047Y-93738095D01*
X127071428Y-93547619D02*
X127119047Y-93500000D01*
X127214285Y-93452380D01*
X127452380Y-93452380D01*
X127547619Y-93500000D01*
X127595238Y-93547619D01*
X127642857Y-93642857D01*
X127642857Y-93738095D01*
X127595238Y-93880952D01*
X127023809Y-94452380D01*
X127642857Y-94452380D01*
%TO.C,R11*%
X127807142Y-113002380D02*
X127473809Y-112526190D01*
X127235714Y-113002380D02*
X127235714Y-112002380D01*
X127616666Y-112002380D01*
X127711904Y-112050000D01*
X127759523Y-112097619D01*
X127807142Y-112192857D01*
X127807142Y-112335714D01*
X127759523Y-112430952D01*
X127711904Y-112478571D01*
X127616666Y-112526190D01*
X127235714Y-112526190D01*
X128759523Y-113002380D02*
X128188095Y-113002380D01*
X128473809Y-113002380D02*
X128473809Y-112002380D01*
X128378571Y-112145238D01*
X128283333Y-112240476D01*
X128188095Y-112288095D01*
X129711904Y-113002380D02*
X129140476Y-113002380D01*
X129426190Y-113002380D02*
X129426190Y-112002380D01*
X129330952Y-112145238D01*
X129235714Y-112240476D01*
X129140476Y-112288095D01*
%TO.C,R12*%
X139357142Y-94452380D02*
X139023809Y-93976190D01*
X138785714Y-94452380D02*
X138785714Y-93452380D01*
X139166666Y-93452380D01*
X139261904Y-93500000D01*
X139309523Y-93547619D01*
X139357142Y-93642857D01*
X139357142Y-93785714D01*
X139309523Y-93880952D01*
X139261904Y-93928571D01*
X139166666Y-93976190D01*
X138785714Y-93976190D01*
X140309523Y-94452380D02*
X139738095Y-94452380D01*
X140023809Y-94452380D02*
X140023809Y-93452380D01*
X139928571Y-93595238D01*
X139833333Y-93690476D01*
X139738095Y-93738095D01*
X140690476Y-93547619D02*
X140738095Y-93500000D01*
X140833333Y-93452380D01*
X141071428Y-93452380D01*
X141166666Y-93500000D01*
X141214285Y-93547619D01*
X141261904Y-93642857D01*
X141261904Y-93738095D01*
X141214285Y-93880952D01*
X140642857Y-94452380D01*
X141261904Y-94452380D01*
%TO.C,J14*%
X135695476Y-99717380D02*
X135695476Y-100431666D01*
X135647857Y-100574523D01*
X135552619Y-100669761D01*
X135409761Y-100717380D01*
X135314523Y-100717380D01*
X136695476Y-100717380D02*
X136124047Y-100717380D01*
X136409761Y-100717380D02*
X136409761Y-99717380D01*
X136314523Y-99860238D01*
X136219285Y-99955476D01*
X136124047Y-100003095D01*
X137552619Y-100050714D02*
X137552619Y-100717380D01*
X137314523Y-99669761D02*
X137076428Y-100384047D01*
X137695476Y-100384047D01*
D10*
%TO.C,J2*%
X82938589Y-87837663D02*
G75*
G03*
X82925000Y-84375000I-4763588J1712664D01*
G01*
X76462337Y-90888589D02*
G75*
G03*
X79925000Y-90875000I1712664J4763588D01*
G01*
X79887663Y-81361411D02*
G75*
G03*
X76425000Y-81375000I-1712664J-4763588D01*
G01*
X73411411Y-84412337D02*
G75*
G03*
X73425000Y-87875000I4763588J-1712664D01*
G01*
%TO.C,J6*%
X147455456Y-72328602D02*
G75*
G03*
X148364786Y-75669761I5044543J-421399D01*
G01*
X157544544Y-73171398D02*
G75*
G03*
X156635214Y-69830239I-5044543J421399D01*
G01*
X152921398Y-67705456D02*
G75*
G03*
X149580239Y-68614786I-421399J-5044543D01*
G01*
X152078602Y-77794544D02*
G75*
G03*
X155419761Y-76885214I421399J5044543D01*
G01*
%TO.C,J7*%
X157658004Y-121887213D02*
G75*
G03*
X158541081Y-118539020I-4158003J2887214D01*
G01*
X149341996Y-116112787D02*
G75*
G03*
X148458919Y-119460980I4158003J-2887214D01*
G01*
X150612787Y-123158004D02*
G75*
G03*
X153960980Y-124041081I2887214J4158003D01*
G01*
X156387213Y-114841996D02*
G75*
G03*
X153039020Y-113958919I-2887214J-4158003D01*
G01*
%TO.C,R5*%
X88727064Y-105410000D02*
X87272936Y-105410000D01*
X88727064Y-103590000D02*
X87272936Y-103590000D01*
%TO.C,R6*%
X88727064Y-85090000D02*
X87272936Y-85090000D01*
X88727064Y-86910000D02*
X87272936Y-86910000D01*
%TO.C,R7*%
X123722936Y-115960000D02*
X125177064Y-115960000D01*
X123722936Y-114140000D02*
X125177064Y-114140000D01*
%TO.C,R8*%
X136727064Y-97410000D02*
X135272936Y-97410000D01*
X136727064Y-95590000D02*
X135272936Y-95590000D01*
%TO.C,U3*%
X120490000Y-99350000D02*
X120490000Y-109630000D01*
X124140000Y-109630000D02*
X125790000Y-109630000D01*
X125790000Y-99350000D02*
X120490000Y-99350000D01*
X120490000Y-109630000D02*
X122140000Y-109630000D01*
X125790000Y-109630000D02*
X125790000Y-99350000D01*
X124140000Y-109630000D02*
G75*
G03*
X122140000Y-109630000I-1000000J0D01*
G01*
%TO.C,J5*%
X151021127Y-101641041D02*
G75*
G03*
X150552674Y-105071897I4478872J-2358960D01*
G01*
X157858959Y-99521127D02*
G75*
G03*
X154428103Y-99052674I-2358960J-4478872D01*
G01*
X159978873Y-106358959D02*
G75*
G03*
X160447326Y-102928103I-4478872J2358960D01*
G01*
X153141041Y-108478873D02*
G75*
G03*
X156571897Y-108947326I2358960J4478872D01*
G01*
%TO.C,J4*%
X154291968Y-92955586D02*
G75*
G03*
X157719041Y-92460220I1033033J4955585D01*
G01*
X160280586Y-89033032D02*
G75*
G03*
X159785220Y-85605959I-4955585J1033033D01*
G01*
X156358032Y-83044414D02*
G75*
G03*
X152930959Y-83539780I-1033033J-4955585D01*
G01*
X150369414Y-86966968D02*
G75*
G03*
X150864780Y-90394041I4955585J-1033033D01*
G01*
%TO.C,U4*%
X135690000Y-92580000D02*
X137340000Y-92580000D01*
X137340000Y-92580000D02*
X137340000Y-82300000D01*
X132040000Y-92580000D02*
X133690000Y-92580000D01*
X132040000Y-82300000D02*
X132040000Y-92580000D01*
X137340000Y-82300000D02*
X132040000Y-82300000D01*
X135690000Y-92580000D02*
G75*
G03*
X133690000Y-92580000I-1000000J0D01*
G01*
%TO.C,C4*%
X96200000Y-124427000D02*
X96200000Y-125960000D01*
X97121000Y-128040000D02*
X97121000Y-129329000D01*
X96000000Y-124420000D02*
X96000000Y-125960000D01*
X97321000Y-124776000D02*
X97321000Y-125960000D01*
X97441000Y-124851000D02*
X97441000Y-125960000D01*
X96320000Y-124439000D02*
X96320000Y-125960000D01*
X97201000Y-128040000D02*
X97201000Y-129290000D01*
X93445225Y-125275000D02*
X93445225Y-125775000D01*
X97761000Y-125099000D02*
X97761000Y-125960000D01*
X96801000Y-124545000D02*
X96801000Y-125960000D01*
X97241000Y-124732000D02*
X97241000Y-125960000D01*
X97921000Y-128040000D02*
X97921000Y-128743000D01*
X96440000Y-128040000D02*
X96440000Y-129543000D01*
X96120000Y-128040000D02*
X96120000Y-129578000D01*
X96600000Y-128040000D02*
X96600000Y-129511000D01*
X96801000Y-128040000D02*
X96801000Y-129455000D01*
X97521000Y-128040000D02*
X97521000Y-129095000D01*
X98201000Y-125617000D02*
X98201000Y-128383000D01*
X96841000Y-124558000D02*
X96841000Y-125960000D01*
X97161000Y-124690000D02*
X97161000Y-125960000D01*
X96961000Y-128040000D02*
X96961000Y-129398000D01*
X98361000Y-125902000D02*
X98361000Y-128098000D01*
X98521000Y-126323000D02*
X98521000Y-127677000D01*
X97241000Y-128040000D02*
X97241000Y-129268000D01*
X96640000Y-128040000D02*
X96640000Y-129501000D01*
X97481000Y-124878000D02*
X97481000Y-125960000D01*
X97841000Y-128040000D02*
X97841000Y-128826000D01*
X97041000Y-128040000D02*
X97041000Y-129365000D01*
X93195225Y-125525000D02*
X93695225Y-125525000D01*
X97601000Y-124965000D02*
X97601000Y-125960000D01*
X98481000Y-126195000D02*
X98481000Y-127805000D01*
X97561000Y-128040000D02*
X97561000Y-129065000D01*
X97281000Y-128040000D02*
X97281000Y-129247000D01*
X96040000Y-128040000D02*
X96040000Y-129580000D01*
X96160000Y-128040000D02*
X96160000Y-129576000D01*
X96000000Y-128040000D02*
X96000000Y-129580000D01*
X96640000Y-124499000D02*
X96640000Y-125960000D01*
X96921000Y-128040000D02*
X96921000Y-129414000D01*
X97841000Y-125174000D02*
X97841000Y-125960000D01*
X96721000Y-124520000D02*
X96721000Y-125960000D01*
X96961000Y-124602000D02*
X96961000Y-125960000D01*
X98561000Y-126482000D02*
X98561000Y-127518000D01*
X96080000Y-124421000D02*
X96080000Y-125960000D01*
X97361000Y-128040000D02*
X97361000Y-129200000D01*
X97561000Y-124935000D02*
X97561000Y-125960000D01*
X97681000Y-125029000D02*
X97681000Y-125960000D01*
X96400000Y-124450000D02*
X96400000Y-125960000D01*
X97081000Y-124652000D02*
X97081000Y-125960000D01*
X97361000Y-124800000D02*
X97361000Y-125960000D01*
X97801000Y-125136000D02*
X97801000Y-125960000D01*
X96680000Y-124509000D02*
X96680000Y-125960000D01*
X97001000Y-124618000D02*
X97001000Y-125960000D01*
X96761000Y-124532000D02*
X96761000Y-125960000D01*
X98441000Y-126085000D02*
X98441000Y-127915000D01*
X96280000Y-124435000D02*
X96280000Y-125960000D01*
X96440000Y-124457000D02*
X96440000Y-125960000D01*
X96520000Y-124472000D02*
X96520000Y-125960000D01*
X98161000Y-125557000D02*
X98161000Y-128443000D01*
X96881000Y-128040000D02*
X96881000Y-129428000D01*
X96240000Y-124431000D02*
X96240000Y-125960000D01*
X98241000Y-125681000D02*
X98241000Y-128319000D01*
X97681000Y-128040000D02*
X97681000Y-128971000D01*
X97721000Y-128040000D02*
X97721000Y-128937000D01*
X97641000Y-124996000D02*
X97641000Y-125960000D01*
X97961000Y-125301000D02*
X97961000Y-125960000D01*
X98001000Y-125347000D02*
X98001000Y-125960000D01*
X97281000Y-124753000D02*
X97281000Y-125960000D01*
X96921000Y-124586000D02*
X96921000Y-125960000D01*
X96120000Y-124422000D02*
X96120000Y-125960000D01*
X97441000Y-128040000D02*
X97441000Y-129149000D01*
X96240000Y-128040000D02*
X96240000Y-129569000D01*
X98401000Y-125989000D02*
X98401000Y-128011000D01*
X97081000Y-128040000D02*
X97081000Y-129348000D01*
X98321000Y-125822000D02*
X98321000Y-128178000D01*
X96320000Y-128040000D02*
X96320000Y-129561000D01*
X97641000Y-128040000D02*
X97641000Y-129004000D01*
X97321000Y-128040000D02*
X97321000Y-129224000D01*
X97881000Y-128040000D02*
X97881000Y-128785000D01*
X96881000Y-124572000D02*
X96881000Y-125960000D01*
X97401000Y-128040000D02*
X97401000Y-129175000D01*
X96560000Y-128040000D02*
X96560000Y-129520000D01*
X96160000Y-124424000D02*
X96160000Y-125960000D01*
X98081000Y-125446000D02*
X98081000Y-128554000D01*
X97721000Y-125063000D02*
X97721000Y-125960000D01*
X98121000Y-125500000D02*
X98121000Y-128500000D01*
X97161000Y-128040000D02*
X97161000Y-129310000D01*
X96280000Y-128040000D02*
X96280000Y-129565000D01*
X96360000Y-124444000D02*
X96360000Y-125960000D01*
X97001000Y-128040000D02*
X97001000Y-129382000D01*
X96400000Y-128040000D02*
X96400000Y-129550000D01*
X96721000Y-128040000D02*
X96721000Y-129480000D01*
X97881000Y-125215000D02*
X97881000Y-125960000D01*
X96080000Y-128040000D02*
X96080000Y-129579000D01*
X97801000Y-128040000D02*
X97801000Y-128864000D01*
X96841000Y-128040000D02*
X96841000Y-129442000D01*
X97761000Y-128040000D02*
X97761000Y-128901000D01*
X97401000Y-124825000D02*
X97401000Y-125960000D01*
X96200000Y-128040000D02*
X96200000Y-129573000D01*
X96680000Y-128040000D02*
X96680000Y-129491000D01*
X96560000Y-124480000D02*
X96560000Y-125960000D01*
X97041000Y-124635000D02*
X97041000Y-125960000D01*
X97481000Y-128040000D02*
X97481000Y-129122000D01*
X98281000Y-125749000D02*
X98281000Y-128251000D01*
X98041000Y-125395000D02*
X98041000Y-128605000D01*
X96480000Y-124464000D02*
X96480000Y-125960000D01*
X98001000Y-128040000D02*
X98001000Y-128653000D01*
X97921000Y-125257000D02*
X97921000Y-125960000D01*
X96761000Y-128040000D02*
X96761000Y-129468000D01*
X97121000Y-124671000D02*
X97121000Y-125960000D01*
X96480000Y-128040000D02*
X96480000Y-129536000D01*
X97961000Y-128040000D02*
X97961000Y-128699000D01*
X96520000Y-128040000D02*
X96520000Y-129528000D01*
X96040000Y-124420000D02*
X96040000Y-125960000D01*
X97521000Y-124905000D02*
X97521000Y-125960000D01*
X96600000Y-124489000D02*
X96600000Y-125960000D01*
X96360000Y-128040000D02*
X96360000Y-129556000D01*
X97201000Y-124710000D02*
X97201000Y-125960000D01*
X97601000Y-128040000D02*
X97601000Y-129035000D01*
X98601000Y-126716000D02*
X98601000Y-127284000D01*
X98620000Y-127000000D02*
G75*
G03*
X98620000Y-127000000I-2620000J0D01*
G01*
%TO.C,C5*%
X89715000Y-124788748D02*
X89715000Y-125311252D01*
X91185000Y-124788748D02*
X91185000Y-125311252D01*
%TO.C,D1*%
X99900000Y-121150000D02*
X94500000Y-121150000D01*
X99900000Y-117850000D02*
X94500000Y-117850000D01*
X99900000Y-121150000D02*
X99900000Y-117850000D01*
%TO.C,D2*%
X87100000Y-123150000D02*
X83800000Y-123150000D01*
X83800000Y-123150000D02*
X83800000Y-128550000D01*
X87100000Y-123150000D02*
X87100000Y-128550000D01*
%TO.C,FB1*%
X89639564Y-118765000D02*
X89185436Y-118765000D01*
X89639564Y-120235000D02*
X89185436Y-120235000D01*
%TO.C,J8*%
X69700000Y-113400000D02*
X84400000Y-113400000D01*
X84600000Y-114250000D02*
X84600000Y-113200000D01*
X84400000Y-113400000D02*
X84400000Y-116000000D01*
X84400000Y-122600000D02*
X82500000Y-122600000D01*
X78500000Y-122600000D02*
X69700000Y-122600000D01*
X69700000Y-122600000D02*
X69700000Y-113400000D01*
X83550000Y-113200000D02*
X84600000Y-113200000D01*
X84400000Y-119900000D02*
X84400000Y-122600000D01*
D11*
%TO.C,J9*%
X84325000Y-135725000D02*
X84325000Y-136150000D01*
X81975000Y-137900000D02*
X81975000Y-139300000D01*
X85050000Y-135725000D02*
X84325000Y-135725000D01*
X87925000Y-136150000D02*
X88925000Y-136150000D01*
X81975000Y-141850000D02*
X82275000Y-141850000D01*
X84325000Y-136150000D02*
X83325000Y-136150000D01*
X90275000Y-141850000D02*
X90275000Y-141700000D01*
X89975000Y-141850000D02*
X90275000Y-141850000D01*
X90275000Y-139300000D02*
X90275000Y-137900000D01*
X89975000Y-142300000D02*
X89975000Y-141850000D01*
X81975000Y-141700000D02*
X81975000Y-141850000D01*
X82275000Y-141850000D02*
X82275000Y-142300000D01*
D10*
%TO.C,C6*%
X103961000Y-128040000D02*
X103961000Y-129398000D01*
X103080000Y-124421000D02*
X103080000Y-125960000D01*
X104881000Y-128040000D02*
X104881000Y-128785000D01*
X103040000Y-128040000D02*
X103040000Y-129580000D01*
X104241000Y-124732000D02*
X104241000Y-125960000D01*
X103721000Y-124520000D02*
X103721000Y-125960000D01*
X105001000Y-125347000D02*
X105001000Y-125960000D01*
X104681000Y-125029000D02*
X104681000Y-125960000D01*
X104441000Y-124851000D02*
X104441000Y-125960000D01*
X105161000Y-125557000D02*
X105161000Y-128443000D01*
X104961000Y-128040000D02*
X104961000Y-128699000D01*
X104561000Y-128040000D02*
X104561000Y-129065000D01*
X104401000Y-128040000D02*
X104401000Y-129175000D01*
X104561000Y-124935000D02*
X104561000Y-125960000D01*
X105201000Y-125617000D02*
X105201000Y-128383000D01*
X104761000Y-125099000D02*
X104761000Y-125960000D01*
X103520000Y-124472000D02*
X103520000Y-125960000D01*
X105441000Y-126085000D02*
X105441000Y-127915000D01*
X103320000Y-124439000D02*
X103320000Y-125960000D01*
X103440000Y-124457000D02*
X103440000Y-125960000D01*
X104161000Y-128040000D02*
X104161000Y-129310000D01*
X103160000Y-128040000D02*
X103160000Y-129576000D01*
X103721000Y-128040000D02*
X103721000Y-129480000D01*
X103400000Y-128040000D02*
X103400000Y-129550000D01*
X104001000Y-128040000D02*
X104001000Y-129382000D01*
X104601000Y-124965000D02*
X104601000Y-125960000D01*
X103921000Y-128040000D02*
X103921000Y-129414000D01*
X103360000Y-128040000D02*
X103360000Y-129556000D01*
X104961000Y-125301000D02*
X104961000Y-125960000D01*
X103000000Y-128040000D02*
X103000000Y-129580000D01*
X104721000Y-125063000D02*
X104721000Y-125960000D01*
X105241000Y-125681000D02*
X105241000Y-128319000D01*
X103680000Y-128040000D02*
X103680000Y-129491000D01*
X103761000Y-124532000D02*
X103761000Y-125960000D01*
X103440000Y-128040000D02*
X103440000Y-129543000D01*
X103520000Y-128040000D02*
X103520000Y-129528000D01*
X103120000Y-124422000D02*
X103120000Y-125960000D01*
X103480000Y-124464000D02*
X103480000Y-125960000D01*
X103600000Y-124489000D02*
X103600000Y-125960000D01*
X103640000Y-124499000D02*
X103640000Y-125960000D01*
X103240000Y-124431000D02*
X103240000Y-125960000D01*
X104401000Y-124825000D02*
X104401000Y-125960000D01*
X104081000Y-128040000D02*
X104081000Y-129348000D01*
X103360000Y-124444000D02*
X103360000Y-125960000D01*
X103680000Y-124509000D02*
X103680000Y-125960000D01*
X104681000Y-128040000D02*
X104681000Y-128971000D01*
X104161000Y-124690000D02*
X104161000Y-125960000D01*
X104321000Y-124776000D02*
X104321000Y-125960000D01*
X103320000Y-128040000D02*
X103320000Y-129561000D01*
X104761000Y-128040000D02*
X104761000Y-128901000D01*
X104041000Y-128040000D02*
X104041000Y-129365000D01*
X103200000Y-128040000D02*
X103200000Y-129573000D01*
X105361000Y-125902000D02*
X105361000Y-128098000D01*
X104801000Y-128040000D02*
X104801000Y-128864000D01*
X104081000Y-124652000D02*
X104081000Y-125960000D01*
X103080000Y-128040000D02*
X103080000Y-129579000D01*
X104521000Y-124905000D02*
X104521000Y-125960000D01*
X105041000Y-125395000D02*
X105041000Y-128605000D01*
X103280000Y-124435000D02*
X103280000Y-125960000D01*
X103921000Y-124586000D02*
X103921000Y-125960000D01*
X100195225Y-125525000D02*
X100695225Y-125525000D01*
X105561000Y-126482000D02*
X105561000Y-127518000D01*
X103120000Y-128040000D02*
X103120000Y-129578000D01*
X103801000Y-124545000D02*
X103801000Y-125960000D01*
X104601000Y-128040000D02*
X104601000Y-129035000D01*
X103961000Y-124602000D02*
X103961000Y-125960000D01*
X103600000Y-128040000D02*
X103600000Y-129511000D01*
X103040000Y-124420000D02*
X103040000Y-125960000D01*
X104281000Y-124753000D02*
X104281000Y-125960000D01*
X104441000Y-128040000D02*
X104441000Y-129149000D01*
X103761000Y-128040000D02*
X103761000Y-129468000D01*
X105401000Y-125989000D02*
X105401000Y-128011000D01*
X104201000Y-124710000D02*
X104201000Y-125960000D01*
X103560000Y-124480000D02*
X103560000Y-125960000D01*
X103280000Y-128040000D02*
X103280000Y-129565000D01*
X104361000Y-128040000D02*
X104361000Y-129200000D01*
X103160000Y-124424000D02*
X103160000Y-125960000D01*
X104201000Y-128040000D02*
X104201000Y-129290000D01*
X100445225Y-125275000D02*
X100445225Y-125775000D01*
X103801000Y-128040000D02*
X103801000Y-129455000D01*
X104801000Y-125136000D02*
X104801000Y-125960000D01*
X105281000Y-125749000D02*
X105281000Y-128251000D01*
X104281000Y-128040000D02*
X104281000Y-129247000D01*
X104121000Y-128040000D02*
X104121000Y-129329000D01*
X104881000Y-125215000D02*
X104881000Y-125960000D01*
X104921000Y-128040000D02*
X104921000Y-128743000D01*
X104921000Y-125257000D02*
X104921000Y-125960000D01*
X103400000Y-124450000D02*
X103400000Y-125960000D01*
X103881000Y-124572000D02*
X103881000Y-125960000D01*
X103200000Y-124427000D02*
X103200000Y-125960000D01*
X103881000Y-128040000D02*
X103881000Y-129428000D01*
X104841000Y-125174000D02*
X104841000Y-125960000D01*
X105321000Y-125822000D02*
X105321000Y-128178000D01*
X103000000Y-124420000D02*
X103000000Y-125960000D01*
X103480000Y-128040000D02*
X103480000Y-129536000D01*
X104001000Y-124618000D02*
X104001000Y-125960000D01*
X105521000Y-126323000D02*
X105521000Y-127677000D01*
X105121000Y-125500000D02*
X105121000Y-128500000D01*
X103640000Y-128040000D02*
X103640000Y-129501000D01*
X104241000Y-128040000D02*
X104241000Y-129268000D01*
X105001000Y-128040000D02*
X105001000Y-128653000D01*
X105601000Y-126716000D02*
X105601000Y-127284000D01*
X103560000Y-128040000D02*
X103560000Y-129520000D01*
X104321000Y-128040000D02*
X104321000Y-129224000D01*
X104481000Y-124878000D02*
X104481000Y-125960000D01*
X104481000Y-128040000D02*
X104481000Y-129122000D01*
X104721000Y-128040000D02*
X104721000Y-128937000D01*
X104121000Y-124671000D02*
X104121000Y-125960000D01*
X104521000Y-128040000D02*
X104521000Y-129095000D01*
X105081000Y-125446000D02*
X105081000Y-128554000D01*
X104041000Y-124635000D02*
X104041000Y-125960000D01*
X103240000Y-128040000D02*
X103240000Y-129569000D01*
X103841000Y-124558000D02*
X103841000Y-125960000D01*
X104641000Y-124996000D02*
X104641000Y-125960000D01*
X103841000Y-128040000D02*
X103841000Y-129442000D01*
X104641000Y-128040000D02*
X104641000Y-129004000D01*
X104841000Y-128040000D02*
X104841000Y-128826000D01*
X104361000Y-124800000D02*
X104361000Y-125960000D01*
X105481000Y-126195000D02*
X105481000Y-127805000D01*
X105620000Y-127000000D02*
G75*
G03*
X105620000Y-127000000I-2620000J0D01*
G01*
%TO.C,D3*%
X76815000Y-130135000D02*
X80700000Y-130135000D01*
X80700000Y-127865000D02*
X76815000Y-127865000D01*
X76815000Y-127865000D02*
X76815000Y-130135000D01*
%TO.C,R13*%
X74689564Y-128090000D02*
X73235436Y-128090000D01*
X74689564Y-129910000D02*
X73235436Y-129910000D01*
%TO.C,U5*%
X100080000Y-111730000D02*
X100080000Y-116371000D01*
X89840000Y-111730000D02*
X100080000Y-111730000D01*
X93110000Y-111730000D02*
X93110000Y-113240000D01*
X89840000Y-111730000D02*
X89840000Y-116371000D01*
X89840000Y-113240000D02*
X100080000Y-113240000D01*
X96811000Y-111730000D02*
X96811000Y-113240000D01*
X89840000Y-116371000D02*
X100080000Y-116371000D01*
%TO.C,C7*%
X135531651Y-125460000D02*
X135531651Y-123849000D01*
X135771651Y-129407000D02*
X135771651Y-127540000D01*
X138572651Y-130580000D02*
X138572651Y-122420000D01*
X134611651Y-127268000D02*
X134611651Y-125732000D01*
X135451651Y-125460000D02*
X135451651Y-123944000D01*
X135051651Y-128464000D02*
X135051651Y-124536000D01*
X134891651Y-128145000D02*
X134891651Y-124855000D01*
X136491651Y-129969000D02*
X136491651Y-127540000D01*
X135171651Y-128666000D02*
X135171651Y-127540000D01*
X138372651Y-130571000D02*
X138372651Y-122429000D01*
X135531651Y-129151000D02*
X135531651Y-127540000D01*
X137491651Y-130414000D02*
X137491651Y-122586000D01*
X136251651Y-125460000D02*
X136251651Y-123191000D01*
X138532651Y-130579000D02*
X138532651Y-122421000D01*
X134851651Y-128052000D02*
X134851651Y-124948000D01*
X134691651Y-127598000D02*
X134691651Y-125402000D01*
X136331651Y-125460000D02*
X136331651Y-123135000D01*
X135571651Y-129197000D02*
X135571651Y-127540000D01*
X135891651Y-129519000D02*
X135891651Y-127540000D01*
X135691651Y-129326000D02*
X135691651Y-127540000D01*
X136171651Y-125460000D02*
X136171651Y-123250000D01*
X136651651Y-130062000D02*
X136651651Y-127540000D01*
X135771651Y-125460000D02*
X135771651Y-123593000D01*
X138612651Y-130580000D02*
X138612651Y-122420000D01*
X135971651Y-129590000D02*
X135971651Y-127540000D01*
X136771651Y-125460000D02*
X136771651Y-122873000D01*
X135851651Y-125460000D02*
X135851651Y-123517000D01*
X134651651Y-127448000D02*
X134651651Y-125552000D01*
X138012651Y-130530000D02*
X138012651Y-122470000D01*
X136131651Y-129720000D02*
X136131651Y-127540000D01*
X138252651Y-130561000D02*
X138252651Y-122439000D01*
X135491651Y-125460000D02*
X135491651Y-123896000D01*
X138092651Y-130542000D02*
X138092651Y-122458000D01*
X137451651Y-130402000D02*
X137451651Y-122598000D01*
X135251651Y-125460000D02*
X135251651Y-124213000D01*
X136331651Y-129865000D02*
X136331651Y-127540000D01*
X136811651Y-130147000D02*
X136811651Y-127540000D01*
X135651651Y-129284000D02*
X135651651Y-127540000D01*
X137651651Y-130457000D02*
X137651651Y-122543000D01*
X135011651Y-128390000D02*
X135011651Y-124610000D01*
X137131651Y-130290000D02*
X137131651Y-127540000D01*
X135411651Y-129005000D02*
X135411651Y-127540000D01*
X136571651Y-130017000D02*
X136571651Y-127540000D01*
X136371651Y-129892000D02*
X136371651Y-127540000D01*
X136691651Y-130084000D02*
X136691651Y-127540000D01*
X136251651Y-129809000D02*
X136251651Y-127540000D01*
X136291651Y-129838000D02*
X136291651Y-127540000D01*
X137931651Y-130517000D02*
X137931651Y-122483000D01*
X137291651Y-130350000D02*
X137291651Y-122650000D01*
X136211651Y-125460000D02*
X136211651Y-123220000D01*
X137411651Y-130389000D02*
X137411651Y-122611000D01*
X135611651Y-125460000D02*
X135611651Y-123759000D01*
X136691651Y-125460000D02*
X136691651Y-122916000D01*
X135331651Y-128900000D02*
X135331651Y-127540000D01*
X136611651Y-130040000D02*
X136611651Y-127540000D01*
X138332651Y-130568000D02*
X138332651Y-122432000D01*
X138172651Y-130552000D02*
X138172651Y-122448000D01*
X137531651Y-130425000D02*
X137531651Y-122575000D01*
X137771651Y-130485000D02*
X137771651Y-122515000D01*
X135131651Y-128602000D02*
X135131651Y-127540000D01*
X136211651Y-129780000D02*
X136211651Y-127540000D01*
X136011651Y-125460000D02*
X136011651Y-123376000D01*
X137171651Y-130305000D02*
X137171651Y-127540000D01*
X137171651Y-125460000D02*
X137171651Y-122695000D01*
X136451651Y-125460000D02*
X136451651Y-123056000D01*
X138652651Y-130580000D02*
X138652651Y-122420000D01*
X136371651Y-125460000D02*
X136371651Y-123108000D01*
X138452651Y-130576000D02*
X138452651Y-122424000D01*
X137211651Y-130321000D02*
X137211651Y-122679000D01*
X135731651Y-125460000D02*
X135731651Y-123633000D01*
X135811651Y-125460000D02*
X135811651Y-123555000D01*
X136091651Y-125460000D02*
X136091651Y-123311000D01*
X135371651Y-125460000D02*
X135371651Y-124046000D01*
X136971651Y-125460000D02*
X136971651Y-122778000D01*
X136731651Y-125460000D02*
X136731651Y-122894000D01*
X137851651Y-130502000D02*
X137851651Y-122498000D01*
X135651651Y-125460000D02*
X135651651Y-123716000D01*
X136651651Y-125460000D02*
X136651651Y-122938000D01*
X137571651Y-130436000D02*
X137571651Y-122564000D01*
X136411651Y-129918000D02*
X136411651Y-127540000D01*
X135331651Y-125460000D02*
X135331651Y-124100000D01*
X135291651Y-125460000D02*
X135291651Y-124155000D01*
X134771651Y-127846000D02*
X134771651Y-125154000D01*
X135611651Y-129241000D02*
X135611651Y-127540000D01*
X136411651Y-125460000D02*
X136411651Y-123082000D01*
X134731651Y-127729000D02*
X134731651Y-125271000D01*
X138492651Y-130577000D02*
X138492651Y-122423000D01*
X136171651Y-129750000D02*
X136171651Y-127540000D01*
X138132651Y-130548000D02*
X138132651Y-122452000D01*
X136851651Y-125460000D02*
X136851651Y-122834000D01*
X138412651Y-130574000D02*
X138412651Y-122426000D01*
X137251651Y-130335000D02*
X137251651Y-122665000D01*
X136131651Y-125460000D02*
X136131651Y-123280000D01*
X134931651Y-128231000D02*
X134931651Y-124769000D01*
X137091651Y-130274000D02*
X137091651Y-127540000D01*
X138212651Y-130557000D02*
X138212651Y-122443000D01*
X137611651Y-130447000D02*
X137611651Y-122553000D01*
X136931651Y-130204000D02*
X136931651Y-127540000D01*
X135091651Y-128534000D02*
X135091651Y-124466000D01*
X135411651Y-125460000D02*
X135411651Y-123995000D01*
X135371651Y-128954000D02*
X135371651Y-127540000D01*
X135731651Y-129367000D02*
X135731651Y-127540000D01*
X138052651Y-130537000D02*
X138052651Y-122463000D01*
X135571651Y-125460000D02*
X135571651Y-123803000D01*
X137371651Y-130377000D02*
X137371651Y-122623000D01*
X136091651Y-129689000D02*
X136091651Y-127540000D01*
X134571651Y-127033000D02*
X134571651Y-125967000D01*
X142662349Y-129215000D02*
X142662349Y-128415000D01*
X137011651Y-130240000D02*
X137011651Y-127540000D01*
X137891651Y-130510000D02*
X137891651Y-122490000D01*
X135291651Y-128845000D02*
X135291651Y-127540000D01*
X143062349Y-128815000D02*
X142262349Y-128815000D01*
X136291651Y-125460000D02*
X136291651Y-123162000D01*
X138292651Y-130565000D02*
X138292651Y-122435000D01*
X136971651Y-130222000D02*
X136971651Y-127540000D01*
X135931651Y-125460000D02*
X135931651Y-123445000D01*
X135251651Y-128787000D02*
X135251651Y-127540000D01*
X135931651Y-129555000D02*
X135931651Y-127540000D01*
X136491651Y-125460000D02*
X136491651Y-123031000D01*
X136611651Y-125460000D02*
X136611651Y-122960000D01*
X136731651Y-130106000D02*
X136731651Y-127540000D01*
X135851651Y-129483000D02*
X135851651Y-127540000D01*
X136531651Y-125460000D02*
X136531651Y-123007000D01*
X136811651Y-125460000D02*
X136811651Y-122853000D01*
X135211651Y-128728000D02*
X135211651Y-127540000D01*
X135971651Y-125460000D02*
X135971651Y-123410000D01*
X136891651Y-125460000D02*
X136891651Y-122814000D01*
X135131651Y-125460000D02*
X135131651Y-124398000D01*
X136771651Y-130127000D02*
X136771651Y-127540000D01*
X136051651Y-129656000D02*
X136051651Y-127540000D01*
X137331651Y-130363000D02*
X137331651Y-122637000D01*
X135691651Y-125460000D02*
X135691651Y-123674000D01*
X135811651Y-129445000D02*
X135811651Y-127540000D01*
X136851651Y-130166000D02*
X136851651Y-127540000D01*
X134971651Y-128313000D02*
X134971651Y-124687000D01*
X134811651Y-127953000D02*
X134811651Y-125047000D01*
X137131651Y-125460000D02*
X137131651Y-122710000D01*
X137691651Y-130467000D02*
X137691651Y-122533000D01*
X137011651Y-125460000D02*
X137011651Y-122760000D01*
X137091651Y-125460000D02*
X137091651Y-122726000D01*
X135451651Y-129056000D02*
X135451651Y-127540000D01*
X135171651Y-125460000D02*
X135171651Y-124334000D01*
X137051651Y-130257000D02*
X137051651Y-127540000D01*
X135891651Y-125460000D02*
X135891651Y-123481000D01*
X136891651Y-130186000D02*
X136891651Y-127540000D01*
X136451651Y-129944000D02*
X136451651Y-127540000D01*
X135491651Y-129104000D02*
X135491651Y-127540000D01*
X136531651Y-129993000D02*
X136531651Y-127540000D01*
X137972651Y-130524000D02*
X137972651Y-122476000D01*
X137731651Y-130476000D02*
X137731651Y-122524000D01*
X136931651Y-125460000D02*
X136931651Y-122796000D01*
X135211651Y-125460000D02*
X135211651Y-124272000D01*
X136051651Y-125460000D02*
X136051651Y-123344000D01*
X137051651Y-125460000D02*
X137051651Y-122743000D01*
X137811651Y-130494000D02*
X137811651Y-122506000D01*
X136011651Y-129624000D02*
X136011651Y-127540000D01*
X136571651Y-125460000D02*
X136571651Y-122983000D01*
X142772651Y-126500000D02*
G75*
G03*
X142772651Y-126500000I-4120000J0D01*
G01*
%TO.C,C9*%
X138677349Y-134170000D02*
X138677349Y-142330000D01*
X139117349Y-134202000D02*
X139117349Y-142298000D01*
X134187651Y-135935000D02*
X134987651Y-135935000D01*
X140238349Y-134510000D02*
X140238349Y-137210000D01*
X134587651Y-135535000D02*
X134587651Y-136335000D01*
X140998349Y-134941000D02*
X140998349Y-137210000D01*
X141158349Y-139290000D02*
X141158349Y-141439000D01*
X142438349Y-136797000D02*
X142438349Y-139703000D01*
X141198349Y-139290000D02*
X141198349Y-141406000D01*
X140838349Y-139290000D02*
X140838349Y-141668000D01*
X140678349Y-134733000D02*
X140678349Y-137210000D01*
X140158349Y-134476000D02*
X140158349Y-137210000D01*
X141518349Y-135383000D02*
X141518349Y-137210000D01*
X139638349Y-134303000D02*
X139638349Y-142197000D01*
X140958349Y-139290000D02*
X140958349Y-141588000D01*
X142118349Y-136148000D02*
X142118349Y-137210000D01*
X138837349Y-134176000D02*
X138837349Y-142324000D01*
X140438349Y-139290000D02*
X140438349Y-141897000D01*
X140478349Y-134623000D02*
X140478349Y-137210000D01*
X142078349Y-139290000D02*
X142078349Y-140416000D01*
X140798349Y-134806000D02*
X140798349Y-137210000D01*
X139398349Y-134248000D02*
X139398349Y-142252000D01*
X141638349Y-139290000D02*
X141638349Y-140991000D01*
X139798349Y-134348000D02*
X139798349Y-142152000D01*
X142278349Y-136437000D02*
X142278349Y-140063000D01*
X139478349Y-134265000D02*
X139478349Y-142235000D01*
X141038349Y-139290000D02*
X141038349Y-141530000D01*
X140998349Y-139290000D02*
X140998349Y-141559000D01*
X139318349Y-134233000D02*
X139318349Y-142267000D01*
X141358349Y-139290000D02*
X141358349Y-141269000D01*
X139518349Y-134274000D02*
X139518349Y-142226000D01*
X142158349Y-136216000D02*
X142158349Y-140284000D01*
X140758349Y-134781000D02*
X140758349Y-137210000D01*
X141478349Y-139290000D02*
X141478349Y-141157000D01*
X141998349Y-139290000D02*
X141998349Y-140537000D01*
X141318349Y-139290000D02*
X141318349Y-141305000D01*
X140558349Y-134666000D02*
X140558349Y-137210000D01*
X141238349Y-135126000D02*
X141238349Y-137210000D01*
X139678349Y-134314000D02*
X139678349Y-142186000D01*
X139037349Y-134193000D02*
X139037349Y-142307000D01*
X140358349Y-134564000D02*
X140358349Y-137210000D01*
X138917349Y-134182000D02*
X138917349Y-142318000D01*
X139077349Y-134198000D02*
X139077349Y-142302000D01*
X141918349Y-135850000D02*
X141918349Y-137210000D01*
X142558349Y-137152000D02*
X142558349Y-139348000D01*
X141038349Y-134970000D02*
X141038349Y-137210000D01*
X139237349Y-134220000D02*
X139237349Y-142280000D01*
X141278349Y-135160000D02*
X141278349Y-137210000D01*
X141198349Y-135094000D02*
X141198349Y-137210000D01*
X139438349Y-134256000D02*
X139438349Y-142244000D01*
X139958349Y-134400000D02*
X139958349Y-142100000D01*
X139277349Y-134226000D02*
X139277349Y-142274000D01*
X140398349Y-134584000D02*
X140398349Y-137210000D01*
X142238349Y-136360000D02*
X142238349Y-140140000D01*
X141398349Y-135267000D02*
X141398349Y-137210000D01*
X140198349Y-139290000D02*
X140198349Y-142007000D01*
X141758349Y-135646000D02*
X141758349Y-137210000D01*
X140278349Y-139290000D02*
X140278349Y-141972000D01*
X142038349Y-139290000D02*
X142038349Y-140478000D01*
X140718349Y-139290000D02*
X140718349Y-141743000D01*
X140518349Y-139290000D02*
X140518349Y-141856000D01*
X141798349Y-139290000D02*
X141798349Y-140806000D01*
X140198349Y-134493000D02*
X140198349Y-137210000D01*
X140038349Y-134429000D02*
X140038349Y-142071000D01*
X142518349Y-137021000D02*
X142518349Y-139479000D01*
X141118349Y-135030000D02*
X141118349Y-137210000D01*
X141958349Y-135905000D02*
X141958349Y-137210000D01*
X141278349Y-139290000D02*
X141278349Y-141340000D01*
X138877349Y-134179000D02*
X138877349Y-142321000D01*
X140278349Y-134528000D02*
X140278349Y-137210000D01*
X142478349Y-136904000D02*
X142478349Y-139596000D01*
X141598349Y-135466000D02*
X141598349Y-137210000D01*
X139838349Y-134361000D02*
X139838349Y-142139000D01*
X141998349Y-135963000D02*
X141998349Y-137210000D01*
X141878349Y-135796000D02*
X141878349Y-137210000D01*
X141838349Y-139290000D02*
X141838349Y-140755000D01*
X141358349Y-135231000D02*
X141358349Y-137210000D01*
X141318349Y-135195000D02*
X141318349Y-137210000D01*
X141798349Y-135694000D02*
X141798349Y-137210000D01*
X140118349Y-139290000D02*
X140118349Y-142040000D01*
X142398349Y-136698000D02*
X142398349Y-139802000D01*
X139878349Y-134373000D02*
X139878349Y-142127000D01*
X142078349Y-136084000D02*
X142078349Y-137210000D01*
X141238349Y-139290000D02*
X141238349Y-141374000D01*
X140558349Y-139290000D02*
X140558349Y-141834000D01*
X139998349Y-134415000D02*
X139998349Y-142085000D01*
X140078349Y-139290000D02*
X140078349Y-142055000D01*
X140918349Y-139290000D02*
X140918349Y-141615000D01*
X140518349Y-134644000D02*
X140518349Y-137210000D01*
X140478349Y-139290000D02*
X140478349Y-141877000D01*
X140878349Y-139290000D02*
X140878349Y-141642000D01*
X140758349Y-139290000D02*
X140758349Y-141719000D01*
X140078349Y-134445000D02*
X140078349Y-137210000D01*
X142038349Y-136022000D02*
X142038349Y-137210000D01*
X140838349Y-134832000D02*
X140838349Y-137210000D01*
X141878349Y-139290000D02*
X141878349Y-140704000D01*
X141958349Y-139290000D02*
X141958349Y-140595000D01*
X141838349Y-135745000D02*
X141838349Y-137210000D01*
X140798349Y-139290000D02*
X140798349Y-141694000D01*
X142318349Y-136519000D02*
X142318349Y-139981000D01*
X141078349Y-139290000D02*
X141078349Y-141500000D01*
X140918349Y-134885000D02*
X140918349Y-137210000D01*
X140598349Y-139290000D02*
X140598349Y-141812000D01*
X140878349Y-134858000D02*
X140878349Y-137210000D01*
X141478349Y-135343000D02*
X141478349Y-137210000D01*
X140678349Y-139290000D02*
X140678349Y-141767000D01*
X142638349Y-137482000D02*
X142638349Y-139018000D01*
X141158349Y-135061000D02*
X141158349Y-137210000D01*
X138637349Y-134170000D02*
X138637349Y-142330000D01*
X140238349Y-139290000D02*
X140238349Y-141990000D01*
X140358349Y-139290000D02*
X140358349Y-141936000D01*
X139558349Y-134283000D02*
X139558349Y-142217000D01*
X138957349Y-134185000D02*
X138957349Y-142315000D01*
X141398349Y-139290000D02*
X141398349Y-141233000D01*
X141678349Y-139290000D02*
X141678349Y-140947000D01*
X138597349Y-134170000D02*
X138597349Y-142330000D01*
X140598349Y-134688000D02*
X140598349Y-137210000D01*
X142678349Y-137717000D02*
X142678349Y-138783000D01*
X141918349Y-139290000D02*
X141918349Y-140650000D01*
X141118349Y-139290000D02*
X141118349Y-141470000D01*
X141558349Y-139290000D02*
X141558349Y-141076000D01*
X140958349Y-134912000D02*
X140958349Y-137210000D01*
X141678349Y-135553000D02*
X141678349Y-137210000D01*
X140318349Y-134546000D02*
X140318349Y-137210000D01*
X140318349Y-139290000D02*
X140318349Y-141954000D01*
X141438349Y-139290000D02*
X141438349Y-141195000D01*
X141758349Y-139290000D02*
X141758349Y-140854000D01*
X139157349Y-134208000D02*
X139157349Y-142292000D01*
X138797349Y-134174000D02*
X138797349Y-142326000D01*
X142118349Y-139290000D02*
X142118349Y-140352000D01*
X141078349Y-135000000D02*
X141078349Y-137210000D01*
X141558349Y-135424000D02*
X141558349Y-137210000D01*
X141518349Y-139290000D02*
X141518349Y-141117000D01*
X141438349Y-135305000D02*
X141438349Y-137210000D01*
X140438349Y-134603000D02*
X140438349Y-137210000D01*
X141718349Y-135599000D02*
X141718349Y-137210000D01*
X138717349Y-134171000D02*
X138717349Y-142329000D01*
X141638349Y-135509000D02*
X141638349Y-137210000D01*
X142358349Y-136605000D02*
X142358349Y-139895000D01*
X140638349Y-134710000D02*
X140638349Y-137210000D01*
X139918349Y-134387000D02*
X139918349Y-142113000D01*
X141598349Y-139290000D02*
X141598349Y-141034000D01*
X139758349Y-134336000D02*
X139758349Y-142164000D01*
X139718349Y-134325000D02*
X139718349Y-142175000D01*
X138997349Y-134189000D02*
X138997349Y-142311000D01*
X141718349Y-139290000D02*
X141718349Y-140901000D01*
X139197349Y-134213000D02*
X139197349Y-142287000D01*
X140158349Y-139290000D02*
X140158349Y-142024000D01*
X139598349Y-134293000D02*
X139598349Y-142207000D01*
X140718349Y-134757000D02*
X140718349Y-137210000D01*
X140638349Y-139290000D02*
X140638349Y-141790000D01*
X139358349Y-134240000D02*
X139358349Y-142260000D01*
X140118349Y-134460000D02*
X140118349Y-137210000D01*
X140398349Y-139290000D02*
X140398349Y-141916000D01*
X142598349Y-137302000D02*
X142598349Y-139198000D01*
X142198349Y-136286000D02*
X142198349Y-140214000D01*
X138757349Y-134173000D02*
X138757349Y-142327000D01*
X142717349Y-138250000D02*
G75*
G03*
X142717349Y-138250000I-4120000J0D01*
G01*
%TO.C,R3*%
X115410000Y-80310436D02*
X115410000Y-81764564D01*
X113590000Y-80310436D02*
X113590000Y-81764564D01*
%TO.C,R2*%
X117910000Y-81727064D02*
X117910000Y-80272936D01*
X116090000Y-81727064D02*
X116090000Y-80272936D01*
%TO.C,C1*%
X97485000Y-86038748D02*
X97485000Y-86561252D01*
X96015000Y-86038748D02*
X96015000Y-86561252D01*
%TO.C,R1*%
X100910000Y-77764564D02*
X100910000Y-76310436D01*
X99090000Y-77764564D02*
X99090000Y-76310436D01*
%TO.C,U1*%
X106525000Y-75005000D02*
X103075000Y-75005000D01*
X106525000Y-80125000D02*
X108475000Y-80125000D01*
X106525000Y-80125000D02*
X104575000Y-80125000D01*
X106525000Y-75005000D02*
X108475000Y-75005000D01*
%TO.C,C14*%
X101211252Y-73135000D02*
X100688748Y-73135000D01*
X101211252Y-71665000D02*
X100688748Y-71665000D01*
%TO.C,C17*%
X116261252Y-105265000D02*
X115738748Y-105265000D01*
X116261252Y-106735000D02*
X115738748Y-106735000D01*
%TO.C,C19*%
X109688748Y-74835000D02*
X110211252Y-74835000D01*
X109688748Y-73365000D02*
X110211252Y-73365000D01*
%TO.C,D4*%
X106865000Y-119285000D02*
X109135000Y-119285000D01*
X109135000Y-119285000D02*
X109135000Y-115400000D01*
X106865000Y-115400000D02*
X106865000Y-119285000D01*
%TO.C,D5*%
X106135000Y-118600000D02*
X106135000Y-114715000D01*
X103865000Y-114715000D02*
X103865000Y-118600000D01*
X106135000Y-114715000D02*
X103865000Y-114715000D01*
%TO.C,R19*%
X108910000Y-112117064D02*
X108910000Y-110662936D01*
X107090000Y-112117064D02*
X107090000Y-110662936D01*
%TO.C,R20*%
X105910000Y-112117064D02*
X105910000Y-110662936D01*
X104090000Y-112117064D02*
X104090000Y-110662936D01*
%TO.C,C22*%
X142235000Y-98261252D02*
X142235000Y-97738748D01*
X140765000Y-98261252D02*
X140765000Y-97738748D01*
%TO.C,C23*%
X137561252Y-80265000D02*
X137038748Y-80265000D01*
X137561252Y-81735000D02*
X137038748Y-81735000D01*
%TO.C,C24*%
X110665000Y-67811252D02*
X110665000Y-67288748D01*
X112135000Y-67811252D02*
X112135000Y-67288748D01*
%TO.C,R9*%
X137727064Y-76910000D02*
X136272936Y-76910000D01*
X137727064Y-75090000D02*
X136272936Y-75090000D01*
%TO.C,J1*%
X79712663Y-63236411D02*
G75*
G03*
X76250000Y-63250000I-1712664J-4763588D01*
G01*
X73236411Y-66287337D02*
G75*
G03*
X73250000Y-69750000I4763588J-1712664D01*
G01*
X76287337Y-72763589D02*
G75*
G03*
X79750000Y-72750000I1712664J4763588D01*
G01*
X82763589Y-69712663D02*
G75*
G03*
X82750000Y-66250000I-4763588J1712664D01*
G01*
%TO.C,BUF1*%
X106400000Y-72960000D02*
X104450000Y-72960000D01*
X106400000Y-72960000D02*
X108350000Y-72960000D01*
X106400000Y-67840000D02*
X108350000Y-67840000D01*
X106400000Y-67840000D02*
X102950000Y-67840000D01*
%TO.C,BUF2*%
X145560000Y-103550000D02*
X145560000Y-101600000D01*
X140440000Y-103550000D02*
X140440000Y-101600000D01*
X145560000Y-103550000D02*
X145560000Y-105500000D01*
X140440000Y-103550000D02*
X140440000Y-107000000D01*
%TO.C,R4*%
X105410436Y-64090000D02*
X106864564Y-64090000D01*
X105410436Y-65910000D02*
X106864564Y-65910000D01*
%TO.C,R10*%
X112690000Y-71810436D02*
X112690000Y-73264564D01*
X114510000Y-71810436D02*
X114510000Y-73264564D01*
%TO.C,R18*%
X134090000Y-108810436D02*
X134090000Y-110264564D01*
X135910000Y-108810436D02*
X135910000Y-110264564D01*
%TO.C,R21*%
X142100436Y-110885000D02*
X143554564Y-110885000D01*
X142100436Y-109065000D02*
X143554564Y-109065000D01*
%TO.C,U2*%
X145560000Y-117000000D02*
X145560000Y-118950000D01*
X140440000Y-117000000D02*
X140440000Y-118950000D01*
X145560000Y-117000000D02*
X145560000Y-113550000D01*
X140440000Y-117000000D02*
X140440000Y-115050000D01*
%TO.C,C3*%
X144311252Y-121265000D02*
X143788748Y-121265000D01*
X144311252Y-122735000D02*
X143788748Y-122735000D01*
%TO.C,J11*%
X92960000Y-140310000D02*
X108200000Y-140310000D01*
X92960000Y-139040000D02*
X108200000Y-139040000D01*
X92960000Y-132690000D02*
X108200000Y-132690000D01*
X92960000Y-140310000D02*
X92960000Y-132690000D01*
X108200000Y-140310000D02*
X108200000Y-132690000D01*
%TO.C,C10*%
X131235000Y-138211252D02*
X131235000Y-137688748D01*
X129765000Y-138211252D02*
X129765000Y-137688748D01*
%TO.C,L2*%
X128275000Y-133600000D02*
X120275000Y-133600000D01*
X128275000Y-127400000D02*
X120275000Y-127400000D01*
%TO.C,Reg1*%
X117540000Y-121840000D02*
X109920000Y-121840000D01*
X109920000Y-121840000D02*
X109920000Y-142160000D01*
X109920000Y-142160000D02*
X117540000Y-142160000D01*
X117540000Y-142160000D02*
X117540000Y-121840000D01*
%TO.C,C8*%
X129765000Y-131288748D02*
X129765000Y-131811252D01*
X131235000Y-131288748D02*
X131235000Y-131811252D01*
%TO.C,L1*%
X128275000Y-141600000D02*
X120275000Y-141600000D01*
X128275000Y-135400000D02*
X120275000Y-135400000D01*
%TO.C,C18*%
X147100000Y-108263748D02*
X147100000Y-108786252D01*
X145630000Y-108263748D02*
X145630000Y-108786252D01*
%TO.C,R22*%
X88689564Y-67090000D02*
X87235436Y-67090000D01*
X88689564Y-68910000D02*
X87235436Y-68910000D01*
%TO.C,C16*%
X88765000Y-59561252D02*
X88765000Y-59038748D01*
X90235000Y-59561252D02*
X90235000Y-59038748D01*
%TO.C,J16*%
X92895000Y-84345000D02*
X98095000Y-84345000D01*
X98095000Y-79145000D02*
X98095000Y-84345000D01*
X92895000Y-80475000D02*
X92895000Y-79145000D01*
X95495000Y-81745000D02*
X95495000Y-79145000D01*
X92895000Y-81745000D02*
X92895000Y-84345000D01*
X92895000Y-81745000D02*
X95495000Y-81745000D01*
X92895000Y-79145000D02*
X94225000Y-79145000D01*
X95495000Y-79145000D02*
X98095000Y-79145000D01*
%TO.C,R24*%
X137727064Y-72590000D02*
X136272936Y-72590000D01*
X137727064Y-74410000D02*
X136272936Y-74410000D01*
%TO.C,R17*%
X146090000Y-113764564D02*
X146090000Y-112310436D01*
X147910000Y-113764564D02*
X147910000Y-112310436D01*
%TO.C,R23*%
X122272936Y-77590000D02*
X123727064Y-77590000D01*
X122272936Y-79410000D02*
X123727064Y-79410000D01*
%TO.C,J15*%
X90870000Y-63770000D02*
X88270000Y-63770000D01*
X90870000Y-65040000D02*
X90870000Y-66370000D01*
X85670000Y-66370000D02*
X85670000Y-61170000D01*
X90870000Y-61170000D02*
X85670000Y-61170000D01*
X90870000Y-66370000D02*
X89540000Y-66370000D01*
X88270000Y-66370000D02*
X85670000Y-66370000D01*
X90870000Y-63770000D02*
X90870000Y-61170000D01*
X88270000Y-63770000D02*
X88270000Y-66370000D01*
%TO.C,C15*%
X87735000Y-59561252D02*
X87735000Y-59038748D01*
X86265000Y-59561252D02*
X86265000Y-59038748D01*
%TO.C,C25*%
X94985000Y-85988748D02*
X94985000Y-86511252D01*
X93515000Y-85988748D02*
X93515000Y-86511252D01*
%TO.C,R14*%
X136590000Y-108810436D02*
X136590000Y-110264564D01*
X138410000Y-108810436D02*
X138410000Y-110264564D01*
%TO.C,J13*%
X130770000Y-106370000D02*
X133370000Y-106370000D01*
X129500000Y-106370000D02*
X128170000Y-106370000D01*
X128170000Y-103770000D02*
X128170000Y-101170000D01*
X130770000Y-106370000D02*
X130770000Y-103770000D01*
X128170000Y-101170000D02*
X133370000Y-101170000D01*
X128170000Y-106370000D02*
X128170000Y-105040000D01*
X133370000Y-106370000D02*
X133370000Y-101170000D01*
X130770000Y-103770000D02*
X128170000Y-103770000D01*
%TO.C,J10*%
X121055000Y-110945000D02*
X121055000Y-112275000D01*
X121055000Y-116145000D02*
X115855000Y-116145000D01*
X118455000Y-113545000D02*
X121055000Y-113545000D01*
X119725000Y-110945000D02*
X121055000Y-110945000D01*
X118455000Y-110945000D02*
X115855000Y-110945000D01*
X115855000Y-110945000D02*
X115855000Y-116145000D01*
X118455000Y-110945000D02*
X118455000Y-113545000D01*
X121055000Y-113545000D02*
X121055000Y-116145000D01*
%TO.C,J3*%
X82763589Y-106212663D02*
G75*
G03*
X82750000Y-102750000I-4763588J1712664D01*
G01*
X76287337Y-109263589D02*
G75*
G03*
X79750000Y-109250000I1712664J4763588D01*
G01*
X79712663Y-99736411D02*
G75*
G03*
X76250000Y-99750000I-1712664J-4763588D01*
G01*
X73236411Y-102787337D02*
G75*
G03*
X73250000Y-106250000I4763588J-1712664D01*
G01*
%TO.C,R15*%
X99310436Y-70910000D02*
X100764564Y-70910000D01*
X99310436Y-69090000D02*
X100764564Y-69090000D01*
%TO.C,J17*%
X142770000Y-74730000D02*
X140170000Y-74730000D01*
X140170000Y-72130000D02*
X145370000Y-72130000D01*
X141500000Y-77330000D02*
X140170000Y-77330000D01*
X142770000Y-77330000D02*
X142770000Y-74730000D01*
X142770000Y-77330000D02*
X145370000Y-77330000D01*
X145370000Y-77330000D02*
X145370000Y-72130000D01*
X140170000Y-74730000D02*
X140170000Y-72130000D01*
X140170000Y-77330000D02*
X140170000Y-76000000D01*
%TO.C,J12*%
X133105000Y-95495000D02*
X133105000Y-98095000D01*
X130505000Y-92895000D02*
X127905000Y-92895000D01*
X130505000Y-92895000D02*
X130505000Y-95495000D01*
X133105000Y-92895000D02*
X133105000Y-94225000D01*
X130505000Y-95495000D02*
X133105000Y-95495000D01*
X131775000Y-92895000D02*
X133105000Y-92895000D01*
X127905000Y-92895000D02*
X127905000Y-98095000D01*
X133105000Y-98095000D02*
X127905000Y-98095000D01*
%TO.C,R11*%
X125177064Y-111640000D02*
X123722936Y-111640000D01*
X125177064Y-113460000D02*
X123722936Y-113460000D01*
%TO.C,R12*%
X136727064Y-94910000D02*
X135272936Y-94910000D01*
X136727064Y-93090000D02*
X135272936Y-93090000D01*
%TO.C,J14*%
X139105000Y-106370000D02*
X137775000Y-106370000D01*
X133905000Y-106370000D02*
X133905000Y-101170000D01*
X136505000Y-106370000D02*
X133905000Y-106370000D01*
X139105000Y-103770000D02*
X139105000Y-101170000D01*
X136505000Y-103770000D02*
X136505000Y-106370000D01*
X139105000Y-105040000D02*
X139105000Y-106370000D01*
X139105000Y-101170000D02*
X133905000Y-101170000D01*
X139105000Y-103770000D02*
X136505000Y-103770000D01*
%TD*%
M02*
