%TF.GenerationSoftware,KiCad,Pcbnew,(6.0.0)*%
%TF.CreationDate,2022-08-23T11:31:34-04:00*%
%TF.ProjectId,Impedance_Analyzer_V2,496d7065-6461-46e6-9365-5f416e616c79,rev?*%
%TF.SameCoordinates,Original*%
%TF.FileFunction,Legend,Bot*%
%TF.FilePolarity,Positive*%
%FSLAX46Y46*%
G04 Gerber Fmt 4.6, Leading zero omitted, Abs format (unit mm)*
G04 Created by KiCad (PCBNEW (6.0.0)) date 2022-08-23 11:31:34*
%MOMM*%
%LPD*%
G01*
G04 APERTURE LIST*
%ADD10C,0.300000*%
%ADD11C,0.150000*%
%ADD12C,0.120000*%
G04 APERTURE END LIST*
D10*
X129178571Y-131214285D02*
X129178571Y-132071428D01*
X130678571Y-131642857D02*
X129178571Y-131642857D01*
X129178571Y-132357142D02*
X130678571Y-132857142D01*
X129178571Y-133357142D01*
X130607142Y-133785714D02*
X130678571Y-134000000D01*
X130678571Y-134357142D01*
X130607142Y-134500000D01*
X130535714Y-134571428D01*
X130392857Y-134642857D01*
X130250000Y-134642857D01*
X130107142Y-134571428D01*
X130035714Y-134500000D01*
X129964285Y-134357142D01*
X129892857Y-134071428D01*
X129821428Y-133928571D01*
X129750000Y-133857142D01*
X129607142Y-133785714D01*
X129464285Y-133785714D01*
X129321428Y-133857142D01*
X129250000Y-133928571D01*
X129178571Y-134071428D01*
X129178571Y-134428571D01*
X129250000Y-134642857D01*
D11*
%TO.C,C20*%
X100677142Y-80607142D02*
X100724761Y-80559523D01*
X100772380Y-80416666D01*
X100772380Y-80321428D01*
X100724761Y-80178571D01*
X100629523Y-80083333D01*
X100534285Y-80035714D01*
X100343809Y-79988095D01*
X100200952Y-79988095D01*
X100010476Y-80035714D01*
X99915238Y-80083333D01*
X99820000Y-80178571D01*
X99772380Y-80321428D01*
X99772380Y-80416666D01*
X99820000Y-80559523D01*
X99867619Y-80607142D01*
X99867619Y-80988095D02*
X99820000Y-81035714D01*
X99772380Y-81130952D01*
X99772380Y-81369047D01*
X99820000Y-81464285D01*
X99867619Y-81511904D01*
X99962857Y-81559523D01*
X100058095Y-81559523D01*
X100200952Y-81511904D01*
X100772380Y-80940476D01*
X100772380Y-81559523D01*
X99772380Y-82178571D02*
X99772380Y-82273809D01*
X99820000Y-82369047D01*
X99867619Y-82416666D01*
X99962857Y-82464285D01*
X100153333Y-82511904D01*
X100391428Y-82511904D01*
X100581904Y-82464285D01*
X100677142Y-82416666D01*
X100724761Y-82369047D01*
X100772380Y-82273809D01*
X100772380Y-82178571D01*
X100724761Y-82083333D01*
X100677142Y-82035714D01*
X100581904Y-81988095D01*
X100391428Y-81940476D01*
X100153333Y-81940476D01*
X99962857Y-81988095D01*
X99867619Y-82035714D01*
X99820000Y-82083333D01*
X99772380Y-82178571D01*
%TO.C,C21*%
X124692857Y-99677142D02*
X124740476Y-99724761D01*
X124883333Y-99772380D01*
X124978571Y-99772380D01*
X125121428Y-99724761D01*
X125216666Y-99629523D01*
X125264285Y-99534285D01*
X125311904Y-99343809D01*
X125311904Y-99200952D01*
X125264285Y-99010476D01*
X125216666Y-98915238D01*
X125121428Y-98820000D01*
X124978571Y-98772380D01*
X124883333Y-98772380D01*
X124740476Y-98820000D01*
X124692857Y-98867619D01*
X124311904Y-98867619D02*
X124264285Y-98820000D01*
X124169047Y-98772380D01*
X123930952Y-98772380D01*
X123835714Y-98820000D01*
X123788095Y-98867619D01*
X123740476Y-98962857D01*
X123740476Y-99058095D01*
X123788095Y-99200952D01*
X124359523Y-99772380D01*
X123740476Y-99772380D01*
X122788095Y-99772380D02*
X123359523Y-99772380D01*
X123073809Y-99772380D02*
X123073809Y-98772380D01*
X123169047Y-98915238D01*
X123264285Y-99010476D01*
X123359523Y-99058095D01*
%TO.C,R16*%
X146642857Y-111632380D02*
X146976190Y-111156190D01*
X147214285Y-111632380D02*
X147214285Y-110632380D01*
X146833333Y-110632380D01*
X146738095Y-110680000D01*
X146690476Y-110727619D01*
X146642857Y-110822857D01*
X146642857Y-110965714D01*
X146690476Y-111060952D01*
X146738095Y-111108571D01*
X146833333Y-111156190D01*
X147214285Y-111156190D01*
X145690476Y-111632380D02*
X146261904Y-111632380D01*
X145976190Y-111632380D02*
X145976190Y-110632380D01*
X146071428Y-110775238D01*
X146166666Y-110870476D01*
X146261904Y-110918095D01*
X144833333Y-110632380D02*
X145023809Y-110632380D01*
X145119047Y-110680000D01*
X145166666Y-110727619D01*
X145261904Y-110870476D01*
X145309523Y-111060952D01*
X145309523Y-111441904D01*
X145261904Y-111537142D01*
X145214285Y-111584761D01*
X145119047Y-111632380D01*
X144928571Y-111632380D01*
X144833333Y-111584761D01*
X144785714Y-111537142D01*
X144738095Y-111441904D01*
X144738095Y-111203809D01*
X144785714Y-111108571D01*
X144833333Y-111060952D01*
X144928571Y-111013333D01*
X145119047Y-111013333D01*
X145214285Y-111060952D01*
X145261904Y-111108571D01*
X145309523Y-111203809D01*
%TO.C,C12*%
X107007142Y-70857142D02*
X107054761Y-70809523D01*
X107102380Y-70666666D01*
X107102380Y-70571428D01*
X107054761Y-70428571D01*
X106959523Y-70333333D01*
X106864285Y-70285714D01*
X106673809Y-70238095D01*
X106530952Y-70238095D01*
X106340476Y-70285714D01*
X106245238Y-70333333D01*
X106150000Y-70428571D01*
X106102380Y-70571428D01*
X106102380Y-70666666D01*
X106150000Y-70809523D01*
X106197619Y-70857142D01*
X107102380Y-71809523D02*
X107102380Y-71238095D01*
X107102380Y-71523809D02*
X106102380Y-71523809D01*
X106245238Y-71428571D01*
X106340476Y-71333333D01*
X106388095Y-71238095D01*
X106197619Y-72190476D02*
X106150000Y-72238095D01*
X106102380Y-72333333D01*
X106102380Y-72571428D01*
X106150000Y-72666666D01*
X106197619Y-72714285D01*
X106292857Y-72761904D01*
X106388095Y-72761904D01*
X106530952Y-72714285D01*
X107102380Y-72142857D01*
X107102380Y-72761904D01*
%TO.C,C11*%
X102257142Y-70857142D02*
X102304761Y-70809523D01*
X102352380Y-70666666D01*
X102352380Y-70571428D01*
X102304761Y-70428571D01*
X102209523Y-70333333D01*
X102114285Y-70285714D01*
X101923809Y-70238095D01*
X101780952Y-70238095D01*
X101590476Y-70285714D01*
X101495238Y-70333333D01*
X101400000Y-70428571D01*
X101352380Y-70571428D01*
X101352380Y-70666666D01*
X101400000Y-70809523D01*
X101447619Y-70857142D01*
X102352380Y-71809523D02*
X102352380Y-71238095D01*
X102352380Y-71523809D02*
X101352380Y-71523809D01*
X101495238Y-71428571D01*
X101590476Y-71333333D01*
X101638095Y-71238095D01*
X102352380Y-72761904D02*
X102352380Y-72190476D01*
X102352380Y-72476190D02*
X101352380Y-72476190D01*
X101495238Y-72380952D01*
X101590476Y-72285714D01*
X101638095Y-72190476D01*
%TO.C,C13*%
X143592857Y-104207142D02*
X143640476Y-104254761D01*
X143783333Y-104302380D01*
X143878571Y-104302380D01*
X144021428Y-104254761D01*
X144116666Y-104159523D01*
X144164285Y-104064285D01*
X144211904Y-103873809D01*
X144211904Y-103730952D01*
X144164285Y-103540476D01*
X144116666Y-103445238D01*
X144021428Y-103350000D01*
X143878571Y-103302380D01*
X143783333Y-103302380D01*
X143640476Y-103350000D01*
X143592857Y-103397619D01*
X142640476Y-104302380D02*
X143211904Y-104302380D01*
X142926190Y-104302380D02*
X142926190Y-103302380D01*
X143021428Y-103445238D01*
X143116666Y-103540476D01*
X143211904Y-103588095D01*
X142307142Y-103302380D02*
X141688095Y-103302380D01*
X142021428Y-103683333D01*
X141878571Y-103683333D01*
X141783333Y-103730952D01*
X141735714Y-103778571D01*
X141688095Y-103873809D01*
X141688095Y-104111904D01*
X141735714Y-104207142D01*
X141783333Y-104254761D01*
X141878571Y-104302380D01*
X142164285Y-104302380D01*
X142259523Y-104254761D01*
X142307142Y-104207142D01*
%TO.C,C2*%
X143216666Y-108707142D02*
X143264285Y-108754761D01*
X143407142Y-108802380D01*
X143502380Y-108802380D01*
X143645238Y-108754761D01*
X143740476Y-108659523D01*
X143788095Y-108564285D01*
X143835714Y-108373809D01*
X143835714Y-108230952D01*
X143788095Y-108040476D01*
X143740476Y-107945238D01*
X143645238Y-107850000D01*
X143502380Y-107802380D01*
X143407142Y-107802380D01*
X143264285Y-107850000D01*
X143216666Y-107897619D01*
X142835714Y-107897619D02*
X142788095Y-107850000D01*
X142692857Y-107802380D01*
X142454761Y-107802380D01*
X142359523Y-107850000D01*
X142311904Y-107897619D01*
X142264285Y-107992857D01*
X142264285Y-108088095D01*
X142311904Y-108230952D01*
X142883333Y-108802380D01*
X142264285Y-108802380D01*
%TO.C,D6*%
X135952380Y-132261904D02*
X134952380Y-132261904D01*
X134952380Y-132500000D01*
X135000000Y-132642857D01*
X135095238Y-132738095D01*
X135190476Y-132785714D01*
X135380952Y-132833333D01*
X135523809Y-132833333D01*
X135714285Y-132785714D01*
X135809523Y-132738095D01*
X135904761Y-132642857D01*
X135952380Y-132500000D01*
X135952380Y-132261904D01*
X134952380Y-133690476D02*
X134952380Y-133500000D01*
X135000000Y-133404761D01*
X135047619Y-133357142D01*
X135190476Y-133261904D01*
X135380952Y-133214285D01*
X135761904Y-133214285D01*
X135857142Y-133261904D01*
X135904761Y-133309523D01*
X135952380Y-133404761D01*
X135952380Y-133595238D01*
X135904761Y-133690476D01*
X135857142Y-133738095D01*
X135761904Y-133785714D01*
X135523809Y-133785714D01*
X135428571Y-133738095D01*
X135380952Y-133690476D01*
X135333333Y-133595238D01*
X135333333Y-133404761D01*
X135380952Y-133309523D01*
X135428571Y-133261904D01*
X135523809Y-133214285D01*
D12*
%TO.C,C20*%
X102735000Y-80988748D02*
X102735000Y-81511252D01*
X101265000Y-80988748D02*
X101265000Y-81511252D01*
%TO.C,C21*%
X124311252Y-100265000D02*
X123788748Y-100265000D01*
X124311252Y-101735000D02*
X123788748Y-101735000D01*
%TO.C,R16*%
X146727064Y-112090000D02*
X145272936Y-112090000D01*
X146727064Y-113910000D02*
X145272936Y-113910000D01*
%TO.C,C12*%
X109410000Y-70788748D02*
X109410000Y-72211252D01*
X107590000Y-70788748D02*
X107590000Y-72211252D01*
%TO.C,C11*%
X102840000Y-70788748D02*
X102840000Y-72211252D01*
X104660000Y-70788748D02*
X104660000Y-72211252D01*
%TO.C,C13*%
X142238748Y-102910000D02*
X143661252Y-102910000D01*
X142238748Y-101090000D02*
X143661252Y-101090000D01*
%TO.C,C2*%
X142338748Y-105590000D02*
X143761252Y-105590000D01*
X142338748Y-107410000D02*
X143761252Y-107410000D01*
%TO.C,D6*%
X134650000Y-136400000D02*
X134650000Y-131000000D01*
X134650000Y-136400000D02*
X131350000Y-136400000D01*
X131350000Y-136400000D02*
X131350000Y-131000000D01*
%TD*%
M02*
