%TF.GenerationSoftware,KiCad,Pcbnew,(6.0.10)*%
%TF.CreationDate,2024-06-09T15:04:39-04:00*%
%TF.ProjectId,Impedance_Analyzer_V4,496d7065-6461-46e6-9365-5f416e616c79,rev?*%
%TF.SameCoordinates,Original*%
%TF.FileFunction,Paste,Top*%
%TF.FilePolarity,Positive*%
%FSLAX46Y46*%
G04 Gerber Fmt 4.6, Leading zero omitted, Abs format (unit mm)*
G04 Created by KiCad (PCBNEW (6.0.10)) date 2024-06-09 15:04:39*
%MOMM*%
%LPD*%
G01*
G04 APERTURE LIST*
G04 Aperture macros list*
%AMRoundRect*
0 Rectangle with rounded corners*
0 $1 Rounding radius*
0 $2 $3 $4 $5 $6 $7 $8 $9 X,Y pos of 4 corners*
0 Add a 4 corners polygon primitive as box body*
4,1,4,$2,$3,$4,$5,$6,$7,$8,$9,$2,$3,0*
0 Add four circle primitives for the rounded corners*
1,1,$1+$1,$2,$3*
1,1,$1+$1,$4,$5*
1,1,$1+$1,$6,$7*
1,1,$1+$1,$8,$9*
0 Add four rect primitives between the rounded corners*
20,1,$1+$1,$2,$3,$4,$5,0*
20,1,$1+$1,$4,$5,$6,$7,0*
20,1,$1+$1,$6,$7,$8,$9,0*
20,1,$1+$1,$8,$9,$2,$3,0*%
G04 Aperture macros list end*
%ADD10C,0.010000*%
%ADD11R,0.400000X1.350000*%
%ADD12R,1.500000X1.550000*%
%ADD13RoundRect,0.249998X-0.625002X0.312502X-0.625002X-0.312502X0.625002X-0.312502X0.625002X0.312502X0*%
%ADD14RoundRect,0.249998X0.312502X0.625002X-0.312502X0.625002X-0.312502X-0.625002X0.312502X-0.625002X0*%
%ADD15RoundRect,0.250000X-0.475000X0.250000X-0.475000X-0.250000X0.475000X-0.250000X0.475000X0.250000X0*%
%ADD16RoundRect,0.150000X-0.725000X-0.150000X0.725000X-0.150000X0.725000X0.150000X-0.725000X0.150000X0*%
%ADD17RoundRect,0.250000X0.250000X0.475000X-0.250000X0.475000X-0.250000X-0.475000X0.250000X-0.475000X0*%
%ADD18RoundRect,0.250000X-0.250000X-0.475000X0.250000X-0.475000X0.250000X0.475000X-0.250000X0.475000X0*%
%ADD19R,0.450000X0.600000*%
%ADD20RoundRect,0.250000X-0.350000X-0.450000X0.350000X-0.450000X0.350000X0.450000X-0.350000X0.450000X0*%
%ADD21RoundRect,0.249999X-0.625001X0.312501X-0.625001X-0.312501X0.625001X-0.312501X0.625001X0.312501X0*%
%ADD22RoundRect,0.150000X-0.150000X0.725000X-0.150000X-0.725000X0.150000X-0.725000X0.150000X0.725000X0*%
%ADD23R,7.700000X3.100000*%
%ADD24RoundRect,0.250000X0.312500X0.625000X-0.312500X0.625000X-0.312500X-0.625000X0.312500X-0.625000X0*%
%ADD25RoundRect,0.250000X-1.000000X1.950000X-1.000000X-1.950000X1.000000X-1.950000X1.000000X1.950000X0*%
%ADD26R,2.209800X0.990600*%
%ADD27RoundRect,0.150000X0.587500X0.150000X-0.587500X0.150000X-0.587500X-0.150000X0.587500X-0.150000X0*%
%ADD28RoundRect,0.250000X1.000000X-1.950000X1.000000X1.950000X-1.000000X1.950000X-1.000000X-1.950000X0*%
%ADD29RoundRect,0.250000X0.350000X0.450000X-0.350000X0.450000X-0.350000X-0.450000X0.350000X-0.450000X0*%
%ADD30R,5.900000X2.450000*%
%ADD31R,0.900000X1.200000*%
%ADD32RoundRect,0.250000X-1.950000X-1.000000X1.950000X-1.000000X1.950000X1.000000X-1.950000X1.000000X0*%
%ADD33RoundRect,0.150000X-0.150000X0.587500X-0.150000X-0.587500X0.150000X-0.587500X0.150000X0.587500X0*%
%ADD34RoundRect,0.250000X0.625000X-0.312500X0.625000X0.312500X-0.625000X0.312500X-0.625000X-0.312500X0*%
%ADD35RoundRect,0.250000X-0.312500X-0.625000X0.312500X-0.625000X0.312500X0.625000X-0.312500X0.625000X0*%
%ADD36RoundRect,0.250000X0.475000X-0.250000X0.475000X0.250000X-0.475000X0.250000X-0.475000X-0.250000X0*%
%ADD37R,1.200000X0.900000*%
%ADD38RoundRect,0.150000X-0.150000X0.825000X-0.150000X-0.825000X0.150000X-0.825000X0.150000X0.825000X0*%
%ADD39RoundRect,0.150000X0.150000X-0.587500X0.150000X0.587500X-0.150000X0.587500X-0.150000X-0.587500X0*%
%ADD40RoundRect,0.250000X-0.625000X0.312500X-0.625000X-0.312500X0.625000X-0.312500X0.625000X0.312500X0*%
%ADD41RoundRect,0.250000X-0.412500X-0.650000X0.412500X-0.650000X0.412500X0.650000X-0.412500X0.650000X0*%
%ADD42RoundRect,0.250000X0.650000X-0.412500X0.650000X0.412500X-0.650000X0.412500X-0.650000X-0.412500X0*%
%ADD43RoundRect,0.250001X-0.462499X-0.624999X0.462499X-0.624999X0.462499X0.624999X-0.462499X0.624999X0*%
%ADD44RoundRect,0.250000X0.412500X0.650000X-0.412500X0.650000X-0.412500X-0.650000X0.412500X-0.650000X0*%
%ADD45R,2.500000X1.800000*%
G04 APERTURE END LIST*
%TO.C,J2*%
G36*
X97950000Y-141775000D02*
G01*
X96805000Y-141775000D01*
X96779000Y-141774000D01*
X96753000Y-141772000D01*
X96727000Y-141769000D01*
X96701000Y-141764000D01*
X96676000Y-141758000D01*
X96650000Y-141751000D01*
X96626000Y-141742000D01*
X96602000Y-141732000D01*
X96578000Y-141721000D01*
X96555000Y-141708000D01*
X96511000Y-141680000D01*
X96490000Y-141664000D01*
X96470000Y-141647000D01*
X96451000Y-141629000D01*
X96433000Y-141610000D01*
X96416000Y-141590000D01*
X96400000Y-141569000D01*
X96372000Y-141525000D01*
X96359000Y-141502000D01*
X96348000Y-141478000D01*
X96338000Y-141454000D01*
X96329000Y-141430000D01*
X96322000Y-141404000D01*
X96316000Y-141379000D01*
X96311000Y-141353000D01*
X96308000Y-141327000D01*
X96306000Y-141301000D01*
X96305000Y-141275000D01*
X96305000Y-140725000D01*
X96306000Y-140699000D01*
X96308000Y-140673000D01*
X96311000Y-140647000D01*
X96316000Y-140621000D01*
X96322000Y-140596000D01*
X96329000Y-140570000D01*
X96338000Y-140546000D01*
X96348000Y-140522000D01*
X96359000Y-140498000D01*
X96372000Y-140475000D01*
X96400000Y-140431000D01*
X96416000Y-140410000D01*
X96433000Y-140390000D01*
X96451000Y-140371000D01*
X96470000Y-140353000D01*
X96490000Y-140336000D01*
X96511000Y-140320000D01*
X96555000Y-140292000D01*
X96578000Y-140279000D01*
X96602000Y-140268000D01*
X96626000Y-140258000D01*
X96650000Y-140249000D01*
X96676000Y-140242000D01*
X96701000Y-140236000D01*
X96727000Y-140231000D01*
X96753000Y-140228000D01*
X96779000Y-140226000D01*
X96805000Y-140225000D01*
X97950000Y-140225000D01*
X97950000Y-141775000D01*
G37*
D10*
X97950000Y-141775000D02*
X96805000Y-141775000D01*
X96779000Y-141774000D01*
X96753000Y-141772000D01*
X96727000Y-141769000D01*
X96701000Y-141764000D01*
X96676000Y-141758000D01*
X96650000Y-141751000D01*
X96626000Y-141742000D01*
X96602000Y-141732000D01*
X96578000Y-141721000D01*
X96555000Y-141708000D01*
X96511000Y-141680000D01*
X96490000Y-141664000D01*
X96470000Y-141647000D01*
X96451000Y-141629000D01*
X96433000Y-141610000D01*
X96416000Y-141590000D01*
X96400000Y-141569000D01*
X96372000Y-141525000D01*
X96359000Y-141502000D01*
X96348000Y-141478000D01*
X96338000Y-141454000D01*
X96329000Y-141430000D01*
X96322000Y-141404000D01*
X96316000Y-141379000D01*
X96311000Y-141353000D01*
X96308000Y-141327000D01*
X96306000Y-141301000D01*
X96305000Y-141275000D01*
X96305000Y-140725000D01*
X96306000Y-140699000D01*
X96308000Y-140673000D01*
X96311000Y-140647000D01*
X96316000Y-140621000D01*
X96322000Y-140596000D01*
X96329000Y-140570000D01*
X96338000Y-140546000D01*
X96348000Y-140522000D01*
X96359000Y-140498000D01*
X96372000Y-140475000D01*
X96400000Y-140431000D01*
X96416000Y-140410000D01*
X96433000Y-140390000D01*
X96451000Y-140371000D01*
X96470000Y-140353000D01*
X96490000Y-140336000D01*
X96511000Y-140320000D01*
X96555000Y-140292000D01*
X96578000Y-140279000D01*
X96602000Y-140268000D01*
X96626000Y-140258000D01*
X96650000Y-140249000D01*
X96676000Y-140242000D01*
X96701000Y-140236000D01*
X96727000Y-140231000D01*
X96753000Y-140228000D01*
X96779000Y-140226000D01*
X96805000Y-140225000D01*
X97950000Y-140225000D01*
X97950000Y-141775000D01*
G36*
X103721000Y-140226000D02*
G01*
X103747000Y-140228000D01*
X103773000Y-140231000D01*
X103799000Y-140236000D01*
X103824000Y-140242000D01*
X103850000Y-140249000D01*
X103874000Y-140258000D01*
X103898000Y-140268000D01*
X103922000Y-140279000D01*
X103945000Y-140292000D01*
X103989000Y-140320000D01*
X104010000Y-140336000D01*
X104030000Y-140353000D01*
X104049000Y-140371000D01*
X104067000Y-140390000D01*
X104084000Y-140410000D01*
X104100000Y-140431000D01*
X104128000Y-140475000D01*
X104141000Y-140498000D01*
X104152000Y-140522000D01*
X104162000Y-140546000D01*
X104171000Y-140570000D01*
X104178000Y-140596000D01*
X104184000Y-140621000D01*
X104189000Y-140647000D01*
X104192000Y-140673000D01*
X104194000Y-140699000D01*
X104195000Y-140725000D01*
X104195000Y-141275000D01*
X104194000Y-141301000D01*
X104192000Y-141327000D01*
X104189000Y-141353000D01*
X104184000Y-141379000D01*
X104178000Y-141404000D01*
X104171000Y-141430000D01*
X104162000Y-141454000D01*
X104152000Y-141478000D01*
X104141000Y-141502000D01*
X104128000Y-141525000D01*
X104100000Y-141569000D01*
X104084000Y-141590000D01*
X104067000Y-141610000D01*
X104049000Y-141629000D01*
X104030000Y-141647000D01*
X104010000Y-141664000D01*
X103989000Y-141680000D01*
X103945000Y-141708000D01*
X103922000Y-141721000D01*
X103898000Y-141732000D01*
X103874000Y-141742000D01*
X103850000Y-141751000D01*
X103824000Y-141758000D01*
X103799000Y-141764000D01*
X103773000Y-141769000D01*
X103747000Y-141772000D01*
X103721000Y-141774000D01*
X103695000Y-141775000D01*
X102550000Y-141775000D01*
X102550000Y-140225000D01*
X103695000Y-140225000D01*
X103721000Y-140226000D01*
G37*
X103721000Y-140226000D02*
X103747000Y-140228000D01*
X103773000Y-140231000D01*
X103799000Y-140236000D01*
X103824000Y-140242000D01*
X103850000Y-140249000D01*
X103874000Y-140258000D01*
X103898000Y-140268000D01*
X103922000Y-140279000D01*
X103945000Y-140292000D01*
X103989000Y-140320000D01*
X104010000Y-140336000D01*
X104030000Y-140353000D01*
X104049000Y-140371000D01*
X104067000Y-140390000D01*
X104084000Y-140410000D01*
X104100000Y-140431000D01*
X104128000Y-140475000D01*
X104141000Y-140498000D01*
X104152000Y-140522000D01*
X104162000Y-140546000D01*
X104171000Y-140570000D01*
X104178000Y-140596000D01*
X104184000Y-140621000D01*
X104189000Y-140647000D01*
X104192000Y-140673000D01*
X104194000Y-140699000D01*
X104195000Y-140725000D01*
X104195000Y-141275000D01*
X104194000Y-141301000D01*
X104192000Y-141327000D01*
X104189000Y-141353000D01*
X104184000Y-141379000D01*
X104178000Y-141404000D01*
X104171000Y-141430000D01*
X104162000Y-141454000D01*
X104152000Y-141478000D01*
X104141000Y-141502000D01*
X104128000Y-141525000D01*
X104100000Y-141569000D01*
X104084000Y-141590000D01*
X104067000Y-141610000D01*
X104049000Y-141629000D01*
X104030000Y-141647000D01*
X104010000Y-141664000D01*
X103989000Y-141680000D01*
X103945000Y-141708000D01*
X103922000Y-141721000D01*
X103898000Y-141732000D01*
X103874000Y-141742000D01*
X103850000Y-141751000D01*
X103824000Y-141758000D01*
X103799000Y-141764000D01*
X103773000Y-141769000D01*
X103747000Y-141772000D01*
X103721000Y-141774000D01*
X103695000Y-141775000D01*
X102550000Y-141775000D01*
X102550000Y-140225000D01*
X103695000Y-140225000D01*
X103721000Y-140226000D01*
%TD*%
D11*
%TO.C,J2*%
X98950000Y-138325000D03*
X99600000Y-138325000D03*
X100250000Y-138325000D03*
X100900000Y-138325000D03*
X101550000Y-138325000D03*
D12*
X99250000Y-141000000D03*
X101250000Y-141000000D03*
%TD*%
D13*
%TO.C,R7*%
X126750000Y-103537500D03*
X126750000Y-106462500D03*
%TD*%
D14*
%TO.C,R8*%
X135212500Y-96750000D03*
X132287500Y-96750000D03*
%TD*%
D13*
%TO.C,R2*%
X124475000Y-59972500D03*
X124475000Y-62897500D03*
%TD*%
D15*
%TO.C,C1*%
X94000000Y-63550000D03*
X94000000Y-65450000D03*
%TD*%
D14*
%TO.C,R1*%
X93962500Y-61000000D03*
X91037500Y-61000000D03*
%TD*%
D16*
%TO.C,U1*%
X113925000Y-58595000D03*
X113925000Y-59865000D03*
X113925000Y-61135000D03*
X113925000Y-62405000D03*
X119075000Y-62405000D03*
X119075000Y-61135000D03*
X119075000Y-59865000D03*
X119075000Y-58595000D03*
%TD*%
D15*
%TO.C,C14*%
X110000000Y-64050000D03*
X110000000Y-65950000D03*
%TD*%
D17*
%TO.C,C17*%
X132450000Y-101000000D03*
X130550000Y-101000000D03*
%TD*%
D18*
%TO.C,C19*%
X119050000Y-56750000D03*
X120950000Y-56750000D03*
%TD*%
D15*
%TO.C,C20*%
X111975000Y-64050000D03*
X111975000Y-65950000D03*
%TD*%
D19*
%TO.C,D4*%
X113250000Y-127550000D03*
X113250000Y-125450000D03*
%TD*%
%TO.C,D5*%
X100000000Y-103450000D03*
X100000000Y-105550000D03*
%TD*%
D20*
%TO.C,R19*%
X145250000Y-114750000D03*
X147250000Y-114750000D03*
%TD*%
%TO.C,R20*%
X147750000Y-87500000D03*
X149750000Y-87500000D03*
%TD*%
D17*
%TO.C,C22*%
X148140000Y-140000000D03*
X146240000Y-140000000D03*
%TD*%
D18*
%TO.C,C23*%
X140050000Y-84500000D03*
X141950000Y-84500000D03*
%TD*%
%TO.C,C24*%
X119025000Y-54500000D03*
X120925000Y-54500000D03*
%TD*%
%TO.C,C21*%
X144240000Y-125500000D03*
X146140000Y-125500000D03*
%TD*%
D14*
%TO.C,R9*%
X145616250Y-70960000D03*
X142691250Y-70960000D03*
%TD*%
D21*
%TO.C,R10*%
X121975000Y-59972500D03*
X121975000Y-62897500D03*
%TD*%
%TO.C,R18*%
X140000000Y-119750000D03*
X140000000Y-122675000D03*
%TD*%
D22*
%TO.C,U2*%
X148000000Y-130000000D03*
X146730000Y-130000000D03*
X145460000Y-130000000D03*
X144190000Y-130000000D03*
X144190000Y-135150000D03*
X145460000Y-135150000D03*
X146730000Y-135150000D03*
X148000000Y-135150000D03*
%TD*%
D17*
%TO.C,C3*%
X148095000Y-137575000D03*
X146195000Y-137575000D03*
%TD*%
%TO.C,C10*%
X93450000Y-95250000D03*
X91550000Y-95250000D03*
%TD*%
D23*
%TO.C,L2*%
X106000000Y-109500000D03*
X106000000Y-102600000D03*
%TD*%
D17*
%TO.C,C8*%
X105750000Y-117000000D03*
X103850000Y-117000000D03*
%TD*%
D23*
%TO.C,L1*%
X119250000Y-129000000D03*
X119250000Y-122100000D03*
%TD*%
D18*
%TO.C,C18*%
X144240000Y-127500000D03*
X146140000Y-127500000D03*
%TD*%
D24*
%TO.C,R30*%
X137462500Y-60500000D03*
X134537500Y-60500000D03*
%TD*%
D25*
%TO.C,C27*%
X121250000Y-109100000D03*
X121250000Y-117500000D03*
%TD*%
D26*
%TO.C,K1*%
X153250000Y-105350000D03*
X153250000Y-100270000D03*
X153250000Y-97730000D03*
X153250000Y-95190000D03*
X153250000Y-92650000D03*
X145250001Y-92650000D03*
X145250001Y-95190000D03*
X145250001Y-97730000D03*
X145250001Y-100270000D03*
X145250001Y-105350000D03*
%TD*%
D20*
%TO.C,R23*%
X96000000Y-131750000D03*
X98000000Y-131750000D03*
%TD*%
%TO.C,R116*%
X84000000Y-126500000D03*
X86000000Y-126500000D03*
%TD*%
D24*
%TO.C,R22*%
X93962500Y-58500000D03*
X91037500Y-58500000D03*
%TD*%
D15*
%TO.C,C5*%
X97000000Y-115300000D03*
X97000000Y-117200000D03*
%TD*%
D27*
%TO.C,Q21*%
X93937500Y-134700000D03*
X93937500Y-132800000D03*
X92062500Y-133750000D03*
%TD*%
D28*
%TO.C,C28*%
X108250000Y-97450000D03*
X108250000Y-89050000D03*
%TD*%
D29*
%TO.C,R25*%
X94000000Y-136500000D03*
X92000000Y-136500000D03*
%TD*%
D26*
%TO.C,K2*%
X129250001Y-117300000D03*
X129250001Y-122380000D03*
X129250001Y-124920000D03*
X129250001Y-127460000D03*
X129250001Y-130000000D03*
X137250000Y-130000000D03*
X137250000Y-127460000D03*
X137250000Y-124920000D03*
X137250000Y-122380000D03*
X137250000Y-117300000D03*
%TD*%
D27*
%TO.C,Q1*%
X149187500Y-109450000D03*
X149187500Y-107550000D03*
X147312500Y-108500000D03*
%TD*%
D24*
%TO.C,R24*%
X145616250Y-68460000D03*
X142691250Y-68460000D03*
%TD*%
D20*
%TO.C,R115*%
X84000000Y-123500000D03*
X86000000Y-123500000D03*
%TD*%
%TO.C,R113*%
X84000000Y-129250000D03*
X86000000Y-129250000D03*
%TD*%
D30*
%TO.C,L4*%
X97750000Y-101000000D03*
X97750000Y-95450000D03*
%TD*%
D24*
%TO.C,R29*%
X145765000Y-54235000D03*
X142840000Y-54235000D03*
%TD*%
D31*
%TO.C,D7*%
X150900000Y-89750000D03*
X147600000Y-89750000D03*
%TD*%
D32*
%TO.C,C29*%
X118050000Y-137000000D03*
X126450000Y-137000000D03*
%TD*%
D33*
%TO.C,Q2*%
X141950000Y-113562500D03*
X140050000Y-113562500D03*
X141000000Y-115437500D03*
%TD*%
D17*
%TO.C,C6*%
X97450000Y-105250000D03*
X95550000Y-105250000D03*
%TD*%
D20*
%TO.C,R27*%
X96250000Y-124500000D03*
X98250000Y-124500000D03*
%TD*%
D31*
%TO.C,D3*%
X132850000Y-114250000D03*
X136150000Y-114250000D03*
%TD*%
D34*
%TO.C,R11*%
X93750000Y-114712500D03*
X93750000Y-111787500D03*
%TD*%
D35*
%TO.C,R5*%
X110537500Y-137960000D03*
X113462500Y-137960000D03*
%TD*%
%TO.C,R16*%
X149727500Y-124000000D03*
X152652500Y-124000000D03*
%TD*%
D34*
%TO.C,R12*%
X99500000Y-117962500D03*
X99500000Y-115037500D03*
%TD*%
D36*
%TO.C,C15*%
X94000000Y-55950000D03*
X94000000Y-54050000D03*
%TD*%
D20*
%TO.C,R32*%
X96250000Y-127750000D03*
X98250000Y-127750000D03*
%TD*%
D37*
%TO.C,D1*%
X142500000Y-101700000D03*
X142500000Y-105000000D03*
%TD*%
D38*
%TO.C,U8*%
X99905000Y-107775000D03*
X98635000Y-107775000D03*
X97365000Y-107775000D03*
X96095000Y-107775000D03*
X96095000Y-112725000D03*
X97365000Y-112725000D03*
X98635000Y-112725000D03*
X99905000Y-112725000D03*
%TD*%
D24*
%TO.C,R28*%
X145690000Y-56735000D03*
X142765000Y-56735000D03*
%TD*%
D27*
%TO.C,Q20*%
X93937500Y-131200000D03*
X93937500Y-129300000D03*
X92062500Y-130250000D03*
%TD*%
D17*
%TO.C,C26*%
X108700000Y-138000000D03*
X106800000Y-138000000D03*
%TD*%
D35*
%TO.C,R15*%
X103037500Y-113000000D03*
X105962500Y-113000000D03*
%TD*%
D20*
%TO.C,R114*%
X84000000Y-132250000D03*
X86000000Y-132250000D03*
%TD*%
D39*
%TO.C,Q3*%
X135050000Y-137187500D03*
X136950000Y-137187500D03*
X136000000Y-135312500D03*
%TD*%
D40*
%TO.C,R14*%
X142500000Y-119750000D03*
X142500000Y-122675000D03*
%TD*%
D30*
%TO.C,L3*%
X110000000Y-122250000D03*
X110000000Y-116700000D03*
%TD*%
D34*
%TO.C,R4*%
X107000000Y-135712500D03*
X107000000Y-132787500D03*
%TD*%
D39*
%TO.C,Q4*%
X143050000Y-89687500D03*
X144950000Y-89687500D03*
X144000000Y-87812500D03*
%TD*%
D41*
%TO.C,C12*%
X117975000Y-52000000D03*
X121100000Y-52000000D03*
%TD*%
D20*
%TO.C,R21*%
X135000000Y-139250000D03*
X137000000Y-139250000D03*
%TD*%
D42*
%TO.C,C11*%
X107475000Y-66497500D03*
X107475000Y-63372500D03*
%TD*%
D43*
%TO.C,F1*%
X101250000Y-123000000D03*
X104225000Y-123000000D03*
%TD*%
D27*
%TO.C,Q22*%
X93937500Y-124200000D03*
X93937500Y-122300000D03*
X92062500Y-123250000D03*
%TD*%
D31*
%TO.C,D2*%
X132100000Y-133000000D03*
X135400000Y-133000000D03*
%TD*%
D41*
%TO.C,C13*%
X151690000Y-130000000D03*
X154815000Y-130000000D03*
%TD*%
D34*
%TO.C,R13*%
X93750000Y-110000000D03*
X93750000Y-107075000D03*
%TD*%
D38*
%TO.C,U5*%
X113405000Y-129525000D03*
X112135000Y-129525000D03*
X110865000Y-129525000D03*
X109595000Y-129525000D03*
X109595000Y-134475000D03*
X110865000Y-134475000D03*
X112135000Y-134475000D03*
X113405000Y-134475000D03*
%TD*%
D44*
%TO.C,C2*%
X143500000Y-111000000D03*
X140375000Y-111000000D03*
%TD*%
D35*
%TO.C,R26*%
X133287500Y-80750000D03*
X136212500Y-80750000D03*
%TD*%
D34*
%TO.C,R6*%
X107000000Y-130675000D03*
X107000000Y-127750000D03*
%TD*%
D27*
%TO.C,Q23*%
X93937500Y-127700000D03*
X93937500Y-125800000D03*
X92062500Y-126750000D03*
%TD*%
D35*
%TO.C,R31*%
X134537500Y-63500000D03*
X137462500Y-63500000D03*
%TD*%
D17*
%TO.C,C4*%
X111200000Y-127000000D03*
X109300000Y-127000000D03*
%TD*%
D45*
%TO.C,D6*%
X115500000Y-102250000D03*
X119500000Y-102250000D03*
%TD*%
D20*
%TO.C,R17*%
X151250000Y-109500000D03*
X153250000Y-109500000D03*
%TD*%
M02*
