M48
; DRILL file {KiCad (6.0.10)} date Sun Jun  9 15:04:41 2024
; FORMAT={-:-/ absolute / inch / decimal}
; #@! TF.CreationDate,2024-06-09T15:04:41-04:00
; #@! TF.GenerationSoftware,Kicad,Pcbnew,(6.0.10)
; #@! TF.FileFunction,Plated,1,4,PTH
FMAT,2
INCH
; #@! TA.AperFunction,Plated,PTH,ViaDrill
T1C0.0157
; #@! TA.AperFunction,Plated,PTH,ComponentDrill
T2C0.0197
; #@! TA.AperFunction,Plated,PTH,ComponentDrill
T3C0.0217
; #@! TA.AperFunction,Plated,PTH,ComponentDrill
T4C0.0315
; #@! TA.AperFunction,Plated,PTH,ComponentDrill
T5C0.0335
; #@! TA.AperFunction,Plated,PTH,ComponentDrill
T6C0.0350
; #@! TA.AperFunction,Plated,PTH,ComponentDrill
T7C0.0366
; #@! TA.AperFunction,Plated,PTH,ComponentDrill
T8C0.0394
; #@! TA.AperFunction,Plated,PTH,ComponentDrill
T9C0.0787
; #@! TA.AperFunction,Plated,PTH,ComponentDrill
T10C0.1693
%
G90
G05
T1
X2.815Y-5.2508
X2.815Y-5.3508
X3.0823Y-5.561
X3.1118Y-1.7352
X3.1823Y-5.561
X3.2118Y-1.7352
X3.2283Y-3.3071
X3.3118Y-1.7352
X3.3227Y-3.2203
X3.3228Y-2.7638
X3.3386Y-4.5906
X3.3823Y-5.561
X3.4118Y-1.7352
X3.4823Y-5.561
X3.5118Y-1.7352
X3.5748Y-5.0472
X3.6118Y-1.7352
X3.6823Y-5.561
X3.7118Y-1.7352
X3.7402Y-4.5118
X3.7402Y-5.2362
X3.748Y-4.1339
X3.7717Y-5.2756
X3.7748Y-2.3622
X3.7795Y-4.2913
X3.7795Y-4.6063
X3.7874Y-5.126
X3.8118Y-1.7352
X3.8661Y-3.6929
X3.8748Y-2.3622
X3.8819Y-4.2913
X3.9118Y-1.7352
X3.9213Y-4.685
X3.924Y-2.2638
X3.9437Y-2.4508
X3.9748Y-2.3622
X4.0118Y-1.7352
X4.024Y-2.2638
X4.0437Y-2.4508
X4.063Y-4.5984
X4.0748Y-2.3622
X4.1118Y-1.7352
X4.124Y-2.2638
X4.1437Y-2.4508
X4.1496Y-4.8504
X4.1823Y-5.561
X4.2118Y-1.7352
X4.2823Y-5.561
X4.3118Y-1.7352
X4.315Y-5.4016
X4.3494Y-2.4403
X4.3504Y-2.3031
X4.3602Y-3.1299
X4.3996Y-5.4823
X4.4118Y-1.7352
X4.4685Y-2.5787
X4.4882Y-2.2126
X4.4996Y-1.7352
X4.5063Y-3.1201
X4.5063Y-3.2382
X4.5063Y-3.3563
X4.5069Y-2.5368
X4.5079Y-5.4823
X4.5512Y-4.874
X4.5856Y-2.4778
X4.5866Y-2.1654
X4.5866Y-2.3819
X4.5965Y-5.4823
X4.5996Y-1.7352
X4.6063Y-3.2382
X4.6063Y-3.3563
X4.6299Y-5.3937
X4.685Y-5.561
X4.7795Y-3.8976
X4.7874Y-4.0315
X4.8346Y-4.748
X4.8346Y-4.8661
X4.8622Y-2.9035
X4.8819Y-3.722
X4.9016Y-2.6378
X4.9016Y-2.7378
X4.9016Y-3.0709
X4.9016Y-3.1709
X4.9016Y-3.2709
X4.9291Y-3.9921
X4.9548Y-2.2302
X4.9687Y-2.6065
X4.9687Y-3.3348
X4.9764Y-5.3937
X5.063Y-4.5906
X5.1417Y-4.7244
X5.1575Y-4.311
X5.1575Y-4.6752
X5.2008Y-5.2362
X5.2283Y-3.4665
X5.2382Y-3.6142
X5.2382Y-3.7028
X5.2571Y-4.4461
X5.2677Y-5.4961
X5.3071Y-3.4075
X5.3169Y-3.5551
X5.3248Y-4.2018
X5.374Y-4.2323
X5.4094Y-5.4016
X5.4331Y-5.4882
X5.4626Y-5.0492
X5.4718Y-4.4968
X5.4724Y-5.1969
X5.5118Y-4.6654
X5.5429Y-3.1496
X5.5474Y-3.9726
X5.5512Y-2.2244
X5.5512Y-5.0
X5.5966Y-2.6362
X5.6102Y-3.3563
X5.6102Y-4.6654
X5.6177Y-5.315
X5.6299Y-3.0315
X5.6496Y-3.6024
X5.6614Y-4.2362
X5.685Y-4.378
X5.7124Y-5.3967
X5.7283Y-3.5531
X5.7291Y-4.4508
X5.7321Y-5.1604
X5.7382Y-4.8622
X5.7738Y-2.6362
X5.8346Y-4.5197
X5.8933Y-5.1575
X5.8933Y-5.2559
X5.935Y-4.1437
X5.9547Y-3.6516
X6.1319Y-2.4508
X6.1909Y-5.0295
X6.2874Y-3.2657
X6.3386Y-3.3012
X6.3386Y-4.6102
X6.3386Y-4.7283
X6.3583Y-3.4291
X6.372Y-4.7933
T4
X3.9079Y-1.9685
X4.1047Y-1.9685
X4.2913Y-1.9685
X4.4882Y-1.9685
X5.075Y-1.947
X5.075Y-2.047
X5.075Y-2.147
X5.075Y-2.247
X5.1063Y-4.0701
X5.1063Y-4.3701
X5.1134Y-3.3909
X5.1134Y-3.4909
X5.1134Y-3.5909
X5.1134Y-3.6909
X5.1429Y-2.761
X5.1429Y-2.861
X5.1429Y-2.961
X5.1429Y-3.061
X5.2063Y-4.0701
X5.2063Y-4.3701
X5.3063Y-4.0701
X5.3063Y-4.3701
X5.375Y-1.947
X5.375Y-2.047
X5.375Y-2.147
X5.375Y-2.247
X5.4063Y-4.0701
X5.4063Y-4.3701
X5.4134Y-3.3909
X5.4134Y-3.4909
X5.4134Y-3.5909
X5.4134Y-3.6909
X5.4429Y-2.761
X5.4429Y-2.861
X5.4429Y-2.961
X5.4429Y-3.061
T5
X2.9055Y-2.5709
X2.9055Y-2.6709
X2.9055Y-2.7709
X2.9055Y-2.8709
X2.9055Y-2.9709
X2.9055Y-3.0709
X2.9055Y-3.1709
X2.9055Y-3.2709
X2.9055Y-3.3709
X2.9055Y-3.4709
X2.9055Y-3.5709
X2.9055Y-3.6709
X2.9055Y-3.7709
X2.9055Y-3.8709
X2.9055Y-3.9709
X2.9055Y-4.0709
X2.9055Y-4.1709
X2.9805Y-2.5209
X2.9805Y-2.6209
X2.9805Y-2.7209
X2.9805Y-2.8209
X2.9805Y-2.9209
X2.9805Y-3.0209
X2.9805Y-3.1209
X2.9805Y-3.2209
X2.9805Y-3.3209
X2.9805Y-3.4209
X2.9805Y-3.5209
X2.9805Y-3.6209
X2.9805Y-3.7209
X2.9805Y-3.8209
X2.9805Y-3.9209
X2.9805Y-4.0209
X2.9805Y-4.1209
X3.0555Y-2.5709
X3.0555Y-2.6709
X3.0555Y-2.7709
X3.0555Y-2.8709
X3.0555Y-2.9709
X3.0555Y-3.0709
X3.0555Y-3.1709
X3.0555Y-3.2709
X3.0555Y-3.3709
X3.0555Y-3.4709
X3.0555Y-3.5709
X3.0555Y-3.6709
X3.0555Y-3.7709
X3.0555Y-3.8709
X3.0555Y-3.9709
X3.0555Y-4.0709
X3.0555Y-4.1709
X3.1305Y-2.5209
X3.1305Y-2.6209
X3.1305Y-2.7209
X3.1305Y-2.8209
X3.1305Y-2.9209
X3.1305Y-3.0209
X3.1305Y-3.1209
X3.1305Y-3.2209
X3.1305Y-3.3209
X3.1305Y-3.4209
X3.1305Y-3.5209
X3.1305Y-3.6209
X3.1305Y-3.7209
X3.1305Y-3.8209
X3.1305Y-3.9209
X3.1305Y-4.0209
X3.1305Y-4.1209
T6
X3.0912Y-4.8699
X3.0912Y-4.9699
X3.0912Y-5.0963
X3.0912Y-5.1963
X3.1912Y-4.8699
X3.1912Y-4.9699
X3.1912Y-5.0963
X3.1912Y-5.1963
T7
X6.3287Y-5.2209
X6.3287Y-5.3209
X6.3356Y-2.5959
X6.3356Y-2.6959
X6.3356Y-3.4709
X6.3356Y-3.5709
X6.3386Y-1.7878
X6.3386Y-1.8878
X6.3386Y-4.3459
X6.3386Y-4.4459
T8
X3.5614Y-4.626
X3.6614Y-4.626
X3.7795Y-3.4744
X4.0354Y-5.0575
X4.0354Y-5.1575
X4.439Y-4.3898
X5.0772Y-2.3819
X5.0772Y-2.4819
X5.1772Y-2.3819
X5.1772Y-2.4819
X5.8525Y-2.6937
X5.8525Y-2.7937
X5.8553Y-2.1352
X5.8553Y-2.2352
X5.9525Y-2.6937
X5.9525Y-2.7937
X5.9553Y-2.1352
X5.9553Y-2.2352
X6.5541Y-4.8317
X6.5541Y-4.9317
X6.5699Y-3.0896
X6.5699Y-3.1896
T9
X6.5287Y-5.1209
X6.5287Y-5.5209
X6.5356Y-2.4959
X6.5356Y-2.8959
X6.5356Y-3.3709
X6.5356Y-3.7709
X6.5386Y-1.6878
X6.5386Y-2.0878
X6.5386Y-4.2459
X6.5386Y-4.6459
T10
X2.9528Y-1.8071
T2
G00X3.8091Y-5.5384
M15
G01X3.8091Y-5.564
M16
G05
G00X4.0846Y-5.5384
M15
G01X4.0846Y-5.564
M16
G05
T3
G00X3.8415Y-5.4449
M15
G01X3.8553Y-5.4449
M16
G05
G00X4.0384Y-5.4449
M15
G01X4.0522Y-5.4449
M16
G05
T0
M30
