%TF.GenerationSoftware,KiCad,Pcbnew,(6.0.10)*%
%TF.CreationDate,2024-06-09T15:04:39-04:00*%
%TF.ProjectId,Impedance_Analyzer_V4,496d7065-6461-46e6-9365-5f416e616c79,rev?*%
%TF.SameCoordinates,Original*%
%TF.FileFunction,Soldermask,Bot*%
%TF.FilePolarity,Negative*%
%FSLAX46Y46*%
G04 Gerber Fmt 4.6, Leading zero omitted, Abs format (unit mm)*
G04 Created by KiCad (PCBNEW (6.0.10)) date 2024-06-09 15:04:39*
%MOMM*%
%LPD*%
G01*
G04 APERTURE LIST*
G04 Aperture macros list*
%AMRoundRect*
0 Rectangle with rounded corners*
0 $1 Rounding radius*
0 $2 $3 $4 $5 $6 $7 $8 $9 X,Y pos of 4 corners*
0 Add a 4 corners polygon primitive as box body*
4,1,4,$2,$3,$4,$5,$6,$7,$8,$9,$2,$3,0*
0 Add four circle primitives for the rounded corners*
1,1,$1+$1,$2,$3*
1,1,$1+$1,$4,$5*
1,1,$1+$1,$6,$7*
1,1,$1+$1,$8,$9*
0 Add four rect primitives between the rounded corners*
20,1,$1+$1,$2,$3,$4,$5,0*
20,1,$1+$1,$4,$5,$6,$7,0*
20,1,$1+$1,$6,$7,$8,$9,0*
20,1,$1+$1,$8,$9,$2,$3,0*%
G04 Aperture macros list end*
%ADD10C,0.010000*%
%ADD11R,2.000000X2.000000*%
%ADD12O,1.504000X1.154000*%
%ADD13C,1.524000*%
%ADD14C,2.800000*%
%ADD15R,1.600000X1.600000*%
%ADD16O,1.600000X1.600000*%
%ADD17C,8.600000*%
%ADD18C,4.000000*%
%ADD19C,2.750000*%
%ADD20RoundRect,0.102000X-0.679000X0.679000X-0.679000X-0.679000X0.679000X-0.679000X0.679000X0.679000X0*%
%ADD21C,1.562000*%
%ADD22R,1.700000X1.700000*%
%ADD23O,1.700000X1.700000*%
%ADD24C,1.397000*%
%ADD25C,1.600000*%
G04 APERTURE END LIST*
%TO.C,J2*%
G36*
X103776000Y-140126000D02*
G01*
X103801000Y-140128000D01*
X103826000Y-140131000D01*
X103851000Y-140136000D01*
X103876000Y-140142000D01*
X103901000Y-140149000D01*
X103925000Y-140157000D01*
X103948000Y-140167000D01*
X103971000Y-140178000D01*
X103994000Y-140190000D01*
X104016000Y-140204000D01*
X104037000Y-140218000D01*
X104057000Y-140234000D01*
X104076000Y-140250000D01*
X104095000Y-140268000D01*
X104112000Y-140286000D01*
X104129000Y-140306000D01*
X104144000Y-140326000D01*
X104159000Y-140347000D01*
X104172000Y-140369000D01*
X104184000Y-140391000D01*
X104195000Y-140414000D01*
X104205000Y-140438000D01*
X104214000Y-140462000D01*
X104221000Y-140486000D01*
X104227000Y-140511000D01*
X104231000Y-140536000D01*
X104235000Y-140562000D01*
X104237000Y-140587000D01*
X104237000Y-140612000D01*
X104237500Y-140612500D01*
X104237000Y-141388000D01*
X104237000Y-141413000D01*
X104235000Y-141438000D01*
X104231000Y-141464000D01*
X104227000Y-141489000D01*
X104221000Y-141514000D01*
X104214000Y-141538000D01*
X104205000Y-141562000D01*
X104195000Y-141586000D01*
X104184000Y-141609000D01*
X104172000Y-141631000D01*
X104159000Y-141653000D01*
X104144000Y-141674000D01*
X104129000Y-141694000D01*
X104112000Y-141714000D01*
X104095000Y-141732000D01*
X104076000Y-141750000D01*
X104057000Y-141766000D01*
X104037000Y-141782000D01*
X104016000Y-141796000D01*
X103994000Y-141810000D01*
X103971000Y-141822000D01*
X103948000Y-141833000D01*
X103925000Y-141843000D01*
X103901000Y-141851000D01*
X103876000Y-141858000D01*
X103851000Y-141864000D01*
X103826000Y-141869000D01*
X103801000Y-141872000D01*
X103776000Y-141874000D01*
X103750000Y-141875000D01*
X103724000Y-141874000D01*
X103699000Y-141872000D01*
X103674000Y-141869000D01*
X103649000Y-141864000D01*
X103624000Y-141858000D01*
X103599000Y-141851000D01*
X103575000Y-141843000D01*
X103552000Y-141833000D01*
X103529000Y-141822000D01*
X103506000Y-141810000D01*
X103484000Y-141796000D01*
X103463000Y-141782000D01*
X103443000Y-141766000D01*
X103424000Y-141750000D01*
X103405000Y-141732000D01*
X103388000Y-141714000D01*
X103371000Y-141694000D01*
X103356000Y-141674000D01*
X103341000Y-141653000D01*
X103328000Y-141631000D01*
X103316000Y-141609000D01*
X103305000Y-141586000D01*
X103295000Y-141562000D01*
X103286000Y-141538000D01*
X103279000Y-141514000D01*
X103273000Y-141489000D01*
X103269000Y-141464000D01*
X103265000Y-141438000D01*
X103263000Y-141413000D01*
X103263000Y-140587000D01*
X103265000Y-140562000D01*
X103269000Y-140536000D01*
X103273000Y-140511000D01*
X103279000Y-140486000D01*
X103286000Y-140462000D01*
X103295000Y-140438000D01*
X103305000Y-140414000D01*
X103316000Y-140391000D01*
X103328000Y-140369000D01*
X103341000Y-140347000D01*
X103356000Y-140326000D01*
X103371000Y-140306000D01*
X103388000Y-140286000D01*
X103405000Y-140268000D01*
X103424000Y-140250000D01*
X103443000Y-140234000D01*
X103463000Y-140218000D01*
X103484000Y-140204000D01*
X103506000Y-140190000D01*
X103529000Y-140178000D01*
X103552000Y-140167000D01*
X103575000Y-140157000D01*
X103599000Y-140149000D01*
X103624000Y-140142000D01*
X103649000Y-140136000D01*
X103674000Y-140131000D01*
X103699000Y-140128000D01*
X103724000Y-140126000D01*
X103750000Y-140125000D01*
X103776000Y-140126000D01*
G37*
D10*
X103776000Y-140126000D02*
X103801000Y-140128000D01*
X103826000Y-140131000D01*
X103851000Y-140136000D01*
X103876000Y-140142000D01*
X103901000Y-140149000D01*
X103925000Y-140157000D01*
X103948000Y-140167000D01*
X103971000Y-140178000D01*
X103994000Y-140190000D01*
X104016000Y-140204000D01*
X104037000Y-140218000D01*
X104057000Y-140234000D01*
X104076000Y-140250000D01*
X104095000Y-140268000D01*
X104112000Y-140286000D01*
X104129000Y-140306000D01*
X104144000Y-140326000D01*
X104159000Y-140347000D01*
X104172000Y-140369000D01*
X104184000Y-140391000D01*
X104195000Y-140414000D01*
X104205000Y-140438000D01*
X104214000Y-140462000D01*
X104221000Y-140486000D01*
X104227000Y-140511000D01*
X104231000Y-140536000D01*
X104235000Y-140562000D01*
X104237000Y-140587000D01*
X104237000Y-140612000D01*
X104237500Y-140612500D01*
X104237000Y-141388000D01*
X104237000Y-141413000D01*
X104235000Y-141438000D01*
X104231000Y-141464000D01*
X104227000Y-141489000D01*
X104221000Y-141514000D01*
X104214000Y-141538000D01*
X104205000Y-141562000D01*
X104195000Y-141586000D01*
X104184000Y-141609000D01*
X104172000Y-141631000D01*
X104159000Y-141653000D01*
X104144000Y-141674000D01*
X104129000Y-141694000D01*
X104112000Y-141714000D01*
X104095000Y-141732000D01*
X104076000Y-141750000D01*
X104057000Y-141766000D01*
X104037000Y-141782000D01*
X104016000Y-141796000D01*
X103994000Y-141810000D01*
X103971000Y-141822000D01*
X103948000Y-141833000D01*
X103925000Y-141843000D01*
X103901000Y-141851000D01*
X103876000Y-141858000D01*
X103851000Y-141864000D01*
X103826000Y-141869000D01*
X103801000Y-141872000D01*
X103776000Y-141874000D01*
X103750000Y-141875000D01*
X103724000Y-141874000D01*
X103699000Y-141872000D01*
X103674000Y-141869000D01*
X103649000Y-141864000D01*
X103624000Y-141858000D01*
X103599000Y-141851000D01*
X103575000Y-141843000D01*
X103552000Y-141833000D01*
X103529000Y-141822000D01*
X103506000Y-141810000D01*
X103484000Y-141796000D01*
X103463000Y-141782000D01*
X103443000Y-141766000D01*
X103424000Y-141750000D01*
X103405000Y-141732000D01*
X103388000Y-141714000D01*
X103371000Y-141694000D01*
X103356000Y-141674000D01*
X103341000Y-141653000D01*
X103328000Y-141631000D01*
X103316000Y-141609000D01*
X103305000Y-141586000D01*
X103295000Y-141562000D01*
X103286000Y-141538000D01*
X103279000Y-141514000D01*
X103273000Y-141489000D01*
X103269000Y-141464000D01*
X103265000Y-141438000D01*
X103263000Y-141413000D01*
X103263000Y-140587000D01*
X103265000Y-140562000D01*
X103269000Y-140536000D01*
X103273000Y-140511000D01*
X103279000Y-140486000D01*
X103286000Y-140462000D01*
X103295000Y-140438000D01*
X103305000Y-140414000D01*
X103316000Y-140391000D01*
X103328000Y-140369000D01*
X103341000Y-140347000D01*
X103356000Y-140326000D01*
X103371000Y-140306000D01*
X103388000Y-140286000D01*
X103405000Y-140268000D01*
X103424000Y-140250000D01*
X103443000Y-140234000D01*
X103463000Y-140218000D01*
X103484000Y-140204000D01*
X103506000Y-140190000D01*
X103529000Y-140178000D01*
X103552000Y-140167000D01*
X103575000Y-140157000D01*
X103599000Y-140149000D01*
X103624000Y-140142000D01*
X103649000Y-140136000D01*
X103674000Y-140131000D01*
X103699000Y-140128000D01*
X103724000Y-140126000D01*
X103750000Y-140125000D01*
X103776000Y-140126000D01*
G36*
X96776000Y-140126000D02*
G01*
X96801000Y-140128000D01*
X96826000Y-140131000D01*
X96851000Y-140136000D01*
X96876000Y-140142000D01*
X96901000Y-140149000D01*
X96925000Y-140157000D01*
X96948000Y-140167000D01*
X96971000Y-140178000D01*
X96994000Y-140190000D01*
X97016000Y-140204000D01*
X97037000Y-140218000D01*
X97057000Y-140234000D01*
X97076000Y-140250000D01*
X97095000Y-140268000D01*
X97112000Y-140286000D01*
X97129000Y-140306000D01*
X97144000Y-140326000D01*
X97159000Y-140347000D01*
X97172000Y-140369000D01*
X97184000Y-140391000D01*
X97195000Y-140414000D01*
X97205000Y-140438000D01*
X97214000Y-140462000D01*
X97221000Y-140486000D01*
X97227000Y-140511000D01*
X97231000Y-140536000D01*
X97235000Y-140562000D01*
X97237000Y-140587000D01*
X97237000Y-140612000D01*
X97237500Y-140612500D01*
X97237000Y-141388000D01*
X97237000Y-141413000D01*
X97235000Y-141438000D01*
X97231000Y-141464000D01*
X97227000Y-141489000D01*
X97221000Y-141514000D01*
X97214000Y-141538000D01*
X97205000Y-141562000D01*
X97195000Y-141586000D01*
X97184000Y-141609000D01*
X97172000Y-141631000D01*
X97159000Y-141653000D01*
X97144000Y-141674000D01*
X97129000Y-141694000D01*
X97112000Y-141714000D01*
X97095000Y-141732000D01*
X97076000Y-141750000D01*
X97057000Y-141766000D01*
X97037000Y-141782000D01*
X97016000Y-141796000D01*
X96994000Y-141810000D01*
X96971000Y-141822000D01*
X96948000Y-141833000D01*
X96925000Y-141843000D01*
X96901000Y-141851000D01*
X96876000Y-141858000D01*
X96851000Y-141864000D01*
X96826000Y-141869000D01*
X96801000Y-141872000D01*
X96776000Y-141874000D01*
X96750000Y-141875000D01*
X96724000Y-141874000D01*
X96699000Y-141872000D01*
X96674000Y-141869000D01*
X96649000Y-141864000D01*
X96624000Y-141858000D01*
X96599000Y-141851000D01*
X96575000Y-141843000D01*
X96552000Y-141833000D01*
X96529000Y-141822000D01*
X96506000Y-141810000D01*
X96484000Y-141796000D01*
X96463000Y-141782000D01*
X96443000Y-141766000D01*
X96424000Y-141750000D01*
X96405000Y-141732000D01*
X96388000Y-141714000D01*
X96371000Y-141694000D01*
X96356000Y-141674000D01*
X96341000Y-141653000D01*
X96328000Y-141631000D01*
X96316000Y-141609000D01*
X96305000Y-141586000D01*
X96295000Y-141562000D01*
X96286000Y-141538000D01*
X96279000Y-141514000D01*
X96273000Y-141489000D01*
X96269000Y-141464000D01*
X96265000Y-141438000D01*
X96263000Y-141413000D01*
X96263000Y-140587000D01*
X96265000Y-140562000D01*
X96269000Y-140536000D01*
X96273000Y-140511000D01*
X96279000Y-140486000D01*
X96286000Y-140462000D01*
X96295000Y-140438000D01*
X96305000Y-140414000D01*
X96316000Y-140391000D01*
X96328000Y-140369000D01*
X96341000Y-140347000D01*
X96356000Y-140326000D01*
X96371000Y-140306000D01*
X96388000Y-140286000D01*
X96405000Y-140268000D01*
X96424000Y-140250000D01*
X96443000Y-140234000D01*
X96463000Y-140218000D01*
X96484000Y-140204000D01*
X96506000Y-140190000D01*
X96529000Y-140178000D01*
X96552000Y-140167000D01*
X96575000Y-140157000D01*
X96599000Y-140149000D01*
X96624000Y-140142000D01*
X96649000Y-140136000D01*
X96674000Y-140131000D01*
X96699000Y-140128000D01*
X96724000Y-140126000D01*
X96750000Y-140125000D01*
X96776000Y-140126000D01*
G37*
X96776000Y-140126000D02*
X96801000Y-140128000D01*
X96826000Y-140131000D01*
X96851000Y-140136000D01*
X96876000Y-140142000D01*
X96901000Y-140149000D01*
X96925000Y-140157000D01*
X96948000Y-140167000D01*
X96971000Y-140178000D01*
X96994000Y-140190000D01*
X97016000Y-140204000D01*
X97037000Y-140218000D01*
X97057000Y-140234000D01*
X97076000Y-140250000D01*
X97095000Y-140268000D01*
X97112000Y-140286000D01*
X97129000Y-140306000D01*
X97144000Y-140326000D01*
X97159000Y-140347000D01*
X97172000Y-140369000D01*
X97184000Y-140391000D01*
X97195000Y-140414000D01*
X97205000Y-140438000D01*
X97214000Y-140462000D01*
X97221000Y-140486000D01*
X97227000Y-140511000D01*
X97231000Y-140536000D01*
X97235000Y-140562000D01*
X97237000Y-140587000D01*
X97237000Y-140612000D01*
X97237500Y-140612500D01*
X97237000Y-141388000D01*
X97237000Y-141413000D01*
X97235000Y-141438000D01*
X97231000Y-141464000D01*
X97227000Y-141489000D01*
X97221000Y-141514000D01*
X97214000Y-141538000D01*
X97205000Y-141562000D01*
X97195000Y-141586000D01*
X97184000Y-141609000D01*
X97172000Y-141631000D01*
X97159000Y-141653000D01*
X97144000Y-141674000D01*
X97129000Y-141694000D01*
X97112000Y-141714000D01*
X97095000Y-141732000D01*
X97076000Y-141750000D01*
X97057000Y-141766000D01*
X97037000Y-141782000D01*
X97016000Y-141796000D01*
X96994000Y-141810000D01*
X96971000Y-141822000D01*
X96948000Y-141833000D01*
X96925000Y-141843000D01*
X96901000Y-141851000D01*
X96876000Y-141858000D01*
X96851000Y-141864000D01*
X96826000Y-141869000D01*
X96801000Y-141872000D01*
X96776000Y-141874000D01*
X96750000Y-141875000D01*
X96724000Y-141874000D01*
X96699000Y-141872000D01*
X96674000Y-141869000D01*
X96649000Y-141864000D01*
X96624000Y-141858000D01*
X96599000Y-141851000D01*
X96575000Y-141843000D01*
X96552000Y-141833000D01*
X96529000Y-141822000D01*
X96506000Y-141810000D01*
X96484000Y-141796000D01*
X96463000Y-141782000D01*
X96443000Y-141766000D01*
X96424000Y-141750000D01*
X96405000Y-141732000D01*
X96388000Y-141714000D01*
X96371000Y-141694000D01*
X96356000Y-141674000D01*
X96341000Y-141653000D01*
X96328000Y-141631000D01*
X96316000Y-141609000D01*
X96305000Y-141586000D01*
X96295000Y-141562000D01*
X96286000Y-141538000D01*
X96279000Y-141514000D01*
X96273000Y-141489000D01*
X96269000Y-141464000D01*
X96265000Y-141438000D01*
X96263000Y-141413000D01*
X96263000Y-140587000D01*
X96265000Y-140562000D01*
X96269000Y-140536000D01*
X96273000Y-140511000D01*
X96279000Y-140486000D01*
X96286000Y-140462000D01*
X96295000Y-140438000D01*
X96305000Y-140414000D01*
X96316000Y-140391000D01*
X96328000Y-140369000D01*
X96341000Y-140347000D01*
X96356000Y-140326000D01*
X96371000Y-140306000D01*
X96388000Y-140286000D01*
X96405000Y-140268000D01*
X96424000Y-140250000D01*
X96443000Y-140234000D01*
X96463000Y-140218000D01*
X96484000Y-140204000D01*
X96506000Y-140190000D01*
X96529000Y-140178000D01*
X96552000Y-140167000D01*
X96575000Y-140157000D01*
X96599000Y-140149000D01*
X96624000Y-140142000D01*
X96649000Y-140136000D01*
X96674000Y-140131000D01*
X96699000Y-140128000D01*
X96724000Y-140126000D01*
X96750000Y-140125000D01*
X96776000Y-140126000D01*
%TD*%
D11*
%TO.C,TP2*%
X96000000Y-88250000D03*
%TD*%
%TO.C,TP1*%
X112750000Y-111500000D03*
%TD*%
D12*
%TO.C,J2*%
X97750000Y-138300000D03*
X102750000Y-138300000D03*
%TD*%
D13*
%TO.C,J6*%
X160924991Y-68475000D03*
X160924991Y-65935000D03*
D14*
X166004991Y-63395000D03*
X166004991Y-73555000D03*
%TD*%
D13*
%TO.C,J7*%
X160750000Y-135150000D03*
D14*
X165830000Y-140230000D03*
X165830000Y-130070000D03*
D13*
X160750000Y-132610000D03*
%TD*%
D15*
%TO.C,U3*%
X129700000Y-111000000D03*
D16*
X132240000Y-111000000D03*
X134780000Y-111000000D03*
X137320000Y-111000000D03*
X137320000Y-103380000D03*
X134780000Y-103380000D03*
X132240000Y-103380000D03*
X129700000Y-103380000D03*
%TD*%
D13*
%TO.C,J5*%
X161000000Y-112925000D03*
X161000000Y-110385000D03*
D14*
X166080000Y-107845000D03*
X166080000Y-118005000D03*
%TD*%
D13*
%TO.C,J4*%
X160924991Y-90699991D03*
D14*
X166004991Y-95779991D03*
D13*
X160924991Y-88159991D03*
D14*
X166004991Y-85619991D03*
%TD*%
D15*
%TO.C,U4*%
X137500000Y-93750000D03*
D16*
X137500000Y-91210000D03*
X137500000Y-88670000D03*
X137500000Y-86130000D03*
X129880000Y-86130000D03*
X129880000Y-88670000D03*
X129880000Y-91210000D03*
X129880000Y-93750000D03*
%TD*%
D17*
%TO.C,H1*%
X75000000Y-45900000D03*
%TD*%
D18*
%TO.C,H2*%
X146000000Y-46000000D03*
%TD*%
%TO.C,H4*%
X153000000Y-118000000D03*
%TD*%
%TO.C,H3*%
X75000000Y-137500000D03*
%TD*%
D19*
%TO.C,J1*%
X75705000Y-113935000D03*
X75705000Y-56035000D03*
D20*
X79515000Y-64030000D03*
D21*
X77610000Y-65300000D03*
X79515000Y-66570000D03*
X77610000Y-67840000D03*
X79515000Y-69110000D03*
X77610000Y-70380000D03*
X79515000Y-71650000D03*
X77610000Y-72920000D03*
X79515000Y-74190000D03*
X77610000Y-75460000D03*
X79515000Y-76730000D03*
X77610000Y-78000000D03*
X79515000Y-79270000D03*
X77610000Y-80540000D03*
X79515000Y-81810000D03*
X77610000Y-83080000D03*
X79515000Y-84350000D03*
X77610000Y-85620000D03*
X79515000Y-86890000D03*
X77610000Y-88160000D03*
X79515000Y-89430000D03*
X77610000Y-90700000D03*
X79515000Y-91970000D03*
X77610000Y-93240000D03*
X79515000Y-94510000D03*
X77610000Y-95780000D03*
X79515000Y-97050000D03*
X77610000Y-98320000D03*
X79515000Y-99590000D03*
X77610000Y-100860000D03*
X79515000Y-102130000D03*
X77610000Y-103400000D03*
X79515000Y-104670000D03*
X77610000Y-105940000D03*
X75705000Y-64030000D03*
X73800000Y-65300000D03*
X75705000Y-66570000D03*
X73800000Y-67840000D03*
X75705000Y-69110000D03*
X73800000Y-70380000D03*
X75705000Y-71650000D03*
X73800000Y-72920000D03*
X75705000Y-74190000D03*
X73800000Y-75460000D03*
X75705000Y-76730000D03*
X73800000Y-78000000D03*
X75705000Y-79270000D03*
X73800000Y-80540000D03*
X75705000Y-81810000D03*
X73800000Y-83080000D03*
X75705000Y-84350000D03*
X73800000Y-85620000D03*
X75705000Y-86890000D03*
X73800000Y-88160000D03*
X75705000Y-89430000D03*
X73800000Y-90700000D03*
X75705000Y-91970000D03*
X73800000Y-93240000D03*
X75705000Y-94510000D03*
X73800000Y-95780000D03*
X75705000Y-97050000D03*
X73800000Y-98320000D03*
X75705000Y-99590000D03*
X73800000Y-100860000D03*
X75705000Y-102130000D03*
X73800000Y-103400000D03*
X75705000Y-104670000D03*
X73800000Y-105940000D03*
%TD*%
D22*
%TO.C,J18*%
X166475000Y-122725000D03*
D23*
X166475000Y-125265000D03*
%TD*%
D15*
%TO.C,U7*%
X136525000Y-57075000D03*
D16*
X136525000Y-54535000D03*
X136525000Y-51995000D03*
X136525000Y-49455000D03*
X128905000Y-49455000D03*
X128905000Y-51995000D03*
X128905000Y-54535000D03*
X128905000Y-57075000D03*
%TD*%
D24*
%TO.C,D14*%
X81055300Y-131986600D03*
X81055300Y-129446600D03*
X78515300Y-131986600D03*
X78515300Y-129446600D03*
%TD*%
D22*
%TO.C,J8*%
X93000000Y-117500000D03*
D23*
X90460000Y-117500000D03*
%TD*%
D15*
%TO.C,C16*%
X109000000Y-50000000D03*
D25*
X114000000Y-50000000D03*
%TD*%
D24*
%TO.C,D15*%
X81055300Y-126236600D03*
X81055300Y-123696600D03*
X78515300Y-126236600D03*
X78515300Y-123696600D03*
%TD*%
D15*
%TO.C,C25*%
X99260000Y-50000000D03*
D25*
X104260000Y-50000000D03*
%TD*%
D22*
%TO.C,J15*%
X166875000Y-78475000D03*
D23*
X166875000Y-81015000D03*
%TD*%
D13*
%TO.C,J20*%
X161000000Y-47950000D03*
D14*
X166080000Y-53030000D03*
X166080000Y-42870000D03*
D13*
X161000000Y-45410000D03*
%TD*%
D15*
%TO.C,U6*%
X138250000Y-77750000D03*
D16*
X138250000Y-75210000D03*
X138250000Y-72670000D03*
X138250000Y-70130000D03*
X130630000Y-70130000D03*
X130630000Y-72670000D03*
X130630000Y-75210000D03*
X130630000Y-77750000D03*
%TD*%
D22*
%TO.C,J19*%
X148725000Y-56775000D03*
D23*
X148725000Y-54235000D03*
X151265000Y-56775000D03*
X151265000Y-54235000D03*
%TD*%
D22*
%TO.C,J17*%
X148653750Y-70960000D03*
D23*
X148653750Y-68420000D03*
X151193750Y-70960000D03*
X151193750Y-68420000D03*
%TD*%
D22*
%TO.C,J21*%
X131500000Y-60500000D03*
D23*
X131500000Y-63040000D03*
X128960000Y-60500000D03*
X128960000Y-63040000D03*
%TD*%
D22*
%TO.C,J3*%
X102500000Y-131000000D03*
D23*
X102500000Y-128460000D03*
%TD*%
M02*
