%TF.GenerationSoftware,KiCad,Pcbnew,(6.0.10)*%
%TF.CreationDate,2024-06-09T15:04:39-04:00*%
%TF.ProjectId,Impedance_Analyzer_V4,496d7065-6461-46e6-9365-5f416e616c79,rev?*%
%TF.SameCoordinates,Original*%
%TF.FileFunction,Soldermask,Top*%
%TF.FilePolarity,Negative*%
%FSLAX46Y46*%
G04 Gerber Fmt 4.6, Leading zero omitted, Abs format (unit mm)*
G04 Created by KiCad (PCBNEW (6.0.10)) date 2024-06-09 15:04:39*
%MOMM*%
%LPD*%
G01*
G04 APERTURE LIST*
G04 Aperture macros list*
%AMRoundRect*
0 Rectangle with rounded corners*
0 $1 Rounding radius*
0 $2 $3 $4 $5 $6 $7 $8 $9 X,Y pos of 4 corners*
0 Add a 4 corners polygon primitive as box body*
4,1,4,$2,$3,$4,$5,$6,$7,$8,$9,$2,$3,0*
0 Add four circle primitives for the rounded corners*
1,1,$1+$1,$2,$3*
1,1,$1+$1,$4,$5*
1,1,$1+$1,$6,$7*
1,1,$1+$1,$8,$9*
0 Add four rect primitives between the rounded corners*
20,1,$1+$1,$2,$3,$4,$5,0*
20,1,$1+$1,$4,$5,$6,$7,0*
20,1,$1+$1,$6,$7,$8,$9,0*
20,1,$1+$1,$8,$9,$2,$3,0*%
G04 Aperture macros list end*
%ADD10C,0.010000*%
%ADD11R,2.000000X2.000000*%
%ADD12RoundRect,0.102000X-0.200000X-0.675000X0.200000X-0.675000X0.200000X0.675000X-0.200000X0.675000X0*%
%ADD13RoundRect,0.102000X-0.750000X-0.775000X0.750000X-0.775000X0.750000X0.775000X-0.750000X0.775000X0*%
%ADD14O,1.504000X1.154000*%
%ADD15C,1.524000*%
%ADD16C,2.800000*%
%ADD17RoundRect,0.249998X-0.625002X0.312502X-0.625002X-0.312502X0.625002X-0.312502X0.625002X0.312502X0*%
%ADD18RoundRect,0.249998X0.312502X0.625002X-0.312502X0.625002X-0.312502X-0.625002X0.312502X-0.625002X0*%
%ADD19R,1.600000X1.600000*%
%ADD20O,1.600000X1.600000*%
%ADD21RoundRect,0.250000X-0.475000X0.250000X-0.475000X-0.250000X0.475000X-0.250000X0.475000X0.250000X0*%
%ADD22RoundRect,0.150000X-0.725000X-0.150000X0.725000X-0.150000X0.725000X0.150000X-0.725000X0.150000X0*%
%ADD23RoundRect,0.250000X0.250000X0.475000X-0.250000X0.475000X-0.250000X-0.475000X0.250000X-0.475000X0*%
%ADD24RoundRect,0.250000X-0.250000X-0.475000X0.250000X-0.475000X0.250000X0.475000X-0.250000X0.475000X0*%
%ADD25R,0.450000X0.600000*%
%ADD26RoundRect,0.250000X-0.350000X-0.450000X0.350000X-0.450000X0.350000X0.450000X-0.350000X0.450000X0*%
%ADD27C,8.600000*%
%ADD28C,4.000000*%
%ADD29C,2.750000*%
%ADD30RoundRect,0.102000X-0.679000X0.679000X-0.679000X-0.679000X0.679000X-0.679000X0.679000X0.679000X0*%
%ADD31C,1.562000*%
%ADD32RoundRect,0.249999X-0.625001X0.312501X-0.625001X-0.312501X0.625001X-0.312501X0.625001X0.312501X0*%
%ADD33RoundRect,0.150000X-0.150000X0.725000X-0.150000X-0.725000X0.150000X-0.725000X0.150000X0.725000X0*%
%ADD34R,7.700000X3.100000*%
%ADD35RoundRect,0.250000X0.312500X0.625000X-0.312500X0.625000X-0.312500X-0.625000X0.312500X-0.625000X0*%
%ADD36RoundRect,0.250000X-1.000000X1.950000X-1.000000X-1.950000X1.000000X-1.950000X1.000000X1.950000X0*%
%ADD37R,2.209800X0.990600*%
%ADD38R,1.700000X1.700000*%
%ADD39O,1.700000X1.700000*%
%ADD40RoundRect,0.150000X0.587500X0.150000X-0.587500X0.150000X-0.587500X-0.150000X0.587500X-0.150000X0*%
%ADD41C,1.397000*%
%ADD42RoundRect,0.250000X1.000000X-1.950000X1.000000X1.950000X-1.000000X1.950000X-1.000000X-1.950000X0*%
%ADD43RoundRect,0.250000X0.350000X0.450000X-0.350000X0.450000X-0.350000X-0.450000X0.350000X-0.450000X0*%
%ADD44C,1.600000*%
%ADD45R,5.900000X2.450000*%
%ADD46R,0.900000X1.200000*%
%ADD47RoundRect,0.250000X-1.950000X-1.000000X1.950000X-1.000000X1.950000X1.000000X-1.950000X1.000000X0*%
%ADD48RoundRect,0.150000X-0.150000X0.587500X-0.150000X-0.587500X0.150000X-0.587500X0.150000X0.587500X0*%
%ADD49RoundRect,0.250000X0.625000X-0.312500X0.625000X0.312500X-0.625000X0.312500X-0.625000X-0.312500X0*%
%ADD50RoundRect,0.250000X-0.312500X-0.625000X0.312500X-0.625000X0.312500X0.625000X-0.312500X0.625000X0*%
%ADD51RoundRect,0.250000X0.475000X-0.250000X0.475000X0.250000X-0.475000X0.250000X-0.475000X-0.250000X0*%
%ADD52R,1.200000X0.900000*%
%ADD53RoundRect,0.150000X-0.150000X0.825000X-0.150000X-0.825000X0.150000X-0.825000X0.150000X0.825000X0*%
%ADD54RoundRect,0.150000X0.150000X-0.587500X0.150000X0.587500X-0.150000X0.587500X-0.150000X-0.587500X0*%
%ADD55RoundRect,0.250000X-0.625000X0.312500X-0.625000X-0.312500X0.625000X-0.312500X0.625000X0.312500X0*%
%ADD56RoundRect,0.250000X-0.412500X-0.650000X0.412500X-0.650000X0.412500X0.650000X-0.412500X0.650000X0*%
%ADD57RoundRect,0.250000X0.650000X-0.412500X0.650000X0.412500X-0.650000X0.412500X-0.650000X-0.412500X0*%
%ADD58RoundRect,0.250001X-0.462499X-0.624999X0.462499X-0.624999X0.462499X0.624999X-0.462499X0.624999X0*%
%ADD59RoundRect,0.250000X0.412500X0.650000X-0.412500X0.650000X-0.412500X-0.650000X0.412500X-0.650000X0*%
%ADD60R,2.500000X1.800000*%
G04 APERTURE END LIST*
%TO.C,J2*%
G36*
X103726000Y-140126000D02*
G01*
X103758000Y-140128000D01*
X103789000Y-140132000D01*
X103820000Y-140138000D01*
X103850000Y-140145000D01*
X103880000Y-140154000D01*
X103910000Y-140165000D01*
X103939000Y-140177000D01*
X103967000Y-140190000D01*
X103995000Y-140205000D01*
X104022000Y-140222000D01*
X104048000Y-140240000D01*
X104073000Y-140259000D01*
X104096000Y-140279000D01*
X104119000Y-140301000D01*
X104141000Y-140324000D01*
X104161000Y-140347000D01*
X104180000Y-140372000D01*
X104198000Y-140398000D01*
X104215000Y-140425000D01*
X104230000Y-140453000D01*
X104243000Y-140481000D01*
X104255000Y-140510000D01*
X104266000Y-140540000D01*
X104275000Y-140570000D01*
X104282000Y-140600000D01*
X104288000Y-140631000D01*
X104292000Y-140662000D01*
X104294000Y-140694000D01*
X104295000Y-140725000D01*
X104295000Y-141275000D01*
X104294000Y-141306000D01*
X104292000Y-141338000D01*
X104288000Y-141369000D01*
X104282000Y-141400000D01*
X104275000Y-141430000D01*
X104266000Y-141460000D01*
X104255000Y-141490000D01*
X104243000Y-141519000D01*
X104230000Y-141547000D01*
X104215000Y-141575000D01*
X104198000Y-141602000D01*
X104180000Y-141628000D01*
X104161000Y-141653000D01*
X104141000Y-141676000D01*
X104119000Y-141699000D01*
X104096000Y-141721000D01*
X104073000Y-141741000D01*
X104048000Y-141760000D01*
X104022000Y-141778000D01*
X103995000Y-141795000D01*
X103967000Y-141810000D01*
X103939000Y-141823000D01*
X103910000Y-141835000D01*
X103880000Y-141846000D01*
X103850000Y-141855000D01*
X103820000Y-141862000D01*
X103789000Y-141868000D01*
X103758000Y-141872000D01*
X103726000Y-141874000D01*
X103695000Y-141875000D01*
X102450000Y-141875000D01*
X102450000Y-140125000D01*
X103695000Y-140125000D01*
X103726000Y-140126000D01*
G37*
D10*
X103726000Y-140126000D02*
X103758000Y-140128000D01*
X103789000Y-140132000D01*
X103820000Y-140138000D01*
X103850000Y-140145000D01*
X103880000Y-140154000D01*
X103910000Y-140165000D01*
X103939000Y-140177000D01*
X103967000Y-140190000D01*
X103995000Y-140205000D01*
X104022000Y-140222000D01*
X104048000Y-140240000D01*
X104073000Y-140259000D01*
X104096000Y-140279000D01*
X104119000Y-140301000D01*
X104141000Y-140324000D01*
X104161000Y-140347000D01*
X104180000Y-140372000D01*
X104198000Y-140398000D01*
X104215000Y-140425000D01*
X104230000Y-140453000D01*
X104243000Y-140481000D01*
X104255000Y-140510000D01*
X104266000Y-140540000D01*
X104275000Y-140570000D01*
X104282000Y-140600000D01*
X104288000Y-140631000D01*
X104292000Y-140662000D01*
X104294000Y-140694000D01*
X104295000Y-140725000D01*
X104295000Y-141275000D01*
X104294000Y-141306000D01*
X104292000Y-141338000D01*
X104288000Y-141369000D01*
X104282000Y-141400000D01*
X104275000Y-141430000D01*
X104266000Y-141460000D01*
X104255000Y-141490000D01*
X104243000Y-141519000D01*
X104230000Y-141547000D01*
X104215000Y-141575000D01*
X104198000Y-141602000D01*
X104180000Y-141628000D01*
X104161000Y-141653000D01*
X104141000Y-141676000D01*
X104119000Y-141699000D01*
X104096000Y-141721000D01*
X104073000Y-141741000D01*
X104048000Y-141760000D01*
X104022000Y-141778000D01*
X103995000Y-141795000D01*
X103967000Y-141810000D01*
X103939000Y-141823000D01*
X103910000Y-141835000D01*
X103880000Y-141846000D01*
X103850000Y-141855000D01*
X103820000Y-141862000D01*
X103789000Y-141868000D01*
X103758000Y-141872000D01*
X103726000Y-141874000D01*
X103695000Y-141875000D01*
X102450000Y-141875000D01*
X102450000Y-140125000D01*
X103695000Y-140125000D01*
X103726000Y-140126000D01*
G36*
X98050000Y-141875000D02*
G01*
X96805000Y-141875000D01*
X96774000Y-141874000D01*
X96742000Y-141872000D01*
X96711000Y-141868000D01*
X96680000Y-141862000D01*
X96650000Y-141855000D01*
X96620000Y-141846000D01*
X96590000Y-141835000D01*
X96561000Y-141823000D01*
X96533000Y-141810000D01*
X96505000Y-141795000D01*
X96478000Y-141778000D01*
X96452000Y-141760000D01*
X96427000Y-141741000D01*
X96404000Y-141721000D01*
X96381000Y-141699000D01*
X96359000Y-141676000D01*
X96339000Y-141653000D01*
X96320000Y-141628000D01*
X96302000Y-141602000D01*
X96285000Y-141575000D01*
X96270000Y-141547000D01*
X96257000Y-141519000D01*
X96245000Y-141490000D01*
X96234000Y-141460000D01*
X96225000Y-141430000D01*
X96218000Y-141400000D01*
X96212000Y-141369000D01*
X96208000Y-141338000D01*
X96206000Y-141306000D01*
X96205000Y-141275000D01*
X96205000Y-140725000D01*
X96206000Y-140694000D01*
X96208000Y-140662000D01*
X96212000Y-140631000D01*
X96218000Y-140600000D01*
X96225000Y-140570000D01*
X96234000Y-140540000D01*
X96245000Y-140510000D01*
X96257000Y-140481000D01*
X96270000Y-140453000D01*
X96285000Y-140425000D01*
X96302000Y-140398000D01*
X96320000Y-140372000D01*
X96339000Y-140347000D01*
X96359000Y-140324000D01*
X96381000Y-140301000D01*
X96404000Y-140279000D01*
X96427000Y-140259000D01*
X96452000Y-140240000D01*
X96478000Y-140222000D01*
X96505000Y-140205000D01*
X96533000Y-140190000D01*
X96561000Y-140177000D01*
X96590000Y-140165000D01*
X96620000Y-140154000D01*
X96650000Y-140145000D01*
X96680000Y-140138000D01*
X96711000Y-140132000D01*
X96742000Y-140128000D01*
X96774000Y-140126000D01*
X96805000Y-140125000D01*
X98050000Y-140125000D01*
X98050000Y-141875000D01*
G37*
X98050000Y-141875000D02*
X96805000Y-141875000D01*
X96774000Y-141874000D01*
X96742000Y-141872000D01*
X96711000Y-141868000D01*
X96680000Y-141862000D01*
X96650000Y-141855000D01*
X96620000Y-141846000D01*
X96590000Y-141835000D01*
X96561000Y-141823000D01*
X96533000Y-141810000D01*
X96505000Y-141795000D01*
X96478000Y-141778000D01*
X96452000Y-141760000D01*
X96427000Y-141741000D01*
X96404000Y-141721000D01*
X96381000Y-141699000D01*
X96359000Y-141676000D01*
X96339000Y-141653000D01*
X96320000Y-141628000D01*
X96302000Y-141602000D01*
X96285000Y-141575000D01*
X96270000Y-141547000D01*
X96257000Y-141519000D01*
X96245000Y-141490000D01*
X96234000Y-141460000D01*
X96225000Y-141430000D01*
X96218000Y-141400000D01*
X96212000Y-141369000D01*
X96208000Y-141338000D01*
X96206000Y-141306000D01*
X96205000Y-141275000D01*
X96205000Y-140725000D01*
X96206000Y-140694000D01*
X96208000Y-140662000D01*
X96212000Y-140631000D01*
X96218000Y-140600000D01*
X96225000Y-140570000D01*
X96234000Y-140540000D01*
X96245000Y-140510000D01*
X96257000Y-140481000D01*
X96270000Y-140453000D01*
X96285000Y-140425000D01*
X96302000Y-140398000D01*
X96320000Y-140372000D01*
X96339000Y-140347000D01*
X96359000Y-140324000D01*
X96381000Y-140301000D01*
X96404000Y-140279000D01*
X96427000Y-140259000D01*
X96452000Y-140240000D01*
X96478000Y-140222000D01*
X96505000Y-140205000D01*
X96533000Y-140190000D01*
X96561000Y-140177000D01*
X96590000Y-140165000D01*
X96620000Y-140154000D01*
X96650000Y-140145000D01*
X96680000Y-140138000D01*
X96711000Y-140132000D01*
X96742000Y-140128000D01*
X96774000Y-140126000D01*
X96805000Y-140125000D01*
X98050000Y-140125000D01*
X98050000Y-141875000D01*
%TD*%
D11*
%TO.C,TP2*%
X96000000Y-88250000D03*
%TD*%
%TO.C,TP1*%
X112750000Y-111500000D03*
%TD*%
D12*
%TO.C,J2*%
X98950000Y-138325000D03*
X99600000Y-138325000D03*
X100250000Y-138325000D03*
X100900000Y-138325000D03*
X101550000Y-138325000D03*
D13*
X99250000Y-141000000D03*
D14*
X97750000Y-138300000D03*
X102750000Y-138300000D03*
D13*
X101250000Y-141000000D03*
%TD*%
D15*
%TO.C,J6*%
X160924991Y-68475000D03*
X160924991Y-65935000D03*
D16*
X166004991Y-63395000D03*
X166004991Y-73555000D03*
%TD*%
D15*
%TO.C,J7*%
X160750000Y-135150000D03*
D16*
X165830000Y-140230000D03*
X165830000Y-130070000D03*
D15*
X160750000Y-132610000D03*
%TD*%
D17*
%TO.C,R7*%
X126750000Y-103537500D03*
X126750000Y-106462500D03*
%TD*%
D18*
%TO.C,R8*%
X135212500Y-96750000D03*
X132287500Y-96750000D03*
%TD*%
D19*
%TO.C,U3*%
X129700000Y-111000000D03*
D20*
X132240000Y-111000000D03*
X134780000Y-111000000D03*
X137320000Y-111000000D03*
X137320000Y-103380000D03*
X134780000Y-103380000D03*
X132240000Y-103380000D03*
X129700000Y-103380000D03*
%TD*%
D15*
%TO.C,J5*%
X161000000Y-112925000D03*
X161000000Y-110385000D03*
D16*
X166080000Y-107845000D03*
X166080000Y-118005000D03*
%TD*%
D15*
%TO.C,J4*%
X160924991Y-90699991D03*
D16*
X166004991Y-95779991D03*
D15*
X160924991Y-88159991D03*
D16*
X166004991Y-85619991D03*
%TD*%
D19*
%TO.C,U4*%
X137500000Y-93750000D03*
D20*
X137500000Y-91210000D03*
X137500000Y-88670000D03*
X137500000Y-86130000D03*
X129880000Y-86130000D03*
X129880000Y-88670000D03*
X129880000Y-91210000D03*
X129880000Y-93750000D03*
%TD*%
D17*
%TO.C,R2*%
X124475000Y-59972500D03*
X124475000Y-62897500D03*
%TD*%
D21*
%TO.C,C1*%
X94000000Y-63550000D03*
X94000000Y-65450000D03*
%TD*%
D18*
%TO.C,R1*%
X93962500Y-61000000D03*
X91037500Y-61000000D03*
%TD*%
D22*
%TO.C,U1*%
X113925000Y-58595000D03*
X113925000Y-59865000D03*
X113925000Y-61135000D03*
X113925000Y-62405000D03*
X119075000Y-62405000D03*
X119075000Y-61135000D03*
X119075000Y-59865000D03*
X119075000Y-58595000D03*
%TD*%
D21*
%TO.C,C14*%
X110000000Y-64050000D03*
X110000000Y-65950000D03*
%TD*%
D23*
%TO.C,C17*%
X132450000Y-101000000D03*
X130550000Y-101000000D03*
%TD*%
D24*
%TO.C,C19*%
X119050000Y-56750000D03*
X120950000Y-56750000D03*
%TD*%
D21*
%TO.C,C20*%
X111975000Y-64050000D03*
X111975000Y-65950000D03*
%TD*%
D25*
%TO.C,D4*%
X113250000Y-127550000D03*
X113250000Y-125450000D03*
%TD*%
%TO.C,D5*%
X100000000Y-103450000D03*
X100000000Y-105550000D03*
%TD*%
D26*
%TO.C,R19*%
X145250000Y-114750000D03*
X147250000Y-114750000D03*
%TD*%
%TO.C,R20*%
X147750000Y-87500000D03*
X149750000Y-87500000D03*
%TD*%
D27*
%TO.C,H1*%
X75000000Y-45900000D03*
%TD*%
D28*
%TO.C,H2*%
X146000000Y-46000000D03*
%TD*%
%TO.C,H4*%
X153000000Y-118000000D03*
%TD*%
%TO.C,H3*%
X75000000Y-137500000D03*
%TD*%
D23*
%TO.C,C22*%
X148140000Y-140000000D03*
X146240000Y-140000000D03*
%TD*%
D24*
%TO.C,C23*%
X140050000Y-84500000D03*
X141950000Y-84500000D03*
%TD*%
%TO.C,C24*%
X119025000Y-54500000D03*
X120925000Y-54500000D03*
%TD*%
%TO.C,C21*%
X144240000Y-125500000D03*
X146140000Y-125500000D03*
%TD*%
D18*
%TO.C,R9*%
X145616250Y-70960000D03*
X142691250Y-70960000D03*
%TD*%
D29*
%TO.C,J1*%
X75705000Y-113935000D03*
X75705000Y-56035000D03*
D30*
X79515000Y-64030000D03*
D31*
X77610000Y-65300000D03*
X79515000Y-66570000D03*
X77610000Y-67840000D03*
X79515000Y-69110000D03*
X77610000Y-70380000D03*
X79515000Y-71650000D03*
X77610000Y-72920000D03*
X79515000Y-74190000D03*
X77610000Y-75460000D03*
X79515000Y-76730000D03*
X77610000Y-78000000D03*
X79515000Y-79270000D03*
X77610000Y-80540000D03*
X79515000Y-81810000D03*
X77610000Y-83080000D03*
X79515000Y-84350000D03*
X77610000Y-85620000D03*
X79515000Y-86890000D03*
X77610000Y-88160000D03*
X79515000Y-89430000D03*
X77610000Y-90700000D03*
X79515000Y-91970000D03*
X77610000Y-93240000D03*
X79515000Y-94510000D03*
X77610000Y-95780000D03*
X79515000Y-97050000D03*
X77610000Y-98320000D03*
X79515000Y-99590000D03*
X77610000Y-100860000D03*
X79515000Y-102130000D03*
X77610000Y-103400000D03*
X79515000Y-104670000D03*
X77610000Y-105940000D03*
X75705000Y-64030000D03*
X73800000Y-65300000D03*
X75705000Y-66570000D03*
X73800000Y-67840000D03*
X75705000Y-69110000D03*
X73800000Y-70380000D03*
X75705000Y-71650000D03*
X73800000Y-72920000D03*
X75705000Y-74190000D03*
X73800000Y-75460000D03*
X75705000Y-76730000D03*
X73800000Y-78000000D03*
X75705000Y-79270000D03*
X73800000Y-80540000D03*
X75705000Y-81810000D03*
X73800000Y-83080000D03*
X75705000Y-84350000D03*
X73800000Y-85620000D03*
X75705000Y-86890000D03*
X73800000Y-88160000D03*
X75705000Y-89430000D03*
X73800000Y-90700000D03*
X75705000Y-91970000D03*
X73800000Y-93240000D03*
X75705000Y-94510000D03*
X73800000Y-95780000D03*
X75705000Y-97050000D03*
X73800000Y-98320000D03*
X75705000Y-99590000D03*
X73800000Y-100860000D03*
X75705000Y-102130000D03*
X73800000Y-103400000D03*
X75705000Y-104670000D03*
X73800000Y-105940000D03*
%TD*%
D32*
%TO.C,R10*%
X121975000Y-59972500D03*
X121975000Y-62897500D03*
%TD*%
%TO.C,R18*%
X140000000Y-119750000D03*
X140000000Y-122675000D03*
%TD*%
D33*
%TO.C,U2*%
X148000000Y-130000000D03*
X146730000Y-130000000D03*
X145460000Y-130000000D03*
X144190000Y-130000000D03*
X144190000Y-135150000D03*
X145460000Y-135150000D03*
X146730000Y-135150000D03*
X148000000Y-135150000D03*
%TD*%
D23*
%TO.C,C3*%
X148095000Y-137575000D03*
X146195000Y-137575000D03*
%TD*%
%TO.C,C10*%
X93450000Y-95250000D03*
X91550000Y-95250000D03*
%TD*%
D34*
%TO.C,L2*%
X106000000Y-109500000D03*
X106000000Y-102600000D03*
%TD*%
D23*
%TO.C,C8*%
X105750000Y-117000000D03*
X103850000Y-117000000D03*
%TD*%
D34*
%TO.C,L1*%
X119250000Y-129000000D03*
X119250000Y-122100000D03*
%TD*%
D24*
%TO.C,C18*%
X144240000Y-127500000D03*
X146140000Y-127500000D03*
%TD*%
D35*
%TO.C,R30*%
X137462500Y-60500000D03*
X134537500Y-60500000D03*
%TD*%
D36*
%TO.C,C27*%
X121250000Y-109100000D03*
X121250000Y-117500000D03*
%TD*%
D37*
%TO.C,K1*%
X153250000Y-105350000D03*
X153250000Y-100270000D03*
X153250000Y-97730000D03*
X153250000Y-95190000D03*
X153250000Y-92650000D03*
X145250001Y-92650000D03*
X145250001Y-95190000D03*
X145250001Y-97730000D03*
X145250001Y-100270000D03*
X145250001Y-105350000D03*
%TD*%
D26*
%TO.C,R23*%
X96000000Y-131750000D03*
X98000000Y-131750000D03*
%TD*%
%TO.C,R116*%
X84000000Y-126500000D03*
X86000000Y-126500000D03*
%TD*%
D38*
%TO.C,J18*%
X166475000Y-122725000D03*
D39*
X166475000Y-125265000D03*
%TD*%
D35*
%TO.C,R22*%
X93962500Y-58500000D03*
X91037500Y-58500000D03*
%TD*%
D21*
%TO.C,C5*%
X97000000Y-115300000D03*
X97000000Y-117200000D03*
%TD*%
D19*
%TO.C,U7*%
X136525000Y-57075000D03*
D20*
X136525000Y-54535000D03*
X136525000Y-51995000D03*
X136525000Y-49455000D03*
X128905000Y-49455000D03*
X128905000Y-51995000D03*
X128905000Y-54535000D03*
X128905000Y-57075000D03*
%TD*%
D40*
%TO.C,Q21*%
X93937500Y-134700000D03*
X93937500Y-132800000D03*
X92062500Y-133750000D03*
%TD*%
D41*
%TO.C,D14*%
X81055300Y-131986600D03*
X81055300Y-129446600D03*
X78515300Y-131986600D03*
X78515300Y-129446600D03*
%TD*%
D42*
%TO.C,C28*%
X108250000Y-97450000D03*
X108250000Y-89050000D03*
%TD*%
D38*
%TO.C,J8*%
X93000000Y-117500000D03*
D39*
X90460000Y-117500000D03*
%TD*%
D43*
%TO.C,R25*%
X94000000Y-136500000D03*
X92000000Y-136500000D03*
%TD*%
D37*
%TO.C,K2*%
X129250001Y-117300000D03*
X129250001Y-122380000D03*
X129250001Y-124920000D03*
X129250001Y-127460000D03*
X129250001Y-130000000D03*
X137250000Y-130000000D03*
X137250000Y-127460000D03*
X137250000Y-124920000D03*
X137250000Y-122380000D03*
X137250000Y-117300000D03*
%TD*%
D19*
%TO.C,C16*%
X109000000Y-50000000D03*
D44*
X114000000Y-50000000D03*
%TD*%
D40*
%TO.C,Q1*%
X149187500Y-109450000D03*
X149187500Y-107550000D03*
X147312500Y-108500000D03*
%TD*%
D41*
%TO.C,D15*%
X81055300Y-126236600D03*
X81055300Y-123696600D03*
X78515300Y-126236600D03*
X78515300Y-123696600D03*
%TD*%
D35*
%TO.C,R24*%
X145616250Y-68460000D03*
X142691250Y-68460000D03*
%TD*%
D26*
%TO.C,R115*%
X84000000Y-123500000D03*
X86000000Y-123500000D03*
%TD*%
%TO.C,R113*%
X84000000Y-129250000D03*
X86000000Y-129250000D03*
%TD*%
D45*
%TO.C,L4*%
X97750000Y-101000000D03*
X97750000Y-95450000D03*
%TD*%
D35*
%TO.C,R29*%
X145765000Y-54235000D03*
X142840000Y-54235000D03*
%TD*%
D46*
%TO.C,D7*%
X150900000Y-89750000D03*
X147600000Y-89750000D03*
%TD*%
D47*
%TO.C,C29*%
X118050000Y-137000000D03*
X126450000Y-137000000D03*
%TD*%
D48*
%TO.C,Q2*%
X141950000Y-113562500D03*
X140050000Y-113562500D03*
X141000000Y-115437500D03*
%TD*%
D19*
%TO.C,C25*%
X99260000Y-50000000D03*
D44*
X104260000Y-50000000D03*
%TD*%
D23*
%TO.C,C6*%
X97450000Y-105250000D03*
X95550000Y-105250000D03*
%TD*%
D26*
%TO.C,R27*%
X96250000Y-124500000D03*
X98250000Y-124500000D03*
%TD*%
D38*
%TO.C,J15*%
X166875000Y-78475000D03*
D39*
X166875000Y-81015000D03*
%TD*%
D46*
%TO.C,D3*%
X132850000Y-114250000D03*
X136150000Y-114250000D03*
%TD*%
D49*
%TO.C,R11*%
X93750000Y-114712500D03*
X93750000Y-111787500D03*
%TD*%
D50*
%TO.C,R5*%
X110537500Y-137960000D03*
X113462500Y-137960000D03*
%TD*%
D15*
%TO.C,J20*%
X161000000Y-47950000D03*
D16*
X166080000Y-53030000D03*
X166080000Y-42870000D03*
D15*
X161000000Y-45410000D03*
%TD*%
D50*
%TO.C,R16*%
X149727500Y-124000000D03*
X152652500Y-124000000D03*
%TD*%
D49*
%TO.C,R12*%
X99500000Y-117962500D03*
X99500000Y-115037500D03*
%TD*%
D51*
%TO.C,C15*%
X94000000Y-55950000D03*
X94000000Y-54050000D03*
%TD*%
D26*
%TO.C,R32*%
X96250000Y-127750000D03*
X98250000Y-127750000D03*
%TD*%
D52*
%TO.C,D1*%
X142500000Y-101700000D03*
X142500000Y-105000000D03*
%TD*%
D53*
%TO.C,U8*%
X99905000Y-107775000D03*
X98635000Y-107775000D03*
X97365000Y-107775000D03*
X96095000Y-107775000D03*
X96095000Y-112725000D03*
X97365000Y-112725000D03*
X98635000Y-112725000D03*
X99905000Y-112725000D03*
%TD*%
D19*
%TO.C,U6*%
X138250000Y-77750000D03*
D20*
X138250000Y-75210000D03*
X138250000Y-72670000D03*
X138250000Y-70130000D03*
X130630000Y-70130000D03*
X130630000Y-72670000D03*
X130630000Y-75210000D03*
X130630000Y-77750000D03*
%TD*%
D35*
%TO.C,R28*%
X145690000Y-56735000D03*
X142765000Y-56735000D03*
%TD*%
D40*
%TO.C,Q20*%
X93937500Y-131200000D03*
X93937500Y-129300000D03*
X92062500Y-130250000D03*
%TD*%
D23*
%TO.C,C26*%
X108700000Y-138000000D03*
X106800000Y-138000000D03*
%TD*%
D50*
%TO.C,R15*%
X103037500Y-113000000D03*
X105962500Y-113000000D03*
%TD*%
D26*
%TO.C,R114*%
X84000000Y-132250000D03*
X86000000Y-132250000D03*
%TD*%
D54*
%TO.C,Q3*%
X135050000Y-137187500D03*
X136950000Y-137187500D03*
X136000000Y-135312500D03*
%TD*%
D38*
%TO.C,J19*%
X148725000Y-56775000D03*
D39*
X148725000Y-54235000D03*
X151265000Y-56775000D03*
X151265000Y-54235000D03*
%TD*%
D55*
%TO.C,R14*%
X142500000Y-119750000D03*
X142500000Y-122675000D03*
%TD*%
D45*
%TO.C,L3*%
X110000000Y-122250000D03*
X110000000Y-116700000D03*
%TD*%
D49*
%TO.C,R4*%
X107000000Y-135712500D03*
X107000000Y-132787500D03*
%TD*%
D54*
%TO.C,Q4*%
X143050000Y-89687500D03*
X144950000Y-89687500D03*
X144000000Y-87812500D03*
%TD*%
D56*
%TO.C,C12*%
X117975000Y-52000000D03*
X121100000Y-52000000D03*
%TD*%
D26*
%TO.C,R21*%
X135000000Y-139250000D03*
X137000000Y-139250000D03*
%TD*%
D57*
%TO.C,C11*%
X107475000Y-66497500D03*
X107475000Y-63372500D03*
%TD*%
D38*
%TO.C,J17*%
X148653750Y-70960000D03*
D39*
X148653750Y-68420000D03*
X151193750Y-70960000D03*
X151193750Y-68420000D03*
%TD*%
D58*
%TO.C,F1*%
X101250000Y-123000000D03*
X104225000Y-123000000D03*
%TD*%
D40*
%TO.C,Q22*%
X93937500Y-124200000D03*
X93937500Y-122300000D03*
X92062500Y-123250000D03*
%TD*%
D46*
%TO.C,D2*%
X132100000Y-133000000D03*
X135400000Y-133000000D03*
%TD*%
D56*
%TO.C,C13*%
X151690000Y-130000000D03*
X154815000Y-130000000D03*
%TD*%
D49*
%TO.C,R13*%
X93750000Y-110000000D03*
X93750000Y-107075000D03*
%TD*%
D53*
%TO.C,U5*%
X113405000Y-129525000D03*
X112135000Y-129525000D03*
X110865000Y-129525000D03*
X109595000Y-129525000D03*
X109595000Y-134475000D03*
X110865000Y-134475000D03*
X112135000Y-134475000D03*
X113405000Y-134475000D03*
%TD*%
D59*
%TO.C,C2*%
X143500000Y-111000000D03*
X140375000Y-111000000D03*
%TD*%
D38*
%TO.C,J21*%
X131500000Y-60500000D03*
D39*
X131500000Y-63040000D03*
X128960000Y-60500000D03*
X128960000Y-63040000D03*
%TD*%
D50*
%TO.C,R26*%
X133287500Y-80750000D03*
X136212500Y-80750000D03*
%TD*%
D49*
%TO.C,R6*%
X107000000Y-130675000D03*
X107000000Y-127750000D03*
%TD*%
D40*
%TO.C,Q23*%
X93937500Y-127700000D03*
X93937500Y-125800000D03*
X92062500Y-126750000D03*
%TD*%
D50*
%TO.C,R31*%
X134537500Y-63500000D03*
X137462500Y-63500000D03*
%TD*%
D38*
%TO.C,J3*%
X102500000Y-131000000D03*
D39*
X102500000Y-128460000D03*
%TD*%
D23*
%TO.C,C4*%
X111200000Y-127000000D03*
X109300000Y-127000000D03*
%TD*%
D60*
%TO.C,D6*%
X115500000Y-102250000D03*
X119500000Y-102250000D03*
%TD*%
D26*
%TO.C,R17*%
X151250000Y-109500000D03*
X153250000Y-109500000D03*
%TD*%
M02*
